<svg xmlns="http://www.w3.org/2000/svg" width="1024" height="1024" viewBox="0 0 1024 1024"><path fill="#e3e2e2" d="M126.425 511.367c.226-21.83-.8-41.882-1.649-63.664a5607 5607 0 0 0-3.529-84.222l-5.421-140.478c-.383-9.004-.954-18.344-1.364-27.46-.359-7.994-4.222-19.583-1.667-27.991 2.571-8.463-.454-21.453-.965-30.382-.225-3.925-.167-7.734-.171-12.481-.006-7.882-2.84-23.178.861-29.977.618-1.136 9.707-1.267 11.475-1.217 26.425.748 53.064 3.077 79.404 4.45l165.561 7.977c3.428.16 2.28-2.047 7.334-1.751 4.622.271 10.739 2.128 14.986 2.257 15.208.46 30.516 1.423 45.67 2.028 21.775.871 43.962 3.126 65.64 3.011 3.342 2.642 4.991 3.768 5.392 8.241.621 6.928.855 13.911 1.136 20.863l1.492 40.551 5.408 138.284c-4.386 3.748-7.805 5.709-11.772 10.211-13.799 15.661 11.453 28.021 12.216 37.386l-.618 1c-2.099.258-2.017-.176-4.229-1.294l-2.43.217c5.877 4.04 10.913 8.119 15.86 13.29l1.075-.415c14.107 19.176 20.206 44.857 30.059 66.45 2.221 4.867 5.06 12.173 7.859 16.537 5.029-5.531 9.825-11.743 14.411-17.666.067-8.541-.617-19.926 4.03-27.484 2.702-4.395 4.666-7.174 6.876-12.056 1.69-3.733 4.543-15.149 9.676-13.772 9.465 2.54.267 17.166 2.996 21.523 8.492 2.294 24.511-30.099 33.456-29.124.611.397 1.109.657 1.627 1.149.447 2.037.41 3.569 1.685 4.854 1.43.12 1.93-.213 3.292-.709l-.733 1.331.601.169c1.923.724 1.878.623 3.071 2.247.627 4.035-2.624 5.787-5.587 7.857l.646.452c-.934 2.744-1.634 4.583-2.81 7.241 1.371 1.352 3.597 3.414 4.7 4.876l-.89.606c-.313 5.796-.408 7.832-2.46 13.194l-.023 1.241 1.855.867-.358.507c-4.265 6.123-5.818 10.507-11.079 16.492-4.87 5.542-17.744 11.171-19.438 16.736l-.459.011c.12 22.76-20.609 82.143-50.115 83.196-2.248.08-5.687-.584-7.868-1.132l-.602.692c-10.972-5.815-19.87-16.041-26.553-26.323.079 6.832 1.794 30.205 5.567 35.021 2.793 1.08 6.014.579 9.161.789-2.185.471-7.909.786-9.981.132l-.794-1.691-.527.352-1.899 1.094c-1.378-.655-1.67-.944-2.869-1.852-.956-2.108-.377-4.279-.168-6.752-3.275 6.134-6.035 3.033-11.964 8.337.497.761.586 1.295 1.788 1.299 5.359.016 10.808-.021 16.147.198-16.843.818-35.524-.289-52.53.13-6.2.153-13.528-.291-19.606.257l.135.433q-5.235.116-10.47.083c.075 6.822.531 13.63.593 20.3 2.246.052 4.842.044 7.052.178-3.606.668-15.235.006-19.383-.141a1456 1456 0 0 0-25.679-.66c-30.903-.548-62.043-.206-93.063-.653l-40.6-.585c-6.723-.033-15.56-.268-22.116.361 1.304.089 2.451.19 3.765.15l.369.416-.837.974c-6.348.908-13.967.597-14.464-7.909-.801-13.73 5.242-14.036 16.369-14.475 18.865-.743 38.36 1.059 57.114-.086-17.5-11.45-17.928-20.962-18.18-40.928-9.309-1.081-24.378.73-34.161.711-11.002-.021-22.799.849-33.827 1.415-4.612.237-9.799-.104-14.305.216-3.865.412-7.626 2.225-11.503 2.473-20.209 1.294-40.501.181-60.725.717-3.699.098-7.409 1.203-11.072.719-1.946-3.014-2.835-6.323-4.897-9.419"/><path fill="#d08336" d="M419.247 317.587c.647-4.273-.791-14.279 1.849-17.156l.934.031c2.263 2.258 1.803 4.527 1.919 7.916 5.21 15.042 13.766 23.367 28.056 30.687 6.938 3.554 11.565 4.159 18.644 6.217l1.375.458c10.88 7.401 27.366 10.848 39.591 20.969l-2.43.217c5.877 4.04 10.913 8.119 15.86 13.29l1.075-.415c14.107 19.176 20.206 44.857 30.059 66.45 2.221 4.867 5.06 12.173 7.859 16.537 5.029-5.531 9.825-11.743 14.411-17.666.067-8.541-.617-19.926 4.03-27.484 2.702-4.395 4.666-7.174 6.876-12.056 1.69-3.733 4.543-15.149 9.676-13.772 9.465 2.54.267 17.166 2.996 21.523 8.492 2.294 24.511-30.099 33.456-29.124.611.397 1.109.657 1.627 1.149.447 2.037.41 3.569 1.685 4.854 1.43.12 1.93-.213 3.292-.709l-.733 1.331.601.169c1.923.724 1.878.623 3.071 2.247.627 4.035-2.624 5.787-5.587 7.857l.646.452c-.934 2.744-1.634 4.583-2.81 7.241 1.371 1.352 3.597 3.414 4.7 4.876l-.89.606c-.313 5.796-.408 7.832-2.46 13.194l-.023 1.241 1.855.867-.358.507c-4.265 6.123-5.818 10.507-11.079 16.492-4.87 5.542-17.744 11.171-19.438 16.736l-.459.011c.12 22.76-20.609 82.143-50.115 83.196-2.248.08-5.687-.584-7.868-1.132l-.602.692c-10.972-5.815-19.87-16.041-26.553-26.323.079 6.832 1.794 30.205 5.567 35.021 2.793 1.08 6.014.579 9.161.789-2.185.471-7.909.786-9.981.132l-.794-1.691-.527.352-1.899 1.094c-1.378-.655-1.67-.944-2.869-1.852-.956-2.108-.377-4.279-.168-6.752-3.275 6.134-6.035 3.033-11.964 8.337.497.761.586 1.295 1.788 1.299 5.359.016 10.808-.021 16.147.198-16.843.818-35.524-.289-52.53.13-6.2.153-13.528-.291-19.606.257l.135.433q-5.235.116-10.47.083c.075 6.822.531 13.63.593 20.3 2.246.052 4.842.044 7.052.178-3.606.668-15.235.006-19.383-.141a1456 1456 0 0 0-25.679-.66c-30.903-.548-62.043-.206-93.063-.653l-40.6-.585c-6.723-.033-15.56-.268-22.116.361 1.304.089 2.451.19 3.765.15l.369.416-.837.974c-6.348.908-13.967.597-14.464-7.909-.801-13.73 5.242-14.036 16.369-14.475 18.865-.743 38.36 1.059 57.114-.086-17.5-11.45-17.928-20.962-18.18-40.928 1.636-25.206 10.285-52.82 16.947-77.098 5.77-21.025 11.622-43.601 24.73-61.319.705-.548 3.066-2.996 3.832-3.753 11.745-9.64 19.177-13.004 32.679-19.52l2.633-1.405c10.223-5.178 22.054-11.043 32.798-14.771 5.063-1.807 6.896-17.875 7.208-22.567.766 1.353 1.208 1.936 1.505 3.485"/><path fill="#020203" d="M377.736 351.44c10.223-5.178 22.054-11.043 32.798-14.771l.462 1.984c5.72 11.426 3.897 8.514 13.16 17.403-.306 2.584-.092 3.664 1.711 5.614 10.183 11.012 32.042 15.168 44.015 4.793 1.467-1.271 3.245-3.623 4.997-3.995 2.78 4.064-5.215 9.773-8.079 11.339-13.164 7.198-28.875 3.107-40.536-5.093-4.38-3.08-8.375-7.178-12.714-10.127-22.026-.325-35.059 11.506-52.903 19.48l-5.255 9.457c-13.626 8.487-27.62 74.949-27.36 91.419-.135 5.82.083 6.167 4.939 9.713-4.101 2.444-6.555 3.662-10.108 6.939-.655 2.724-1.455 5.323-1.244 8.116 13.66-6.219 27.332-10.599 41.549-3.086 5.146-2.019 6.749-12.483 8.001-17.587 4.173-17.013 9.278-33.902 11.879-51.244.44-2.937.781-6.242 1.722-9.042l.679-.144.469.778c7.994 10.195-1.73 28.394-.959 40.024.382 5.762 2.898 10.559 4.341 16.059.895 3.897.978 11.795 1.145 16.122 12.973 15.831 27.619 9.666 38.177 21.172 7.986 1.785 9.346 1.772 16.44 5.839 16.686-5.623 35.68-14.093 51.957-5.219 8.755 4.773 18.066 10.539 23.271 19.197-1.804 5.385-1.192 5.755 2.185 10.276-3.275 6.134-6.035 3.033-11.964 8.337.497.761.586 1.295 1.788 1.299 5.359.016 10.808-.021 16.147.198-16.843.818-35.524-.289-52.53.13-6.2.153-13.528-.291-19.606.257l.135.433q-5.235.116-10.47.083c.075 6.822.531 13.63.593 20.3 2.246.052 4.842.044 7.052.178-3.606.668-15.235.006-19.383-.141a1456 1456 0 0 0-25.679-.66c-30.903-.548-62.043-.206-93.063-.653l-40.6-.585c-6.723-.033-15.56-.268-22.116.361 1.304.089 2.451.19 3.765.15l.369.416-.837.974c-6.348.908-13.967.597-14.464-7.909-.801-13.73 5.242-14.036 16.369-14.475 18.865-.743 38.36 1.059 57.114-.086-17.5-11.45-17.928-20.962-18.18-40.928 1.636-25.206 10.285-52.82 16.947-77.098 5.77-21.025 11.622-43.601 24.73-61.319.705-.548 3.066-2.996 3.832-3.753 11.745-9.64 19.177-13.004 32.679-19.52z"/><path fill="#8e5420" d="M410.996 338.653c5.72 11.426 3.897 8.514 13.16 17.403-.306 2.584-.092 3.664 1.711 5.614 10.183 11.012 32.042 15.168 44.015 4.793 1.467-1.271 3.245-3.623 4.997-3.995 2.78 4.064-5.215 9.773-8.079 11.339-13.164 7.198-28.875 3.107-40.536-5.093-4.38-3.08-8.375-7.178-12.714-10.127-22.026-.325-35.059 11.506-52.903 19.48l-5.255 9.457c-13.626 8.487-27.62 74.949-27.36 91.419-.135 5.82.083 6.167 4.939 9.713-4.101 2.444-6.555 3.662-10.108 6.939-.655 2.724-1.455 5.323-1.244 8.116-1.824 1.994-1.997 4.549-.718 6.909l.756.363c.927 2.661 1.307 6.522 1.838 7.853.679 2.098 1.303 1.601 2.781 3.315l1.265.217c1.393 2.859 2.923 4.478 5.266 6.621 16.802-.068 13.262.939 26.917 7.348 11.102 5.212 35.043 5.582 45.859-1.861 1.644 1.244 3.678 2.876 5.367 3.979 5.254 1.373 11.032 1.904 16.45 2.158 4.161 2.248 1.3 2.335 2.821 4.763.299 4.641.772 6.118 2.803 10.1-21.608-.567-43.225-.7-64.838-.401-19.091.211-56.584 6.519-65.636-15.737-2.745-6.748-4.278-19.98-3.345-27.178 5.183-40.011 17.376-80.688 31.626-118.342 2.843-6.527 7.254-15.136 12.801-19.819 18.144-15.321 45.763-26.567 67.364-35.346"/><path fill="#ac6827" d="M308.073 510.304a30.24 30.24 0 0 1 14.79-14.709c-.655 2.724-1.455 5.323-1.244 8.116-1.824 1.994-1.997 4.549-.718 6.909l.756.363c.927 2.661 1.307 6.522 1.838 7.853.679 2.098 1.303 1.601 2.781 3.315l1.265.217c1.393 2.859 2.923 4.478 5.266 6.621 16.802-.068 13.262.939 26.917 7.348 11.102 5.212 35.043 5.582 45.859-1.861 1.644 1.244 3.678 2.876 5.367 3.979-2.558 2.587-3.62 3.9-5.805 6.83a222 222 0 0 1-25.533.234c-6.216-.356-12.375-1.018-18.513-2.139-24.78-4.529-47.519-2.176-53.026-33.076"/><path fill="#957964" d="M252.779 576.393c-3.272.016-3.871.278-6.472-1.88-5.762-4.78-3.051-16.885 4.916-17.077 7.595-.183 15.381-.013 23.081.019l40.115-.068q70.946.238 141.891-.31l.135.433q-5.235.116-10.47.083c.075 6.822.531 13.63.593 20.3 2.246.052 4.842.044 7.052.178-3.606.668-15.235.006-19.383-.141a1456 1456 0 0 0-25.679-.66c-30.903-.548-62.043-.206-93.063-.653l-40.6-.585c-6.723-.033-15.56-.268-22.116.361"/><path fill="#d08336" d="M327.541 522.368c27.445-22.328 32.671-23.602 65.911-12.569 13.458 4.467 34.527 9.442 48.417 12.403-2.718 1.058-4.091 1.52-6.454 3.413-5.294 3.484-6.543 9.131-8.015 14.998-5.418-.254-11.196-.785-16.45-2.158-1.689-1.103-3.723-2.735-5.367-3.979-10.816 7.443-34.757 7.073-45.859 1.861-13.655-6.409-10.115-7.416-26.917-7.348-2.343-2.143-3.873-3.762-5.266-6.621"/><path fill="#8e5420" d="M385.918 423.386c7.994 10.195-1.73 28.394-.959 40.024.382 5.762 2.898 10.559 4.341 16.059.895 3.897.978 11.795 1.145 16.122 12.973 15.831 27.619 9.666 38.177 21.172-3.732-.225-9.764-2.725-13.838-3.717-16.024-3.9-31.643-8.556-47.673-12.537 8.74-19.111 15.939-56.415 18.807-77.123"/><path fill="#8e5420" d="M321.619 503.711c13.66-6.219 27.332-10.599 41.549-3.086-15.542 3.902-19.147 6.149-32.054 16.559-1.587 1.378-4.005 3.167-4.838 4.967-1.478-1.714-2.102-1.217-2.781-3.315-.531-1.331-.911-5.192-1.838-7.853l-.756-.363c-1.279-2.36-1.106-4.915.718-6.909"/><path fill="#d08336" d="M321.657 510.983c9.189-7.968 14.91-9.396 27.135-9.584l-.458.254c-8.094 4.41-11.545 4.389-18.643 11.384.257 2.209.209 2.365 1.423 4.147-1.587 1.378-4.005 3.167-4.838 4.967-1.478-1.714-2.102-1.217-2.781-3.315-.531-1.331-.911-5.192-1.838-7.853"/><path fill="#8e5420" d="M323.495 518.836c2.365-2.51 3.441-3.711 6.196-5.799.257 2.209.209 2.365 1.423 4.147-1.587 1.378-4.005 3.167-4.838 4.967-1.478-1.714-2.102-1.217-2.781-3.315"/><path fill="#8e5420" d="M427.4 540.613c1.472-5.867 2.721-11.514 8.015-14.998-2.423 6.232-4.582 10.661-5.023 17.375l-.171 2.386c-1.521-2.428 1.34-2.515-2.821-4.763"/><path fill="#e1ae95" d="M437.559 527.453c12.383-4.867 31.073-10.542 44.192-11.751 8.27-.763 35.554 12.24 35.512 21.499l-.664.659c-1.703-.435-4.901-2.852-6.583-3.948-9.039-5.891-15.44-10.906-26.221-12.734 5.32 4.839 40.862 18.934 34.618 27.53-6.406 2.725-29.665-22.165-38.569-18.37 1.513 2.941 30.621 13.491 30.607 20.93-.795 1.264-1.517 1.848-3.146 1.992-3.305-.386-7.349-2.916-10.251-4.691-7.192-4.399-14.437-7.781-22.132-11.204l-1.531-.076-.346.77c4.409 5.14 27.021 9.074 25.348 17.349-10.906 1.798-20.593-7.543-28.472-6.03-16.881 3.243-20.234 8.424-37.905-1.008-.13-6.91.249-10.306 2.927-16.687.823-1.353 1.738-2.941 2.616-4.23"/><path fill="#bc8071" d="M434.943 531.683c.727 3.467.984 5.91 3.404 8.598 3.898.356 10.784 1.3 14.12 3.249 16.014-.131 32.302 2.829 45.926 11.878-10.906 1.798-20.593-7.543-28.472-6.03-16.881 3.243-20.234 8.424-37.905-1.008-.13-6.91.249-10.306 2.927-16.687"/><path fill="#d49d89" d="M438.347 540.281c3.898.356 10.784 1.3 14.12 3.249-5.227.67-10.517.973-14.12-3.249"/><path fill="#bc8071" d="M474.922 537.365c8.298-1.414 27.637 9.349 32.383 15.895-3.305-.386-7.349-2.916-10.251-4.691-7.192-4.399-14.437-7.781-22.132-11.204"/><path fill="#ac6827" d="M468.417 550.508c6.402-.21 13.001 2.621 18.921 4.879l-12.463.326c-6.133.121-12.375-.129-18.514-.294z"/><path fill="#8e5420" d="m525.045 380.216 1.075-.415c14.107 19.176 20.206 44.857 30.059 66.45 2.221 4.867 5.06 12.173 7.859 16.537 5.029-5.531 9.825-11.743 14.411-17.666.067-8.541-.617-19.926 4.03-27.484 2.702-4.395 4.666-7.174 6.876-12.056 1.69-3.733 4.543-15.149 9.676-13.772 9.465 2.54.267 17.166 2.996 21.523 8.492 2.294 24.511-30.099 33.456-29.124.611.397 1.109.657 1.627 1.149.447 2.037.41 3.569 1.685 4.854 1.43.12 1.93-.213 3.292-.709l-.733 1.331.601.169c1.923.724 1.878.623 3.071 2.247.627 4.035-2.624 5.787-5.587 7.857l.646.452c-.934 2.744-1.634 4.583-2.81 7.241 1.371 1.352 3.597 3.414 4.7 4.876l-.89.606c-.313 5.796-.408 7.832-2.46 13.194l-.023 1.241 1.855.867-.358.507c-4.265 6.123-5.818 10.507-11.079 16.492-4.87 5.542-17.744 11.171-19.438 16.736l-.459.011c.12 22.76-20.609 82.143-50.115 83.196-2.248.08-5.687-.584-7.868-1.132-7.106-4.166-16.729-12.938-21.57-19.544a47 47 0 0 1-8.343-19.564c-2.907-15.702.084-38.476.797-54.829.218-5.019.685-16.633 1.391-21.034 1.439 2.496 1.803 3.927 2.693 6.634 6.233 14.894 10.854 28.184 13.287 44.219.4 2.637.959 6.66 2.318 8.882 1.482-3.372 4-6.901 6.07-10.017 2.34-3.219 5.42-5.728 9.18-7.074 2.002-1.603 4.806-7.148 6.101-9.539-13.733-25.869-23.246-61.79-38.019-83.312"/><path fill="#bc8071" d="m525.045 380.216 1.075-.415c14.107 19.176 20.206 44.857 30.059 66.45 2.221 4.867 5.06 12.173 7.859 16.537 5.029-5.531 9.825-11.743 14.411-17.666.067-8.541-.617-19.926 4.03-27.484 2.702-4.395 4.666-7.174 6.876-12.056 1.69-3.733 4.543-15.149 9.676-13.772 9.465 2.54.267 17.166 2.996 21.523 8.492 2.294 24.511-30.099 33.456-29.124.611.397 1.109.657 1.627 1.149.447 2.037.41 3.569 1.685 4.854 1.43.12 1.93-.213 3.292-.709l-.733 1.331.601.169c1.923.724 1.878.623 3.071 2.247.627 4.035-2.624 5.787-5.587 7.857l.646.452c-.934 2.744-1.634 4.583-2.81 7.241 1.371 1.352 3.597 3.414 4.7 4.876l-.89.606c-.313 5.796-.408 7.832-2.46 13.194l-.023 1.241 1.855.867-.358.507c-4.265 6.123-5.818 10.507-11.079 16.492-4.87 5.542-17.744 11.171-19.438 16.736l-.459.011c-1.396-.074-6.722 2.687-8.844 3.142-5.1 1.092-8.854-.842-13.118-3.038-3.237-3.128-5.13-4.865-7.285-8.965-1.619 4.317-3.394 6.178-5.157 9.861l1.14 5.163c-6.871 6.825-15.073 11.238-20.695 18.768-1.615 2.163-3.482 6.713-6.057 7.152l-.944-.347c-1.451 4.683-1.867 8.246-2.258 13.102-3.278-4.904 2.739-18.956 4.713-24.216-.956-1.094-1.968-2.601-2.835-3.811 2.34-3.219 5.42-5.728 9.18-7.074 2.002-1.603 4.806-7.148 6.101-9.539-13.733-25.869-23.246-61.79-38.019-83.312"/><path fill="#e1ae95" d="M637.11 385.358c.447 2.037.41 3.569 1.685 4.854 1.43.12 1.93-.213 3.292-.709l-.733 1.331.601.169c1.923.724 1.878.623 3.071 2.247.627 4.035-2.624 5.787-5.587 7.857l.646.452c-.934 2.744-1.634 4.583-2.81 7.241 1.371 1.352 3.597 3.414 4.7 4.876l-.89.606c-.313 5.796-.408 7.832-2.46 13.194-1.523.672-4.4 1.979-4.222 4.015-4.099 7.923-30.343 28.463-38.479 24.892-1.331-1.299-1.887-2.038-2.053-3.962-.892-10.331 13.443-12.546 20.712-13.267-.453-12.225-1.928-14.528-9.601-23.815 5.286-3.395 9.931-8.473 14.078-13.14 4.404-4.956 8.759-13.162 14.796-15.814 2.996.928 1.614 5.023 1.129 7.448l.356.169c1.078-2.123 1.377-6.091 1.769-8.644"/><path fill="#020203" d="m636.257 404.64 3.182-3.533.646.452c-.934 2.744-1.634 4.583-2.81 7.241 1.371 1.352 3.597 3.414 4.7 4.876l-.89.606c-.313 5.796-.408 7.832-2.46 13.194-1.523.672-4.4 1.979-4.222 4.015l-3.605-.904c-1.07 1.462-1.721 2.75-3.348 3.408-.718-1.78 3.426-11.238 4.386-14.602l1.754-5.052-1.801.039.427-4.037c1.049-2.548 2.111-3.82 4.041-5.703"/><path fill="#d49d89" d="M630.798 430.587c1.592-5.194 2.593-14.209 6.996-16.986 1.653-.299 1.776-.053 3.291.681-.313 5.796-.408 7.832-2.46 13.194-1.523.672-4.4 1.979-4.222 4.015z"/><path fill="#bc8071" d="M636.257 404.64c-.568 4.2-.691 5.845-2.667 9.701l-1.801.039.427-4.037c1.049-2.548 2.111-3.82 4.041-5.703"/><path fill="#122b2f" d="M637.11 385.358c.447 2.037.41 3.569 1.685 4.854 1.43.12 1.93-.213 3.292-.709l-.733 1.331.601.169c-1.45 1.952-3.818 3.892-5.732 6.147-7.642 9.009-10.993 15.355-21.133 22 6.857-7.757 13.828-15.316 19.085-24.295.438-.748.247-.503.81-1.022l.356.169c1.078-2.123 1.377-6.091 1.769-8.644"/><path fill="#d49d89" d="M623.334 424.581c-.497-5.002 5.607-10.566 8.882-14.238l-.427 4.037 1.801-.039-1.754 5.052c-3.402-.949-4.527 4.634-8.502 5.188"/><path fill="#875a51" d="m633.59 414.341-1.754 5.052c-3.402-.949-4.527 4.634-8.502 5.188 3.134-3.502 5.564-6.512 8.455-10.201z"/><path fill="#020203" d="m525.045 380.216 1.075-.415c14.107 19.176 20.206 44.857 30.059 66.45 2.221 4.867 5.06 12.173 7.859 16.537 5.029-5.531 9.825-11.743 14.411-17.666.067-8.541-.617-19.926 4.03-27.484 2.702-4.395 4.666-7.174 6.876-12.056 1.69-3.733 4.543-15.149 9.676-13.772 9.465 2.54.267 17.166 2.996 21.523 8.492 2.294 24.511-30.099 33.456-29.124.611.397 1.109.657 1.627 1.149-.392 2.553-.691 6.521-1.769 8.644l-.356-.169c.485-2.425 1.867-6.52-1.129-7.448-6.037 2.652-10.392 10.858-14.796 15.814-4.147 4.667-8.792 9.745-14.078 13.14-2.836 1.045-3.727 1.334-6.722 1.908.66-5.093 7.453-21.956.635-23.318-4.2 2.049-7.158 10.798-8.997 15.265-8.983 13.856-12.454 22.381-9.252 39.565 1.848 9.918 9.589 18.863 20.486 16.079a15.7 15.7 0 0 0 4.55-1.915c3.73-2.35 6.777-5.763 10.209-8.298 10.258-7.575 18.015-13.77 22.711-25.908l1.855.867-.358.507c-4.265 6.123-5.818 10.507-11.079 16.492-4.87 5.542-17.744 11.171-19.438 16.736l-.459.011c-1.396-.074-6.722 2.687-8.844 3.142-5.1 1.092-8.854-.842-13.118-3.038-3.237-3.128-5.13-4.865-7.285-8.965-1.619 4.317-3.394 6.178-5.157 9.861l1.14 5.163c-6.871 6.825-15.073 11.238-20.695 18.768-1.615 2.163-3.482 6.713-6.057 7.152l-.944-.347c-1.451 4.683-1.867 8.246-2.258 13.102-3.278-4.904 2.739-18.956 4.713-24.216-.956-1.094-1.968-2.601-2.835-3.811 2.34-3.219 5.42-5.728 9.18-7.074 2.002-1.603 4.806-7.148 6.101-9.539-13.733-25.869-23.246-61.79-38.019-83.312"/><path fill="#d08336" d="m578.145 448.431 1.731 6.038c-1.619 4.317-3.394 6.178-5.157 9.861l1.14 5.163c-6.871 6.825-15.073 11.238-20.695 18.768-1.615 2.163-3.482 6.713-6.057 7.152l-.944-.347c3.429-13.162 21.316-35.79 29.982-46.635"/><path fill="#8e5420" d="M547.783 480.141c2.34-3.219 5.42-5.728 9.18-7.074-1.959 3.816-4.616 7.428-6.345 10.885-.956-1.094-1.968-2.601-2.835-3.811"/><path fill="#e1ae95" d="M589.898 409.194c1.839-4.467 4.797-13.216 8.997-15.265 6.818 1.362.025 18.225-.635 23.318.299 3.901 2.775 6.998 2.719 12.435-.055 5.368-4.465 15.474-10.476 15.371-8.126-5.226 1.598-31.313-.2-35.082-.126-.264-.27-.518-.405-.777"/><path fill="#ac6827" d="M579.876 454.469c2.155 4.1 4.048 5.837 7.285 8.965l-.054.688c-.569 6.612-4.516 11.283-2.663 14.943 2.944 2.2 9.711 3.274 13.601 4.12-6.295 2.195-8.339 2.893-14.861 3.429-5.415 9.716-15.363 30.151-26.326 34.72-6.451 2.689-11.194-6.835-10.953-13.166.391-4.856.807-8.419 2.258-13.102l.944.347c2.575-.439 4.442-4.989 6.057-7.152 5.622-7.53 13.824-11.943 20.695-18.768l-1.14-5.163c1.763-3.683 3.538-5.544 5.157-9.861"/><path fill="#ac6827" d="M526.108 437.057c6.233 14.894 10.854 28.184 13.287 44.219.4 2.637.959 6.66 2.318 8.882-1.393 4.013-2.71 7.412-4.341 11.336-2.767-8.75-3.776-17.815-7.216-26.541-4.456-11.307-7.03-25.82-4.048-37.896"/><path fill="#bc8071" d="M419.247 317.587c.647-4.273-.791-14.279 1.849-17.156l.934.031c2.263 2.258 1.803 4.527 1.919 7.916 5.21 15.042 13.766 23.367 28.056 30.687 6.938 3.554 11.565 4.159 18.644 6.217l-.383 2.586-.593-.817-1.52-.236c-19.802 16.061-36.69 3.786-42.123 7.767-6.379-4.134-9.352-8.443-13.109-14.8 3.15-8.756 4.753-12.935 6.326-22.195"/><path fill="#957964" d="M423.949 308.378c5.21 15.042 13.766 23.367 28.056 30.687 6.938 3.554 11.565 4.159 18.644 6.217l-.383 2.586-.593-.817-1.52-.236c-5.79-1.037-12.008.388-17.975-1.792-10.382-3.792-30.509-25.074-26.229-36.645"/><path fill="#ac6827" d="M328.032 478.943c-.26-16.47 13.734-82.932 27.36-91.419-2.902 7.707-6.519 14.483-9.666 21.883-4.472 10.516-6.189 26.789-6.043 38.396.111 8.892 2.198 15.821 1.761 25.62-4.007 1.806-10.348 3.72-13.412 5.52"/><path fill="#e1ae95" d="m468.153 346.815 1.52.236.593.817c-.636 4.772-.959 11.416-5.214 14.365-10.389 7.201-30.444-1.22-39.022-7.651 5.433-3.981 22.321 8.294 42.123-7.767"/><path fill="#020203" d="M417.742 314.102c.766 1.353 1.208 1.936 1.505 3.485-1.573 9.26-3.176 13.439-6.326 22.195 3.757 6.357 6.73 10.666 13.109 14.8 8.578 6.431 28.633 14.852 39.022 7.651 4.255-2.949 4.578-9.593 5.214-14.365l.383-2.586 1.375.458c10.88 7.401 27.366 10.848 39.591 20.969l-2.43.217c-11.585-6.79-25.038-13.638-37.607-18.24-.712 30.377-32.03 16.185-47.422 7.37-9.263-8.889-7.44-5.977-13.16-17.403l-.462-1.984c5.063-1.807 6.896-17.875 7.208-22.567"/><path fill="#020203" d="M527.411 554.366c-4.45-10.938-4.475-25.869-5.135-37.466-.242-4.243-3.884-11.459-4.014-15.629-.589-18.924 1.838-38.293 2.971-57.19.612-10.217.135-20.757 1.744-30.679.854 5.263.566 11.625.438 17.021-.706 4.401-1.173 16.015-1.391 21.034-.713 16.353-3.704 39.127-.797 54.829a47 47 0 0 0 8.343 19.564c4.841 6.606 14.464 15.378 21.57 19.544l-.602.692c-10.972-5.815-19.87-16.041-26.553-26.323.079 6.832 1.794 30.205 5.567 35.021 2.793 1.08 6.014.579 9.161.789-2.185.471-7.909.786-9.981.132l-.794-1.691z"/><path fill="#e3e2e2" d="M342.424 372.365q-.64.081-1.283.146c-8.431.839-20.604.503-29.34.543l-40.802.523-36.411.399c-3.542.042-8.274.014-11.596.124-19.738.65-24.889-3.969-24.497-23.655.271-13.599-2.153-29.508-.78-43.416.265-2.683 1.356-6.051 3.244-8.081 3.862-4.347 8.855-4.614 14.249-4.818 11.26-.396 22.619.016 33.883.196q20.45.264 40.901.179l36.51-.059c9.995-.09 19.647-.638 29.649.506 9.545 1.091 14.947 3.022 16.848 13.438 1.308 7.167 1.083 14.19 1.258 21.438q.334 11.511.846 23.017c-13.502 6.516-20.934 9.88-32.679 19.52"/><path fill="#d08336" d="M234.94 339.234c29.449-1.297 59.904.518 89.458-.294 3.365-.092 12.051-.254 14.863 1.561l-.364.825c-4.011 2.928-13.951 2.2-19.147 2.165l-62.207.109c-12.083.098-27.678.853-40.05-.245-1.104-.098-1.568-.919-2.053-1.709l.62-.856c4.39-1.747 13.831-1.463 18.88-1.556"/><path fill="#d08336" d="M232.149 325.77c27.611-.915 55.685.365 83.352-.426 1.546-.044 3.437.784 3.638 2.47-2.683 2.433-15.181 2.163-19.264 2.252l-52.822-.013c-5.336.005-29.934 1.228-32.82-1.856l.164-.834c3.007-1.884 13.698-1.51 17.752-1.593"/><path fill="#d08336" d="M300.816 311.25c8.558-.347 52.152-1.535 56.961 1.897l.007.831c-2.464 2.234-3.824 2.018-7.159 2.012-8.113.104-53.705 1.128-57.995-2.09l-.012-.794c2.256-2.315 5.135-1.819 8.198-1.856"/><path fill="#d08336" d="M213.122 311.543q20.245-.176 40.492-.123c5.003-.001 20.495-.4 24.59.772 1.375 1.463.947.939 1.276 3.307-14.547.465-29.103.623-43.657.475-5.017-.042-16.347.04-20.978-.949-1.54-1.334-1.081-1.107-1.723-3.482"/><path fill="#d08336" d="M226.148 353.26c7.018-.187 46.806-1.441 50.216 1.721l-.579 1.005c-3.292 2.16-6.111 1.611-10.16 1.602-7.9-.098-47.18 1.95-50.099-1.611l.308-1.203c2.397-2.142 6.977-1.541 10.314-1.514"/><defs><linearGradient id="a" x1="409.104" x2="512.956" y1="292.474" y2="255.239" gradientUnits="userSpaceOnUse"><stop offset="0" stop-color="#122126"/><stop offset="1" stop-color="#243f43"/></linearGradient></defs><path fill="url(#a)" d="M413.006 228.043c11.518-27.92 37.682-24.076 62.558-19.153 17.143 3.393 32.274 3.205 24.252 26.288 4.233 15.183-1.356 16.482-.828 28.156-.647 2.044-.983 4.134-1.531 5.857-2.076-.62-3.722-.647-5.87-.817 1.257 2.562 2.415 3.213 3.054 5.928-.458 1.062-.177.66-.717 1.286 1.177.557 1.82.972 3.085 1.243-.198 6.306.823 12 .319 18.048l1.225 1.062c-.11 13.088-2.443 34.376-12.412 44.318-3.612 3.602-9.202 4.412-14.117 5.481l-1.375-.458c-7.079-2.058-11.706-2.663-18.644-6.217-14.29-7.32-22.846-15.645-28.056-30.687-.116-3.389.344-5.658-1.919-7.916l-.934-.031c-2.64 2.877-1.202 12.883-1.849 17.156-.297-1.549-.739-2.132-1.505-3.485 1.2-16.114-8.806-16.802-12.075-30.842-.608-2.61.702-9.097.5-12.204-.965-14.903-9.46-33.432 6.839-43.013"/><path fill="#e1ae95" d="M445.531 238.347c14.297.181 29.048 6.564 41.255 1.39 2.739 9.133 3.688 13.961 5.049 23.407-2.934.266-6.656.168-8.605 2.369l-.181 1.521c-7.229 12.029.394 17.524 1.638 29.337-5.094 1.234-8.242-.603-13.319.537-.703.621-.249.398-1.467.389-1-1.256-1.034-3.171-1.255-4.843-1.713 3.789-1.763 4.862.914 8.154q-5.085 1.404-10.219 2.623l-3.94 3.35-4.43 3.51c-.68-2.701-.669-4.623-1.751-7.514-2.885-7.703-10.778-9.757-12.706-17.239-2.92-11.332 6.854-14.868 8.84-23.841 1.302-5.883.349-16.557.177-23.15"/><path fill="#d49d89" d="M471.525 271.524c1.701.429 3.077.582 4.025 2.049 3.766 5.83.53 17.863 6.122 22.153l3.015.645c-5.094 1.234-8.242-.603-13.319.537-.703.621-.249.398-1.467.389-1-1.256-1.034-3.171-1.255-4.843 1.734-3.132 3.172-12.903.702-15.646.17-1.47 1.491-3.859 2.177-5.284"/><path fill="#bc8071" d="M444.66 270.442c10.991-4.395 14.755-1.478 25.263-2.547.528 1.151 1.179 2.456 1.602 3.629-.686 1.425-2.007 3.814-2.177 5.284-2.075.252-2.241.363-4.029-.53-2.41-6.491-10.577-4.92-14.484-.735l-.312 1.162-1.056.578c-2.683.168-5.093-1.383-5.786-4.047.406-.92.731-1.819.979-2.794"/><path fill="#141b1f" d="M444.66 270.442c2.026-5.631 10.106-7.606 15.496-8.102 2.957-.272 7.024-.228 9.417 1.866 1.151 1.007.562 2.348.35 3.689-10.508 1.069-14.272-1.848-25.263 2.547"/><path fill="#020203" d="m450.523 276.705.312-1.162c3.907-4.185 12.074-5.756 14.484.735-1.817-1.108-1.728-1.52-3.296-1.228-.887 2.486-.519 2.763-2.249 4.13-2.072.303-1.527.524-3.18-.217-.813-1.761-.961-3.178-2.235-3.886-1.862.361-2.237.689-3.836 1.628"/><path fill="#d49d89" d="M455.401 306.581c.72-6.135 5.665-8.429 10.468-11.184-3.019 3.322-5.833 3.746-6.528 7.834z"/><path fill="#875a51" d="m466.367 280.51.382.372c-3.207 4.649-8.383 5.332-13.536 5.681l-.364-.283c1.147-1.22 4.274-.408 6.728-1.488 3.335-1.467 4.076-1.978 6.79-4.282"/><path fill="#bc8071" d="M437.047 258.748c-.56-9.478-1.985-16.531 8.484-20.401.172 6.593 1.125 17.267-.177 23.15-1.986 8.973-11.76 12.509-8.84 23.841 1.928 7.482 9.821 9.536 12.706 17.239 1.082 2.891 1.071 4.813 1.751 7.514l-.705-.25c-8.951-5.298-16.245-12.187-18.735-22.46-3.152-13.006-.478-18.117 5.516-28.633"/><path fill="#957964" d="M483.049 267.034c3.46 3.414 4.963.724 8.538 1.34 1.257 2.562 2.415 3.213 3.054 5.928-.458 1.062-.177.66-.717 1.286 1.177.557 1.82.972 3.085 1.243-.198 6.306.823 12 .319 18.048-.722 4.58-1.036 7.012-2.999 11.303-.882-.9-4.795-7.858-6.278-10.01l-1.492 1.636-1.07.458c-2.235-.854-11.32-1.228-14.121-1.358 5.077-1.14 8.225.697 13.319-.537-1.244-11.813-8.867-17.308-1.638-29.337"/><path fill="#e1ae95" d="M490.984 279.855c.549-2.153.412-3.415 1.745-4.693l1.195.426c1.177.557 1.82.972 3.085 1.243-.198 6.306.823 12 .319 18.048-.722 4.58-1.036 7.012-2.999 11.303-.882-.9-4.795-7.858-6.278-10.01-.852-1.435-4.357-11.408-5.106-13.458l.772.465c3.658 2.152 4.869 2.538 8.762 1.502.198-.321.425-1.277.544-1.692-.41-1.743-.763-1.91-2.039-3.134"/><path fill="#d49d89" d="m484.035 275.115 1.442.044c2.427 3.107 1.087 4.268 5.507 4.696 1.276 1.224 1.629 1.391 2.039 3.134-.119.415-.346 1.371-.544 1.692-5.334-1.626-13.25-1.528-8.444-9.566"/><path fill="#020203" d="m484.035 275.115-.073-.412c2.506-4.211 7.175-2.134 10.679-.401-.458 1.062-.177.66-.717 1.286l-1.195-.426c-1.333 1.278-1.196 2.54-1.745 4.693-4.42-.428-3.08-1.589-5.507-4.696z"/><path fill="#cfba9e" d="M486.786 239.737c1.472-.226 3.083-.651 4.286.283 4.309 3.345 5.401 11.538 6.137 16.646.354 2.451.546 5.386-.218 7.546-1.508.506-3.452-.47-5.156-1.068-1.361-9.446-2.31-14.274-5.049-23.407"/><path fill="#875a51" d="M468.646 292.454c.221 1.672.255 3.587 1.255 4.843 1.218.009.764.232 1.467-.389 2.801.13 11.886.504 14.121 1.358-.821.719-2.232 2.025-3.049 2.64-5.406.769-7.762-.368-12.88-.298-2.677-3.292-2.627-4.365-.914-8.154"/><path fill="#bc8071" d="M488.051 296.172c1.483 2.152 5.396 9.11 6.278 10.01-.564.734-.175.44-1.282.705-1.913-1.025-3.521-2.971-5.065-4.58l.597-1.104c-.344-2.085-.354-1.533-2.02-3.395z"/><path fill="#d49d89" d="M486.559 297.808c1.666 1.862 1.676 1.31 2.02 3.395l-.597 1.104c-1.733-.514-3.764-.961-5.542-1.401.817-.615 2.228-1.921 3.049-2.64z"/><path fill="#d49d89" d="M412.645 268.83c5.813 1.193 8.744 4.878 10.607 10.55 1.695 5.161 2.712 12.682.395 17.741-.668 1.461-2.188 1.576-3.578 1.957-11.008-3.89-18.048-21.927-7.424-30.248"/><path fill="#957964" d="M412.361 273.341c10.301 1.129 9.359 16.317 5.754 17.658l-1.977-1.239c-1.565-5.729 2.821-7.989.272-11.394-2.292-.621-3.2.612-6.061.565l-.321-.744c.617-2.457.884-2.682 2.333-4.846"/><path fill="#d49d89" d="M478.133 308.31c1.967-.513 5.985.733 7.987 1.339l1.882 1.289c-.189 4.809-.468 11.79-5.767 13.557-3.043-1.12-.264-3.362-1.64-5.831-3.255-.425-8.215-1.097-10.271 1.729-.143 1.616-.052 3.55-1.097 4.644-6.794 2.511-15.63-12.198-7.524-14.106 2.156-.694 2.102-.715 4.344-.733 4.009-.718 8.034-1.508 12.086-1.888"/><path fill="#603d2f" d="M478.133 308.31c1.967-.513 5.985.733 7.987 1.339l1.882 1.289-.885.331c-8.677 3.168-16.853 3.608-25.414-.338 2.156-.694 2.102-.715 4.344-.733 4.009-.718 8.034-1.508 12.086-1.888"/><path fill="#d49d89" d="M466.047 310.198c4.009-.718 8.034-1.508 12.086-1.888l.266.952q-1.385 1.476-2.805 2.918c-2.898-.291-7.156-.543-9.547-1.982"/><path fill="#bc8071" d="M478.133 308.31c1.967-.513 5.985.733 7.987 1.339-3.767 2.263-6.08 2.54-10.526 2.531q1.42-1.442 2.805-2.918z"/><path fill="#345054" d="M420.782 232.964c6.349.956 9.086 1.81 13.99 6.164-1.853 2.32-5.217 6.783-7.265 8.589l.642-1.854c1.153-3.224 1.352-4.545 1.968-7.894-1.917.005-5.976.168-7.643-.297.867-1.079 1.308-1.342 2.365-2.222l-.342-.452c-1.798-.117-3.058-.1-4.864-.053l-.323-.612z"/><path fill="#345054" d="M489.525 319.365c4.578 3.28 1.614 11.345-1.233 11.36l-.96-2.399c-.586.654-.388 3.141-.405 4.294.161 1.185.129.786-.111 2.006l-.752-.012c-1.595-2.312-1.587-3.846-1.463-6.646 2.467-3.192 3.028-3.988 4.573-7.739z"/><path fill="#345054" d="m459.779 334.079-1.159 1.449-.705-.112c-1.205-2.859-.913-3.573-4.005-4.432-.745-2.049-.289-5.468.148-7.587l.491-.301c1.654 5.311 3.113 5.824 5.135 10.248z"/><path fill="#345054" d="M440.334 308.81c2.539 1.887 1.141 9.427.67 12.464l-.596.046c-2.01-2.178-.72-9.675-.074-12.51"/><path fill="#173439" d="M459.684 333.344c.693-1.836.662-3.828 1.628-5.132l.748.223c1.203 2.812.467 8.304.203 11.486-.505-1.275-1.828-4.895-2.484-5.842z"/><path fill="#345054" d="M449.293 319.723c2.761 2.129 2.908 9.382 3.174 12.808-3.106-3.875-3.133-8.105-3.174-12.808"/><path fill="#345054" d="M481.222 326.718c3.215 2.557 2.39 6.657 2.055 10.303-2.373-2.125-2.434-7.351-2.055-10.303"/><path fill="#345054" d="m438.089 305.794.709.96c.093 3.78-.34 6.771-1.588 10.338l-.622-.847c-.484-4.405.153-6.38 1.501-10.451"/><path fill="#173439" d="m434.156 303.323.731.939c.247 3.076-.195 5.121-1.401 7.96-1.876-3.041-.628-5.935.67-8.899"/><path fill="#345054" d="m430.719 296.892.685 1.111c.052 2.789-.394 3.97-1.081 6.642-1.508-1.903-.186-5.63.396-7.753"/><path fill="#345054" d="M443.111 319.918c1.834 1.627 1.929 4.94 1.868 7.196-1.804-2.072-1.713-4.529-1.868-7.196"/><path fill="#345054" d="M468.898 334.226c2.204 1.566 2.565 2.045 2.645 4.763-.999-.082-.652-.039-1.603-.513-.624-1.723-.723-2.422-1.042-4.25"/><path fill="#345054" d="M454.189 311.251c1.003.592.619.161 1.056 1.373l-1.166 2.339-.637-.323c-.39-1.542-.002-1.555.747-3.389"/><path fill="#d08336" d="M338.592 376.118c-3.628-.753-22.04.224-27.14.249-22.47.107-45.016.296-67.485.568q-9.317.069-18.629.353c-7.674.239-15.041 1.49-21.829-2.989-9.392-5.785-8.149-16.41-8.136-26.413.016-13.075-8.033-54.437 11.804-56.359 11.848-1.148 28.209-.707 40.155-.586l54.204.465 36.747.472c12.141.057 33.952-2.99 37.017 12.151 3.034 14.981 1.056 31.87 2.436 47.411l-2.633 1.405a1498 1498 0 0 1-.846-23.017c-.175-7.248.05-14.271-1.258-21.438-1.901-10.416-7.303-12.347-16.848-13.438-10.002-1.144-19.654-.596-29.649-.506l-36.51.059q-20.451.085-40.901-.179c-11.264-.18-22.623-.592-33.883-.196-5.394.204-10.387.471-14.249 4.818-1.888 2.03-2.979 5.398-3.244 8.081-1.373 13.908 1.051 29.817.78 43.416-.392 19.686 4.759 24.305 24.497 23.655 3.322-.11 8.054-.082 11.596-.124l36.411-.399 40.802-.523c8.736-.04 20.909.296 29.34-.543q.643-.065 1.283-.146c-.766.757-3.127 3.205-3.832 3.753"/><path fill="#141b1f" d="M498.988 263.334c-.054 10.975-.534 21.32-.435 32.607l-1.225-1.062c.504-6.048-.517-11.742-.319-18.048-1.265-.271-1.908-.686-3.085-1.243.54-.626.259-.224.717-1.286-.639-2.715-1.797-3.366-3.054-5.928 2.148.17 3.794.197 5.87.817.548-1.723.884-3.813 1.531-5.857"/><path fill="#d49d89" d="M491.587 268.374c2.148.17 3.794.197 5.87.817-.076 2.759-.163 4.88-.448 7.64-1.265-.271-1.908-.686-3.085-1.243.54-.626.259-.224.717-1.286-.639-2.715-1.797-3.366-3.054-5.928"/><path fill="#345054" d="M161.684 198.114a46 46 0 0 1 2.497-.08c10.592-.153 22.307.536 32.993.843l61.461 1.674q30.94.665 61.868 1.748c13.646.401 27.782.148 41.355 2.147 2.695.561 4.709.322 6.694 2.508 6.685 7.364 5.387 18.37 5.994 27.6.399 6.065.434 12.237.411 18.268-.069 18.536-15.201 17.191-28.814 16.223l-116.651-1.066-32.895-.621c-6.157-.107-13.346-.463-19.388.068l-1.864 1.39c-3.88 2.889-19.235 15.041-23.138 14.469-4.422-4.092-3.516-41.636-3.777-49.789-.455-14.217-3.914-30.273 13.254-35.382"/><path fill="#e3e2e2" d="M162.335 201.079q2.232-.074 4.467-.091c10.793-.097 23.515.578 34.409.882l65.069 1.798 50.985 1.35c8.982.221 42.554-.029 49.644 4.428 6.709 8.274 4.934 30.205 5.403 39.549.981 19.549-12.838 18.282-26.187 17.995l-102.321-1.859c-22.188-.245-45.518.351-67.509-.645-7.833 4.927-15.93 11.178-23.356 16.743-1.224-8.431-.806-22.414-1.155-31.278-.146-11.383-.953-22.784-.664-34.165.225-8.832 3.047-12.147 11.215-14.707"/><path fill="#345054" d="M232.544 232.565c19.492-.841 45.72.689 65.736 1.094l31.793.613c6.102.151 14.001.17 19.877 1.157 1.327 1.025.95 1.015 1.502 3.07-4.023.488-14.577.209-19.007.171a2416 2416 0 0 1-38.918-.665 2836 2836 0 0 1-39.557-1.078c-5.777-.21-14.176-.225-19.585-1.126-1.509-1.159-1.092-1.064-1.841-3.236"/><path fill="#345054" d="M255.445 219.603c16.003-.361 33.976.303 50.056.804 10.216.319 35.066.102 43.854 1.884 1.396 1.187.951.831 1.306 3.196-11.19.027-90.654-.486-94.915-3.686z"/><path fill="#345054" d="M168.885 245.017c10.688-.017 88.326.444 93.868 2.559 1.008 1.346.685.952.662 3.046-7.673.706-30.219-.276-38.915-.545-13.306-.411-41.887.531-54.12-1.813-1.281-1.187-.946-1.234-1.495-3.247"/><path fill="#345054" d="M167.942 217.554c9.038-.429 65.155.288 70.722 2.084 1.352.436 1.495 1.617 1.995 2.799-16.641 1.155-52.777-.114-70.786-1.615-1.137-.095-1.529-2.09-1.931-3.268"/><path fill="#345054" d="M169.08 231.178c7.784-.136 37.653-.263 43.988 1.663.92 1.323.635.873.382 2.965-8.095.278-36.585.43-43.376-1.883-1.36-1.352-.929-.519-.994-2.745"/><path fill="#cfba9e" d="M394.472 174.028c-8.864-10.737-11.348-26.866.584-36.512a21.6 21.6 0 0 1 15.838-4.551c6.609.746 13.155 4.827 17.072 10.167a23.66 23.66 0 0 1 4.294 17.947c-.903 5.467-3.403 9.974-6.697 14.329-8.649 8.053-23.243 7.37-31.091-1.38"/><path fill="#345054" d="M394.472 174.028c2.103-5.158 4.142-9.564 9.677-11.98a14.23 14.23 0 0 1 11.05-.113c4.515 1.861 7.588 5.692 9.282 10.178a34 34 0 0 1 1.082 3.295c-8.649 8.053-23.243 7.37-31.091-1.38"/><path fill="#345054" d="M408.159 141.249a8.526 8.526 0 1 1 3.34 16.722 8.526 8.526 0 0 1-3.34-16.722"/><path fill="#cfba9e" d="M451.179 177.298c-5.38-6.583-9.334-14.223-8.371-23.035a20.75 20.75 0 0 1 8.241-14.477 20.94 20.94 0 0 1 16.278-3.955 24.03 24.03 0 0 1 15.627 10.053c7.083 10.449 3.912 21.969-2.231 31.779-9.264 8.776-20.164 6.856-29.544-.365"/><path fill="#d08336" d="M461.762 161.735c-2.599-3.046-5.214-6.067-4.864-10.407a7.56 7.56 0 0 1 2.74-5.226c6.75-5.64 15.368.626 12.693 8.891-.75 2.319-1.685 4.356-2.71 6.545 7.524 5.342 8.556 7.196 11.102 16.125-9.264 8.776-20.164 6.856-29.544-.365 1.825-7.919 2.75-10.645 9.861-15.113z"/><path fill="#345054" d="M147.431 121.484c9.014.281 31.048-.449 39.943 2.854 2.94 1.092 3.754 13.62 3.534 17.378-.779 13.251-2.158 13.926-14.466 13.339-3.901-.11-7.954-.36-11.866-.545-4.659 3.711-9.102 7.737-14.154 10.782.06-3.178.427-6.917.665-10.134-7.085-3.391-8.519-6.765-8.784-14.834-.244-7.429-.24-13.043 5.128-18.84"/><path fill="#e3e2e2" d="M152.384 124.729c11.575.155 21.831.486 33.357 1.373 1.518 5.797 4.114 20.437-.367 25.414-.949 1.053-10.967.448-12.999.38l-9.523-.453c-3.337 2.854-6.298 5.621-9.48 8.625l.637-7.468c-2.036-.599-4.727-1.205-6.063-2.913-3.934-5.025-1.736-18.295-.975-24.694z"/><path fill="#345054" d="M155.011 135.785a2.574 2.574 0 1 1 2.415 4.546 2.574 2.574 0 0 1-2.415-4.546"/><path fill="#173439" d="M176.082 136.275a2.522 2.522 0 1 1 2.06 4.603 2.522 2.522 0 0 1-2.06-4.603"/><path fill="#345054" d="M165.204 136.281a2.52 2.52 0 0 1 3.977 2.097 2.521 2.521 0 1 1-3.977-2.097"/><path fill="#d08336" d="M194.523 138.826c12.516 1.43 10.708 6.17 11.359 17.155.495 8.357.265 10.825-7.449 13.338l1.892 9.508c-4.8-4.153-9.519-8.254-15.802-9.695-6.193-.064-21.509.696-20.279-8.927 9.078-8.38 30.329 14.658 30.279-21.379"/><path fill="#173439" d="M845.123 576.046c2.671-.066 6.114-.266 8.713-.021 3.349 1.81 19.016.663 23.839 1.051-5.349.551-12.153.433-17.647.44-.026 2.201.155 4.417-.612 6.426l-1.172 1.142.572-.406-1.035.483c1.343-.164 1.225-.254 2.523.111 5.128.56 20.345-.337 27.348-.202l-.981 1.475c-.016 5.331 1.228 38.474-.871 40.273-1.884.6-2.356.611-4.357.794l5.628.355-.534 16.019c-16.375-.502-33.15.301-49.571-.11-5.759-.144-13.226-.346-18.905.131-.463 14.779.69 31.376-.362 46.037l.127 1.491c.417.235 43.424 2.106 48.588 2.956 4.279.075 12.344.009 15.919 2.617 1.849 1.349 2.057 8.706 2.141 11.072.494 13.895.387 27.998.355 41.914a3880 3880 0 0 1-.818 78.689c-.349 24.227.705 48.172-.106 72.331-.139 4.146-.482 9.293-1.183 13.318-1.911.96-4.19 2.055-6.31 2.37-19.658 2.922-39.602 4.632-59.381 6.649-4.421.451-9.094.724-13.511.834-4.973-.576-10.568-1.333-15.419-2.005-6.429-.889-26.705-6.967-31.778-3.946-2.453 6.702-12.911 7.361-18.972 8.038-22.9 2.56-44.646-2.738-66.657-8.203-10.006 3.642-30.956 1.276-39.702-4.539-.807-3.186-1.219-4.782-1.57-8.066-.506-3.186-.223-5.981.159-9.134-.232-5.794 2.033-18.364 3.222-24.103-1.153-.97-5.119-3.426-6.939-4.823-.65-2.949-.995-6.19-1.212-9.197-2.158-29.948-3.253-60.1-8.793-89.677-1.583-8.449-3.382-17.079-3.986-25.653-1.055-15.005.057-30.331 1.332-45.303-3.102-4.307-3.062-4.807-3.278-9.957-7.26-.807-14.552-1.343-21.826-2.08-.32 4.403-.552 7.199-4.181 10.45-6.253 5.603-18.732 6.016-26.716 5.801l.042 1.719c.769 9.099 3.538 22.647 4.871 32.384a3554 3554 0 0 0 12.184 83.83c2.78 16.969 6.243 34.335 7.592 51.513.195 2.473-.787 3.298-2.385 4.967-2.233 1.876-2.893 2.453-5.437 3.869l-3.205.858-1.199.315c-4.143.325-9.686 3.317-14.73 4.098-5.807.899-26.538-1.279-30.065 1.228-14.047.103-16.296-19.26-18.321-29.798-3.298.065-7.22.386-10.531.631-2.709-.492-7.442-1.206-9.961-.053-3.355 3.529-1.34 4.619-2.396 8.34l-.232-7.018c-5.781.757-11.632 1.138-17.448 1.589.131 10.297 1.791 58.781-1.368 64.797-2.624 2.346-5.241.555-7.366 3.254.559 7.579-.54 13.764-9.669 13.878-3.451-.315-7.852-.943-8.222-5.231-.659-7.638-.361-15.391-.496-23.078l-.817-53.228c-20.853-3.887-42.334-5.46-63.377-8.216-8.673-1.135-19.496-1.951-27.897-3.82a807 807 0 0 1-6.859 41.105c-.73 3.889-2.686 20.378-6.773 22.634-1.488.821-5.603.465-7.43-.336-3.6-4.05 1.194-25.585 2.264-31.664l5.751-33.157 18.232-108.902c1.033-6.15 6.656-35.349 5.546-39.24-9.759-.717-20.332-4.787-20.793-16.176a15.48 15.48 0 0 1 4.439-11.516c6.26-6.455 14.435-6.521 22.62-6.535-2.862-4.945-5.531-9.351-7.736-14.681-2.68-6.477-.625-16.438-5.135-21.087-5.27-3.6-3.978-14.425-3.897-20.267-7.54-9.033-6.979-8.968-7.014-20.824-7.045-.656-16.545-.439-23.766-.458l-38.206-.08-.226 244.845.023 53.758c.039 9.241.656 20.736-.532 29.722-.676 5.112-13.746 6.678-14.033-3.402-.308-10.811-.207-21.683-.204-32.505l.001-63.797-1.073-180.075c-.018-7.915.591-54.272-1.063-57.466-1.281-.94-3.148-.682-4.831-.679l.837-.974-.369-.416c-1.314.04-2.461-.061-3.765-.15 6.556-.629 15.393-.394 22.116-.361l40.6.585c31.02.447 62.16.105 93.063.653q12.842.217 25.679.66c4.148.147 15.777.809 19.383.141 8.127-.093 27.635-.733 35.101.017 6.435 1.231 19.458.482 26.332.853 2.677.145 6.413-.232 9.048.491 8.241.17 15.795-.442 23.908-.454l73.151.04 76.011-.568c7.949-.118 16.219.262 24.103-.108 8.088-.739 21.935-.331 30.406-.333 8.152-1.096 28.67.854 35.831-.671-6.91-2.53-23.587.243-32.282-1.252 18.426-.233 37.164-.131 55.609-.095 10.849.021 23.584-.327 34.285.055M692.672 691.962c-1.957 7.809-.707 27.159-.462 36.212a8211 8211 0 0 0 2.576 92.434l.726 24.589c.43 13.057 3.94 22.878-12.126 23.362-5.428-.159-18.548 2.329-25.037 2.742-6.887.437-17.712-.505-23.361.455-1.301.195-.992.074-2.185.571-1.189 5.739-3.454 18.309-3.222 24.103-.382 3.153-.665 5.948-.159 9.134.351 3.284.763 4.88 1.57 8.066 8.746 5.815 29.696 8.181 39.702 4.539 22.011 5.465 43.757 10.763 66.657 8.203 6.061-.677 16.519-1.336 18.972-8.038 5.073-3.021 25.349 3.057 31.778 3.946 4.851.672 10.446 1.429 15.419 2.005 4.417-.11 9.09-.383 13.511-.834 19.779-2.017 39.723-3.727 59.381-6.649 2.12-.315 4.399-1.41 6.31-2.37.701-4.025 1.044-9.172 1.183-13.318.811-24.159-.243-48.104.106-72.331q.808-39.34.818-78.689c.032-13.916.139-28.019-.355-41.914-.084-2.366-.292-9.723-2.141-11.072-3.575-2.608-11.64-2.542-15.919-2.617-5.164-.85-48.171-2.721-48.588-2.956l-.127-1.491c1.052-14.661-.101-31.258.362-46.037 5.679-.477 13.146-.275 18.905-.131 16.421.411 33.196-.392 49.571.11l.534-16.019-5.628-.355c2.001-.183 2.473-.194 4.357-.794 2.099-1.799.855-34.942.871-40.273l.981-1.475c-7.003-.135-22.22.762-27.348.202-1.298-.365-1.18-.275-2.523-.111l1.035-.483-.572.406 1.172-1.142c.767-2.009.586-4.225.612-6.426 5.494-.007 12.298.111 17.647-.44-4.823-.388-20.49.759-23.839-1.051-2.599-.245-6.042-.045-8.713.021-10.701-.382-23.436-.034-34.285-.055-18.445-.036-37.183-.138-55.609.095 8.695 1.495 25.372-1.278 32.282 1.252-7.161 1.525-27.679-.425-35.831.671-8.471.002-22.318-.406-30.406.333-7.884.37-16.154-.01-24.103.108l-76.011.568-73.151-.04c-8.113.012-15.667.624-23.908.454-2.635-.723-6.371-.346-9.048-.491-6.874-.371-19.897.378-26.332-.853-7.466-.75-26.974-.11-35.101-.017-3.606.668-15.235.006-19.383-.141a1456 1456 0 0 0-25.679-.66c-30.903-.548-62.043-.206-93.063-.653l-40.6-.585c-6.723-.033-15.56-.268-22.116.361 1.304.089 2.451.19 3.765.15l.369.416-.837.974c1.683-.003 3.55-.261 4.831.679 1.654 3.194 1.045 49.551 1.063 57.466l1.073 180.075-.001 63.797c-.003 10.822-.104 21.694.204 32.505.287 10.08 13.357 8.514 14.033 3.402 1.188-8.986.571-20.481.532-29.722l-.023-53.758.226-244.845 38.206.08c7.221.019 16.721-.198 23.766.458.035 11.856-.526 11.791 7.014 20.824-.081 5.842-1.373 16.667 3.897 20.267 4.51 4.649 2.455 14.61 5.135 21.087 2.205 5.33 4.874 9.736 7.736 14.681-8.185.014-16.36.08-22.62 6.535a15.48 15.48 0 0 0-4.439 11.516c.461 11.389 11.034 15.459 20.793 16.176 1.11 3.891-4.513 33.09-5.546 39.24l-18.232 108.902-5.751 33.157c-1.07 6.079-5.864 27.614-2.264 31.664 1.827.801 5.942 1.157 7.43.336 4.087-2.256 6.043-18.745 6.773-22.634a807 807 0 0 0 6.859-41.105c8.401 1.869 19.224 2.685 27.897 3.82 21.043 2.756 42.524 4.329 63.377 8.216l.817 53.228c.135 7.687-.163 15.44.496 23.078.37 4.288 4.771 4.916 8.222 5.231 9.129-.114 10.228-6.299 9.669-13.878-.799-.715-.345-.358-1.381-1.065-.746-2.349-.43-4.221-.295-6.702-.513-30.789-.509-61.583.012-92.371-.448-3.496-.101-20.19-.099-24.387l.006-56.687-.085-103.987c-.043-16.33-.458-32.666-.298-48.986.022-2.226.224-3.123 1.448-4.883l.512.567 44.18-.382 4.843-.755-1.605-1.333c5.695-.132 40.022-1.928 42.325 1.015.112.145.173.323.259.484l-.602.774c6.68 2.888 17.494 3.936 24.975 5.517 23.959 5.063 81.846 16.911 100.867 29.697 7.338 4.933 12.851 11.662 16.116 19.889 4.354 10.974 5.976 35.225 4.245 47.146m-228.934 15.86c.375 2.384.262 9.119.294 11.935l.322 23.268q.819 43.55 1.027 87.107c5.296-.483 10.852-.616 16.183-.829l-2.852-44.103c-.658-10.782-1.027-21.436-2.311-32.227-1.203-10.11-3.432-19.583-5.149-29.714-.749-4.418-1.684-11.589-2.608-16.157l-1.174-1.145c-1.511.533-2.593.749-3.732 1.865m2.233 131.758c-.057 3.007-.3 6.398.275 9.298.889.699.46.576 1.158.674 4.71-.117 10.602-.396 15.254-1.153-.176-2.776-.309-6.791-.846-9.387l-.697-.264q-7.577.315-15.144.832m29.003-.577c.031 2.691-.008 5.638.203 8.301l8.961-.356a705 705 0 0 0-1.565-7.457zm-2.008-32.181c.024 4.873-.146 17.834 1.91 21.661 1.55 1.099 3.2 1.039 5.127 1.228-1.268-5.368-4.191-19.177-7.037-22.889"/><path fill="#122b2f" d="M845.123 576.046c2.671-.066 6.114-.266 8.713-.021 3.349 1.81 19.016.663 23.839 1.051-5.349.551-12.153.433-17.647.44-.026 2.201.155 4.417-.612 6.426l-1.172 1.142.572-.406-1.035.483c1.343-.164 1.225-.254 2.523.111 5.128.56 20.345-.337 27.348-.202l-.981 1.475c-.016 5.331 1.228 38.474-.871 40.273-1.884.6-2.356.611-4.357.794l5.628.355-.534 16.019c-16.375-.502-33.15.301-49.571-.11-5.759-.144-13.226-.346-18.905.131-.463 14.779.69 31.376-.362 46.037l.127 1.491c.417.235 43.424 2.106 48.588 2.956 4.279.075 12.344.009 15.919 2.617 1.849 1.349 2.057 8.706 2.141 11.072.494 13.895.387 27.998.355 41.914a3880 3880 0 0 1-.818 78.689c-.349 24.227.705 48.172-.106 72.331-.139 4.146-.482 9.293-1.183 13.318-1.911.96-4.19 2.055-6.31 2.37-19.658 2.922-39.602 4.632-59.381 6.649-4.421.451-9.094.724-13.511.834-4.973-.576-10.568-1.333-15.419-2.005-6.429-.889-26.705-6.967-31.778-3.946-2.453 6.702-12.911 7.361-18.972 8.038-22.9 2.56-44.646-2.738-66.657-8.203-10.006 3.642-30.956 1.276-39.702-4.539-.807-3.186-1.219-4.782-1.57-8.066-.506-3.186-.223-5.981.159-9.134-.232-5.794 2.033-18.364 3.222-24.103 1.193-.497.884-.376 2.185-.571 5.649-.96 16.474-.018 23.361-.455 6.489-.413 19.609-2.901 25.037-2.742 16.066-.484 12.556-10.305 12.126-23.362l-.726-24.589a8211 8211 0 0 1-2.576-92.434c-.245-9.053-1.495-28.403.462-36.212 3.681.115 13.863.362 17.041-.174-1.621-4.875.329-11.866.345-17.533l-.061-54.784c.002-8.763.43-23.956-.386-32.069l.57-.959c3.833-1.461 12.025.307 17.633-.545-1.395-.653-2.251-.719-3.746-.979-2.592-3.385.757-2.901.536-5.871-1.4-.891-1.407-.595-3.33-.706 8.088-.739 21.935-.331 30.406-.333 8.152-1.096 28.67.854 35.831-.671-6.91-2.53-23.587.243-32.282-1.252 18.426-.233 37.164-.131 55.609-.095 10.849.021 23.584-.327 34.285.055m-62.984 114.079c3.613.21 21.485 1.631 23.588.589.22-1.134.384-1.936.518-3.096-.405-2.803-.468-10.59-.557-13.628a1276 1276 0 0 1-.588-30.114c-13.316-1.017-15.808-6.757-9.155-18.442q38.247-.393 76.496-.284c-9.449-13.329-11.7-22.043-12.405-38.535q-21.893.564-43.794.567c-5.876.057-20.468.482-25.794-.057.534 13.676 1.121 27.372-1.112 40.987-4.028 24.568-8.898 36.419-7.197 62.013m-5.519-8.005c-.235-19.817 4.644-33.816 8.022-53.05 2.449-13.939 2.093-27.611 1.265-41.657-20.275.066-40.745-.132-60.991.155-.333 10.357-.318 21.206-.185 31.577.303 23.687-.485 47.779.288 71.428 12.017-.587 23.749-1.267 35.797-1.095 2.847.04 13.164.575 15.372-.02 1.406-2.252.759-4.653.432-7.338"/><path fill="#345054" d="M866.414 694.491c4.279.075 12.344.009 15.919 2.617 1.849 1.349 2.057 8.706 2.141 11.072.494 13.895.387 27.998.355 41.914a3880 3880 0 0 1-.818 78.689c-.349 24.227.705 48.172-.106 72.331-.139 4.146-.482 9.293-1.183 13.318-1.911.96-4.19 2.055-6.31 2.37-19.658 2.922-39.602 4.632-59.381 6.649-4.421.451-9.094.724-13.511.834q-.657-62.28-.556-124.566c-.003-33.032.623-66.633-.161-99.56 18.581-3.024 38.25-.923 56.957-2.864 2.197-.228 8.275-1.239 9.894-.534a130 130 0 0 0-4.961 2.042c.171 2.945 10.942 2.739 13.443 3.433 1.43.396.009 2.221 2.489 4.911l-.007-.006c2.259-1.27 3.129-5.142 1.879-7.367-3.094-5.508-10.431-3.386-16.083-5.283"/><path fill="#173439" d="M840.46 737.557c4.775-.896 28.135-.484 34.173-.459.764 3.517 2.859 13.113.459 14.864-5.527 4.031-28.6 3.67-34.721 3.993-9.432.499-18.985 1.428-27.093.469l-.392-.099c-4.625-4.027-2.631-12.197-.546-17.092 7.092-1.319 20.776-2.181 28.12-1.676"/><path fill="#141b1f" d="M840.46 737.557c4.775-.896 28.135-.484 34.173-.459.764 3.517 2.859 13.113.459 14.864-5.527 4.031-28.6 3.67-34.721 3.993-9.432.499-18.985 1.428-27.093.469 8.17-3.281 36.257-1.162 46.15-2.672 4.383-.67 13.203 2.023 15.159-3.129 1.401-3.689 1.22-8.421-.173-11.948-1.21-.906-4.841-.436-6.935-.488l.276-.225-.064-.227c-8.479-.64-19.377 1.322-26.532-.04z"/><path fill="#173439" d="M840.144 715.482c4.907-.712 28.001-1.871 32.528-.512 4.33 3.328 3.339 9.329 2.131 14.112-.663 1.552-.121 1.125-1.349 1.695-8.195 1.295-21.179 1.261-29.63 1.192-2.954.587-16.725 1.174-19.855 1.004-3.652.106-9.057.693-12.234-.836-2.685-3.176-2.325-12.712-.106-13.826 5.4-2.713 22.853-2.713 28.515-2.829"/><path fill="#020203" d="M823.969 732.973c-3.652.106-9.057.693-12.234-.836-2.685-3.176-2.325-12.712-.106-13.826 5.4-2.713 22.853-2.713 28.515-2.829-4.68 2.234-22.709 3.017-28.607 3.424-.06 3.712-.482 8.129 1.054 11.463 3.309 2.538 7.734.347 11.378 2.604"/><path fill="#020203" d="M843.824 731.969c3.468-1.741 24.657-2.263 29.193-1.839l.437.647c-8.195 1.295-21.179 1.261-29.63 1.192"/><path fill="#141b1f" d="M872.672 714.97c4.33 3.328 3.339 9.329 2.131 14.112-1.074-2.323-1.03-9.989-2.131-14.112"/><path fill="#020203" d="M844.687 823.611c2.074.114 4.327.511 6.211 1.4a13.07 13.07 0 0 1 7.034 8.136 13.9 13.9 0 0 1-1.29 10.893c-2.441 4.209-5.41 5.746-9.856 7.04-1.794-.11-4.056-.608-5.692-1.339a13.38 13.38 0 0 1-7.313-7.937c-3.088-9.016 2.461-15.688 10.906-18.193"/><path fill="#345054" d="M844.226 825.047c5.359.623 9.794 2.293 12.008 7.686a11.55 11.55 0 0 1-.01 8.855c-1.738 4.096-4.443 5.595-8.349 7.063-1.76.132-4.311.057-5.97-.539a10.76 10.76 0 0 1-6.232-5.948c-3.128-7.563 1.394-14.342 8.553-17.117"/><path fill="#a5bcc1" d="M849.396 831.413c13.682 8.709-8.823 21.894-11.406 5.619.399-1.065 1.291-2.809 2.022-3.671l.799-.031c.258.282.572 16.734 9.269 7.195 1.175-1.29-.417-6.781-.684-9.112"/><path fill="#a5bcc1" d="M844.992 828.19c2.762 1.777 1.579 6.722 1.291 9.708-2.205-2.664-1.789-6.508-1.291-9.708"/><path fill="#3e2c27" d="M634.988 871.756c5.649-.96 16.474-.018 23.361-.455 6.489-.413 19.609-2.901 25.037-2.742l.229.591c2.186.599 3.926 1.685 5.591 3.247 11.974 10.796 25.264 18.525 40.349 24.108 5.11 1.89 29.855 8.478 23.122 18.252l-1.879.544c3.157.969 2.959 1.816 5.525 3.033-2.453 6.702-12.911 7.361-18.972 8.038-22.9 2.56-44.646-2.738-66.657-8.203-10.006 3.642-30.956 1.276-39.702-4.539-.807-3.186-1.219-4.782-1.57-8.066-.506-3.186-.223-5.981.159-9.134-.232-5.794 2.033-18.364 3.222-24.103 1.193-.497.884-.376 2.185-.571"/><path fill="#603d2f" d="M689.206 872.397c11.974 10.796 25.264 18.525 40.349 24.108 5.11 1.89 29.855 8.478 23.122 18.252l-1.879.544c-6.306-.458-8.537-4.949-14.741-6.722-5.246-1.499-10.974-1.241-16.319-1.961-20.972-2.824-38.946-11.595-52.134-28.292 8.094-1.765 13.729-3.056 21.602-5.929"/><path fill="#020203" d="M629.581 896.43c1.37 1.884 1.299 2.35 1.719 4.738 2.907 3.276 62.719 11.407 72.113 13.74 9.423 2.34 28.369.77 38.209.587-.449.795-.929 1.582-1.978 1.689-20.331 2.066-41.441-1.335-61.193-5.328-15.628-3.159-29.15-4.395-44.469-7.942-1.229-.281-2.993 1.068-3.863 1.878l-.697-.228c-.506-3.186-.223-5.981.159-9.134"/><path fill="#020203" d="M634.988 871.756c5.649-.96 16.474-.018 23.361-.455 6.489-.413 19.609-2.901 25.037-2.742l.229.591c-18.402 3.813-29.787 4.33-48.627 2.606"/><path fill="#603d2f" d="M860.304 585.272c5.128.56 20.345-.337 27.348-.202l-.981 1.475c-.016 5.331 1.228 38.474-.871 40.273-1.884.6-2.356.611-4.357.794l5.628.355-.534 16.019c-16.375-.502-33.15.301-49.571-.11-5.759-.144-13.226-.346-18.905.131-.463 14.779.69 31.376-.362 46.037l-.272-3.04-.85-.385-.054 5.453c-3.346-.036-6.687.383-9.484-1.16-.48-1.297-.238-1.5.101-2.905l-.895-.389c-.405-2.803-.468-10.59-.557-13.628a1276 1276 0 0 1-.588-30.114c-13.316-1.017-15.808-6.757-9.155-18.442q38.247-.393 76.496-.284c-9.449-13.329-11.7-22.043-12.405-38.535z"/><path fill="#8e5420" d="M861.556 587.294c7.82-.859 17.251-.753 25.115-.749-.016 5.331 1.228 38.474-.871 40.273-3.519-.538-6.151-.267-10.335-1.051-9.014-11.054-14.283-24.087-13.909-38.473"/><path fill="#020203" d="M860.304 585.272c5.128.56 20.345-.337 27.348-.202l-.981 1.475c-7.864-.004-17.295-.11-25.115.749-.374 14.386 4.895 27.419 13.909 38.473 4.184.784 6.816.513 10.335 1.051-1.884.6-2.356.611-4.357.794-9.663-.315-81.403-2.138-84.617.721-1.931 1.717-2.515 4.93-2.481 7.403.019 1.441.234 3.126 1.292 4.206 2.531 2.582 8.003 2.096 11.326 2.126-.08 6.876-.238 14.101-.043 20.953.242 8.488 1.045 16.442.22 24.986l-.895-.389c-.405-2.803-.468-10.59-.557-13.628a1276 1276 0 0 1-.588-30.114c-13.316-1.017-15.808-6.757-9.155-18.442q38.247-.393 76.496-.284c-9.449-13.329-11.7-22.043-12.405-38.535z"/><path fill="#020203" d="M816.577 686.619c-.215-5.266-.665-41.688.557-43.729l1.716-.23.392.439-1.181.908c-.463 14.779.69 31.376-.362 46.037l-.272-3.04z"/><path fill="#141b1f" d="M755.229 576.086c18.426-.233 37.164-.131 55.609-.095 10.849.021 23.584-.327 34.285.055-4.743 2.707-38.894.771-46.829 1.712-3.964.469-9.906.573-14.114 1.15-8.444.298-17.19.005-25.675.098-1.73.019-8.662.122-10.03-.206l3.205-.791c8.152-1.096 28.67.854 35.831-.671-6.91-2.53-23.587.243-32.282-1.252"/><path fill="#122b2f" d="M252.779 576.393c6.556-.629 15.393-.394 22.116-.361l40.6.585c31.02.447 62.16.105 93.063.653q12.842.217 25.679.66c4.148.147 15.777.809 19.383.141 8.127-.093 27.635-.733 35.101.017 6.435 1.231 19.458.482 26.332.853 2.677.145 6.413-.232 9.048.491 8.241.17 15.795-.442 23.908-.454l73.151.04 76.011-.568c7.949-.118 16.219.262 24.103-.108 1.923.111 1.93-.185 3.33.706.221 2.97-3.128 2.486-.536 5.871 1.495.26 2.351.326 3.746.979-5.608.852-13.8-.916-17.633.545l-.57.959c-2.374.728-8.152.613-10.799.57-50.357-.814-101.49 2.087-151.741.967-.086-.161-.147-.339-.259-.484-2.303-2.943-36.63-1.147-42.325-1.015l1.605 1.333-4.843.755-44.18.382-.512-.567c-1.224 1.76-1.426 2.657-1.448 4.883-.16 16.32.255 32.656.298 48.986l.085 103.987-.006 56.687c-.002 4.197-.349 20.891.099 24.387a2751 2751 0 0 0-.012 92.371c-.135 2.481-.451 4.353.295 6.702 1.036.707.582.35 1.381 1.065.559 7.579-.54 13.764-9.669 13.878-3.451-.315-7.852-.943-8.222-5.231-.659-7.638-.361-15.391-.496-23.078l-.817-53.228c-20.853-3.887-42.334-5.46-63.377-8.216-8.673-1.135-19.496-1.951-27.897-3.82a807 807 0 0 1-6.859 41.105c-.73 3.889-2.686 20.378-6.773 22.634-1.488.821-5.603.465-7.43-.336-3.6-4.05 1.194-25.585 2.264-31.664l5.751-33.157 18.232-108.902c1.033-6.15 6.656-35.349 5.546-39.24-9.759-.717-20.332-4.787-20.793-16.176a15.48 15.48 0 0 1 4.439-11.516c6.26-6.455 14.435-6.521 22.62-6.535-2.862-4.945-5.531-9.351-7.736-14.681-2.68-6.477-.625-16.438-5.135-21.087-5.27-3.6-3.978-14.425-3.897-20.267-7.54-9.033-6.979-8.968-7.014-20.824-7.045-.656-16.545-.439-23.766-.458l-38.206-.08-.226 244.845.023 53.758c.039 9.241.656 20.736-.532 29.722-.676 5.112-13.746 6.678-14.033-3.402-.308-10.811-.207-21.683-.204-32.505l.001-63.797-1.073-180.075c-.018-7.915.591-54.272-1.063-57.466-1.281-.94-3.148-.682-4.831-.679l.837-.974-.369-.416c-1.314.04-2.461-.061-3.765-.15m96.342 261.845c5.271-.675 10.51-.953 15.808-1.276 24.339-1.481 48.734-4.055 73.128-4.499l-1.099-127.574c-17.782.978-44.007-2.35-62.076-4.171-1.614 1.052-1.662 2.565-2.104 4.863-3.984 20.719-7.583 41.536-11.472 62.277a1964 1964 0 0 0-8.823 50.003c-1.091 6.628-2.595 13.778-3.362 20.377m40.71 5.774c3.176.717 6.009 1.351 9.228 1.87a1611 1611 0 0 1 39.467 5.132c.004-2.768.488-8.086-1.252-9.968l-1.42.213c-13.905 1.092-32.286 2.881-46.023 2.753"/><path fill="#345054" d="M524.101 579.432c8.241.17 15.795-.442 23.908-.454l73.151.04 76.011-.568c7.949-.118 16.219.262 24.103-.108 1.923.111 1.93-.185 3.33.706.221 2.97-3.128 2.486-.536 5.871 1.495.26 2.351.326 3.746.979-5.608.852-13.8-.916-17.633.545l-.57.959c-2.374.728-8.152.613-10.799.57-50.357-.814-101.49 2.087-151.741.967-.086-.161-.147-.339-.259-.484-2.303-2.943-36.63-1.147-42.325-1.015l1.605 1.333-4.843.755-44.18.382-.512-.567c-1.224 1.76-1.426 2.657-1.448 4.883-.16 16.32.255 32.656.298 48.986l.085 103.987-.006 56.687c-.002 4.197-.349 20.891.099 24.387a2751 2751 0 0 0-.012 92.371c-.135 2.481-.451 4.353.295 6.702 1.036.707.582.35 1.381 1.065.559 7.579-.54 13.764-9.669 13.878.831-1.605-.271-11.707-.381-14.072a583 583 0 0 1-.746-30.512l.084-246.702q.088-19.398-.476-38.786c-.196-9.959-.804-21.533.577-31.3 10.417-1.408 24.48-1.336 35.078-1.381z"/><path fill="#020203" d="M456.557 589.343c4.721-2.24 40.515-1.884 47.93-1.903l1.605 1.333-4.843.755-44.18.382z"/><path fill="#3e2c27" d="M363.768 664.929c14.609 15.845 51.685 18.82 73.201 21.869.007 5.592.218 12.617-.011 18.091-17.782.978-44.007-2.35-62.076-4.171-2.531-2.579-13.235-3.203-16.792-2.461l-.588.899c-9.759-.717-20.332-4.787-20.793-16.176a15.48 15.48 0 0 1 4.439-11.516c6.26-6.455 14.435-6.521 22.62-6.535"/><path fill="#8e5420" d="M341.047 588.55c4.57-.551 13.249-.307 18.241-.266q17.894.178 35.784.636c11.693.25 23.391.055 35.083.064 2.414.002 5.041.984 5.621 3.539-2.397 1.832-16.74 4.773-20.511 5.83-23.484 6.588-40.472 23.223-63.884 30.022l-.484.786c-5.27-3.6-3.978-14.425-3.897-20.267-7.54-9.033-6.979-8.968-7.014-20.824z"/><path fill="#020203" d="m339.986 588.07 1.061.48c1.416 9.741 1.678 12.425 8.492 19.76-.177 7.845-.721 12.552 1.842 20.065l-.484.786c-5.27-3.6-3.978-14.425-3.897-20.267-7.54-9.033-6.979-8.968-7.014-20.824"/><path fill="#345054" d="M477.394 681.525c.457-6.064.01-21.599 2.306-26.322 9.113-18.744 40.623-29.037 56.013-11.653 3.292 3.719 7.103 7.478 10.535 11.158 3.717 15.228 5.277 31.812 8.721 47.121.275 1.224 1.227 1.329 2.277 1.778.769 9.099 3.538 22.647 4.871 32.384a3554 3554 0 0 0 12.184 83.83c2.78 16.969 6.243 34.335 7.592 51.513.195 2.473-.787 3.298-2.385 4.967-5.084-2.244-44.983-.169-46.862-7.252 2.293-2.49 11.515-3.042 14.903-3.244-2.313-8.524-3.048-20.186-5.98-27.229-3.125-7.505-9.721-18.059-13.839-25.562-13.377-24.295-27.563-48.576-35.55-75.311-2.764-9.251-1.669-19.162-3.468-28.6 2.469-6.161 9.359-18.287 8.8-25.168-.419-5.171-8.728-.855-11.255.355-.981 4.223-1.793 10.725-2.487 15.159-1.111-14.404 3.654-27.095 7.575-40.984-7.595 6.911-10.659 13.594-13.951 23.06"/><path fill="#3e2c27" d="M553.423 681.914c11.304 1.099 23.629 1.568 34.678 3.723-.32 4.403-.552 7.199-4.181 10.45-6.253 5.603-18.732 6.016-26.716 5.801-2.725-5.244-3.569-14.17-3.781-19.974"/><path fill="#705e3e" d="m457.069 589.91 44.18-.382-.265 1.129c-6.251 1.165-43.202 6.497-43.915-.747"/><path fill="#122b2f" d="M455.585 828.273c.849 4.078.393 27.488.434 33.153.094 12.952.308 26.721.533 39.793.053 3.056-.077 17.081-.979 19.425-.513-30.789-.509-61.583.012-92.371"/><path fill="#5b6f71" d="m506.092 588.773 1.205.394-.103.509c-2.483.742-3.66.782-6.21.981l.265-1.129z"/><path fill="#141b1f" d="M455.944 686.927c6.845 1.849 8.74 3.416 13.529 8.281.143 2.641.79 8.455-.586 10.563l-1.417.186c-1.511.533-2.593.749-3.732 1.865-2.019-.406-2.848-2.285-5.83-2.035-1.182 1.493-.819 1.168-1.168 3.311-1.34-2.753-.806-17.967-.796-22.171"/><path fill="#3e2c27" d="M456.548 687.999c9.601 2.752 12.08 6.555 12.143 16.01q-6.08.1-12.16.068c.12-5.27.026-10.788.017-16.078"/><path fill="#173439" d="M667.335 343.592c20.16.608 41.54 1.992 61.887 2.889l.939 1.604c15.956 2.284 43.051 2.003 60.394 2.988l.25-1.671c3.494.078 7.176.097 10.643.376 8.826-.272 39.365.226 45.943 4.454 4.269 2.744-3.59 42.85-4.701 49.661l-7.92 50.144-5.362 35.509c-.925 6.179-2.203 24.563-7.784 27.161l-.832.662c-1.605-.189-2.107-.373-3.637.2-1.905 2.25-.979 2.403-1.815 4.29q-.23-.54-.478-1.07c-1.248-2.623-1.907-2.857-4.653-3.831l.254-.81c-2.913.074-8.427.376-10.362 2.792l-.422-.767c-2.892-.475-16.998-.855-19.549-.063-.056.97-.098 1.48-.057 2.451 1.716 5.224 5.702 22.173 5.371 27.112.301 2.782.558 5.004.579 7.825 4.291-.075 13.564-.566 17.281.667-.559.941-.264.644-.707 1.038-16.259-.578-37.901.256-54.837.212-8.011.296-17.359-.08-25.492.114-4.98.119-16.529.257-21.171-.385l.622-.47c.049-1.657-1.27-3.25-2.711-3.942l1.07-.835.535.924c.82-.421.601-.14.875-.616 2.675-2.639 4.066-2.918 7.769-3.794-.215-2.868-.617-2.562-1.567-5.198l1.934-.853c3.242-.054 6.324.035 9.562.126l3.711 3.629c7.16-.23 15.007.23 19.117-6.43-.363-2.494-.398-4.15-.459-6.631-1.136-3.85-1.696-10.658-2.175-14.85-23.278-1.57-47.713.55-71.082-.009-8.946-.214-30.646 1.414-36.952-4.458-4.34-6.713 7.244-58.55 7.288-69.246.007-1.728 2.075-12.522 2.655-14.786l-.832-.121-1.855-.867.023-1.241c2.052-5.362 2.147-7.398 2.46-13.194l.89-.606c-1.103-1.462-3.329-3.524-4.7-4.876 1.176-2.658 1.876-4.497 2.81-7.241l-.646-.452c2.963-2.07 6.214-3.822 5.587-7.857-1.193-1.624-1.148-1.523-3.071-2.247l-.601-.169.733-1.331 4.893-.795c1.051-2.093.902-7.825 1.394-10.889 1.375-8.562 2.281-24.401 7.133-31.371 2.062-2.961 8.49-2.741 11.828-2.856"/><path fill="#345054" d="M741.555 533.054c1.079-11.225-9.131-72.754-6.3-75.951l2.273.148c5.298.28 25.83-.359 28.629 2.055 1.554 3.174 1.686 8.675 2.729 10.065 2.112 12.45 4.775 24.732 6.883 37.034.29 2.563 2.103 13.168 4.304 14.156 1.716 5.224 5.702 22.173 5.371 27.112.301 2.782.558 5.004.579 7.825 4.291-.075 13.564-.566 17.281.667-.559.941-.264.644-.707 1.038-16.259-.578-37.901.256-54.837.212-8.011.296-17.359-.08-25.492.114-4.98.119-16.529.257-21.171-.385l.622-.47c.049-1.657-1.27-3.25-2.711-3.942l1.07-.835.535.924c.82-.421.601-.14.875-.616 2.675-2.639 4.066-2.918 7.769-3.794-.215-2.868-.617-2.562-1.567-5.198l1.934-.853c3.242-.054 6.324.035 9.562.126l3.711 3.629c7.16-.23 15.007.23 19.117-6.43-.363-2.494-.398-4.15-.459-6.631"/><path fill="#5b6f71" d="M741.555 533.054c1.079-11.225-9.131-72.754-6.3-75.951l2.273.148c1.251 7.35 2.113 15.111 2.976 22.608 2.446 21.248 5.839 42.6 7.427 63.916.317 4.263-1.998 8.008-6.293 8.043-6.612.727-13.033.342-19.654.398-5.507-.011-15.342.786-20.496-.011 2.675-2.639 4.066-2.918 7.769-3.794-.215-2.868-.617-2.562-1.567-5.198l1.934-.853c3.242-.054 6.324.035 9.562.126l3.711 3.629c7.16-.23 15.007.23 19.117-6.43-.363-2.494-.398-4.15-.459-6.631"/><path fill="#020203" d="M742.014 539.685c2.358 8.191-10.956 8.161-15.96 8.256-5.495.104-11.33.742-16.797.47-.215-2.868-.617-2.562-1.567-5.198l1.934-.853c3.242-.054 6.324.035 9.562.126l3.711 3.629c7.16-.23 15.007.23 19.117-6.43"/><path fill="#141b1f" d="M738.688 556.77c11.312-2.677 29.337 1.009 41.316-.988 5.323-.887 2.628-4.896 5.44-8.109.301 2.782.558 5.004.579 7.825 4.291-.075 13.564-.566 17.281.667-.559.941-.264.644-.707 1.038-16.259-.578-37.901.256-54.837.212-2.138-.344-6.721-.505-9.072-.645"/><defs><linearGradient id="b" x1="609.7" x2="846.097" y1="440.405" y2="369.08" gradientUnits="userSpaceOnUse"><stop offset="0" stop-color="#354f53"/><stop offset="1" stop-color="#667b7f"/></linearGradient></defs><path fill="url(#b)" d="M667.335 343.592c20.16.608 41.54 1.992 61.887 2.889l.939 1.604c15.956 2.284 43.051 2.003 60.394 2.988l.25-1.671c3.494.078 7.176.097 10.643.376l.063 1.85c16.396 1.931 30.842-2.153 44.646 5.217-15.804.533-35.171-.821-51.346-1.51l-72.777-3.125c-14.272-.744-44.446-3.364-57.618-.96-4.367 10.965-7.379 38.351-9.319 51.402l-11.481 77.163c-.847 6.086-3.754 29.63-6.099 33.699-3.165 1.245-3.034-2.092-6.171.223-4.34-6.713 7.244-58.55 7.288-69.246.007-1.728 2.075-12.522 2.655-14.786l-.832-.121-1.855-.867.023-1.241c2.052-5.362 2.147-7.398 2.46-13.194l.89-.606c-1.103-1.462-3.329-3.524-4.7-4.876 1.176-2.658 1.876-4.497 2.81-7.241l-.646-.452c2.963-2.07 6.214-3.822 5.587-7.857-1.193-1.624-1.148-1.523-3.071-2.247l-.601-.169.733-1.331 4.893-.795c1.051-2.093.902-7.825 1.394-10.889 1.375-8.562 2.281-24.401 7.133-31.371 2.062-2.961 8.49-2.741 11.828-2.856"/><path fill="#122b2f" d="m642.087 389.503 4.893-.795c.924.937 1.107 1.36.941 3.086-1.122 11.632-2.872 25.904-5.69 37.091l-.942.82-.832-.121-1.855-.867.023-1.241c2.052-5.362 2.147-7.398 2.46-13.194l.89-.606c-1.103-1.462-3.329-3.524-4.7-4.876 1.176-2.658 1.876-4.497 2.81-7.241l-.646-.452c2.963-2.07 6.214-3.822 5.587-7.857-1.193-1.624-1.148-1.523-3.071-2.247l-.601-.169z"/><path fill="#d49d89" d="M640.085 401.559c1.813-.591.927-.562 2.753-.128 1.362 1.768 1.184 3.437.92 5.631a25 25 0 0 1-1.783 6.614c-1.103-1.462-3.329-3.524-4.7-4.876 1.176-2.658 1.876-4.497 2.81-7.241"/><path fill="#141b1f" d="M667.335 343.592c20.16.608 41.54 1.992 61.887 2.889l.939 1.604c-6.577-.155-59.901-2.068-63.194-3.448z"/><path fill="#173439" d="M790.805 349.402c3.494.078 7.176.097 10.643.376l.063 1.85a514 514 0 0 1-10.956-.555z"/><path fill="#020203" d="M768.886 469.371c2.331 2.882 8.33 34.073 6.883 37.034-2.108-12.302-4.771-24.584-6.883-37.034"/><path fill="#141b1f" d="M810.463 516.148c2.112-.074 9.443-.793 10.648-.139l.513.698-.832.662c-1.605-.189-2.107-.373-3.637.2-1.905 2.25-.979 2.403-1.815 4.29q-.23-.54-.478-1.07c-1.248-2.623-1.907-2.857-4.653-3.831z"/><path fill="#020203" d="M914.5 555.591c3.635-.063 4.528.646 7.448 2.87 6.774 8.575 18.418-7.971 16.462 19.096-1.508 20.862-1.26 28.881-12.594 47.382 18.176.119 35.716-.847 53.959.484 2.859 18.584.384 18.344-17.001 17.521.308 17.105-.173 34.511-.212 51.671l.07 108.336c.136 33.973.19 68.825.103 102.866-.01 3.825-2.883 11.31-7.205 12.374-7.091-1.942-5.576-18.343-5.502-24.144a1235 1235 0 0 0-45.13 3.041c1.745 7.74 2.253 21.429-8.803 21.28-3.989-.479-7.878-1.814-7.95-6.541-.11-7.297-.048-14.613-.051-21.913l-.063-46.825-1.042-115.542c-.034-12.741-.154-25.459-.251-38.197-.115-14.92.523-30.514-.201-45.364l.534-16.019-5.628-.355c2.001-.183 2.473-.194 4.357-.794 2.099-1.799.855-34.942.871-40.273l.981-1.475c-7.003-.135-22.22.762-27.348.202-1.298-.365-1.18-.275-2.523-.111l1.035-.483-.572.406 1.172-1.142c.767-2.009.586-4.225.612-6.426 5.494-.007 12.298.111 17.647-.44-4.823-.388-20.49.759-23.839-1.051 9.315-.652 62.184.572 65.765-2.334 1.585-1.286 2.164-2.931 2.292-4.912.278-4.316-1.452-8.383-4.203-11.597-1.055-.225-2.883-.35-4.018-.467zm-9.969 205.155c4.116-.137 12.125.598 16.462.862q14.438.896 28.893 1.504a8816 8816 0 0 0-.897-119.945c-4.847-.23-10.644.169-15.588.251q-14.807.11-29.608.564c.358 8.676.133 18.667.138 27.485.006 12.138.253 24.684.039 36.786-.068 16.733-.304 35.93.561 52.493m.424 108.37-.064 5.726c15.227 2.109 31.554 3.404 46.58 5.845.222-35.643-1.159-70.133-1.49-105.461-15.306.74-30.57.944-45.996 1.779.788 3.274.714 26.016.672 30.883-.177 20.192.642 41.107.298 61.228"/><path fill="#345054" d="m877.675 577.076 24.317-.078a1384 1384 0 0 0-.031 47.003c.033 5.243-.256 19.116.77 23.782l.46-.098q.333-1.846.602-3.703c.358 8.676.133 18.667.138 27.485.006 12.138.253 24.684.039 36.786-2.497 9.914-.722 31.66-.556 42.299.07 4.493-1.118 23.308.026 26.344l.545.109c.788 3.274.714 26.016.672 30.883-.177 20.192.642 41.107.298 61.228-.319.477-1.265 1.874-1.302 2.431-.463 6.816-.372 17.617.209 24.192.376.543.564.908 1.036 1.349 1.745 7.74 2.253 21.429-8.803 21.28-3.989-.479-7.878-1.814-7.95-6.541-.11-7.297-.048-14.613-.051-21.913l-.063-46.825-1.042-115.542c-.034-12.741-.154-25.459-.251-38.197-.115-14.92.523-30.514-.201-45.364l.534-16.019-5.628-.355c2.001-.183 2.473-.194 4.357-.794 2.099-1.799.855-34.942.871-40.273l.981-1.475c-7.003-.135-22.22.762-27.348.202-1.298-.365-1.18-.275-2.523-.111l1.035-.483-.572.406 1.172-1.142c.767-2.009.586-4.225.612-6.426 5.494-.007 12.298.111 17.647-.44"/><path fill="#122b2f" d="m887.652 585.07 7.299-.185c-.283 69.371-.035 138.744.745 208.111l1.007 78.821q.336 16.529.263 33.061c.002 3.279.329 9.828.103 12.599l-.974.891c-3.989-.479-7.878-1.814-7.95-6.541-.11-7.297-.048-14.613-.051-21.913l-.063-46.825-1.042-115.542c-.034-12.741-.154-25.459-.251-38.197-.115-14.92.523-30.514-.201-45.364l.534-16.019-5.628-.355c2.001-.183 2.473-.194 4.357-.794 2.099-1.799.855-34.942.871-40.273z"/><path fill="#957964" d="m950.504 642.91 10.487-.068-.061 11.123.015 166.175.004 58.901c0 6.154 2.31 36.198-4.614 36.39-5.926-3.872-4.587-17.122-4.305-23.511a781 781 0 0 0-47.026 3.567c-.209-6.118-.61-13.152-.123-19.189 14.228 1.565 34.052 5.263 47.727 5.241 1.453-15.368.589-26.866.314-42.288q-.687-33.193-.928-66.393a463 463 0 0 1-47.492 2.16l-.007-12.547c14.474.37 33.174.874 47.309 2.657-1.247-27.408.511-55.568-.648-83.043-.243-5.765-.213-11.703-.172-17.475-.12-7.239-.398-14.43-.48-21.7"/><path fill="#603d2f" d="m950.504 642.91 10.487-.068-.061 11.123c-2.419.709-6.741 7.918-9.946 10.645-.12-7.239-.398-14.43-.48-21.7"/><path fill="#d08336" d="M924.001 563.533c3.424-.254 8.717-1.214 11.275.623 2.938 4.52 1.057 27.079-.213 33.109-2.26 10.728-6.434 19.114-12.264 28.236l-17.348.087-1.376-.183c-1.475-1.961-1.55-43.261-.132-47.37 1.641-.965 1.606-.617 3.835-.63 13.458.394 15.16-.19 16.223-13.872"/><path fill="#ac6827" d="m905.451 625.588-1.376-.183c-1.475-1.961-1.55-43.261-.132-47.37 1.641-.965 1.606-.617 3.835-.63 7.205 13.235 9.002 25.128 2.753 39.267-1.067 2.414-4.51 6.731-5.08 8.916"/><path fill="#957964" d="M946.527 626.723c9.829-.481 22.483-.229 32.362-.165q.158 2.933.26 5.868c.083 2.654.154 5.936-1.729 7.948-4.965 1.855-33.535 1.16-40.295 1.154l-33.025.502c-.755-4.854-.577-9.57-.518-14.459 13.829.361 29.076-.352 42.945-.848"/><path fill="#e3e2e2" d="M782.354 107.702c16.813-2.502 28.067 10.459 37.768 21.389 12.961-4.516 23.396-6.624 36.1.474a37.5 37.5 0 0 1 17.949 22.664c3.601 12.859.568 22.422-5.688 33.534a143 143 0 0 1 2.825 4.256c5.788 9.145 8.347 18.336 5.809 29.104a37.52 37.52 0 0 1-17.151 23.35c-12.552 7.511-21.555 5.071-34.519 1.754-10.163 11.247-13.721 16.348-28.843 19.836-19.829 3.446-33.899-6.843-44.049-22.912-6.81 2.146-12.609 3.557-19.824 2.298a28.45 28.45 0 0 1-18.412-11.637c-7.484-10.454-5.516-19.792-3.532-31.35-3.056-3.09-7.645-6.945-10.194-10.279-5.977-8.044-7.971-17.976-6.844-27.775 1.974-17.158 14.009-31.354 30.982-35.188 8.404-1.898 16.47-.449 24.87.713 9.108-12.316 16.987-19.038 32.753-20.231"/><path fill="#345054" d="M739.368 145.441c7.205-2.67 27.261-2.984 35.391-2.933 5.551.035 25.655-.158 28.587 3.779 4.065 5.456 2.445 24.638 2.148 31.362-9.57-.118-16.498-2.28-22.43 6.79-.243 4.861-.156 8.715-.017 13.554l-17.029.104c-6.168 3.674-12.019 9.683-18.285 12.832-1.054.53-1.475.069-2.227-.368-1.14-3.324.886-8.69 1.882-12.22a221 221 0 0 1-3.924-1.564c-2.29-.958-5.235-2.939-5.71-5.276-2.151-10.592-2.395-36.847 1.614-46.06"/><path fill="#e3e2e2" d="M767.172 151.475c16.72-.374 18.151 9.295 9.108 20.869-1.518 1.944-4.027 4.851-6.676 5.098-.792.074-.929-.406-1.49-.984-.381-1.738-.081-2.335.366-4.05l.162-.605c2.322-2.762 10.296-10.752 5.307-13.982-4.06-2.627-9.528 4.128-13.57 4.62l-.779-.68c-.773-5.661 3.324-7.758 7.572-10.286"/><path fill="#e3e2e2" d="M769.869 181.768a3.418 3.418 0 1 1 1.885 6.57 3.418 3.418 0 0 1-1.885-6.57"/><path fill="#d08336" d="M805.494 177.649c6.389.206 30.04-1.32 34.394 3.164 4.76 4.902 3.708 23.738 3.192 30.387-.539 6.941-3.387 8.137-9.063 11.008l3.05 12.732c-5.745-3.896-12.732-8.911-18.563-12.439-4.032.003-8.422-.074-12.433.02-16.273.382-23.287 1.8-23.119-18.226q.031-3.152.095-6.302c-.139-4.839-.226-8.693.017-13.554 5.932-9.07 12.86-6.908 22.43-6.79"/><path fill="#e3e2e2" d="M804.259 188.731c4.199.138 25.463-1.208 26.645 2.459l-.695.908c-3.078.753-6.975.513-10.225.476-6.036.157-19.093 1.068-25.007-.706-.624-.187-.627-.869-.847-1.628l.774-.841c2.497-.815 6.561-.638 9.355-.668"/><path fill="#e3e2e2" d="M804.581 198.245c6.696-.066 20.333-1.012 25.96 1.751l.117.498c-1.763 1.646-6.147 1.668-8.633 1.844-4.187.023-24.412.705-26.343-2.249 1.956-1.958 6.11-1.725 8.899-1.844"/><path fill="#e3e2e2" d="M801.849 207.221c3.297-.287 10.014-.379 12.278 2.298l-.328.877c-1.978 1.173-3.802.898-6.175.915-3.493.1-9.875.247-12.638-2.276l.294-.826c2.214-1.131 4.046-.922 6.569-.988"/><path fill="#cfba9e" d="m609.123 463.33.459-.011c.071 21.978-13.419 58.236-28.824 73.627a50.2 50.2 0 0 1-11.2 8.418l-2.003 1.061.102.531c1.273.152 2 .257 3.292.259q12.93-1.16 25.882-2.026c7.472-.362 15.279-.752 22.757-.789 29.863-.145 60.195-2.261 90.036-2.04l-1.934.853c.95 2.636 1.352 2.33 1.567 5.198-3.703.876-5.094 1.155-7.769 3.794-.274.476-.055.195-.875.616l-.535-.924-1.07.835c1.441.692 2.76 2.285 2.711 3.942l-.622.47c4.642.642 16.191.504 21.171.385 8.133-.194 17.481.182 25.492-.114 16.936.044 38.578-.79 54.837-.212.443-.394.148-.097.707-1.038 2.39-4 4.127-9.883 5.222-14.392a1111 1111 0 0 0-8.425-22.833c1.935-2.416 7.449-2.718 10.362-2.792l-.254.81c2.746.974 3.405 1.208 4.653 3.831q.249.53.478 1.07c.836-1.887-.09-2.04 1.815-4.29 1.53-.573 2.032-.389 3.637-.2 2 6.03 4.816 15.24 7.264 20.797 9.152 6.19 8.099 8.229 13.227 16.835q8.053.01 16.105.146c9.869-.362 21.427-.085 31.472-.121-1.413-2.143-3.256-4.393-4.843-6.441 3.887-1.197 5.372 5.36 9.12 6.051l.548-.912a38.6 38.6 0 0 0-1.566-11.806c.848-1.992.186-1.28 1.918-2.331 1.923 3.134 2.579 14.494-.227 17.074-2.823.308-4.99.18-7.566.409 4.619.722 15.006.448 20.063.39 3.741-.015 7.674.046 11.383-.278 2.751 3.214 4.481 7.281 4.203 11.597-.128 1.981-.707 3.626-2.292 4.912-3.581 2.906-56.45 1.682-65.765 2.334-2.599-.245-6.042-.045-8.713.021-10.701-.382-23.436-.034-34.285-.055-18.445-.036-37.183-.138-55.609.095 8.695 1.495 25.372-1.278 32.282 1.252-7.161 1.525-27.679-.425-35.831.671-8.471.002-22.318-.406-30.406.333-7.884.37-16.154-.01-24.103.108l-76.011.568-73.151-.04c-8.113.012-15.667.624-23.908.454-2.635-.723-6.371-.346-9.048-.491-6.874-.371-19.897.378-26.332-.853-7.466-.75-26.974-.11-35.101-.017-2.21-.134-4.806-.126-7.052-.178-.062-6.67-.518-13.478-.593-20.3q5.235.033 10.47-.083l-.135-.433c6.078-.548 13.406-.104 19.606-.257 17.006-.419 35.687.688 52.53-.13-5.339-.219-10.788-.182-16.147-.198-1.202-.004-1.291-.538-1.788-1.299 5.929-5.304 8.689-2.203 11.964-8.337-.209 2.473-.788 4.644.168 6.752 1.199.908 1.491 1.197 2.869 1.852l1.899-1.094.527-.352.794 1.691c2.072.654 7.796.339 9.981-.132 1.485-.065 3.767.234 5.307.379a199 199 0 0 0 3.056-6.071c1.77-.388 3.854-.683 5.337-1.622l-.052-.812-1.823-1.361.602-.692c2.181.548 5.62 1.212 7.868 1.132 29.506-1.053 50.235-60.436 50.115-83.196"/><path fill="#122b2f" d="M800.101 518.94c1.935-2.416 7.449-2.718 10.362-2.792l-.254.81c2.746.974 3.405 1.208 4.653 3.831q.249.53.478 1.07c.836-1.887-.09-2.04 1.815-4.29 1.53-.573 2.032-.389 3.637-.2 2 6.03 4.816 15.24 7.264 20.797 9.152 6.19 8.099 8.229 13.227 16.835q8.053.01 16.105.146c-2.319 1.093-5.678-.362-8.851.853l-.225 1.115q-13.04.441-26.088.407c-5.544.035-14.242.255-19.627-.319.443-.394.148-.097.707-1.038 2.39-4 4.127-9.883 5.222-14.392a1111 1111 0 0 0-8.425-22.833"/><defs><linearGradient id="c" x1="810.616" x2="817.987" y1="517.764" y2="537.005" gradientUnits="userSpaceOnUse"><stop offset="0" stop-color="#515151"/><stop offset="1" stop-color="#68676a"/></linearGradient></defs><path fill="url(#c)" d="M810.209 516.958c2.746.974 3.405 1.208 4.653 3.831q.249.53.478 1.07c.837 4.063 5.657 12.148 3.538 16.05-4.849.326-9.306-15.506-9.738-19.462-.093-.846.435-.943 1.069-1.489"/><path fill="#122b2f" d="M596.831 545.189c7.472-.362 15.279-.752 22.757-.789 29.863-.145 60.195-2.261 90.036-2.04l-1.934.853c.95 2.636 1.352 2.33 1.567 5.198-3.703.876-5.094 1.155-7.769 3.794-.274.476-.055.195-.875.616l-.535-.924-1.07.835c-5.419.518-14.686.259-20.343.262l-37.417.006c-6.211.008-34.193.845-38.689-.3l-.153-.729c-.502-1.303-.435-3.801-.497-5.32-1.168-1.152-3.161-1.127-5.078-1.462"/><path fill="#345054" d="m602.406 551.971 68.319.057c8.281.014 21.619-.564 29.353-.131l-1.07.835c-5.419.518-14.686.259-20.343.262l-37.417.006c-6.211.008-34.193.845-38.689-.3z"/><path fill="#141b1f" d="m609.123 463.33.459-.011c.071 21.978-13.419 58.236-28.824 73.627a50.2 50.2 0 0 1-11.2 8.418l-2.003 1.061.102.531c1.273.152 2 .257 3.292.259q12.93-1.16 25.882-2.026c1.917.335 3.91.31 5.078 1.462.062 1.519-.005 4.017.497 5.32l.153.729c-.699 2.472-.252 2.305-1.842 3.832-1.956.42-2.835.442-4.857.543-34.412 1.353-69.695-.242-104.207.307-10.899.174-24.582-.485-35.208.128l-.135-.433c6.078-.548 13.406-.104 19.606-.257 17.006-.419 35.687.688 52.53-.13-5.339-.219-10.788-.182-16.147-.198-1.202-.004-1.291-.538-1.788-1.299 5.929-5.304 8.689-2.203 11.964-8.337-.209 2.473-.788 4.644.168 6.752 1.199.908 1.491 1.197 2.869 1.852l1.899-1.094.527-.352.794 1.691c2.072.654 7.796.339 9.981-.132 1.485-.065 3.767.234 5.307.379a199 199 0 0 0 3.056-6.071c1.77-.388 3.854-.683 5.337-1.622l-.052-.812-1.823-1.361.602-.692c2.181.548 5.62 1.212 7.868 1.132 29.506-1.053 50.235-60.436 50.115-83.196"/><path fill="#ac6827" d="M522.475 546.856c-.209 2.473-.788 4.644.168 6.752 1.199.908 1.491 1.197 2.869 1.852-4.701-.043-10.477.295-15.001-.267 5.929-5.304 8.689-2.203 11.964-8.337"/><path fill="#020203" d="M488.721 578.088a12361 12361 0 0 1 174.372-1.254c30.485-.162 61.729-1.407 92.136-.748 8.695 1.495 25.372-1.278 32.282 1.252-7.161 1.525-27.679-.425-35.831.671-8.471.002-22.318-.406-30.406.333-7.884.37-16.154-.01-24.103.108l-76.011.568-73.151-.04c-8.113.012-15.667.624-23.908.454-2.635-.723-6.371-.346-9.048-.491-6.874-.371-19.897.378-26.332-.853"/><path fill="#122b2f" d="M602.559 552.7c4.496 1.145 32.478.308 38.689.3l37.417-.006c5.657-.003 14.924.256 20.343-.262 1.441.692 2.76 2.285 2.711 3.942l-.622.47c-20.084.705-43.051.189-63.483.289l-25.052.092c-4.628.007-12.275.145-16.702-.45 2.022-.101 2.901-.123 4.857-.543 1.59-1.527 1.143-1.36 1.842-3.832"/><path fill="#020203" d="M894.037 539.587c1.923 3.134 2.579 14.494-.227 17.074-2.823.308-4.99.18-7.566.409-11.068-.225-28.053.996-37.932.045l.225-1.115c3.173-1.215 6.532.24 8.851-.853 9.869-.362 21.427-.085 31.472-.121-1.413-2.143-3.256-4.393-4.843-6.441 3.887-1.197 5.372 5.36 9.12 6.051l.548-.912a38.6 38.6 0 0 0-1.566-11.806c.848-1.992.186-1.28 1.918-2.331"/><defs><linearGradient id="d" x1="36.265" x2="102.64" y1="649.832" y2="629.365" gradientUnits="userSpaceOnUse"><stop offset="0" stop-color="#262624"/><stop offset="1" stop-color="#3e4534"/></linearGradient></defs><path fill="url(#d)" d="M57.513 603.794c-2.073-4.808-5.867-22.299-6.186-27.007-.621-9.163 2.42-58.591 10.08-61.779 1.993.214 2.962 1.007 4.752 2.042 14.125 9.059 27.107 28.347 30.535 44.508 3.95 18.622 5.983 24.888 17.289 41.061v38.537c-.673-1.937-2.948-5.954-4.001-7.938-10.694-.987-12.965-6.998-15.722-16.046-3.743 16.831 4.043 29.872 2.47 39.053.741 5.199 1.69 9.76 3.243 14.827 7.266 23.695 8.877 50.025 8.305 74.723-.04 1.748-.088 5.899-.575 7.442-2.516-.36-5.497-.326-7.182-1.693-.249 2.399-.108 4.439-1.677 6.141l-1.039-.072c-2.128-1.916-2.056-3.056-2.443-5.969l-1.167-3.137c-3.307-6.593-3.063-11.977-8.921-20.137-11.974-15.666-25.932-25.036-40.315-38.167-8.496-7.757-17.103-16.166-25.62-23.894-.706-.64-9.768-5.943-11.402-6.988l-.125-.808c2.548-4.532 16.33-5.663 21.213-5.302 4.48 2.285 8.698 3.591 13.553 4.882-1.443-5.247-7.242-10.901-9.111-15.668-3.799-9.686-4.531-18.68-8.84-28.487-1.011-1.44-1.4-1.761-1.572-3.532 3.015-5.815 28.531 6.635 33.762 8.744.174-5.213 1.038-10.077.696-15.336"/><path fill="#345054" d="M66.16 517.05c14.124 9.059 27.106 28.347 30.534 44.508 3.95 18.622 5.983 24.888 17.289 41.061v38.537c-.673-1.937-2.948-5.954-4.001-7.938-10.694-.987-12.965-6.998-15.722-16.046-.445-3.556-8.312-18.053-9.984-22.94-5.03-14.692-9.374-29.527-13.92-44.363.787-5.458-1.298-16.012 3.608-19.107-3.483-4.264-7.455-8.14-7.805-13.712"/><path fill="#757351" d="M66.16 517.05c14.124 9.059 27.106 28.347 30.534 44.508 3.95 18.622 5.983 24.888 17.289 41.061v38.537c-.673-1.937-2.948-5.954-4.001-7.938-4.292-20.396-11.075-38.823-17.269-58.647-3.212-10.282-3.897-21.816-8.477-31.746-2.001-4.336-6.84-8.696-10.272-12.063-3.483-4.264-7.455-8.14-7.805-13.712"/><path fill="#173439" d="M85.274 728.35c-11.974-15.666-25.932-25.036-40.315-38.167-8.496-7.757-17.103-16.166-25.62-23.894-.706-.64-9.768-5.943-11.402-6.988l-.125-.808c2.548-4.532 16.33-5.663 21.213-5.302 4.48 2.285 8.698 3.591 13.553 4.882 4.62 4.567 6.949 2.487 9.668 9.001 5.774 7.377 44.611 54.493 33.028 61.276"/><path fill="#757351" d="M29.025 653.191c4.48 2.285 8.698 3.591 13.553 4.882 4.62 4.567 6.949 2.487 9.668 9.001-5.246-2.239-10.108-5.135-15.492-7.317-2.627-1.064-7.753-1.602-8.815-2.744.247-1.812.437-2.176 1.086-3.822"/><path fill="#757351" d="M57.513 603.794c3.69 2.552 10.651 15.49 13.35 20.146 8.92 11.858 23.492 43.205 24.823 57.686l2.052 6.522c-9.969-7.604-10.277-12.837-17.06-22.947-4.201-6.26-9.492-14.945-15.138-19.869-3.568-3.202-9.329-5.881-12.35-9.532-4.815-5.817-18.167-29.062-28.563-21.882-1.011-1.44-1.4-1.761-1.572-3.532 3.015-5.815 28.531 6.635 33.762 8.744.174-5.213 1.038-10.077.696-15.336"/><path fill="#705e3e" d="M57.19 622.691c4.003.643 9.718 1.418 13.674 1.249 8.918 11.858 23.49 43.205 24.822 57.686-2.304-2.41-6.046-12.62-7.66-16.168-8.732-19.188-15.24-28.748-30.836-42.767"/><path fill="#141b1f" d="M96.73 656.225a292 292 0 0 1-3.64-20.095c-1.067-7.734-1.646-15.37-3.808-22.918-3.117-10.88-23.636-54.477-18.925-63.343 4.545 14.836 8.889 29.671 13.919 44.363 1.672 4.887 9.54 19.384 9.984 22.94-3.743 16.831 4.043 29.872 2.47 39.053"/><path fill="#957964" d="M100.521 751.524c1.88-6.694 7.264-5.835 7.182 1.693-2.516-.36-5.497-.326-7.182-1.693"/><path fill="#757351" d="M83.878 702.018c9.037 3.902 9.847 17.722 10.056 26.184-2.158-1.654-8.702-22.138-10.056-26.184"/><path fill="#122b2f" d="M587.126 304.878c-3.452-8.05-.953-9.2 6.341-13.21 5.776-3.175 12.184-6.328 18.689-7.607 10.2 6.988 40.697 14.509 53.76 18.061a1652 1652 0 0 1 30.819 8.726c21.161 6.123 42.469 12.535 63.696 18.416 5.265 1.458 15.207-1.26 20.456 2.036 5.969 3.749 8.036 11.838 9.918 18.102l-.25 1.671c-17.343-.985-44.438-.704-60.394-2.988l-.939-1.604c-6.584-3.143-13.985-4.701-21.003-6.62-29.136-7.965-58.165-16.362-87.184-24.743-9.834-2.839-14.693-.135-24.774-5.732-1.135 1.963-7.077 11.932-7.127 13.381-.348 10.123-7.554 14.934-10.201 24-1.23 4.211-.518 9.851-1.64 14.171-.737 3.012-2.849 4.226-2.912 7.672l1.23 1.877c5.603 5.09 9.807 10.461 13.95 16.799 1.55 2.394 2.154 4.642 3.08 7.337-.898 2.927-2.078 5.67-4.045 8.049-23.761 28.754-33.648-6.315-50.61-15.561l-.605-.323c-1.472-.378-3.196-1.112-4.65-1.673-3.069-4.706-7.955-15.745-13.361-17.004l-.556.579c.454 3.706 4.714 7.772 7.306 11.111l-1.075.415c-4.947-5.171-9.983-9.25-15.86-13.29l2.43-.217c2.212 1.118 2.13 1.552 4.229 1.294l.618-1c-.763-9.365-26.015-21.725-12.216-37.386 3.967-4.502 7.386-6.463 11.772-10.211 3.59-.387 6.501-.593 10.122-.047 11.074 8.004 16.663 15.764 25.899 25.405 9.053-4.438 13.139-4.942 17.729-14.393.96-1.977 2.925-5.329 4.179-7.296 1.351-2.119 5.787-4.864 7.071-6.561 2.316-3.06 4.268-8.182 6.108-11.636m-48.794 81.367c.933-1.104.753-2.426.564-3.747l-.735-.425c-.082 1.55-.266 2.682.171 4.172m81.829-79.681a4816 4816 0 0 1 46.418 13.307c7.991 2.317 20.233 6.243 27.993 7.564 7.954 1.355 26.11 2.419 34.215 1.642l.241-.461c-4.255-1.975-26.112-7.417-32.517-9.268-24.42-7.054-49.992-15.58-74.723-21.01zm138.564 37.186c.402-2.314.784-4.813 1.259-7.096-11.788-1.009-23.451-2.277-35.265-1.528 4.142 1.488 29.646 9.355 33.356 9.472z"/><path fill="#345054" fill-opacity=".988" d="m538.161 382.073.735.425c.189 1.321.369 2.643-.564 3.747-.437-1.49-.253-2.622-.171-4.172"/><path fill="#173439" d="M544.271 370.363c2.852 1.401 22.93 23.853 27.363 27.99 8.868-7.311 8.802-6.172 17.927-11.067 1.55 2.394 2.154 4.642 3.08 7.337-.898 2.927-2.078 5.67-4.045 8.049-23.761 28.754-33.648-6.315-50.61-15.561l-.605-.323.951-.543c.933-1.104.753-2.426.564-3.747l-.735-.425c.707-3.996 3.222-8.845 6.11-11.71"/><path fill="#345054" d="M544.271 370.363c6.53-5.386 9.935-8.924 18.025-11.636 5.25 7.242 13.104 13.583 16.682 18.839l-.433.179c-3.577-2.305-14.148-14.647-16.673-18.41-2.146 1.091-4.977 2.433-7.027 3.586a1169 1169 0 0 1 17.129 18.14c1.534 1.677 6.937 8.009 8.393 9.099 2.523-.712 3.412-.915 5.714-2.065l1.249-2.239c-2.645-4.674-10.933-12.04-11.719-15.369 5.603 5.09 9.807 10.461 13.95 16.799-9.125 4.895-9.059 3.756-17.927 11.067-4.433-4.137-24.511-26.589-27.363-27.99"/><path fill="#5b6f71" d="M589.545 305.787c1.571.637 2.49 1.068 4.006 1.84l.25.816c-1.459 4.416-5.799 11.256-8.351 15.462-2.029.125-2.564-.052-3.423-1.757.329-4.795 4.954-12.196 7.518-16.361"/><path fill="#e3e2e2" d="M565.701 350.437c1.951.064 2.116.445 3.211 1.561.796 2.679.137 5.344-2.192 7.004l-.932-.349c-1.611-1.7-3.683-3.385-5.475-4.932z"/><path fill="#5b6f71" d="M591.144 296.725a3.256 3.256 0 1 1 3.091 5.727 3.256 3.256 0 0 1-3.091-5.727"/><path fill="#345054" d="M130.183 627.46c.926-3.352 3.013-10.013 4.732-12.884 9.15-15.287 50.3-63.044 69.355-59.038 1.163 18.693-20.487 67.72-33.781 83.066-4.282 4.943-13.006 12.255-18.241 18.452-3.195 5.163-5.588 8.858-7.631 14.638-.97 3.519-.945 6.968.302 10.419 9.523-6.167 14.283-11.799 22.578-18.911 7.84-6.723 22.226-11.874 32.125-15.101-6.154 11.862-11.68 19.834-17.594 32.528-11.069 5.877-15.603 3.39-25.399 14.047 4.329-1.379 15.081-3.062 17.607 1.857.53 8.814-23.601 22.044-30.839 24.121-3.372.967-7.755 2.324-10.92 3.641-4.797 8.087-5.458 12.253-7.237 21.377-1.99 1.787-2.387 2.688-3.431 5.222-1.497 3.244-2.93 8.225-6.903 8.672-2.551.124-4.965.616-6.851-1.054-.897-1.897-.54-3.1-.352-5.295.487-1.543.535-5.694.575-7.442.572-24.698-1.039-51.028-8.305-74.723-1.553-5.067-2.502-9.628-3.242-14.827 1.572-9.181-6.214-22.222-2.471-39.053 2.757 9.048 5.028 15.059 15.722 16.046 1.053 1.984 3.328 6.001 4.001 7.938.033 9.521.407 22.268-.157 31.558-.773 12.735-3.502 20.891-2.605 34.322 4.275-11.106 8.336-29.882 12.499-42.609 1.223-16.798 1.844-20.503 6.463-36.967"/><defs><linearGradient id="e" x1="166.248" x2="123.331" y1="709.66" y2="685.364" gradientUnits="userSpaceOnUse"><stop offset="0" stop-color="#3d2523"/><stop offset="1" stop-color="#413f33"/></linearGradient></defs><path fill="url(#e)" d="M144.919 682.113c9.523-6.167 14.283-11.799 22.578-18.911 7.84-6.723 22.226-11.874 32.125-15.101-6.154 11.862-11.68 19.834-17.594 32.528-11.069 5.877-15.603 3.39-25.399 14.047 4.329-1.379 15.081-3.062 17.607 1.857.53 8.814-23.601 22.044-30.839 24.121-3.372.967-7.755 2.324-10.92 3.641-4.797 8.087-5.458 12.253-7.237 21.377-1.99 1.787-2.387 2.688-3.431 5.222-1.497 3.244-2.93 8.225-6.903 8.672-2.64-12.259 2.219-49.856 6.115-62.668 1.736-5.707 4.332-13.229 5.855-19.35l.149-.615 3.033 1.521c2.096-5.802 7.559-11.12 12.112-15.077.26 4.02.04 5.062 2.447 8.317-.97 3.519-.945 6.968.302 10.419"/><path fill="#5b6f71" d="M130.058 678.454c2.096-5.802 7.559-11.12 12.112-15.077.26 4.02.04 5.062 2.447 8.317-.97 3.519-.945 6.968.302 10.419-6.917 4.465-10.432 15.363-14.339 22.5-1.11-6.338-.658-19.437-.522-26.159"/><defs><linearGradient id="f" x1="136.736" x2="80.04" y1="682.935" y2="665.565" gradientUnits="userSpaceOnUse"><stop offset="0" stop-color="#111a1d"/><stop offset="1" stop-color="#3b3d3c"/></linearGradient></defs><path fill="url(#f)" d="m159.726 605.477.949 1.399-.072 1.168c-2.202 2.036-5.788 9.129-7.402 11.979-10.629 18.775-18.794 36.646-26.176 56.91l-.149.615c-1.523 6.121-4.119 13.643-5.855 19.35-3.896 12.812-8.755 50.409-6.115 62.668-2.551.124-4.965.616-6.851-1.054-.897-1.897-.54-3.1-.352-5.295.487-1.543.535-5.694.575-7.442.572-24.698-1.039-51.028-8.305-74.723-1.553-5.067-2.502-9.628-3.242-14.827 1.572-9.181-6.214-22.222-2.471-39.053 2.757 9.048 5.028 15.059 15.722 16.046 1.053 1.984 3.328 6.001 4.001 7.938.033 9.521.407 22.268-.157 31.558-.773 12.735-3.502 20.891-2.605 34.322 4.275-11.106 8.336-29.882 12.499-42.609 6.728-6.314 11.593-22.118 16.666-31.559a138.8 138.8 0 0 1 19.34-27.391"/><path fill="#757351" d="M130.183 627.46c.926-3.352 3.013-10.013 4.732-12.884 9.15-15.287 50.3-63.044 69.355-59.038-6.379 4.416-12.026 10.258-18.161 15.125-10.96 8.696-21.313 16.159-31.238 26.119-6.423 6.446-17.328 29.122-24.688 30.678"/><path fill="#757351" d="M142.17 663.377c3.757-3.044 5.61-4.528 10.078-6.321-3.195 5.163-5.588 8.858-7.631 14.638-2.407-3.255-2.187-4.297-2.447-8.317"/><path fill="#173439" d="M161.847 603.018c1.057-1.33 2.105-3.067 3.64-3.452 3.414 2.488-1.677 7.358-4.884 8.478l.072-1.168-.949-1.399z"/><path fill="#141b1f" d="M161.847 603.018c.051 2.115.187 1.806-1.172 3.858l-.949-1.399z"/><path fill="#8e5420" d="M125.24 745.672c2.474.65 3.616.959 6.145 1.188 8.755 1.031 17.714 2.121 25.648 6.247l-6.355 44.158c-1.895 12.877-3.643 46.366-14.819 53.379-16.196 5.224-44.024 4.627-59.215-3.289-4.849-2.526-7.756-27.483-8.92-33.738a4377 4377 0 0 1-9.953-53.178c-.086-1.791-.094-3.84 1.483-4.994 8.303-6.072 25.042-6.753 34.941-6.958l1.167 3.137c.387 2.913.315 4.053 2.443 5.969l1.04.072c1.568-1.702 1.427-3.742 1.676-6.141 1.685 1.367 4.666 1.333 7.182 1.693-.188 2.195-.545 3.398.352 5.295 1.886 1.67 4.3 1.178 6.851 1.054 3.973-.447 5.406-5.428 6.903-8.672 1.044-2.534 1.441-3.435 3.431-5.222"/><path fill="#603d2f" d="M57.771 760.439c26.308 9.938 30.13 11.18 34.837 40.483 2.365 14.723 11.083 38.318 26.856 43.035 4.324 1.524 13.819 4.089 16.395 6.687-16.196 5.224-44.024 4.627-59.215-3.289-4.849-2.526-7.756-27.483-8.92-33.738a4377 4377 0 0 1-9.953-53.178"/><path fill="#603d2f" d="M95.362 751.624c.387 2.913.315 4.053 2.443 5.969l1.04.072c1.568-1.702 1.427-3.742 1.676-6.141 1.685 1.367 4.666 1.333 7.182 1.693-.188 2.195-.545 3.398.352 5.295 1.886 1.67 4.3 1.178 6.851 1.054 3.973-.447 5.406-5.428 6.903-8.672 1.458 1.262 1.96 1.936 3.856 2.299 3.719-.408 21.794.394 23.053 3.963-1.157 1.463-2.721 2.251-4.501 2.647-18.998 4.227-60.246 6.613-77.174-2.398 9.996-5.428 24.476-2.294 28.32-5.781"/><path fill="#957964" d="M125.24 745.672c2.474.65 3.616.959 6.145 1.188-2.227 2.274-3.706 3.865-5.72 6.333-1.896-.363-2.398-1.037-3.856-2.299 1.044-2.534 1.441-3.435 3.431-5.222"/><path fill="#5b6f71" d="M905.846 437.174c3.462-17.563 18.993-51.742 33-61.458 26.372-18.292 17.628 37.963 15.577 46.741-2.935 21.406-20.289 56.522-37.331 71.018-.247.21-.323.238-.574.369-1.757 1.508-2.888 2.467-4.804 3.749-1.209 10.714-8.13 34.53-7.096 42.423l-.243.706-.957.392c.575 4.828-.753 10.746-3.233 14.912 1.038.543 4.089.597 6.122 1.434-5.057.058-15.444.332-20.063-.39 2.576-.229 4.743-.101 7.566-.409 2.806-2.58 2.15-13.94.227-17.074.198-1.284.297-.679-.278-1.818.389-9.724-1.582-32.867-7.329-40.579a391 391 0 0 1-4.857-4.864c-20.908-21.249-27.747-43.989-27.519-73.398-.138-9.043.783-17.401 5.964-25.019 22.676 11.108 35.716 32.457 38.976 57.181.213 1.887.545 4.186.545 6.051.188 3.213.615 8.098.366 11.147.303 12.516-1.995 21.746-3.06 33.586-.645 7.165 2.058 19.564 2.521 27.514 2.57-7.198 6.548-26.617 5.314-34.106-1.666-8.363-2.298-14.084-2.921-22.447-.967-9.878 1.469-26.085 4.087-35.661"/><path fill="#345054" d="M860.018 393.909c22.676 11.108 35.716 32.457 38.976 57.181.213 1.887.545 4.186.545 6.051.188 3.213.615 8.098.366 11.147l-.253.945c-.499 1.912-.352 3.59-1.236 5.086l-.532-.264-.306-1.281c-1.83-6.807-7.401-10.554-13.194-14.239l.052.412c.496 3.68 2.631 9.155 1.385 11.989.177 1.556 2.524 15.189 2.974 15.948.291 2.655.639 5.439.879 8.086l-.544 1.289c-.953.357-1.727.636-2.7.931a391 391 0 0 1-4.857-4.864c-20.908-21.249-27.747-43.989-27.519-73.398-.138-9.043.783-17.401 5.964-25.019"/><path fill="#5b6f71" d="M860.018 393.909c22.676 11.108 35.716 32.457 38.976 57.181.213 1.887.545 4.186.545 6.051.188 3.213.615 8.098.366 11.147l-.253.945c-.499 1.912-.352 3.59-1.236 5.086l-.532-.264-.306-1.281c-1.83-6.807-7.401-10.554-13.194-14.239-.202-2.015-.813-4.834-1.191-6.892-2.341-8.715-4.002-15.14-7.444-23.545-1.73-6.891-12.503-27.791-11.765-30.41-2.06-1.098-1.283-1.043-3.364-.863-5.395 3.112-3.516 16.284-6.566 22.103-.138-9.043.783-17.401 5.964-25.019"/><path fill="#345054" d="M887.9 422.594c4.347 8.752 6.934 17.843 9.712 27.134.152.508.944 1.05 1.382 1.362.213 1.887.545 4.186.545 6.051.188 3.213.615 8.098.366 11.147l-.253.945c-.499 1.912-.352 3.59-1.236 5.086l-.532-.264-.306-1.281c-1.83-6.807-7.401-10.554-13.194-14.239-.202-2.015-.813-4.834-1.191-6.892 4.678-5.069 3.867-21.631 4.647-28.546z"/><path fill="#122b2f" d="M897.578 472.774c.963-4.593.67-12.419 1.961-15.633.188 3.213.615 8.098.366 11.147l-.253.945c-.499 1.912-.352 3.59-1.236 5.086l-.532-.264z"/><path fill="#141b1f" d="M860.018 393.909c22.676 11.108 35.716 32.457 38.976 57.181-.438-.312-1.23-.854-1.382-1.362-2.778-9.291-5.365-18.382-9.712-27.134-4.84-10.5-13.866-19.356-23.916-24.906-2.06-1.098-1.283-1.043-3.364-.863-5.395 3.112-3.516 16.284-6.566 22.103-.138-9.043.783-17.401 5.964-25.019"/><path fill="#141b1f" d="M875.749 428.098c3.442 8.405 5.103 14.83 7.444 23.545.378 2.058.989 4.877 1.191 6.892l.052.412c.496 3.68 2.631 9.155 1.385 11.989-1.755-7.116-12.24-38.81-10.072-42.838"/><path fill="#173439" d="M915.291 467.171c5.332-19.664 13.648-41.236 21.559-60.14.642-1.535 2.423-6.452 3.059-7.427-.035 5.915-11.111 36.6-13.703 43.783 11.76-1.989 18.793-20.784 28.138-28.17-.246 2.664-.656 4.689.079 7.24-2.935 21.406-20.289 56.522-37.331 71.018-.247.21-.323.238-.574.369-1.757 1.508-2.888 2.467-4.804 3.749-1.209 10.714-8.13 34.53-7.096 42.423l-.243.706-.957.392c.575 4.828-.753 10.746-3.233 14.912 1.038.543 4.089.597 6.122 1.434-5.057.058-15.444.332-20.063-.39 2.576-.229 4.743-.101 7.566-.409 2.806-2.58 2.15-13.94.227-17.074.198-1.284.297-.679-.278-1.818.389-9.724-1.582-32.867-7.329-40.579a42 42 0 0 0 2.7-.931l.544-1.289c-.24-2.647-.588-5.431-.879-8.086-.45-.759-2.797-14.392-2.974-15.948 1.246-2.834-.889-8.309-1.385-11.989l-.052-.412c5.793 3.685 11.364 7.432 13.194 14.239l.306 1.281.532.264c.884-1.496.737-3.174 1.236-5.086l.253-.945c.303 12.516-1.995 21.746-3.06 33.586-.645 7.165 2.058 19.564 2.521 27.514 2.57-7.198 6.548-26.617 5.314-34.106l1.594-.984c2.762-1.833 7.888-22.608 9.017-27.127"/><path fill="#345054" d="M926.206 443.387c11.76-1.989 18.793-20.784 28.138-28.17-.246 2.664-.656 4.689.079 7.24-2.935 21.406-20.289 56.522-37.331 71.018-.247.21-.323.238-.574.369-1.903.312-1.768.752-3.42 1.378l-.433-.279c-1.254-5.491 10.418-45.906 13.541-51.556"/><path fill="#141b1f" d="M900.185 556.026c.145-3.645.829-10.327 1.867-13.908.248-.854.401-.666 1.366-1.004.575 4.828-.753 10.746-3.233 14.912"/><path fill="#141b1f" d="M888.795 486.884c1.432 2.826 2.64 4.984.879 8.086-.24-2.647-.588-5.431-.879-8.086"/><path fill="#141b1f" d="M898.568 529.845c1.762 1.521.461 10.519.222 12.752-1.495-2.031-.779-10.242-.222-12.752"/><path fill="#345054" d="m905.846 437.174 1.849-1.874c-.136 4.165 5.045 13.773 6.109 18.775.867 4.073.01 10.362 1.487 13.096-1.129 4.519-6.255 25.294-9.017 27.127l-1.594.984c-1.666-8.363-2.298-14.084-2.921-22.447-.967-9.878 1.469-26.085 4.087-35.661"/><path fill="#141b1f" d="m901.759 472.835.53-.522c1.194 3.196 2.311 16.572 3.985 21.985l-1.594.984c-1.666-8.363-2.298-14.084-2.921-22.447"/><path fill="#020203" d="M905.846 437.174c3.462-17.563 18.993-51.742 33-61.458 26.372-18.292 17.628 37.963 15.577 46.741-.735-2.551-.325-4.576-.079-7.24 1.609-10.687 7.023-57.227-17.147-35.937-14.898 13.123-23.041 37.237-29.502 56.02z"/><path fill="#3e2c27" d="M574.071 880.17a134.4 134.4 0 0 0 17.272 22.959c8.733 9.272 30.417 23.537 30.776 35.64-1.496 16.038-28.874 14.264-40.383 13.736-16.852-.772-30.687-10.524-43.572-20.31-4.138-3.142-9.016-3.618-12.9-8.289-3.758-9.031-1.617-27.576-.392-37.237 3.527-2.507 24.258-.329 30.065-1.228 5.044-.781 10.587-3.773 14.73-4.098l1.199-.315z"/><path fill="#603d2f" d="M574.448 885.085c4.846 6.82 8.25 11.878 14.065 17.927 9.773 10.168 24.202 19.528 30.71 31.985-4.009 4.472-4.278 4.313-9.739 6.27-7.234-3.553-21.086-4.416-29.949-7.628-13.177-4.486-20.934-17.211-27.112-28.908-4.883-9.244.284-11.893 8.334-15.19 4.451-1.823 9.092-3.115 13.691-4.456"/><path fill="#3e2c27" d="M525.368 912.52c11.43 7.939 22.656 17.31 34.661 24.199 13.195 7.572 32.567 8.781 47.3 6.47 4.894-.767 9.226-3.717 14.79-4.42-1.496 16.038-28.874 14.264-40.383 13.736-16.852-.772-30.687-10.524-43.572-20.31-4.138-3.142-9.016-3.618-12.9-8.289 1.493-2.988.259-7.698.104-11.386"/><path fill="#020203" d="M574.071 880.17a134.4 134.4 0 0 0 17.272 22.959c8.733 9.272 30.417 23.537 30.776 35.64-5.564.703-9.896 3.653-14.79 4.42-14.733 2.311-34.105 1.102-47.3-6.47-12.005-6.889-23.231-16.26-34.661-24.199.155 3.688 1.389 8.398-.104 11.386-3.758-9.031-1.617-27.576-.392-37.237 3.527-2.507 24.258-.329 30.065-1.228 5.044-.781 10.587-3.773 14.73-4.098-16.5 7.09-25.444 6.032-42.932 5.593-.749 8.843-1.491 14.692-.748 23.52 5.418 4.454 11.344 8.362 16.658 12.813 15.611 13.072 35.684 22.195 56.628 20.023a52.8 52.8 0 0 0 10.211-2.025c5.461-1.957 5.73-1.798 9.739-6.27-6.508-12.457-20.937-21.817-30.71-31.985-5.815-6.049-9.219-11.107-14.065-17.927-1.111-1.518-2.292-2.692-3.582-4.057z"/><defs><linearGradient id="g" x1="926.964" x2="957.743" y1="487.976" y2="504.522" gradientUnits="userSpaceOnUse"><stop offset="0" stop-color="#385053"/><stop offset="1" stop-color="#6a7b7e"/></linearGradient></defs><path fill="url(#g)" d="M940.638 477.8c7.577-5.997 19.529-12.825 29.481-12.143 9.855.675 3 13.839.347 18.351-9.565 16.267-27.164 23.662-41.403 34.827l-1.569.939c-2.928 2.47-5.899 4.571-8.768 6.945-5.868.308-2.294-3.079-5.666-6.369 2.517-18.12 12.815-32.168 27.578-42.55"/><path fill="#020203" d="M940.638 477.8c7.577-5.997 19.529-12.825 29.481-12.143 9.855.675 3 13.839.347 18.351-9.565 16.267-27.164 23.662-41.403 34.827l-1.569.939-.659-.476c1.034-1.616 5.974-4.574 7.935-5.888 14.535-9.688 29.647-19.423 37.711-35.564 1.589-2.358 1.752-10.629-2.158-11.077-9.1-1.041-18.773 6.431-26.312 10.648-1.848 1.034-1.728.935-3.373.383"/><path fill="#345054" d="M850.827 504.62c-6.348-13.131-16.328-35.853 9.641-19.292 16.641 9.846 26.649 29.178 31.241 47.37.199.788.279.973.363 1.765l1.687 3.306c.575 1.139.476.534.278 1.818-1.732 1.051-1.07.339-1.918 2.331a38.6 38.6 0 0 1 1.566 11.806l-.548.912c-3.748-.691-5.233-7.248-9.12-6.051-20.98-18.943-21.368-17.04-33.19-43.965"/><path fill="#141b1f" d="M850.827 504.62c-6.348-13.131-16.328-35.853 9.641-19.292-1.997.137-2.426-.12-4.396-.726-2.954 1.642-7.664 1.853-11.092 2.171 1.589 3.659 6.083 13.417 6.538 16.662z"/><path fill="#5b6f71" d="M844.98 486.773c-.389-1.8-.554-2.118-.164-3.966 3.03-3.53 8.053-.135 11.256 1.795-2.954 1.642-7.664 1.853-11.092 2.171"/><path fill="#122b2f" d="m892.072 534.463 1.687 3.306c.575 1.139.476.534.278 1.818-1.732 1.051-1.07.339-1.918 2.331-.613-3.083-1.34-4.769-.047-7.455"/><path fill="#345054" d="M933.478 519.191c18.974-4.408 21.486 6.58 8.203 17.755-4.755 4.925-27.536 17.028-27.181 18.645l-.828 1.124c-2.105.097-6.505.571-8.035-.588 1.653-1.696 1.561-3.092 1.982-5.49 1.187-3.736 8.954-18.114 8.909-19.042l-.361-1.088c6.606-4.54 7.254-8.83 17.311-11.316"/><path fill="#5b6f71" d="M914.381 551.353c-.911-.323-.549-.043-1.092-.832 2.239-5.625 25.434-21.295 31.624-18.901-1.091 1.22-2.829 3.292-3.959 4.351l.727.975c-4.755 4.925-27.536 17.028-27.181 18.645l-.828 1.124c-2.105.097-6.505.571-8.035-.588 1.653-1.696 1.561-3.092 1.982-5.49 2.32.751 4.318 1.276 6.762.716"/><defs><linearGradient id="h" x1="922.063" x2="918.153" y1="550.024" y2="544.418" gradientUnits="userSpaceOnUse"><stop offset="0" stop-color="#080d0f"/><stop offset="1" stop-color="#1f2b2d"/></linearGradient></defs><path fill="url(#h)" d="m940.954 535.971.727.975c-4.755 4.925-27.536 17.028-27.181 18.645l-.828 1.124c-2.105.097-6.505.571-8.035-.588 1.653-1.696 1.561-3.092 1.982-5.49 2.32.751 4.318 1.276 6.762.716 9.609-3.599 18.803-8.666 26.573-15.382"/><path fill="#020203" d="M933.478 519.191c18.974-4.408 21.486 6.58 8.203 17.755l-.727-.975c1.13-1.059 2.868-3.131 3.959-4.351 2.142-2.151 4.842-8.437 1.844-10.761-3.2-2.48-9.654.591-13.279-1.668"/><path fill="#122b2f" d="M483.663 865.789c1.056-3.721-.959-4.811 2.396-8.34 2.519-1.153 7.252-.439 9.961.053l-.023.928c-.162 7.645 3.772 34.852-1.505 39.883-1.077 1.028-2.724 1.558-4.206 1.387-1.514-.174-2.68-1.136-3.421-2.425-2.901-5.046-3.702-25.644-3.202-31.486"/><path fill="#e3e2e2" d="M723.817 251.579c6.194-.03 11.234 4.977 11.244 11.171.009 6.04-4.777 10.997-10.814 11.199a11.188 11.188 0 1 1-.43-22.37"/><path fill="#122b2f" d="M913.06 520.35c3.372 3.29-.202 6.677 5.666 6.369-1.029 1.303-1.919 2.252-2.559 3.788l.361 1.088c.045.928-7.722 15.306-8.909 19.042-.421 2.398-.329 3.794-1.982 5.49 1.53 1.159 5.93.685 8.035.588 1.135.117 2.963.242 4.018.467-3.709.324-7.642.263-11.383.278-2.033-.837-5.084-.891-6.122-1.434 2.48-4.166 3.808-10.084 3.233-14.912l.957-.392.243-.706c3.589-5.347 6.807-13.457 8.442-19.666"/><path fill="#020203" d="M916.528 531.595c.045.928-7.722 15.306-8.909 19.042-.421 2.398-.329 3.794-1.982 5.49.079-7.558 4.494-20.132 10.891-24.532"/><path fill="#e3e2e2" fill-opacity=".039" d="M929.063 518.835c1.601.146 1.546.092 3.037-.341 10.406-3.022 25.206-4.979 19.106 11.846l-.49.318c-1.371.909-1.976 1.13-2.671 2.618l.012.733c1.136.184.647.052 1.497.365l-.371.985c-3.414.178-9.12 3.216-7.906 7.099l-.866 2.001-1.367.157c-3.054-2.972-7.732 4.191-11.215 5.202-1.908.554-4.05.479-5.29 1.686-.71 2.202-1.346 3.172-.022 5.249l-.569 1.708c-2.92-2.224-3.813-2.933-7.448-2.87-.355-1.617 22.426-13.72 27.181-18.645 13.283-11.175 10.771-22.163-8.203-17.755-10.057 2.486-10.705 6.776-17.311 11.316.64-1.536 1.53-2.485 2.559-3.788 2.869-2.374 5.84-4.475 8.768-6.945z"/><path fill="#e3e2e2" d="M696.712 273.292a6.792 6.792 0 1 1 2.143 13.414 6.792 6.792 0 0 1-2.143-13.414"/><path fill="#020203" fill-opacity=".012" d="M79.995 726.395c1.532.187 2.13.127 2.971 1.324l-.288 1.532-.888-.722.36.105c-.278-.784-1.432-1.597-2.155-2.239"/><path fill="#e3e2e2" fill-opacity=".012" d="m569.558 545.364 1.391 1.851c-1.292-.002-2.019-.107-3.292-.259l-.102-.531z"/></svg>