<svg xmlns="http://www.w3.org/2000/svg" width="1376" height="768" viewBox="0 0 1376 768"><path fill="#0f242d" d="M105.2 507.106c-16.668-2.849-32.65-6.726-43.147-21.41-3.315-4.637-8.648-16.616-7.968-22.158l.85-1.177c1.64.042 3.492 1.088 5.495 2.22h.002v.001l.004.002.002.001c4.175 2.357 9.008 5.085 13.964-.126 11.143-11.715-1.832-27.217-11.035-38.211-2.327-2.78-4.413-5.272-5.806-7.342a60.8 60.8 0 0 1-9.168-21.334c-5.862-27.081 2.242-45.591 10.983-65.555 3.855-8.806 7.834-17.894 10.793-28.125 12.008-41.513 8.897-75.747 41.962-110.291a121.27 121.27 0 0 1 85.412-37.693c17.207-.307 31.326 3.415 45.122 13.85 16.912-1.722 29.504 3.116 42.437 13.623a94.6 94.6 0 0 1 26.393 33.498c11.92 25.325 13.811 56.237 22.206 82.936 7.647 24.323 23.039 46.481 25.539 72.073 1.218 12.47-.255 26.112-5.327 37.629a60.5 60.5 0 0 1-6.103 10.775c-7.962 11.193-19.405 20.853-19.802 35.616-.361 13.394 11.423 10.171 18.63 8.2l.004-.001c2.36-.646 4.229-1.157 5.019-.905.797 3.731-1.269 10.354-2.684 13.853-6.241 15.435-21.632 25.192-37.481 28.287q-3.089.585-6.197 1.051c14.596 6.858 70.822 23.675 76.14 37.231.641 1.634.715 3.327.017 4.958-.316.741-.751 1.436-1.181 2.115-21.883 25.491-55.126 54.076-87.507 64.571l-5.524 2.031c-12.448 4.373-33.142 10.899-46.119 11.862l-4.743.68c-15.496 3.251-44.636 2.505-60.333.109l-5.219-.728c-15.431-1.813-31.198-6.61-45.981-11.277l-6.255-2.225c-23.647-7.39-57.299-31.18-74.196-48.645-4.447-4.595-9.676-10.924-14.154-15.907-6.594-13.312 22.775-23.94 40.26-30.267l.002-.001c4.45-1.61 8.129-2.942 10.25-3.968 7.499-3.627 16.828-5.959 24.444-9.826"/><path fill="#c08023" d="M129.116 503.84c6.167-14.356 15.577-23.38 26.863-33.848-.934 3.903-4.61 17.019-4.784 20.088-1.889 33.184 5.023 68.383 11.477 101.248l.001.005q.863 4.388 1.706 8.716c1.961 10.092 4.744 19.187 6.451 29.173-15.431-1.813-31.198-6.61-45.981-11.277l-6.255-2.225c-23.647-7.39-57.299-31.18-74.196-48.645-4.447-4.595-9.676-10.924-14.154-15.907 3.4-4.02 7.643-10.703 12.124-13.296 10.617-6.145 25.587-11.128 37.085-15.582a1162 1162 0 0 0 42.665-17.547c1.806-.744 4.913-.768 6.998-.903"/><path fill="#c08023" d="M122.118 504.743c1.053 3.803-3.009 12.258-7.33 21.25-4.941 10.282-10.219 21.267-8.575 26.806 1.708 5.753 19.549 11.24 25.402 13.708-15.774 12.146-21.996 15.86-22.879 20.574-.524 2.798.832 5.948 3.189 11.421 1.779 4.132 4.128 9.589 6.669 17.218-23.647-7.39-57.299-31.18-74.196-48.645-4.447-4.595-9.676-10.924-14.154-15.907 3.4-4.02 7.643-10.703 12.124-13.296 10.617-6.145 25.587-11.128 37.085-15.582a1162 1162 0 0 0 42.665-17.547"/><path fill="#1b1e1c" d="M122.118 504.743c1.806-.744 4.913-.768 6.998-.903-6.397 14.788-14.459 32.654-19.216 47.815 7.55 3.221 23.419 9.156 28.736 14.869-7.665 8.082-18.196 13.264-26.523 20.568 4.067 10.411 8.871 20.338 12.736 30.853l-6.255-2.225c-2.541-7.629-4.89-13.086-6.669-17.218-2.357-5.473-3.713-8.623-3.189-11.421.883-4.714 7.105-8.428 22.879-20.574-5.853-2.468-23.694-7.955-25.402-13.708-1.644-5.539 3.634-16.524 8.575-26.806 4.321-8.992 8.383-17.447 7.33-21.25"/><path fill="#c08023" d="M255.805 471.344c11.046 7.559 20.828 21.034 26.905 32.859.33-.025.682-.056 1.047-.089h.011l.006-.001.022-.002c1.658-.148 3.581-.319 4.984-.019 25.439 11.954 52.445 19.853 77.7 32.19 7.876 3.847 9.365 7.142 13.795 14.415-21.883 25.491-55.126 54.076-87.507 64.571l-5.524 2.031c-12.448 4.373-33.142 10.899-46.119 11.862 1.712-12.791 5.538-25.297 7.983-38.279 6.047-32.109 12.549-68.532 11.1-101.27-.113-2.559-3.602-13.239-4.403-18.268"/><path fill="#c08023" d="M279.14 566.574c5.392-2.391 24.352-8.44 26.045-13.582 1.733-5.262-3.817-16.96-8.948-27.774-4.344-9.156-8.387-17.678-7.457-21.126 25.439 11.954 52.445 19.853 77.7 32.19 7.876 3.847 9.365 7.142 13.795 14.415-21.883 25.491-55.126 54.076-87.507 64.571 1.611-3.91 3.065-7.279 4.331-10.213l.002-.004c4.231-9.802 6.366-14.75 5.243-18.793-1.451-5.228-8.348-8.944-23.204-19.684"/><path fill="#1b1e1c" d="M282.71 504.203c.33-.025.682-.056 1.047-.089h.011l.006-.001.022-.002c1.658-.148 3.581-.319 4.984-.019-.93 3.448 3.113 11.97 7.457 21.126 5.131 10.814 10.681 22.512 8.948 27.774-1.693 5.142-20.653 11.191-26.045 13.582 14.856 10.74 21.753 14.456 23.204 19.684 1.123 4.043-1.012 8.991-5.243 18.793l-.002.004c-1.266 2.934-2.72 6.303-4.331 10.213l-5.524 2.031c.321-3.878 9.599-24.165 11.467-30.872-9.143-6.279-18.746-11.923-25.862-20.336 5.805-5.382 21.183-11.035 29.131-14.725a2519 2519 0 0 0-19.27-47.163"/><path fill="#365e63" d="M161.968 563.069c27.521 9.983 60.306 12.867 87.494.285a545 545 0 0 1-5.485 28.907 563 563 0 0 1-1.263 5.513l-.001.006c-2.332 10.059-6.553 28.271-6.331 32.061-15.496 3.251-44.636 2.505-60.333.109a1390 1390 0 0 1-8.749-39.328c-1.593-8.029-3.385-20.14-5.332-27.553"/><path fill="#c8885f" d="M132.57 305.586c8.465-22.202 15.915-69.239 47.527-70.642 2.649-.118 5.433-.174 8.297-.231 18.299-.369 39.867-.803 50.557-17.78 1.083-1.757.647-4.776 2.71-6.485 4.233 3.315-5.467 16.297-7.864 19.233 3.999 2.151 12.545 6.426 15.076 9.679 6.378 8.195 10.796 18.656 16.518 27.801 5.334 8.524 15.149 15.3 16.886 23.68 2.939 14.178 6.242 30.849 7.583 45.301.231 2.494-.458 6.767-.861 9.238-2.407 22.047-6.883 50.72-16.812 70.455-12.16 24.168-52.991 56.253-81.34 45.5-14.04-2.632-42.916-25.636-50.251-37.974-15.073-25.351-19.483-60.116-22.412-88.982 4.311-8 8.084-14.185 12.3-22.554a272 272 0 0 1 9.913-6.184c7.941-4.382 11.636-4.22 20.207-1.043 1.092.274 2.539.725 4.194 1.24l.005.002c7.239 2.254 18.446 5.743 21.241 1.104-4.732-10.208-29.937-11.05-39.942-10.363-4.497 3.168-8.754 6.268-13.532 9.005"/><path fill="#955539" d="M140.397 305.641c7.941-4.382 11.636-4.22 20.207-1.043 1.092.274 2.539.725 4.194 1.24l.005.002c7.239 2.254 18.446 5.743 21.241 1.104-.474 3.233 1.129 5.627 3.023 8.455v.001l.001.001c3.484 5.206 7.954 11.887 2.301 27.977-1.277-5.621-2.126-10.007-4.358-15.328-1.751 1.553-3.686 3.566-5.863 4.255l-1.18-.328-.395-.068c-2.718 1.412-9.004 1.884-12.186 1.963-4.711 1.074-6.773 1.358-11.427.103-5.109.123-8.708-1.551-12.952-4.079l-5.192-.001c-6.723 7.041-9.957 11.58-9.148 21.861 2.575 32.743 12.196 65.25 36.132 88.137a181 181 0 0 0 15.706 13.393c2.137 1.649 8.872 6.456 10.341 8.049-14.04-2.632-42.916-25.636-50.251-37.974-15.073-25.351-19.483-60.116-22.412-88.982 4.311-8 8.084-14.185 12.3-22.554a272 272 0 0 1 9.913-6.184"/><path fill="#0f242d" d="M146.95 321.219c12.74-4.634 25.581-3.433 33.204 8.999l-.186 1.759-.395-.068c-2.718 1.412-9.004 1.884-12.186 1.963-4.711 1.074-6.773 1.358-11.427.103-5.109.123-8.708-1.551-12.952-4.079l-5.192-.001c-1.843-.94-3.223-1.748-3.889-3.535 3.096-1.617 6.64-1.698 13.023-5.141"/><path fill="#fff" d="M153.515 322.671q.016.644.027 1.224c.084 4.129.123 6.023 2.418 10.08-5.109.123-8.708-1.551-12.952-4.079 3.958-3.057 6.137-4.729 10.507-7.225"/><path fill="#fff" d="M170.458 324.437a776 776 0 0 1 9.115 7.472c-2.718 1.412-9.004 1.884-12.186 1.963 1.407-2.98 2.191-6.251 3.071-9.435"/><path fill="#c8885f" d="M140.397 305.641c7.941-4.382 11.636-4.22 20.207-1.043 1.796 1.867 3.602 3.781 5.42 5.622-4.068.525-10.794 1.227-14.57 2.165-3.569 1.656-8.417 3.002-12.252 4.196.777-4.27.952-6.661 1.195-10.94"/><path fill="#4e2309" d="M155.834 313.631c6.628-.631 18.379-.772 21.046 7.161-2.154-1.191-3.719-2.327-5.068-3.307-4.195-3.047-6.308-4.581-17.604-1.532-1.532.413-6.87 2.324-7.998 2.447 2.327-2.413 6.431-3.599 9.624-4.769"/><path fill="#955539" d="M132.57 305.586c8.465-22.202 15.915-69.239 47.527-70.642 2.649-.118 5.433-.174 8.297-.231 18.299-.369 39.867-.803 50.557-17.78 1.083-1.757.647-4.776 2.71-6.485 4.233 3.315-5.467 16.297-7.864 19.233 3.999 2.151 12.545 6.426 15.076 9.679 6.378 8.195 10.796 18.656 16.518 27.801 5.334 8.524 15.149 15.3 16.886 23.68 2.939 14.178 6.242 30.849 7.583 45.301.231 2.494-.458 6.767-.861 9.238-.3-10.394-10.66-41.23-13.27-53.003-2.593-5.554-11.392-12.863-14.371-17.45-4.194-6.457-7.185-12.305-9.765-17.351-8.784-17.175-12.817-25.059-43.372-16.061-4.566 1.345-9.33 2.001-14.082 2.656-14.452 1.993-28.793 3.97-37.122 25.236-3.678 9.39-8.356 16.005-10.915 27.174-4.497 3.168-8.754 6.268-13.532 9.005"/><defs><linearGradient id="a" x1="229.355" x2="227.986" y1="396.577" y2="416.35" gradientUnits="userSpaceOnUse"><stop offset="0" stop-color="#000103"/><stop offset="1" stop-color="#30221e"/></linearGradient></defs><path fill="url(#a)" d="M166.192 398.909c24.022-2.711 47.708-3.58 71.845-1.424 1.991.178 3.722.333 5.701.709-.843 1.152-1.905 2.702-2.821 3.746-2.544 5.575-15.718 23.053-21.565 23.723-3.564 1.336-5.724 2.172-9.482 2.999l-10.025.27c-3.194-.636-4.969-1.415-8.005-2.627-10.688-4.796-17.2-13.401-23.177-23.064-1.562-1.702-1.957-2.028-2.471-4.332"/><path fill="#955539" d="M168.663 403.241c31.686 18.759 40.428 21.139 72.254-1.301-2.544 5.575-15.718 23.053-21.565 23.723-3.564 1.336-5.724 2.172-9.482 2.999l-10.025.27c-3.194-.636-4.969-1.415-8.005-2.627-10.688-4.796-17.2-13.401-23.177-23.064"/><path fill="#0e0907" d="M191.84 426.305c1.026-.159 7.68.031 8.829.262 1.897.38 5.75-.082 9.501-.532l.024-.003.029-.004c4.006-.483 7.885-.95 9.129-.365-3.564 1.336-5.724 2.172-9.482 2.999l-10.025.27c-3.194-.636-4.969-1.415-8.005-2.627"/><path fill="#c8885f" d="M205.791 418.896c3.09-.333 9.155-.562 11.478 1.607-1.471 1.939-1.828 1.595-4.465 2.644l-.316.031c-3.313.33-9.208.915-11.342-1.61 1.637-2.013 1.856-1.609 4.645-2.672"/><path fill="#955539" d="M166.192 398.909c24.022-2.711 47.708-3.58 71.845-1.424 1.991.178 3.722.333 5.701.709l-.586.014c-3.013.094-10.369 1.969-14.034 2.592a156 156 0 0 1-26.961 2.326c-10.288.092-20.448-1.284-30.495-3.467-1.846-.401-3.582-.696-5.47-.75"/><path fill="#fff" d="M176.106 403.219c26.166 3.567 31.977 3.269 57.806-.503-1.583 1.412-3.641 2.978-5.326 4.331-14.956 10.299-39.891 10.49-52.48-3.828"/><path fill="#0f242d" d="M229.733 320.077c3.91-3.299 6.234-5.727 11.407-6.906 8.114-1.85 16.764-.59 22.357 6.174a7 7 0 0 1 1.408 2.702c4.182 2.376 7.219 3.488 11.055 5.531q-.605.195-1.266.417l-.004.001c-2.802.932-6.275 2.087-8.872 1.829l-1.08.468c-3.796 1.653-8.659 3.77-12.502 3.751-3.723.972-7.255.708-11.068.216-3.174.047-9.388-1.149-12.152-2.714l-1.007-.655c-1.591-3.427-2.803-1.321-4.046-4.764.775-2.523 3.505-4.714 5.77-6.05"/><defs><linearGradient id="b" x1="253.504" x2="257.109" y1="320.787" y2="324.264" gradientUnits="userSpaceOnUse"><stop offset="0" stop-color="#a86641"/><stop offset="1" stop-color="#be7d58"/></linearGradient></defs><path fill="url(#b)" d="M229.733 320.077c1.959-.059 3.079-1.055 4.781-2.135 2.143 1.155 2.38.793 3.095 2.679l1.225-.641-.069.203c-.674 1.988-.81 2.389-.703 4.586.527 3.759.695 6.439 3.106 9.491-3.174.047-9.388-1.149-12.152-2.714l-1.007-.655c-1.591-3.427-2.803-1.321-4.046-4.764.775-2.523 3.505-4.714 5.77-6.05"/><path fill="#fff" d="M229.016 331.546c2.197-2.092 6.198-5.933 9.046-6.777.527 3.759.695 6.439 3.106 9.491-3.174.047-9.388-1.149-12.152-2.714"/><path fill="#202e36" d="m238.834 319.98-.069.203c-.674 1.988-.81 2.389-.703 4.586-2.848.844-6.849 4.685-9.046 6.777l-1.007-.655c.669-4.381 6.024-7.606 9.6-10.27z"/><path fill="#b2704d" d="M229.733 320.077c3.91-3.299 6.234-5.727 11.407-6.906 8.114-1.85 16.764-.59 22.357 6.174a7 7 0 0 1 1.408 2.702c-1.056-.56-2.102-1.212-3.131-1.827-8.5-3.45-14.536-2.901-22.94-.24l-1.225.641c-.715-1.886-.952-1.524-3.095-2.679-1.702 1.08-2.822 2.076-4.781 2.135"/><path fill="#4e2309" d="M229.733 320.077c3.91-3.299 6.234-5.727 11.407-6.906 8.114-1.85 16.764-.59 22.357 6.174a7 7 0 0 1 1.408 2.702c-1.056-.56-2.102-1.212-3.131-1.827l-.293-.987a17.7 17.7 0 0 0-7.431-4.09c-7.175-1.901-13.268-.798-19.536 2.799-1.702 1.08-2.822 2.076-4.781 2.135"/><path fill="#fff" d="M252.236 334.044c1.815-3.305 2.121-8.881 4.532-10.178 2.673.778 6.667 4.159 9.05 5.959l-1.08.468c-3.796 1.653-8.659 3.77-12.502 3.751"/><path fill="#955539" d="M182.195 372.422c.333.218 24.175 5.004 24.864 4.856 3.65-.785 7.19-2.339 10.867-2.964 1.237-.21 2.495-.131 3.742-.052l.009.001.025.002.01.001.027.002.009.001.025.002.011.001c1.073.063 2.135.127 3.168-.008.547-.07 1.475-.82 1.795-1.231.068 2.359-1.223 4.074-2.646 5.955l1.01 2.01c-2.861 1.013-5.527 2.826-8.227 4.663-5.972 4.061-12.111 8.235-20.899 4.127-3.572-1.671-8.919-4.821-11.459-7.7l.964-1.544q-.293-.407-.599-.821c-1.612-2.191-3.342-4.543-2.696-7.301"/><path fill="#955539" d="M182.195 372.422c.333.218 24.175 5.004 24.864 4.856 3.65-.785 7.19-2.339 10.867-2.964 1.237-.21 2.495-.131 3.742-.052l.009.001.025.002.01.001.027.002.009.001.025.002.011.001c1.073.063 2.135.127 3.168-.008.547-.07 1.475-.82 1.795-1.231.068 2.359-1.223 4.074-2.646 5.955l-3.225-2.076c-4.411-.001-6.811 1.602-9.124 3.147-2.155 1.439-4.234 2.827-7.795 2.822-2.485-.003-4.869-1.487-7.22-2.95-3.36-2.091-6.652-4.139-10.074-1.761l-1.173 2.374q-.293-.407-.599-.821c-1.612-2.191-3.342-4.543-2.696-7.301"/><path fill="#0e0907" d="M186.663 378.17c3.422-2.378 6.714-.33 10.074 1.761 2.351 1.463 4.735 2.947 7.22 2.95 3.561.005 5.64-1.383 7.795-2.822 2.313-1.545 4.713-3.148 9.124-3.147-2.459 5.802-17.211 11.419-22.96 7.324-2.133-1.52-9.718-4.559-11.253-6.066"/><path fill="#0f242d" d="M248.907 295.886c14.308-1.642 20.724 3.861 29.181 14.607-2.996-1.429-5.312-2.821-7.353-4.048-5.26-3.163-8.692-5.226-17.233-3.977-4.749 1.115-9.766 3.292-14.528 4.52-.543.14-1.261.358-2.093.611-5.436 1.654-15.772 4.799-14.456-2.673 4.573-5.862 19.353-8.068 26.482-9.04"/><path fill="#4e2309" d="M169.849 378.175c2.862 3.14-4.915 11.526-9.437 16.402-1.027 1.106-1.885 2.032-2.414 2.675l.067.503c.419 3.121.751 5.598-.526 8.568-6.755-7.617 1.147-15.985 7.563-22.779 1.827-1.935 3.533-3.743 4.747-5.369"/><path fill="#955539" d="m199.845 428.932 10.025-.27c2.236 1.522 4.099 1.734 6.061 3.98-3.299 2.808-18.235 2.066-22.315.336l-.031-.882q.587-.2 1.17-.406c1.703-.598 4.407-1.328 5.09-2.758"/><path fill="#4e2309" d="M237.042 377.357c1.357.546 11.541 11.576 12.981 13.334 4.112 5.02 4.146 7.742 2.33 13.626l-.877.38c-.601-2.022-.304-5.938-.087-8.792.045-.594.087-1.142.116-1.617-7.55-6.107-13.247-6.368-14.463-16.931"/><path fill="#69371a" d="M230.525 339.967c4.645.455 10.229 3.671 16.306 4.123 2.744.204 5.145-.281 7.318-.72l.006-.001.003-.001.012-.002c1.938-.392 3.692-.746 5.342-.538l.139 1.096c-9.827 4.458-21.234 3.97-29.126-3.957"/><path fill="#0e0907" d="m214.601 321.111.513.794c-.234 4.597-.348 26.204-1.107 28.686-4.921-8.598-2.581-20.637.594-29.48"/><path fill="#69371a" d="m175.83 339.976.936.083.412.836c-5.459 7.438-17.817 6.085-25.89 4.845l-1.43-.883c.792-1.107 3.871-.719 5.204-.524 8.271 1.209 13.435-1.091 20.763-4.355l.003-.001z"/><path fill="#c8885f" d="M202.856 362.654a4.482 4.482 0 1 1 2.04 8.728 4.482 4.482 0 0 1-2.04-8.728"/><path fill="#0e0907" d="M184.526 382.088c-6.476-5.171-6.348-15.917-.828-15.489.255 1.99-.069 2.681-.745 4.121-.218.466-.474 1.01-.758 1.702-.646 2.758 1.084 5.11 2.696 7.301q.306.414.599.821z"/><path fill="#0e0907" d="M226.747 373.033a46 46 0 0 0-.51-1.017c-.856-1.676-1.534-3.005-1.173-4.941l.972-.381c4.772 3.441 3.132 10.796-.925 14.304l-1.01-2.01c1.423-1.881 2.714-3.596 2.646-5.955"/><path fill="#c8885f" d="M158.972 447.503c37.025 27.036 54.82 27.191 91.679-.227l.048 1.689v.064c.142 4.924.27 9.353-.2 14.394.207 15.876 4.434 26.934 5.268 41.491.543 9.478-.968 20.276-2.455 30.895-1.052 7.513-2.091 14.937-2.381 21.739-27.958 12.239-57.466 13.012-86.008 1.876a246 246 0 0 1-4.304-1.729c-2.266-18.124-4.746-34.174-5.627-52.488-.059-4.828 1.172-10.88 2.332-16.582l.001-.006c.577-2.836 1.137-5.585 1.511-8.054 1.744-11.496 1.143-21.538.136-33.062"/><path fill="#955539" d="M158.972 447.503c37.025 27.036 54.82 27.191 91.679-.227l.048 1.689v.064c.142 4.924.27 9.353-.2 14.394-11.337 13.702-28.581 31.225-48.221 29.868-12.082-.834-23.491-9.699-32.392-17.384a163 163 0 0 1-3.807-3.391c-.892 11.722-3.083 23.403-11.087 32.691-.059-4.828 1.172-10.88 2.332-16.582l.001-.006c.577-2.836 1.137-5.585 1.511-8.054 1.744-11.496 1.143-21.538.136-33.062"/><path fill="#365e63" d="M191.082 195.712c14.168-1.16 29.077 2.053 36.844 15.091-13.354-12.261-24.934-13.886-41.486-9.294-48.358 13.415-56.16 61.99-67.603 103.426-2.553 9.245-8.122 19.924-12.922 28.282-5.67 9.16-13.883 18.137-23.006 23.971 10.355-13.309 19.196-21.268 25.911-37.918 19.755-48.982 16.553-112.777 82.262-123.558"/><path fill="#365e63" d="m211.566 178.166.005.001q.966.227 1.868.437c-2.617-.022-4.994-.128-7.29-.23-5.052-.226-9.711-.434-15.677.315-35.084 4.408-53.815 19.206-75.021 45.48-4.053 5.375-6.977 11.318-11.512 16.679a109.8 109.8 0 0 1 20.13-34.784c16.888-19.577 38.265-29.125 63.744-31.07 6.828-.801 16.503 1.47 23.753 3.172"/><path fill="#365e63" d="M314.644 367.218c3.06 2.411 4.242 9.147 4.877 12.681 4.029 19.15-3.473 35.552-14.402 50.975-11.534 16.277-11.043 25.266-7.452 43.947-14.974-18.404-4.582-35.504 5.513-52.113 4.228-6.957 8.404-13.828 10.641-20.673 3.782-11.572 2.734-23.02.823-34.817"/><path fill="#365e63" d="M306.852 304.923c3.797 2.949 6.212 10.232 9.198 13.931 22.745 28.178 33.244 56.764 14.97 91.115-.472.86-.951 1.374-1.57 2.117-.296-1.44.507-4.024 1.098-5.925l.001-.004c.12-.387.231-.746.323-1.061 3.179-10.925 4.767-20.897 3.885-32.263-2.076-26.759-19.944-42.242-27.905-67.91"/><path fill="#365e63" d="m100.428 293.621.344.267c.088 2.662-6.271 13.988-12.796 25.609l-.01.018c-5.485 9.769-11.085 19.743-13.067 24.946a87.65 87.65 0 0 0-4.757 46.02c.224 1.338.71 2.883 1.208 4.465v.001c.786 2.498 1.6 5.089 1.46 7.103l-1.061-.231c-8.298-14.022-9.376-33.261-5.678-48.857 5.351-22.566 23.148-39.695 34.357-59.341"/><path fill="#365e63" d="M90.985 393.58c.992 7.371 2.321 15.521 5.456 22.318 2.539 5.506 5.783 10.446 8.909 15.206 8.456 12.876 16.048 24.436 6.487 42.338l-1.375 1.125c-.237-.527.1-3.138.449-5.838.271-2.099.549-4.251.57-5.521a38 38 0 0 0-.909-9.008c-1.736-7.632-5.912-14.656-10.096-21.694-7.094-11.93-14.209-23.897-9.491-38.926"/><path fill="#365e63" d="M258.251 196.365c27.133-2.599 43.866 28.668 48.387 51.265-2.39-1.874-4.928-8.007-6.242-10.887-9.706-21.272-20.976-31.404-42.145-40.378"/><path fill="#955539" d="M109.942 348.654c1.22 1.332.694 3.109.055 5.266-1.295 4.373-3.052 10.307 8.342 17.26 1.602 3.974 5.794 14.975 1.558 17.594-11.702-5.567-13.8-21.491-16.22-33.069 1.81-2.299 4.262-4.854 6.265-7.051"/><path fill="#955539" d="m299.151 357.514 4.622 2.743c-1.379 7.722-5.553 27.204-14.787 28.352l-.897-.914c-1.119-3.99.113-8.769 1.229-13.097.211-.818.418-1.62.604-2.398l.549-.394c6.16-4.504 7.519-6.818 8.68-14.292"/><path fill="#365e63" d="M253.465 221.374c22.777-1.812 38.785 24.097 37.961 44.212-6.679-10.507-8.854-22.935-18.663-33.4-5.649-6.027-18.329-9.41-19.298-10.812"/><path fill="#b2704d" d="M299.151 357.514c-.954-4.804-1.875-9.276-3.047-14.031.683.932 1.428 1.866 2.18 2.809l.002.002.003.004.002.002c3.411 4.279 6.96 8.731 5.482 13.957z"/><path fill="#b2704d" d="M114.134 349.765c1.947 3.674 3.096 11.87 2.796 16.082l-.92.76c-4.643-6.418-4.427-9.723-1.876-16.842"/><path fill="#b2704d" d="M293.833 350.503c4.639 4.246 1.369 11.067-1.065 15.516l-.896.619c-1.264-2.111.491-9.719 1.503-14.106l.002-.007c.184-.799.344-1.49.456-2.022"/><path fill="#0f242d" d="M615.476 174.626c14.194-20.288 28.934-23.36 49.813-10.574 11.671-5.707 15.452-6.472 24.748 3.275 18.995-6.548 27.112-3.109 34.943 14.984q2.78-.404 5.579-.653c16.772-1.389 23.164 8.806 24.101 23.974 14.648 5.801 15.833 10.065 14.299 25.245 14.45 10.632 18.127 18.02 9.776 34.573 6.196 10.608 6.811 17.22-1.11 26.909l1.985 8.674c-2.059 6.373-3.354 8.263-8.785 12.064-.409 6.176-1.114 9.433-3.127 15.082a40 40 0 0 1 2.718 2.662c14.24 15.189-.31 45.279-11.771 58.48-3.917 4.511-9.115 4.57-14.596 4.272-7.412 27.725-11.847 32.667-31.402 52.87-.076 6.25-.368 12.719-.568 18.985 17.084 9.428 23.339 24.517 38.037 35.205 4.059 2.952 14.586 6.635 27.029 10.988 28.363 9.923 66.68 23.329 61.029 39.493-20.706 22.283-39.478 40.272-67.044 54.399-5.384 2.759-11.851 6.321-17.574 8.176l-5.229 2.27c-16.389 6.39-32.245 11.477-49.803 13.513l-3.476.428c-13.758 3.614-49.034 2.494-62.818-.042l-3.047-.123c-10.934-1.046-41.441-9.044-50.825-13.755l-5.327-2.162c-35.039-14.292-58.524-34.927-83.547-62.121-9.428-14.419 30.92-29.287 60.847-40.315l.004-.001.002-.001.003-.001.006-.002.006-.002c13.856-5.105 25.475-9.386 28.881-12.416 13.856-12.328 18.898-23.306 35.766-33.354-.368-6.075-.338-13.227-.462-19.388-21.887-19.47-21.79-25.423-32.119-51.883l-8.546-.663c-14.112-8.956-23.754-32.08-24.013-48.472-.114-7.227 3.257-11.761 8.234-16.358-5.109-7.981-5.436-11.902-6.286-21.008l-.285-.235c-10.699-9.031-9.337-17.327-4.76-29.336l-.647-.778c-11.008-13.373-6.104-24.396 6.426-34.225a126 126 0 0 1-.626-2.005c-6.352-20.654 1.763-33.223 22.058-39.279 6.345-23.543 17.395-32.651 41.503-27.369"/><path fill="#c08023" d="M616.29 545.585c27.972 12.287 58.131 15.187 87.009 3.891a198 198 0 0 0 7.07-2.913c-3.424 24.772-9.671 49.189-15.004 73.602-.124.569-.275 1.188-.432 1.835l-.001.005c-.558 2.296-1.2 4.939-1.049 6.907l1.165 1.008c-13.758 3.614-49.034 2.494-62.818-.042 1.133-1.495 1.297-2.087.82-4.407-1.873-9.104-4.014-18.361-6.037-27.426a1039 1039 0 0 1-10.723-52.46"/><path fill="#365e63" d="M563.47 546.805c11-23.692 20.78-49.85 40.849-67.416 2.146-1.878 6.488-6.174 9.14-6.507.898 2.292-1.21 8.425-2.819 13.106-.569 1.654-1.075 3.127-1.364 4.185-2.142 7.828-1.624 14.234-.988 22.079l.046.571c3.111 38.503 11.218 79.514 20.849 116.932-10.934-1.046-41.441-9.044-50.825-13.755-.537-8.59-10.066-25.166-12.762-34.197 7.832-5.655 19.619-13.661 26.149-20.41-7.727-7.179-18.924-9.973-28.275-14.588"/><path fill="#365e63" d="M711.975 470.618c24.308 12.351 41.153 52.589 51.381 76.646-6.249 2.958-25.782 8.375-26.13 15.254 2.364 5.192 19.299 15.202 25.054 18.926-3.307 7.625-13.39 27.862-13.953 34.535-16.389 6.39-32.245 11.477-49.803 13.513 2.563-10.294 4.929-22.749 7.189-33.615q.754-3.62 1.525-7.288v-.001l.001-.003.003-.017.001-.007c6.25-29.8 12.954-61.766 11.811-91.927-.182-4.813-5.464-19.896-7.079-26.016"/><path fill="#365e63" d="M489.484 551.717c2.238-3.012 6.407-9.347 8.795-11.36 12.567-10.601 29.536-14.665 44.487-20.554 11.292-4.449 23.31-8.866 34.353-13.684-.408.823-.929 1.855-1.532 3.052l-.001.003c-5.192 10.3-16.529 32.793-15.759 39.416 3.335 5.431 18.757 10.35 25.193 12.828-26.472 19.245-26.288 19.612-20.343 31.472 2.321 4.629 5.52 11.01 8.354 20.948-35.039-14.292-58.524-34.927-83.547-62.121"/><path fill="#365e63" d="M749.85 506.012c8.645 2.862 19.353 7.64 28.289 11.103 15.322 6.145 31.456 10.634 45.714 19.126 5.938 3.537 9.077 11.59 14.321 14.893-20.706 22.283-39.478 40.272-67.044 54.399-5.384 2.759-11.851 6.321-17.574 8.176 2.561-6.26 4.95-11.213 6.912-15.281l.001-.001v-.001c8.409-17.435 8.972-18.603-18.402-36.638 7.094-3.583 20.009-7.028 25.111-12.737 1.76-5.536-9.774-28.181-15.327-39.082a437 437 0 0 1-2.001-3.957"/><path fill="#4c2e31" d="M641.375 161.462c11.184.359 15.17 2.196 23.797 8.953 11.67-7.991 14.778-8.099 23.471 3.012 8.885-3.895 11.007-4.404 20.405-4.03 7.868 5.127 8.978 9.802 12.409 18.385 20.29-3.229 28.572-.82 27.6 21.601 16.685 3.955 16.567 7.158 13.693 23.114 16.058 11.294 18.894 14.674 10.097 33.158 7.677 12.465 7.428 14.709-1.767 26.036 4.554 9.675 3.753 11.97-4.592 17.957-.666 5.82-.909 14.708-5.634 18.563-5.351.923-7.378-5.82-8.792-10.525-.191-.634-.37-1.23-.545-1.766-1.731-5.304-3.316-10.734-4.928-16.078 5.261-11.988 2.14-14.261-3.052-18.041-2.614-1.904-5.752-4.189-8.61-8.289-.148-1.862-.084-3.888-.019-5.93l.001-.042c.134-4.184.27-8.433-1.389-11.488-3.095-2.839-7.125-2.597-11.395-2.341h-.014c-.956.058-1.924.116-2.896.14-5.842-4.679-7.383-9.109-9.885-15.828-3.33.93-6.98 1.75-10.402 2.269-4.634.703-7.599-2.391-10.504-5.422-1.082-1.129-2.156-2.249-3.304-3.161-1.902 1.193-2.275 1.369-4.421 2.02-2.818-.873-2.664-1.459-4.998-3.892-6.211 16.916-13.795 12.961-22.859 8.233l-.003-.002-.004-.002-.004-.002c-5.103-2.661-10.676-5.566-16.737-5.127-9.836.712-12.855 8.462-17.464 15.304-3.802 5.643-11.776 5.88-18.359 6.077-1.223.036-2.399.071-3.49.139-4.719.383-4.716 6.497-4.713 11.939v.028c.001 2.845.002 5.503-.678 7.061-3.328 7.627-9.874 7.735-15.042 15.336 1.377 3.905 2.366 7.608 3.46 11.591-4.12 10.903-6.407 16.044-8.174 27.578l-8.809-.19c-5.112-9.021-6.083-12.211-6.088-22.45-11.637-9.987-10.257-14.716-3.753-27.634q-1.159-1.399-2.297-2.812c-11.081-13.787-3.961-20.847 7.745-29.917-2.211-5.707-4.03-14.975-3.263-21.105 1.73-13.834 17.613-12.547 23.864-22.037 3.693-5.605 3.95-15.183 9.908-19.318 8.308-5.766 19.618-4.145 28.798-2.829h.005l.566.081q.693-1.117 1.411-2.218c6.304-9.629 10.288-13.753 21.654-16.099"/><path fill="#b2704d" d="M653.378 341.236c-.855-8.142 20.256-10.344 20.317 2.569.346 21.445 17.064 36.702 38.355 35.98a36.27 36.27 0 0 0 25.584-11.716c10.967-11.948 7.325-18.221 11.169-30.291.85 21.064-8.881 61.234-18.458 80.48-9.568 19.229-42.526 46.092-65.282 46.674-12.036.308-21.411-3.826-31.024-10.153-16.058-5.366-37.882-32.373-42.626-48.381-.341-1.152-.791-2.631-1.319-4.368l-.001-.004c-4.752-15.625-15.867-52.175-11.901-60.482 1.266 2.229 1.669 6.147 2.168 8.831 1.5 8.075 5.64 13.889 10.871 19.95 7.163 5.496 14.17 8.946 23.416 9.353a37.8 37.8 0 0 0 27.283-9.989c8.749-8.138 10.988-17.114 11.448-28.453"/><path fill="#955539" d="M634.039 454.779c-16.058-5.366-37.882-32.373-42.626-48.381-.341-1.152-.791-2.631-1.319-4.368l-.001-.004c-4.752-15.625-15.867-52.175-11.901-60.482 1.266 2.229 1.669 6.147 2.168 8.831 1.5 8.075 5.64 13.889 10.871 19.95-.852 16.966 13.906 54.288 26.617 66.851 3.473 3.433 14.245 14.296 16.191 17.603"/><path fill="#955539" d="M653.378 341.236c-.855-8.142 20.256-10.344 20.317 2.569-5.135-7.992-12.871-5.507-20.317-2.569"/><path fill="#955539" d="m673.62 404.656.056.015c.502.242-20.68.224-20.821.081l.04-.012q-.046.006-.04.012c-7.759 2.436-14.12 7.268-21.417 9.82-.398.665-.7 1.005-.858 1.715l2.316 1.784c3.403.967 11.578 8.243 14.705 10.916l3.759 3.246c2.203 2.663 3.383 3.256 6.348 5.115q.974.008 1.939.025c6.376.103 12.377.2 16.684-5.561 1.272-1.056 2.689-2.411 3.936-3.54 1.922-2.537 10.577-9.412 13.944-10.247 2.01-1.078 2.276-1.504 2.808-3.476-.837-.256-2.448-.398-3.142-.624-8.34-2.717-10.835-6.785-20.201-9.254a.2.2 0 0 0-.056-.015"/><path fill="#69371a" d="m673.62 404.656.056.015c.502.242-20.68.224-20.821.081l.04-.012q-.046.006-.04.012c-7.759 2.436-14.12 7.268-21.417 9.82-.398.665-.7 1.005-.858 1.715l2.316 1.784c5.136.018 10.26.08 15.378.142 13.179.16 26.321.319 39.548-.272 1.534-.069 3.279-.013 4.924.04.501.016.992.032 1.465.044 2.01-1.078 2.276-1.504 2.808-3.476-.837-.256-2.448-.398-3.142-.624-8.34-2.717-10.835-6.785-20.201-9.254a.2.2 0 0 0-.056-.015"/><path fill="#0e0907" d="M630.58 416.287c1.057-1.21 2.03-1.733 3.618-1.682 13.233.421 26.476.263 39.706.105h.11c7.674-.092 15.343-.184 23.005-.161-.532 1.972-.798 2.398-2.808 3.476-.473-.012-.964-.028-1.465-.044-1.645-.053-3.39-.109-4.924-.04-13.227.591-26.369.432-39.548.272a1785 1785 0 0 0-15.378-.142z"/><path fill="#0e0907" d="m673.62 404.656-.014.047c-1.338.201-19.299.187-20.669.063l-.042-.026c-.067.009-.049.018.042.026 4.24 2.62 11.456 3.046 16.305 1.934a28 28 0 0 0 4.146-1.257l.218-.74c.098-.014.107-.03.014-.047"/><path fill="#0e0907" d="M647.601 428.987c2.543-1.124 5.389-.405 8.274.324l.005.001c1.898.48 3.813.964 5.669.929 2.808-.053 5.735-.521 8.662-.99 3.415-.547 6.83-1.094 10.056-.979-1.247 1.129-2.664 2.484-3.936 3.54-4.307 5.761-10.308 5.664-16.684 5.561q-.965-.017-1.939-.025c-2.965-1.859-4.145-2.452-6.348-5.115z"/><path fill="#955539" d="M651.36 432.233c9.425 1.785 15.678 1.948 24.971-.421-4.307 5.761-10.308 5.664-16.684 5.561q-.965-.017-1.939-.025c-2.965-1.859-4.145-2.452-6.348-5.115"/><path fill="#955539" d="M644.683 389.517c-6.084-2.662-8.111-9.905-2.026-13.327l.618.622-.83 2.198 2.457 2.343c4.092-1.403 33.682-1.301 39.385-.672a23 23 0 0 0-.402-1.245c-.385-1.104-.553-1.588.057-2.783 6.002 2.359 3.687 10.301-2.753 12.927-5.017.396-11.752 4.657-15.582 4.958-4.24.334-11.81-2.245-17.134-4.06-.907-.309-1.749-.596-2.498-.842z"/><path fill="#0e0907" d="m658.135 386.295.004.002c1.705.771 3.518 1.59 6.083 2.165 4.476-2.181 6.431-3.665 11.253-3.804l.894.721c-2.079 4.013-9.573 5.816-13.654 6.568-1.853-.67-8.99-3.344-10.41-3.392-2.592-1.575-3.142-1.912-4.077-4.383 4.755-.202 7.194.899 9.906 2.123z"/><path fill="#69371a" d="M644.683 389.517c-6.084-2.662-8.111-9.905-2.026-13.327l.618.622-.83 2.198 2.457 2.343c1.28 1.758 1.38 2.192 3.326 2.819.935 2.471 1.485 2.808 4.077 4.383-1.867.296-4.572.65-6.33 1.081z"/><path fill="#0e0907" d="M644.683 389.517c-6.084-2.662-8.111-9.905-2.026-13.327l.618.622-.83 2.198c-.477 3.513.658 5.637 1.529 7.266l.001.002.002.005c.658 1.23 1.165 2.179.706 3.234"/><path fill="#0e0907" d="M684.287 380.681a23 23 0 0 0-.402-1.245c-.385-1.104-.553-1.588.057-2.783 6.002 2.359 3.687 10.301-2.753 12.927.126-2.855 2.552-4.782 3.098-8.899"/><path fill="#c8885f" d="m661.173 368.905.54.004c2.901.019 4.905.032 7.043 2.179-.147 2.554-.044 1.752-1.989 4.02-2.778-.073-5.369-.158-7.192-2.544a52 52 0 0 0-.017-.672c-.018-.559-.026-.832.062-1.07.143-.383.537-.672 1.553-1.917"/><path fill="#b2704d" d="M650.084 241.784h.001l.001.001.003.002.002.001c7.978 4.254 16.311 8.696 26.496-2.162l.348-.376c6.17-.153 9.312 1.356 12.353 2.817l.003.001c3.884 1.866 7.603 3.653 17.255 1.793 6.582 13.175 8.774 15.047 23.758 15.487-.739 18.285.263 19.188 15.5 29.448-2.481 7.702-3.034 9.668-2.905 17.83 3.208 6.028 5.835 12.475 6.184 19.385l-.751 1.405c-3.304.22-5.63-2.324-8.637-5.615l-.003-.003c-5.456-5.971-13.157-14.397-33.012-13.233q-1.086.061-2.171.156c-4.447 1.335-7.247 1.922-12.004 3.537-8.777 5.763-12.242 9.751-17.145 18.879-9.54-3.488-14.54-3.79-24.015.349-4.818-10.58-8.693-13.533-17.887-19.711-4.387-1.477-7.23-2.119-11.726-3.083-11.852-.776-19.874.538-29.804 7.788-.874.863-1.855 2.133-2.919 3.511-3.242 4.196-7.257 9.392-11.364 7.149-1.995-3.892.659-10.083 3.195-15.997l.003-.006.001-.001.005-.012.003-.008c1.95-4.553 3.828-8.938 3.455-11.983-.45-3.678-1.628-6.747-3.062-10.153 14.73-9.945 15.943-11.971 15.793-29.656l1.188.007h.007c11.116.067 16.865.102 24.731-9.275l4.233-6.81c8.149-9.321 15.359-5.477 22.885-1.463z"/><path fill="#955539" d="M650.084 241.784h.001l.001.001.003.002.002.001c7.978 4.254 16.311 8.696 26.496-2.162l.348-.376c6.17-.153 9.312 1.356 12.353 2.817l.003.001c3.884 1.866 7.603 3.653 17.255 1.793 6.582 13.175 8.774 15.047 23.758 15.487-.739 18.285.263 19.188 15.5 29.448-2.481 7.702-3.034 9.668-2.905 17.83-2.596-3.392-2.477-7.621-2.772-11.821a33.8 33.8 0 0 1-6.817-5.712c-6.93-7.529-7.257-15.407-6.96-24.872-13.369-.584-16.498-2.284-25.962-11.422l-13.831-1.03-5.1-3.362c-2.42.19-4.633 1.091-6.99 2.049-3.309 1.347-6.901 2.808-11.742 2.578-4.603-.219-8.687-1.553-12.602-2.83-5.864-1.914-11.348-3.704-17.626-1.443-1.942-2.535-2.686-3.722-5.3-5.515 8.149-9.321 15.359-5.477 22.885-1.463z"/><path fill="#955539" d="m597.038 259.324 1.188.007h.007c11.116.067 16.865.102 24.731-9.275.487 1.645 1.452 5.242 2.06 6.665-6.391 5.635-10.999 6.964-18.741 10.007-2.105 6.85-12.97 35.03-13.049 38.978q-.18.298-.36.579c-.905 1.436-1.661 2.636-.582 4.513-.019.25-.047.589-.08.978-.127 1.512-.318 3.795-.284 4.704-.874.863-1.855 2.133-2.919 3.511-3.242 4.196-7.257 9.392-11.364 7.149-1.995-3.892.659-10.083 3.195-15.997l.003-.006.001-.001.005-.012.003-.008c1.95-4.553 3.828-8.938 3.455-11.983-.45-3.678-1.628-6.747-3.062-10.153 14.73-9.945 15.943-11.971 15.793-29.656"/><path fill="#0f242d" d="M593.234 305.706c6.111-4.277 10-6.671 17.811-7.973 7.196-1.2 35.476 2.056 32.76 12.768-2.468 2.194-6.19 1.193-9.211.379l-.539-.144-.597 1.039c-4.387-1.477-7.23-2.119-11.726-3.083-11.852-.776-19.874.538-29.804 7.788-.034-.909.157-3.192.284-4.704.033-.389.061-.728.08-.978-1.079-1.877-.323-3.077.582-4.513q.18-.281.36-.579"/><path fill="#b2704d" d="m592.292 310.798 1.443-.645c11.868-5.307 14.82-6.627 28.657-2.831l-.66 1.37c-11.852-.776-19.874.538-29.804 7.788-.034-.909.157-3.192.284-4.704.033-.389.061-.728.08-.978"/><path fill="#515150" d="M622.392 307.322c3.857 1.02 7.954 1.995 11.663 3.414l-.597 1.039c-4.387-1.477-7.23-2.119-11.726-3.083z"/><path fill="#0f242d" d="m692.032 311.31-.486.064c-3.779.498-9.883 1.302-9.678-3.928 6.093-11.231 45.619-14.697 52.339.138l-.459.968c-1.717.34-4.758-.615-8.051-1.65l-.012-.004h-.001l-.005-.001c-3.377-1.061-7.017-2.204-9.769-2.117-5.783.183-7.744.99-13.318 2.523l1.917 1.418c-4.447 1.335-7.247 1.922-12.004 3.537z"/><path fill="#515150" d="M692.032 311.31c3.796-1.616 6.565-2.794 10.56-4.007l1.917 1.418c-4.447 1.335-7.247 1.922-12.004 3.537z"/><path fill="#955539" d="M627.197 243.246c2.614 1.793 3.358 2.98 5.3 5.515-3.212 2.993-4.727 4.418-7.473 7.96-.608-1.423-1.573-5.02-2.06-6.665z"/><path fill="#b2704d" d="M618.758 449.699c36.597 27.261 51.995 26.646 89.23.408.006 1.826.03 3.776.054 5.781.067 5.508.139 11.432-.127 16.346.889 13.621 3.719 18.167 6.477 30.439 1.641 7.302-1.239 28.441-2.464 36.63-28.317 17.076-67.449 15.813-96.165.351-.108-.686-.231-1.458-.366-2.302-1.43-8.954-4.138-25.912-2.741-32.294 3.273-14.942 6.312-23.306 6.647-39.231a279 279 0 0 1-.545-16.128"/><path fill="#955539" d="M618.758 449.699c36.597 27.261 51.995 26.646 89.23.408.006 1.826.03 3.776.054 5.781.067 5.508.139 11.432-.127 16.346l-.069.074c-10.901 11.72-20.486 22.025-38.079 21.566-18.194-.475-38.619-15.453-50.464-28.047a279 279 0 0 1-.545-16.128"/><path fill="#c8885f" d="M697.037 316.527a30.535 30.535 0 1 1 19.794 57.274 30.534 30.534 0 0 1-36.078-36.676 30.53 30.53 0 0 1 16.284-20.598"/><path fill="#fff" d="M716.831 373.801c.742-4.089 17.128-28.814 21.033-30.224l.388.352c-.588 4.212-12.706 21.672-15.917 28.153a30.5 30.5 0 0 1-5.504 1.719"/><path fill="#fff" d="M697.037 316.527c.067 2.648-13.533 18.551-16.284 20.598a30.53 30.53 0 0 1 16.284-20.598"/><path fill="#0f242d" d="M687.103 342.287c-.663-1.531-.874-3.188.266-4.592 10.842-13.349 24.201-14.268 39.03-6.786 1.359.686 3.174.095 5.411 1.431.528 3.809-2.817 5.399-5.972 6.001-12.352 10.165-24.232 11.544-38.735 3.946"/><path fill="#fff" d="M714.139 331.237c5.422 2.028 7.37 3.364 11.699 7.104-12.352 10.165-24.232 11.544-38.735 3.946 2.303-2.262 7.661-7.635 10.513-8.715.706 8.02 4.702 17.239 15.305 8.882 2.418-1.905 1.712-7.382 1.279-10.739z"/><path fill="#c8885f" d="M603.593 316.041a30.505 30.505 0 0 1 42.697 32.576 30.505 30.505 0 0 1-56.79 10.043 30.51 30.51 0 0 1 14.093-42.619"/><path fill="#fff" d="m622.821 373.609-1.058-.885c.403-4.335 18.321-25.1 23.292-29.29-4.73 14.666-12.307 18.202-18.804 29.194a31 31 0 0 1-3.43.981"/><path fill="#fff" d="M603.593 316.041c1.546 7.524-5.834 12.404-9.2 6.426a30.5 30.5 0 0 1 9.2-6.426"/><path fill="#0f242d" d="M600.643 338.795c-2.551-.734-5.69-2.173-6.614-4.844 1.722-2.753 13.189-5.674 17.006-6.824 10.796-3.251 24.529 2.477 29.109 12.926l-.311 1.035-1.083.325c-15.721 8.75-23.581 7.485-38.107-2.618"/><path fill="#fff" d="M600.643 338.795c2.574-2.47 5.832-5.851 9.394-6.539 5.013 2.373.992 10.288 6.383 13.711 2.847.672 4.692-.307 7.106-1.589l.152-.081c4.524-2.401 4.448-7.04 4.696-11.498 2.18 1.873 8.274 7.311 10.376 8.614-15.721 8.75-23.581 7.485-38.107-2.618"/><path fill="#955539" d="M561.858 332.424c10.791.276 11.192 9.137 11.537 17.459l-.187-.313c-10.833-18.104-19.453-4.964-13.156 2.402 1.314-1.279.754-4.059 1.705-6.929l1.145-.476c3.218 1.281 5.811 5.662 7.697 8.558-1.778 3.108-3.42 6.516-5.036 9.728l.62 1.421c1.493 3.385 2.888 7.656 6.468 9.045l.785-.796c.113-2.268-1.232-5.062-2.375-7.436l-.001-.002-.005-.011c-.228-.473-.448-.929-.647-1.361q.017-.35.03-.659c.069-1.652.106-2.527 1.232-4.079l1.139.014c2.779 3.201 10.152 27.912 5.011 30.831-2.885-.589-7.506-3.671-8.738-6.213-1.181-2.437-2.655-5.111-4.213-7.938-7.862-14.262-17.85-32.384-3.011-43.245"/><path fill="#b2704d" d="M763.457 332.463c20.601 4.295-.746 51.851-12.975 56.759-.946-.069-1.254-.02-1.485-.131-.241-.116-.399-.404-1.108-1.18-1.463-5 2.752-26.486 6.442-29.384 1.766.845 1.2.59 2.105 3.126-.307 1.682-.985 3.437-1.64 5.131l-.004.01-.002.006-.003.008c-.955 2.475-1.86 4.82-1.48 6.621l1.112.495c9.872-2.403 4.876-15.228 1.62-20.952 1.664-2.478 4.25-6.89 7.1-7.803 1.37 1.014 2.091 5.411 3.532 8.037l.792-.445c1.158-3.445 2.286-8.667-.511-11.553-6.079-3.235-10.593 3.691-13.302 7.932l.578-10.03c3.059-3.437 5.138-4.657 9.229-6.647"/><path fill="#0f242d" d="M1050.92 152.173c2.44.73 14.67 7.278 18.07 8.992a351 351 0 0 0 31.17 14.13c-.37-.873-1.01-2.214-1.76-3.795-2.51-5.263-6.29-13.194-5.75-15.46l1.3-.108c24.14 12.23 47.85 19.202 65.54 38.647-.02-.45-.07-1.016-.13-1.655v-.107c-.28-3.38-.72-8.694 1.23-9.924.51.112 2.04.511 2.48.771 6.75 3.925 12.39 16.209 14.58 23.342.98 3.181 3.23 13.681 4.3 15.336 5.28 8.008 16.77 12.023 19.63 21.793 1.99 6.813-.61 8.405-6.54 9.991-.13 1.744.16 4.553.49 7.76l.03.317.01.051.03.339.04.351.04.356.04.35.01.053c.51 4.681 1.07 9.898.9 13.784-.69 15.667-3.03 29.161-5.48 44.526 7.7 4.234 11.87 7.871 11.78 17.552-.15 16.972-5.66 37.706-16.16 51.23-3.45 4.435-8.25 4.359-13.26 4.601-5.18 21.949-6.38 29.07-21.38 46.001l.19 16.446c7.57 6.099 7.91 10.803 13.62 17.329 7.35 8.394 17.72 21.73 27.58 26.784 12.29 6.3 85.56 30.127 88.68 38.23-.39 1.976-1.12 3.519-2.35 5.119-37.91 49.416-86.9 75.836-147.94 86.651-46.77 5.371-91.95 1.186-135.33-18.585a210 210 0 0 1-76.716-58.21c-3.762-4.472-9.3-10.539-11.294-15.843q.028-.29.046-.528c.097-1.221.122-1.531 1.813-2.555 5.878-3.561 13.855-5.882 20.051-8.6 11.098-4.869 23.189-9.139 34.219-13.645 18.541-7.572 32.661-9.791 46.061-25.75 2.74-3.267 7.58-7.299 10.46-11.277 5.78-7.991 6.78-12.437 14.14-19.19.24-5.473.16-10.385.05-15.867-15.4-17.466-16.11-24.119-21.39-46.794l-.95.003c-3.13.017-6.58.036-9.28-1.53-8.53-4.967-13.69-20.33-16.17-29.424-2.69-9.847-6.16-26.382-.6-35.522 2.47-4.053 4.61-4.861 8.94-6.027-4.28-23.408-9.01-52.404-.67-74.812-3.93 1.016-8.04 1.951-11.99 2.908 5.24-12.076 10.17-16.735 20.05-24.863-1.05-8.003-3.95-32.909 3.22-38.047 3.32.003 10.57 7.954 13.35 10.661a74.5 74.5 0 0 1 4.09-39.04c2.52 1.726 8.04 6.721 10.77 8.932 6.87 5.555 11.45 7.941 19.32 12.056-2.78-8.784-4.14-19.051-3.18-28.234"/><path fill="#c8885f" d="M1082.61 258.006c3.94 1.19 7.77 2.345 11.38 3.33 2.27-.639 5.04-1.533 8.17-2.54 21.19-6.827 58.44-18.826 62.32 8.446-.02.922-.06 2.135-.11 3.523v.18c-.22 5.858-.55 14.682.6 18.003 2.98 8.206 9.51 15.006 10.24 24.167 2.5 31.219-3.18 62.858-10.05 93.224-5.06 22.36-18.16 32.942-33.71 48.535-10.55 11.031-21.37 16.786-36.85 16.08-19.21-.876-28.25-3.773-40.91-18.87-7.31-8.222-22.16-19.379-25.95-29.84-12.53-34.58-18.64-77.464-15.14-114.172.42-4.403 8.14-15.2 9.84-21.011-6.76-49.248 29.94-38.176 60.17-29.055"/><path fill="#b2704d" d="M1082.61 258.006c3.94 1.19 7.77 2.345 11.38 3.33 2.27-.639 5.04-1.533 8.17-2.54 21.19-6.827 58.44-18.826 62.32 8.446-3.08-1.744-5.77-3.751-8.94-5.478-13.62-7.429-26.81-5.845-41-1.897-2.11.276-5.42 1.516-8.86 2.808l-.02.006c-4.71 1.769-9.68 3.635-12.22 3.258-5.2-.769-11.04-2.701-17.08-4.7-16.84-5.574-35.29-11.678-46.1 5.384-3.59 5.657-4.78 14.601-7.82 20.438-6.76-49.248 29.94-38.176 60.17-29.055"/><path fill="#0f242d" d="m1033.28 334.826-1.34-.196-.07-.129v-.012c-.65-1.17-1.09-1.96-.31-3.579 6.15-12.701 42.54-9.159 41.14 5.35l-1.05 1.23c-.64.194-1.3.403-1.98.618l-.04.016-.02.007-.02.006c-4.02 1.265-8.66 2.722-12.5 2.448-1.39.142-3.89.072-5.82.017l-.03-.001c-.49-.014-.95-.027-1.34-.035-5.36.317-12.35-2.624-16.62-5.74"/><path fill="#fff" d="M1033.28 334.826c2.31-2.071 4.98-4.898 7.88-5.697 4.23.934 4.48 7.265 8.74 11.437-5.36.317-12.35-2.624-16.62-5.74"/><path fill="#fff" d="M1057.09 340.585c4.25-5.189 4.15-5.428 4.77-12.379 3.2 2.632 6.78 6.335 9.79 9.284-.64.194-1.3.403-1.98.618l-.04.016-.02.007-.02.006c-4.02 1.265-8.66 2.722-12.5 2.448"/><path fill="#0f242d" d="m1115.03 337.529-.66-.319c-.7-1.417-.67-1.505-.23-2.811v-.023l.01-.016.01-.025c.05-.146.1-.307.16-.486 4.6-14.048 36.14-14.278 41.29-2.201-.39 2.184-.08 1.368-1.95 3.298-5.91 3.505-9.84 5.857-16.89 5.993l-6.94-.438c-5.4-.366-9.59-1.599-14.8-2.972"/><path fill="#fff" d="M1142.1 327.241c5.05 2.514 7.28 4.251 11.56 7.705-5.91 3.505-9.84 5.857-16.89 5.993 5.32-4.933 4.99-6.716 5.33-13.698"/><path fill="#fff" d="M1115.03 337.529c1.95-2.205 4.45-5.528 7.05-6.605 4.03.785 4.51 6.143 7.75 9.577-5.4-.366-9.59-1.599-14.8-2.972"/><path fill="#0f242d" d="M1144.41 301.298c9-.54 17.21 7.994 22.1 14.656-15.57-4.622-18.04-5.302-34.01-1.437-.39.083-.87.194-1.44.323-6.09 1.389-21.51 4.906-22.8-.886 3.63-9.103 27.52-11.803 36.15-12.656"/><path fill="#0f242d" d="M1038.78 301.081c5.37.307 44.03 4.581 40.01 14.476-4.67 2.761-12.99 1.108-18.13.086l-.02-.004-.12-.025-2.65-.593c-16.46-3.696-19.46-4.37-37.58.806 6.28-7.28 9.61-10.705 18.49-14.746"/><path fill="#b2704d" d="M1112.03 387.676c-21.51 17.875-45.08-1.061-38.87-10.943.44-.225.75-.403.98-.54.72-.421.76-.442 1.96-.226.39 1.993.43 2.858 1.66 4.541 8.33 2.743 25.77.82 33.93-2.327l.42-1.996c4.07 1.355 1.99 8.65-.08 11.491"/><path fill="#955539" d="m1111.69 378.181.42-1.996c4.07 1.355 1.99 8.65-.08 11.491-.33-2.364-.31-7.05-.34-9.495"/><path fill="#0e0907" d="M1103.42 383.53c.98-.003 1.45.147 2.18.383.21.066.44.138.7.216l.4 1.184c-2.61 4.182-9.65 5.71-14.17 6.571-3.85-1.033-5.81-2.121-9.31-3.888-2.12-.781-2.47-.883-4.12-2.402l.67-.743c2.89-.349 9.81 1.572 13.76 2.672l.03.008.02.006.02.005.01.002c.45.127.87.242 1.23.341 3.09-.562 5.89-2.649 8.58-4.355"/><path fill="#0e0907" d="M1124.94 409.306c.29-.036.46-.056.62-.031.25.038.48.182 1.11.539l-.2 1.092c-10.36 9.058-48.81 7.234-63.06 6.366-1.76-.523-1.82-.585-3.29-1.729l.19-1.203c2.15-1.782 8.17-1.236 11.33-.949l.57.051c17.93 1.567 34.21-.938 51.81-4.041.41-.032.7-.068.92-.095"/><path fill="#0e0907" d="m1081.64 431.801-.62-1.759.71-.88c2.77-.723 23.94-1.709 25.87-.799l.39 1.229c-3.99 7.832-11.89 8.325-19.82 7.697-2.65-1.646-4.78-2.802-6.53-5.488"/><path fill="#b2704d" d="M1081.64 431.801c10.17 2.038 16.8 1.184 26.35-2.209-3.99 7.832-11.89 8.325-19.82 7.697-2.65-1.646-4.78-2.802-6.53-5.488"/><path fill="#0e0907" d="M1099.99 327.42c2.53 1.217 2.25 9.171 2.06 14.53-.06 1.471-.1 2.747-.08 3.634.04 1.593.24 3.689.45 5.969.52 5.534 1.13 12.149-.12 15.252-5.97-8.153-5.3-29.879-2.31-39.385"/><path fill="#0e0907" d="M1130.15 402.826c6.48 1.769 6.42 7.136 5.57 12.489-3.26-1.661-5.45-9.037-5.57-12.489"/><path fill="#de9027" d="M1168.22 486.368c9.48 9.516 15.4 14.541 21.29 26.779 1.63-.083 3.47-.293 5.11-.44-.1-.423-.21-.791-.31-1.123l-.01-.03v-.032c-.3-1.031-.5-1.715.05-2.634 6.71 1.981 24.32 8.906 31.57 11.894 13.3 5.473 39.19 14.11 51.2 20.79-15.92 22.499-40.43 43.978-64.25 57.518-3.15 1.792-8.9 5.201-12.06 6.391a4 4 0 0 0-.3-.307c-.21-.207-.33-.327-.32-.588-1.74-.615-2.77-1.176-4.37-2.019l-3.39 7.065c-16.57 8.75-43.25 14.923-61.56 18.097 3.41-21.257 10.44-43.553 13.75-64.887 4.11 5.556 7.35 10.398 12.74 14.747 5.82-13.25 11.84-61.54 13.05-77.474.33-4.32-1-9.514-2.19-13.747"/><path fill="#de9027" d="M1168.22 486.368c9.48 9.516 15.4 14.541 21.29 26.779 6.12 14.45 12.44 28.817 18.95 43.096-6.19 2.387-29.56 10.206-32.52 14.079-1.18 5.464 10.4 14.109 18.17 19.908l.02.012.01.011.03.025c2.2 1.639 4.09 3.048 5.29 4.09l-3.64 8.199-3.39 7.065c-16.57 8.75-43.25 14.923-61.56 18.097 3.41-21.257 10.44-43.553 13.75-64.887 4.11 5.556 7.35 10.398 12.74 14.747 5.82-13.25 11.84-61.54 13.05-77.474.33-4.32-1-9.514-2.19-13.747"/><path fill="#1b1e1c" d="M1214.51 513.147c1.63-.083 3.47-.293 5.11-.44 5 10.147 16.02 35.644 18.57 45.864-9.48 5.924-22.27 9.885-32.8 14.023 7.8 6.116 17.96 13.674 24.89 20.511a142 142 0 0 1-5.09 11.481c-1.74-.615-2.77-1.176-4.37-2.019l3.64-8.199c-1.2-1.042-3.09-2.451-5.29-4.09l-.03-.025-.01-.011-.02-.012c-7.77-5.799-19.35-14.444-18.17-19.908 2.96-3.873 26.33-11.692 32.52-14.079a1735 1735 0 0 1-18.95-43.096"/><path fill="#c8885f" d="M1041.28 447.275c2.75 2.689 5.2 5.175 7.45 7.464 14.55 14.776 21.01 21.33 48.99 21.081 18.22-.162 27.54-7.18 39.85-19.793q4.5-4.603 8.82-9.374l.06 1.721v.748c.14 4.137.28 8.234.23 12.397.2 6.803.37 13.608.49 20.413-5.5 8.944-19.79 23.216-27 29.846-13.52 12.431-13.68 15.758-14.35 29.516-.1 2.017-.21 4.259-.37 6.786-.24 3.765-7.28 15.319-9.96 19.83-3.52-7.255-9.72-15.687-14.46-22.394-.72-23.994-2.1-22.821-19.08-39.473-6.59-6.459-16.24-16.56-21.35-23.972.61-6.968.61-14.248.72-21.263-.01-.871-.03-1.749-.04-2.631-.06-3.63-.12-7.327 0-10.902"/><path fill="#955539" d="M1041.28 447.275c2.75 2.689 5.2 5.175 7.45 7.464 14.55 14.776 21.01 21.33 48.99 21.081 18.22-.162 27.54-7.18 39.85-19.793q4.5-4.603 8.82-9.374l.06 1.721v.748c.14 4.137.28 8.234.23 12.397-6.86 5.501-13.23 14.893-20.96 21.019-35.01 27.724-61.22 6.351-84.4-21.73-.01-.871-.03-1.749-.04-2.631-.06-3.63-.12-7.327 0-10.902"/><path fill="#de9027" d="M1018.75 487.033c.69 1.145.22 4.683-.27 8.268l-.02.129-.02.176c-.36 2.704-.71 5.396-.54 7.071 1.03 10.422 8.15 67.053 12.92 73.427l1.19.027c3.97-2.304 9.12-10.038 11.95-13.926 4.7 21.384 9.83 43.743 13.97 65.178-14.7-2.999-24.8-5.281-39.24-9.84-8.03-2.613-15.35-5.78-22.99-9.327-2.79-4.748-4.65-8.71-6.99-13.715.87-.696 2.1-1.614 3.54-2.692v-.004c7.49-5.605 20.72-15.522 20.23-20.938-2.5-3.942-26.72-12.164-32.5-14.435 5.57-15.261 14.24-32.297 20.88-47.239 3.39-7.611 12.04-16.023 17.89-22.16"/><path fill="#de9027" d="m993.91 508.571 1.24.51c-.63 2.404-1.84 4.268-2.78 6.536-5.92 14.179-13.25 28.319-17.24 43.178 7.34 4.908 24.15 10.638 32.84 13.889-6.72 5.253-19.25 14.659-24.57 20.602 1.31 3.372 3.2 7.467 4.67 10.845-5.97-2.159-16.478-9.069-22.146-12.659-20.499-13.343-37.518-31.195-52-50.738 24.664-10.916 54.631-22.088 79.986-32.163"/><path fill="#c8885f" d="M1009.03 371.971c.16.739.37 1.608.6 2.561v.039l.01.033c1.24 5.064 3.05 12.48.01 15.718-11.58.082-26.02-51.148-18.47-59.399 7.48-8.176 14.25 7.973 13.78 15.529l-.04.655c.25 1.915-.53 4.423-1.41 7.235l-.01.048-.02.057-.02.065-.02.078c-1.55 4.932-3.38 10.763-.81 15.965.13.258.14.625.17.953 1.98 1.905 1.44 1.939 3.79 2.451.61-.547.84-.642 1.27-1.312z"/><path fill="#c8885f" d="M991.99 337.864c1.24-2.088.53-1.56 2.56-2.205 4.54.882 8.33 7.671 10.37 11.448.25 1.915-.53 4.423-1.41 7.235l-.01.048-.02.057-.02.065-.02.078c-1.55 4.932-3.38 10.763-.81 15.965.13.258.14.625.17.953l-2.63-3.667c-5.56-3.747-10.3-24.133-8.18-29.977"/><path fill="#1b1e1c" d="M991.99 337.864c1.24-2.088.53-1.56 2.56-2.205 4.54.882 8.33 7.671 10.37 11.448.25 1.915-.53 4.423-1.41 7.235l-.01.048-.02.057-.02.065-.02.078c-1.55 4.932-3.38 10.763-.81 15.965.13.258.14.625.17.953l-2.63-3.667c-.38-7.291.19-9.055 2.45-15.763-2.82-6.273-9.93-12.372-10.63-14.214"/><path fill="#c8885f" d="M1181.13 347.556c1.18-6.078 2.7-18.34 10.58-18.609 15 6.842-3.49 64.637-14.87 60.929-2.04-3.504-.29-11.247.81-16.112l.01-.024.01-.06c.14-.595.26-1.146.37-1.64l.9.622.61.586.28.094c1.44.489 1.61.545 3.23.225 5.82-5.848 4.24-14.815 1.11-21.514 1.07-2.134 3.18-4.668 5.22-7.112 2.68-3.199 5.22-6.246 5.12-8.048l-1.25-1.044c-4.37-.126-8.39 6.017-11.05 10.083-.39.595-.75 1.145-1.08 1.624"/><path fill="#365e63" d="M1036.97 190.659c4.11 1.438 10.67 8.668 14.81 11.256 13.75 8.592 35.55 13.843 38.99 32.125-4.36-2.563-6.85-7.444-10.91-10.425-13.81-10.135-37.39-14.621-42.89-32.956"/><path fill="#365e63" d="M1072.91 180.468c7.62.999 28.71 15.261 34.19 21.701 8.84 10.386 10.49 15.843 9.91 28.423-2.21-2.208-4.93-15.244-10.95-21.795-10.78-11.748-23.38-16.447-33.15-28.329"/><path fill="#365e63" d="M1122.83 187.875c9.97 2.665 17.56 18.947 17.68 28.42.06 4.983-.56 7.288-2.42 11.83l-.96 1.25c-.69-.644-.65-3.055-.62-4.549.01-.255.01-.483.01-.671.07-14.347-6.26-24.465-13.69-36.28"/><path fill="#365e63" d="M1142.86 199.38c10.71 6.221 12.02 24.377 4.15 34.147l-1 .17c-.38-.684.2-2.615.88-4.854l.01-.03c.65-2.141 1.38-4.56 1.44-6.439.2-5.485-1.27-9.583-2.81-13.867-.95-2.637-1.93-5.345-2.55-8.49z"/><path fill="#365e63" d="M1013.14 212.225c2.33 1.836 5.58 7.636 8.07 10.081 4.76 4.663 10.89 8.429 16.41 12.193-14.53.613-22.15-8.884-24.48-22.274"/><path fill="#365e63" d="M1036.38 208.034c4.97 1.697 15.16 13.404 18.25 18.024-9.33-1.154-15.09-9.892-18.25-18.024"/><path fill="#c8885f" d="M1007.86 372.647q-.195-.337-.39-.662l-.01-.022c-2.7-4.563-4.45-7.531-2.94-13.19a57 57 0 0 1 1.08-3.593c2.06 6.664 2.5 9.831 3.43 16.791z"/><path fill="#c8885f" d="M1203.04 372.04c.46-3.836.71-10.37 3.42-12.983 2.12 2.695-.69 9.306-2.16 12.762l-.03.078-.33.765z"/><path fill="#0f242d" d="M1376 196.713v-.789c-.08-14.061-4.55-28.061-13.68-39.234-18.61-22.784-52.42-31.894-81.71-28.932-24.56 2.266-48.13 7.733-64.38 26.707-22.33 26.085-19.47 64.67 5.2 88.337 3.16 3.027 6.56 5.742 9.93 8.536-.78 2.398-2.26 5.839-3.89 9.605-3.75 8.709-8.25 19.161-6.6 22.503 5.86 2.264 18.49-5.696 29.27-12.493l.04-.022c5.73-3.607 10.93-6.882 14.3-8.119 28.94 3.894 60.68 3.397 85.24-13.897 17.14-12.08 26.16-32.152 26.28-52.202"/><path fill="#fff" d="M1289.32 132.888c42.58-2.131 84.41 24.359 80.43 69.151-1.24 15.789-9.08 30.441-21.78 40.657-25.17 20.161-56.08 17.419-85.54 14.806l-.16-.014c-6.59 2.644-24.92 15.035-35.1 20.066 4.59-8.585 7.85-19.589 10.89-28.917a441 441 0 0 1-6.1-4.877c-32.59-26.634-34.76-73.519 3.51-97.682 15.63-9.871 35.43-12.242 53.85-13.19"/><path fill="#0f242d" d="m1261.87 153.315 1.05-.04c5.73-.219 14.33-.548 17.59 4.5 0 4.919-3.09 4.411-5.97 8.25 2.56 2.374 8.62 3.685 12.01 5.099 2.09.872 2.73-.183 3.56-1.555.69-1.148 1.51-2.519 3.43-3.169 4.47.013 8.09 2.785 8.71 7.061-.84 2.712-2.88 3.677-5.36 5.438 15.33 22.149 10.75 45.586-15.21 57.297-5.05 1.389-9.12 2.219-14.43 2.087-10.16-.201-19.78-4.325-26.69-11.428-6.9-7.057-10.52-16.463-10.06-26.098.46-9.741 5.88-22.416 15.38-27.163 4.81-2.398 10.75-4.416 14.65-7.746-.19-.268-.38-.536-.56-.802-1.83-2.58-3.62-5.135-3.01-8.198 1.54-2.437 2.06-2.536 4.91-3.533"/><path fill="#c08023" d="M1261.79 173.168c17.01-3.311 33.61 7.221 36.98 23.472 3.37 16.25-7.77 32.009-24.84 35.124-16.92 3.088-33.28-7.43-36.62-23.542s7.6-31.774 24.48-35.054"/><path fill="#1b1e1c" d="M1261.92 176.46c14.94-3.174 29.77 5.695 33.27 19.892 3.5 14.199-5.63 28.442-20.47 31.947-9.76 2.304-20.06-.574-26.99-7.533-6.92-6.959-9.37-16.926-6.44-26.094 2.94-9.169 10.82-16.126 20.63-18.212"/><path fill="#fff" d="M1266.93 178.366c5.6 1.037 10.8 1.484 14.99 5.344l.36 1.068 1.94 2.414c9.17.033 9.67 19.981 4.99 27.37-3.47 5.411-9.07 9.277-15.54 10.744-6.63 1.508-13.61.367-19.33-3.156-18.97-11.74-12.78-39.475 12.59-43.784"/><path fill="#0f242d" d="M1266.93 178.366c5.6 1.037 10.8 1.484 14.99 5.344l.36 1.068 1.94 2.414c-4.43 6.256-10.47 17.087-16.84 20.246l-2.43.055c-3.36-3.762-2.71-8.837 2.14-11.022.03-.74.04-1.472.07-2.199v-.206c.16-5.301.3-10.307-.23-15.7"/><path fill="#de9027" d="M1266.93 178.366c5.6 1.037 10.8 1.484 14.99 5.344l.36 1.068c-3.76 3.338-10.65 9.944-15.19 11.693.03-.74.04-1.472.07-2.199v-.206c.16-5.301.3-10.307-.23-15.7"/><path fill="#1b1e1c" d="m1326.06 161.416 23.67.154c-3.13 7.691-8.23 17.319-11.98 24.934 5.92-.016 11.86.069 17.78.255-7.64 11.677-21.55 28.826-30.36 40.376-4.27 5.712-5.79 8.438-11.48 13.015 1.8-10.909 7.77-26.044 11.65-36.793l-16.15.068c4.09-11.789 11.88-30.756 16.87-42.009"/><path fill="#de9027" d="M1322.07 180.227c.77-.205 1.5-.422 2.23-.635l.01-.002c4.48-1.306 8.31-2.42 12.57.813l-4.39 9.418 16.77-.064c-2.33 3.144-4.91 6.82-7.34 9.83-6.9 9.01-14.22 18.995-21.57 27.586 2.88-8.737 7.03-18.722 9.57-26.966l-12.7.107-1.62-.474c-1.07-3.223 2.94-11.926 5.34-17.117.45-.977.83-1.829 1.13-2.496"/><path fill="#c08023" d="M1317.22 200.314c.79-.799 1.64-1.543 2.54-2.226 4.12-3.052 8.6-1.791 13.78-.332l.02.004c2.59.733 5.36 1.515 8.36 1.827-6.9 9.01-14.22 18.995-21.57 27.586 2.88-8.737 7.03-18.722 9.57-26.966z"/><path fill="#de9027" d="M1328.44 164.8c1.19-.016 2.4-.037 3.61-.059l.08-.001c4.27-.075 8.68-.151 12.81.011-2.36 4.801-5.26 11.224-8.06 15.652-4.26-3.235-8.09-2.119-12.58-.81v.001c-.73.211-1.46.428-2.23.633z"/><path fill="#0f242d" d="m884.302 119.537.019.002c1.569.127 3.096.251 4.54.345 65.333 4.203 95.529 82.449 44.49 126.643-21.416 18.544-55.826 18.802-84.063 14.925-2.551.444-8.002 4.282-14.213 8.655-11.128 7.835-24.695 17.387-28.375 12.196-.116-4.678 3.841-14.416 7.242-22.782l.002-.007c1.533-3.771 2.952-7.263 3.834-9.886-16.675-14.479-27.296-29.634-29.362-52.591-1.598-18.382 4.042-36.658 15.673-50.79 15.978-19.392 39.144-24.675 62.645-26.784 4.984-.948 11.585-.412 17.568.074"/><path fill="#fff" d="M863.282 125.72c45.528-4.43 92.577 16.215 89.673 71.52-1.108 15.84-8.173 32.318-20.269 42.515-21.749 18.336-47.857 19.851-74.502 17.466-3.461-.537-7.606-.851-11.145-1.208-12.875 7.13-16.933 12.635-33.329 20.158 4.267-10.417 6.902-19.007 9.409-29.964a54 54 0 0 1-2.33-1.746c-35.729-28.239-38.371-82.371 3.112-107.094 12.202-7.271 25.452-9.992 39.381-11.647"/><path fill="#0f242d" d="m825.32 148.949 3.42.973c2.346 2.964 1.561 54.165 1.254 74.084v.031l-.001.055a1401 1401 0 0 0-.093 6.558c2.606.035 8.17-.027 15.338-.107l.177-.001c26.028-.29 72.909-.812 76.564 2.099l.17 2.337c-7.432 1.112-22.411 1.038-32.351.989h-.049c-1.646-.008-3.151-.016-4.462-.018l-60.337-.144c-.003-7.274-.094-15.423-.188-23.932v-.065c-.238-21.422-.501-45.113.558-62.859"/><path fill="#365e63" d="m902.406 174.102 13.03-.205c.037 2.854.089 5.896.144 9.052v.028c.241 13.818.521 29.848-.395 42.163l-12.851.712q-.293-25.876.072-51.75"/><path fill="#365e63" d="m859.071 186.446 13.492.091-.111 38.801-13.31.263z"/><path fill="#de9027" d="m880.371 195.739 13.308-.405c.57 10.801.546 19.298.266 30.018-3.196.211-6.857.179-10.307.149h-.055c-1.088-.01-2.154-.019-3.178-.02z"/><path fill="#c08023" d="M883.44 172.34c6.908-.734 11.544-7.085 15.797-12.914l.003-.003c4.182-5.729 7.995-10.952 13.234-9.832 1.057 1.434 1.455 1.803 1.638 2.26.174.442.149.964.319 2.595-3.113 7.251-7.073 5.087-12.587 9.603-2.206 1.807-3.942 4.887-5.694 7.997-3.213 5.702-6.477 11.494-12.79 9.68-2.085-2.321-2.412-2.992-3.84-5.678z"/><path fill="#de9027" d="m837.286 203.482 14.015.117q.01 1.197.022 2.38c.062 6.402.121 12.545-.398 19.003-15.092 2.491-14.622-4.992-13.922-16.118.107-1.715.22-3.518.283-5.382"/><path fill="#c08023" d="M836.96 185.75c4.034-5.148 15.79-9.703 20.396-16.47 2.501-3.674 2.998-5.583 5.085-9.25 1.563-.846 1.98-1.195 2.45-1.304.303-.07.627-.042 1.29.016h.001c.312.028.7.061 1.195.094-.732 2.323-.411 3.744-.104 5.105v.002l.002.008.001.003v.003l.001.004.002.004.001.004.001.002.001.004c.33 1.479.644 2.887-.425 5.313-5.026 2.009-14.374 10.401-16.455 15.406-2.742 9.467-9.184 9.967-13.442 1.056"/><path fill="#ab6a1c" d="M836.96 185.75c1.247-.063 3.429-.268 5.698-.48l.07-.007.093-.008c3.137-.294 6.406-.599 7.581-.561-2.742 9.467-9.184 9.967-13.442 1.056"/><path fill="#ab6a1c" d="M867.377 158.836c7.383 7.907 5.425 7.786 16.063 13.504l-3.92 3.708c-4.757-3.33-7.467-4.441-12.663-6.76 1.069-2.426.755-3.834.425-5.313l-.001-.004-.001-.002-.001-.004-.002-.004-.001-.004v-.003l-.001-.003-.002-.008v-.002c-.307-1.361-.628-2.782.104-5.105"/><path fill="#0f242d" d="M417.92 123.483c7.1-.705 18.89.659 26.075 1.809 41.651 6.662 70.24 40.443 62.183 82.63-3.24 17.191-13.48 32.367-28.382 42.058-23.644 15.701-55.816 17.03-83.073 11.879-.528.381-1.143.83-1.831 1.332-9.167 6.69-31.477 22.968-40.15 19.719-1.664-3.834 5.549-20.687 9.256-29.348.652-1.526 1.196-2.798 1.564-3.7a112 112 0 0 1-2.587-2.05c-15.162-12.417-25.632-29.845-27.155-49.304-1.403-18.053 4.637-35.904 16.777-49.592 17.615-19.787 42.084-23.719 67.323-25.433"/><path fill="#fff" d="M408.103 129.558c27.688-2.311 62.423 2.575 79.228 24.6 37.591 49.263-1.383 105.387-59.581 104.841-8.435-.08-14.691-.274-22.881-1.068-3.213-.553-7.688-.961-11.024-1.368-10.196 5.078-21.328 13.948-34.784 20.67 4.338-9.594 7.488-19.507 10.549-29.532-3.556-2.913-7.238-5.845-10.572-8.963-30.76-28.781-24.724-80.587 14.112-99.705 12.09-5.951 21.636-7.808 34.953-9.475"/><path fill="#de9027" d="M411.952 153.348c23.093-4.361 45.419 10.432 49.792 32.993 4.372 22.562-10.875 44.295-34.004 48.47-22.994 4.151-45.1-10.627-49.446-33.057-4.347-22.429 10.699-44.069 33.658-48.406"/><path fill="#0e0907" d="M398.949 202.36c1.868.462 4.111 2.004 6.664 3.758 5.757 3.958 13.088 8.997 21.251 5.171 4.2-1.969 10.415-7.321 14.22-7.643l1.804 2.259c-11.406 14.276-42.676 16.951-43.939-3.545"/><path fill="#0e0907" d="M400.569 178.194c4.686.303 14.049 2.474 10.195 8.795-2.353.137-2.503.009-3.815-1.113-.411-.351-.933-.797-1.673-1.364-1.623-.421-3.007.273-4.5 1.022h-.001c-1.664.836-3.463 1.738-5.878 1.242-.344-3.258 2.645-5.903 5.032-8.014l.004-.004.004-.003q.326-.286.632-.561"/><path fill="#0e0907" d="M433.404 178.094c5.389.708 10.371 1.211 10.919 7.574l-1.427 1.221c-3.1-.322-2.656-.694-5.472-2.968-.988-.063-2.442.83-4.1 1.85-1.193.733-2.492 1.532-3.8 2.087l-1.254-.602c-.332-4.225 1.268-5.667 3.928-8.062.381-.343.783-.706 1.206-1.1"/></svg>