<svg xmlns="http://www.w3.org/2000/svg" width="1376" height="768" viewBox="0 0 1376 768"><path fill="#0f252f" d="M79.74 469.475c6.852 26.544 26.571 33.301 50.372 37.553-14.97 6.781-71.314 24.262-75.984 37.624-.615 1.759-.465 3.402.405 5.022.285.532.603 1.041.924 1.551 25.318 29.121 51.765 50.673 88.453 64.509l5.998 2.088c16.672 5.221 28.518 8.479 45.906 11.415l4.721.64c12.477 1.441 49.55 3.348 60.738-.072l4.586-.438c16.591-2.589 30.279-6.362 45.962-11.897l5.9-2.135c35.773-13.83 62.285-36.067 87.338-64.493 5.56-9.719-6.027-16.177-13.638-19.906-19.622-9.614-41.79-15.315-61.491-24.634 15.421-2.034 28.926-7.676 38.845-20.211 2.691-3.4 11.227-20.345 7.188-23.361q-.77.255-1.6.536c-5.311 1.796-12.255 4.143-17.086 1.472-9.145-5.057-2.4-20.656 1.875-26.861 4.432-6.431 9.682-12.19 14.248-18.515 11.048-16.119 13.05-36.809 9.453-55.611-4.117-21.525-17.66-42.371-23.914-62.718-13.812-44.945-10.789-92.536-54.641-122.019-11.967-8.047-22.609-10.086-36.999-9.574-19.782-13.815-39.269-15.968-62.973-11.808a120.98 120.98 0 0 0-78.4 49.631c-23.066 32.948-20.502 63.719-31.933 100.255-5.992 19.15-16.634 35.265-21.01 56.191a77.9 77.9 0 0 0-.33 30.504c1.62 9.023 4.156 15.708 9.303 23.748 1.939 3.029 4.645 6.261 7.488 9.656 8.883 10.611 19.098 22.812 11.374 35.35-1.473 2.39-3.834 3.611-6.362 4.182-4.182.944-6.95-.947-9.406-2.626-1.814-1.239-3.459-2.362-5.377-2.142-1.201 2.496-.86 3.725-.249 5.927.1.36.207.745.316 1.167"/><path fill="#d18b27" d="M181.372 469.903c-11.215 9.3-21.079 20.098-27.204 33.388-1.548.292-5.757.987-7.03 1.428a806 806 0 0 1-42.576 17.544c-13.362 5.136-30.708 10.105-41.595 19.562-2.847 2.473-5.25 6.315-7.51 9.4 25.318 29.121 51.765 50.673 88.453 64.509l5.998 2.088c16.672 5.221 28.518 8.479 45.906 11.415-1.593-10.228-4.782-20.484-6.879-31.175q-.544-2.771-1.095-5.565c-6.5-32.999-13.435-68.203-11.713-101.757.261-5.079 3.696-15.741 5.245-20.837"/><path fill="#d18b27" d="M139.951 525.619c4.323-8.969 8.341-17.307 7.187-20.9a806 806 0 0 1-42.576 17.544c-13.362 5.136-30.708 10.105-41.595 19.562-2.847 2.473-5.25 6.315-7.51 9.4 25.318 29.121 51.765 50.673 88.453 64.509-6.835-16.99-11.178-23.689-9.902-29.053 1.244-5.231 7.834-9.191 22.671-20.188-5.552-2.181-23.499-8.068-25.335-13.363-1.947-5.614 3.539-16.996 8.607-27.511"/><path fill="#182830" d="M154.168 503.291c-1.548.292-5.757.987-7.03 1.428 1.154 3.593-2.864 11.931-7.187 20.9-5.068 10.515-10.554 21.897-8.607 27.511 1.836 5.295 19.783 11.182 25.335 13.363-14.837 10.997-21.427 14.957-22.671 20.188-1.276 5.364 3.067 12.063 9.902 29.053l5.998 2.088-12.952-30.908c5.446-4.224 21.908-14.514 24.451-18.973.27-2.723-.242-3.869-2.768-5.356-7.246-4.262-16.117-7.572-23.822-10.809 5.021-15.706 12.833-33.118 19.351-48.485"/><path fill="#d18b27" d="M307.585 503.723c-6.585-12.277-15.341-24.323-26.792-32.489 1.045 6.265 3.95 13.852 4.449 18.658 1.13 10.878-.138 24.81-1.233 35.865a631 631 0 0 1-8.846 59.986c-2.924 14.595-6.673 28.956-9.304 43.624 16.591-2.589 30.279-6.362 45.962-11.897l5.9-2.135c35.773-13.83 62.285-36.067 87.338-64.493-4.595-8.45-6.858-11.42-15.871-15.572-24.955-11.494-50.844-19.876-75.914-31.224-1.346-.284-4.189-.275-5.689-.323"/><path fill="#d18b27" d="M389.188 535.27c-24.955-11.494-50.844-19.876-75.914-31.224l.066.548c.612 4.716 3.996 11.975 7.571 19.646 5.35 11.48 11.13 23.882 8.696 30.062-1.37 3.477-20.244 10.09-25.461 12.239 14.211 11.471 21.462 14.238 23.173 18.997 1.676 4.664-1.969 11.241-9.598 29.797 35.773-13.83 62.285-36.067 87.338-64.493-4.595-8.45-6.858-11.42-15.871-15.572"/><path fill="#182830" d="M313.274 504.046c-1.346-.284-4.189-.275-5.689-.323l19.517 47.799c-6.306 2.668-23.882 9.091-27.271 13.624-.861 4.971 9.945 12.03 17.73 17.117 2.603 1.7 4.869 3.18 6.248 4.288-2.558 9.41-8.085 21.656-11.988 30.919l5.9-2.135c7.629-18.556 11.274-25.133 9.598-29.797-1.711-4.759-8.962-7.526-23.173-18.997 5.217-2.149 24.091-8.762 25.461-12.239 2.434-6.18-3.346-18.582-8.696-30.062-3.575-7.671-6.959-14.93-7.571-19.646z"/><path fill="#355f65" d="M274.558 563.496c-29.412 11.125-58.381 11.057-87.712-.548 2.385 9.813 4.219 22.123 6.37 32.277 2.284 10.781 5.728 24.027 7.319 34.652 12.477 1.441 49.55 3.348 60.738-.072.216-5.393 4.129-21.487 5.42-27.245a715 715 0 0 0 7.865-39.064"/><path fill="#bf7e57" d="M178.127 252.546c-10.078 15.6-14.236 35.112-20.292 52.808 4.22-2.538 9.09-5.961 13.253-8.736 10.225-.869 35.052.054 39.955 10.39-2.756 5.003-15.25.828-22.707-1.664-1.498-.501-2.793-.933-3.765-1.21-7.508-2.061-10.944-2.684-18.37.982a281 281 0 0 0-10.921 7.103c-3.938 8.684-6.907 13.55-11.776 21.647 1.284 26.786 7.055 57.167 17.834 81.767 7.581 17.302 36.388 41.081 54.381 45.74 29.952 8.793 64.956-18.153 79.763-42.306 10.538-17.187 16.729-53.278 18.466-73.64 2.424-12.097-2.537-34.145-6.031-49.679a639 639 0 0 1-1.706-7.717c-.75-3.543-9.061-11.944-11.981-15.385-8.636-10.181-12.34-23.271-20.627-33.537-2.839-3.503-10.68-7.005-14.947-8.97 2.958-3.908 10.432-14.327 8.595-19.172l-.627-.118c-2.472 2.169-1.543 4.837-2.737 6.764-6.827 11.681-29.092 17.933-42.11 17.295-19.048-.932-31.83-.656-43.65 17.638"/><path fill="#a05e3f" d="M178.127 252.546c-10.078 15.6-14.236 35.112-20.292 52.808 4.22-2.538 9.09-5.961 13.253-8.736.688-7.703 6.49-17.688 9.595-24.819 5.603-12.366 11.667-21.191 25.238-25.354 11.876-3.644 26.032-3.684 37.36-7.387 20.861-6.82 27.939 7.404 35.289 22.172 1.728 3.472 3.471 6.974 5.411 10.24 3.941 6.635 10.837 12.003 15.248 18.322 4.933 8.213 7.07 24.427 9.488 33.869 1.746 6.821 4.578 15.033 5.231 21.766 2.424-12.097-2.537-34.145-6.031-49.679a639 639 0 0 1-1.706-7.717c-.75-3.543-9.061-11.944-11.981-15.385-8.636-10.181-12.34-23.271-20.627-33.537-2.839-3.503-10.68-7.005-14.947-8.97 2.958-3.908 10.432-14.327 8.595-19.172l-.627-.118c-2.472 2.169-1.543 4.837-2.737 6.764-6.827 11.681-29.092 17.933-42.11 17.295-19.048-.932-31.83-.656-43.65 17.638"/><path fill="#a05e3f" d="M184.571 304.134c-7.508-2.061-10.944-2.684-18.37.982a281 281 0 0 0-10.921 7.103c-3.938 8.684-6.907 13.55-11.776 21.647 1.284 26.786 7.055 57.167 17.834 81.767 7.581 17.302 36.388 41.081 54.381 45.74-1.797-2.043-9.63-7.669-12.576-10.017-8.365-6.665-15.796-13.464-22.851-21.823-16.831-19.941-26.747-57.165-26.441-82.88.083-6.973 4.278-12.602 9.464-16.814-1.907-.924-3.683-1.437-4.541-3.229 2.432-1.742 5.224-.363 11.82-4.961l-.258-1.441 1.186-1.434c.545-2.201 4.761-3.926 6.634-4.863l-1.449-1.468c3.291-1.243 10.831-1.977 14.364-2.264-2.494-2.115-4.212-3.709-6.5-6.045"/><path fill="#bf7e57" d="M184.571 304.134c-7.508-2.061-10.944-2.684-18.37.982-.837 3.988-1.47 6.957-1.87 11.057 3.23-.953 9.453-2.6 12.376-3.73 3.291-1.243 10.831-1.977 14.364-2.264-2.494-2.115-4.212-3.709-6.5-6.045"/><defs><linearGradient id="a" x1="213.671" x2="182.107" y1="316.498" y2="335.139" gradientUnits="userSpaceOnUse"><stop offset="0" stop-color="#a25d3e"/><stop offset="1" stop-color="#9c705e"/></linearGradient></defs><path fill="url(#a)" d="M188.336 305.344c-1.498-.501-2.793-.933-3.765-1.21 2.288 2.336 4.006 3.93 6.5 6.045-3.533.287-11.073 1.021-14.364 2.264l1.449 1.468c-1.873.937-6.089 2.662-6.634 4.863l-1.186 1.434.258 1.441c7.917-2.818 17.674-6.09 25.165-.335l-.083 3.341c1.982 1.578 7.3 5.61 8.817 7.232l.427.075 1.446.402c2.277-.689 4.053-2.804 5.839-4.541 1.909 5.717 2.874 9.5 4.176 15.401 5.846-15.871 1.122-22.831-2.438-28.077-1.925-2.835-3.509-5.17-2.9-8.139-2.756 5.003-15.25.828-22.707-1.664"/><path fill="#55301b" d="M202.005 319.265c-2.418-6.676-18.225-6.37-23.849-5.354-1.873.937-6.089 2.662-6.634 4.863q1.037-.36 2.103-.738c8.301-2.935 17.726-6.267 24.712.61 1.128 1.11 2.06 2.288 3.512 2.436z"/><path fill="#191817" d="M205.188 330.494c-1.682-3.681-6.182-6.744-9.429-9.18l-.083 3.341c1.982 1.578 7.3 5.61 8.817 7.232l.427.075z"/><path fill="#0f252f" d="M195.759 321.314c-7.491-5.755-17.248-2.483-25.165.335-6.596 4.598-9.388 3.219-11.82 4.961.858 1.792 2.634 2.305 4.541 3.229l4.635.015c3.976 2.544 8.13 4.375 12.989 4.132 4.94 1.486 7.095 1.489 11.684-.588a125 125 0 0 0 3.053-8.743z"/><path fill="#fdfbfd" d="M178.576 324.315c0-.441 0-.911-.002-1.418-4.814 2.556-6.42 3.541-10.624 6.957 3.976 2.544 8.13 4.375 12.989 4.132-2.369-4.037-2.367-5.547-2.363-9.671"/><path fill="#fdfbfd" d="M204.493 331.887c-1.517-1.622-6.835-5.654-8.817-7.232a125 125 0 0 1-3.053 8.743c2.506.934 9.245-.606 11.87-1.511"/><path fill="#191817" d="M266.37 397.798c-17.935-1.099-54.244-3.093-71.181 1.214-.541-.032-.954-.078-1.291-.115-1.113-.123-1.39-.154-2.663.715.65 2.013 2.025 2.955 3.619 4.426 5.087 9.467 12.158 17.573 22.033 22.206 3.202 1.325 4.677 1.929 8.027 2.694.483-.024.991-.052 1.516-.082 2.586-.147 5.571-.316 7.867 0 3.253-.716 6.039-1.821 9.15-2.966l.523.032c8.198-4.447 16.566-14.259 20.534-22.7q.206-.172.416-.345c1.458-1.204 3.023-2.496 3.011-4.347z"/><path fill="#a05e3f" d="M264.504 403.222c-30.025 18.797-39.13 19.927-69.65.816 5.087 9.467 12.158 17.573 22.033 22.206 3.202 1.325 4.677 1.929 8.027 2.694.483-.024.991-.052 1.516-.082 2.586-.147 5.571-.316 7.867 0 3.253-.716 6.039-1.821 9.15-2.966l.523.032c8.198-4.447 16.566-14.259 20.534-22.7"/><path fill="#8f523b" d="M237.454 423.17c-2.324.028-4.459.359-6.758.662-3.265.813-6.608 1.704-9.91 2.311-.301.005-.638.007-.993.01-.986.006-2.1.013-2.906.091 3.202 1.325 4.677 1.929 8.027 2.694.483-.024.991-.052 1.516-.082 2.586-.147 5.571-.316 7.867 0 3.253-.716 6.039-1.821 9.15-2.966l.523.032c-.975-2.34-3.031-2.488-5.268-2.648-.412-.03-.83-.06-1.248-.104"/><path fill="#191817" d="M228.457 427.108c-2.826-.107-4.907-.485-7.671-.965-.301.005-.638.007-.993.01-.986.006-2.1.013-2.906.091 3.202 1.325 4.677 1.929 8.027 2.694.483-.024.991-.052 1.516-.082 2.586-.147 5.571-.316 7.867 0 3.253-.716 6.039-1.821 9.15-2.966-1.71-.675-5.383-.068-8.854.507-2.367.391-4.641.767-6.136.711"/><path fill="#d19369" d="M225.978 422.147c1.468 1.116 2.899 1.261 4.718 1.685 2.299-.303 4.434-.634 6.758-.662 2.085-.481 3.806-.976 4.961-2.763l-.653-.739c-3.142-.794-14.776-.906-15.784 2.479"/><path fill="#8f523b" d="M266.37 397.798c-17.935-1.099-54.244-3.093-71.181 1.214 21.425 6.215 49.914 5.174 71.181-1.214"/><path fill="#fdfbfd" d="m256.876 403.195-1.943.19c-23.925 3.463-30.249 2.821-54.35-.026 2.402 2.013 5.099 4.428 7.748 6.022a48.18 48.18 0 0 0 36.244 2.493c3.343-1.134 10.144-5.2 12.527-7.958z"/><path fill="#0f252f" d="M286.452 317.367c-7.01-5.785-14.845-5.19-23.383-4.388-6.126.145-11.817 9.244-14.52 14.14l.055.807 3.789-.317.972.962c-.073.476-.142.813-.195 1.073-.166.814-.178.874.317 2.075 3.268 1.128 8.803 2.373 12.272 2.244 4.059.868 7.43 1.382 11.442.034 3.282.217 8.385-1.958 12.047-3.519.56-.239 1.087-.464 1.568-.663 2.307.157 6.968-.526 8.303-2.497-1.907-2.207-5.826-2.704-8.871-5.321.002-.678.05-.88-.012-1.037-.067-.17-.261-.289-.776-.892a62 62 0 0 0-3.008-2.701"/><path fill="#bf7e57" d="M286.452 317.367c-7.01-5.785-14.845-5.19-23.383-4.388-6.126.145-11.817 9.244-14.52 14.14l.055.807 3.789-.317.972.962c-.073.476-.142.813-.195 1.073-.166.814-.178.874.317 2.075 3.268 1.128 8.803 2.373 12.272 2.244-2.092-3.949-2.31-5.125-2.611-9.589l-.232-3.818c10.569-4.446 17.172-3.661 27.332 1.441.002-.678.05-.88-.012-1.037-.067-.17-.261-.289-.776-.892a62 62 0 0 0-3.008-2.701"/><path fill="#55301b" d="M286.452 317.367c-7.01-5.785-14.845-5.19-23.383-4.388-2.826 2.368-5.633 4.498-7.814 7.479l.408-.233c7.731-4.412 12.822-7.318 22.256-4.707 4.198 1.162 7.616 3.318 11.541 4.55a62 62 0 0 0-3.008-2.701"/><path fill="#fdfbfd" d="M263.148 324.374c-3.497 2.493-6.387 4.536-9.661 7.345 3.268 1.128 8.803 2.373 12.272 2.244-2.092-3.949-2.31-5.125-2.611-9.589"/><path fill="#182830" d="M262.916 320.556c-3.916 2.934-6.045 4.552-9.551 8.015-.073.476-.142.813-.195 1.073-.166.814-.178.874.317 2.075 3.274-2.809 6.164-4.852 9.661-7.345z"/><path fill="#fdfbfd" d="M279.624 324.289c-.038 4.047-.053 5.568-2.423 9.708 3.282.217 8.385-1.958 12.047-3.519.56-.239 1.087-.464 1.568-.663-4.432-3.5-6.203-4.453-11.173-7.132-.01.579-.015 1.111-.019 1.606"/><path fill="#8f523b" d="M229.952 378.219c-4.46-1.192-9.363-3.114-13.742-4.7-.731.9-1.782 2.073-2.282 3.055l-2.835 2.175-.961.49-.227 1.495-1.132.831a47.4 47.4 0 0 0 15.167 8.67c7.254 2.536 12.349-.793 18.075-4.535 2.361-1.543 4.829-3.156 7.601-4.457l.553-.255-1.717-1.492-2.153-1.749-1.16-1.08c-1.662-.73-3.304-.652-5.496-1.652-3.412.968-6.368 2.018-9.691 3.204"/><path fill="#8f523b" d="M229.952 378.219c-4.46-1.192-9.363-3.114-13.742-4.7-.731.9-1.782 2.073-2.282 3.055l.656.152c2.725.658 4.969 1.975 7.087 3.219 4.111 2.413 7.749 4.55 13.521 1.054 3.558-2.154 5.623-4.228 9.947-4.332-1.662-.73-3.304-.652-5.496-1.652-3.412.968-6.368 2.018-9.691 3.204"/><path fill="#191817" d="m214.584 376.726-.656-.152-2.835 2.175c3.495 1.338 6.322 2.643 8.748 3.763 9.573 4.421 12.907 5.96 26.458-4.765l-1.16-1.08c-4.324.104-6.389 2.178-9.947 4.332-5.772 3.496-9.41 1.359-13.521-1.054-2.118-1.244-4.362-2.561-7.087-3.219"/><path fill="#0f252f" d="M303.339 310.865c-8.246-10.431-14.629-16.731-28.843-14.979-6.163.801-25.752 3.43-27.395 10.377.947 2.403.343 1.538 2.405 3.244 5.454.817 17.84-3.39 25.359-5.944 1.109-.377 2.112-.718 2.971-1.001 9.559-1.412 12.818.658 18.107 4.019 2.016 1.281 4.328 2.75 7.396 4.284"/><path fill="#55301b" d="M186.248 393.653c4.379-4.722 10.361-11.171 8.945-15.577-1.731 2.096-3.654 4.016-5.527 5.885-6.274 6.26-11.97 11.944-7.876 21.765 2.204-1.934 1.933-4.273 1.62-6.97-.065-.563-.132-1.141-.179-1.734.771-.948 1.836-2.096 3.017-3.369"/><path fill="#a05e3f" d="M226.43 428.856q-.79.045-1.516.082c-1.384 2.472-5.607 1.689-6.223 3.767 3.952 3.037 17.639 2.047 22.176.331-1.85-2.145-4.22-2.572-6.57-4.18-2.296-.316-5.281-.147-7.867 0"/><path fill="#55301b" d="M275.237 391.091c-1.661-2.049-11.496-13.113-13.164-13.709 1.555 10.498 6.651 11.058 14.555 17.129-.038.462-.085.97-.136 1.507-.247 2.637-.561 5.985-.081 8.083l.904.066c1.795-5.638 1.864-8.211-2.078-13.076"/><path fill="#191817" d="M208.582 366.759c-5.42-.642-5.122 9.954.191 14.806l1.132-.831.227-1.495.961-.49 2.835-2.175c.5-.982 1.551-2.155 2.282-3.055q-.692-.004-1.413.004c-2.631.021-5.487.043-7.637-1.121q.239-.518.47-.99c.776-1.596 1.404-2.889.952-4.653"/><path fill="#a05e3f" d="M214.797 373.523c-2.631.021-5.487.043-7.637-1.121-.577 2.846.974 4.59 2.709 6.54l.263.297.961-.49 2.835-2.175c.5-.982 1.551-2.155 2.282-3.055q-.692-.004-1.413.004"/><path fill="#191817" d="M251.247 372.394c.155.372.312.75.463 1.137-3.533.265-8.833.444-12.067 1.484 2.192 1 3.834.922 5.496 1.652l1.16 1.08 2.153 1.749 1.717 1.492c3.654-3.763 5.701-10.479 1.008-14.237l-.994.353c-.362 1.864.322 3.507 1.064 5.29"/><path fill="#a05e3f" d="M248.452 379.496c1.368-1.954 2.8-3.641 3.258-5.965-3.533.265-8.833.444-12.067 1.484 2.192 1 3.834.922 5.496 1.652l1.16 1.08z"/><path fill="#6f3f27" d="M271.515 343.965c-5.792-.621-11.688-3.619-16.055-4.025 8.091 7.944 19.117 8.426 29.191 4.113l-.179-1.207c-1.526-.234-3.119.095-4.941.471-2.23.461-4.804.992-8.016.648"/><path fill="#191817" d="M239.761 328.825c.079-.334.483-7.214.459-7.816-4.887 8.388-5.255 20.392-1.456 29.276.95-1.429.841-6.802.737-11.932-.08-3.966-.157-7.787.26-9.528"/><path fill="#6f3f27" d="m202.141 340.085-.218-.772c-6.97 3.57-13.219 6.179-21.225 5.208-.457-.055-.926-.134-1.399-.213-1.671-.28-3.4-.57-4.846.12l.387.942c6.331 1.401 25.374 3.211 27.301-5.285"/><path fill="#d19369" d="M233.327 366.448a4.415 4.415 0 1 0-8.77 1.026 4.415 4.415 0 0 0 8.77-1.026"/><path fill="#bf7e57" d="M275.758 447.341c-37.971 27.349-52.691 27.603-91.344.6q.082 2.128.175 4.309c.332 7.901.682 16.225.038 23.857-.308 3.641-1.176 7.885-2.085 12.331-1.796 8.78-3.753 18.348-1.875 25.614-.121 7.082 1.516 18.387 3.009 28.692.796 5.499 1.551 10.714 1.976 14.849q2.023.86 4.062 1.683c28.544 11.485 58.008 10.362 86.077-1.63 2.029-16.213 4.134-32.516 4.98-48.881.368-7.129-1.068-13.86-2.53-20.712-.384-1.801-.77-3.61-1.125-5.436-1.224-6.288-1.482-12.954-1.676-19.292.068-5.084.012-10.978.318-15.984"/><path fill="#a05e3f" d="M275.758 447.341c-37.971 27.349-52.691 27.603-91.344.6q.082 2.128.175 4.309c.332 7.901.682 16.225.038 23.857-.308 3.641-1.176 7.885-2.085 12.331-1.796 8.78-3.753 18.348-1.875 25.614.149-2.022.067-5.027-.003-7.594-.023-.853-.045-1.657-.057-2.361 8.262-10.782 9.452-18.473 10.617-31.487a198 198 0 0 0 5.93 5.161c7.608 6.38 16.748 13.25 26.7 15.067 20.97 3.827 39.698-14.858 51.586-29.513.068-5.084.012-10.978.318-15.984"/><path fill="#355f65" d="M248.894 204.255c-10.623-7.087-19.998-9.126-32.188-8.527-20.45 3.161-36.294 11.772-48.717 28.656-21.778 29.595-20.239 67.578-36.522 99.825-7.462 14.779-13.559 21.624-24.609 33.694 10.571-6.337 17.167-14.316 24.066-24.478 13.963-25.622 17.814-45.776 25.127-73.181 9.288-34.808 48.209-72.719 86.341-57.226 2.095.815 7.083 5.532 8.613 5.776-.164-1.865-.246-3.295-2.111-4.539"/><path fill="#355f65" d="M237.831 178.447c-7.465-1.788-17.384-4.164-24.879-3.457-40.591 3.045-72.225 28.349-84.373 67.335 3.721-5.855 7.824-12.644 11.902-18.157 28.411-35.107 52.874-47.868 98.423-45.464z"/><path fill="#355f65" d="M341.402 369.636a23 23 0 0 0-1.454-2.221l.074.628c1.332 11.222 2.515 21.195-.727 32.331-2.153 7.395-6.622 14.773-11.137 22.229-9.94 16.411-20.105 33.195-6.288 51.345.389-1.382-.049-4.263-.575-7.721-.834-5.485-1.89-12.425-.215-17.147 3.011-8.489 7.391-15.508 11.625-22.295 7.842-12.568 15.186-24.336 12.407-43.157-.616-4.169-1.567-10.249-3.71-13.992"/><path fill="#355f65" d="M332.414 305.543c-.087-.053-.183-.09-.275-.135 6.46 23.983 23.491 37.447 27.034 62.733a78.2 78.2 0 0 1-.346 23.8c-.266 1.598-1.032 4.735-1.85 8.08-1.278 5.228-2.68 10.965-2.49 12.138.784-.728 1.199-1.014 1.69-1.988 9.512-19.127 12.27-35.914 5.32-56.703a80.6 80.6 0 0 0-6.266-14.078c-1.435-2.551-21.966-33.329-22.817-33.847"/><path fill="#355f65" d="m125.764 293.877-.365-.277c-3.849 6.36-8.06 12.41-12.214 18.377-15.54 22.324-30.28 43.499-22.252 75.491a54.8 54.8 0 0 0 5.844 14.346l.988.435c.19-1.078-.705-5.011-1.591-8.909-.646-2.838-1.287-5.658-1.503-7.343a81 81 0 0 1 .184-21.924c2.68-18.89 11.284-33.507 20.966-49.486 2.218-3.66 9.992-16.774 9.943-20.71"/><path fill="#355f65" d="M131.481 432.599c-9.72-13.934-13.469-22.571-15.399-39.289-3.159 10.542-.543 22.526 4.659 31.361 1.056 1.794 2.122 3.553 3.174 5.289 8.237 13.596 15.658 25.845 11.395 43.174-.142.576-.232.781-.175.93.05.131.214.219.558.481l1.009-1.086c8.464-15.04 4.074-27.534-5.221-40.86"/><path fill="#355f65" d="M331.643 248.072c-3.785-23.429-21.31-53.483-48.496-51.768 21.666 9.338 32.216 19.116 42.631 40.982 1.262 2.649 3.663 9.142 5.865 10.786"/><path fill="#a05e3f" d="m135.267 348.949-.328-.331c-2.108 2.282-4.367 4.646-6.398 6.979 2.569 11.338 4.49 27.029 15.548 32.967l1.941-.276c2.33-3.364-1.17-13.467-2.675-17.265-5.915-3.253-6.632-3.62-9.488-9.626.079-.592.241-1.525.432-2.624.604-3.481 1.495-8.623.968-9.824"/><path fill="#355f65" d="M281.599 221.248a39 39 0 0 0-3.186.107c1.094 1.519 13.103 4.466 19.611 11.219 9.388 9.741 12.635 24.906 18.475 33.118.427-19.166-13.539-44.156-34.9-44.444"/><path fill="#a05e3f" d="M328.817 361.401c-1.66-1.087-3.104-2.147-4.691-3.319-1.526 7.669-2.986 9.554-9.282 14.296-.106.41-.251.921-.417 1.508-1.312 4.638-3.953 13.977.45 14.84 9.076-4.074 11.929-18.522 13.94-27.325"/><path fill="#bf7e57" d="M320.917 343.387c1.408 5.261 2.24 9.326 3.209 14.695 1.587 1.172 3.031 2.232 4.691 3.319l.798-5.895z"/><path fill="#bf7e57" d="M141.816 367.427c1.147-3.684-.779-14.219-2.615-17.611-2.874 7.867-2.589 11.032 2.615 17.611"/><path fill="#bf7e57" d="M317.448 366.615c2.531-4.604 6.281-11.641 1.34-16.1-.088.408-.218.976-.375 1.656-.96 4.171-2.897 12.587-1.95 14.529z"/><path fill="#0f252f" d="M690.429 164.006c-20.19-11.798-36.617-10.3-49.891 10.483-24.987-4.41-34.49 3.077-41.561 27.447-20.92 6.956-29.008 19.073-21.71 40.695q.124.368.258.732c-10.661 8.32-17.841 19.961-7.964 32.251a80 80 0 0 0 2.368 2.79c-5.471 12.512-5.448 20.45 5.148 29.922.441 8.821.929 12.866 5.982 20.458-17.113 14.922-3.519 42.753 7.749 57.846 4.36 5.839 9.567 7.064 16.424 7.645 11.425 28.048 9.363 30.654 32.295 52.037l.194 19.623c-20.182 10.109-24.447 28.736-44.717 37.949-2.304 1.047-7.028 2.718-13.1 4.866-26.31 9.305-77.921 27.558-67.514 42.798 26.181 28.541 47.41 46.727 84.086 62.467l4.759 1.955c13.428 6.136 36.373 11.423 50.987 13.643l4.295.317c13.366 3.068 47.208 2.209 60.577.248l4.119-.601c15.202-1.291 36.199-8.189 50.248-13.65l4.981-2.086c31.876-11.979 61.844-37.261 84.273-62.512 1.112-2.812 1.808-4.873.458-7.827-7.438-16.278-65.093-32.748-82.567-40.298-17.676-7.638-25.783-28.505-43.65-37.805l.082-1.416c.349-6.029.68-11.738.568-17.849 20.123-19.958 23.73-25.258 31.415-52.541l.698.034c2.846.142 6.81.34 9.098-1.073 15.201-9.391 31.081-47.061 16.656-61.834a32 32 0 0 0-2.975-2.704c2.272-5.868 2.99-8.09 3.002-14.595 5.675-4.375 6.678-5.767 9.265-12.421l-2.291-8.505c7.742-9.922 8.088-16.056 1.092-27.015 8.204-15.619 4.886-24.661-9.601-34.778 1.286-14.811.401-19.401-14.264-25.331-1.075-14.959-7.441-25.079-23.956-23.834a87 87 0 0 0-5.882.665c-7.281-17.663-16.531-21.391-34.661-14.873-8.941-8.636-13.495-9.813-24.773-3.323"/><path fill="#d18b27" d="M728.036 549.586c-28.793 11.232-59 8.198-86.864-4.029 3.293 15.893 5.978 31.187 9.703 47.154 2.078 8.908 6.895 28.885 7.642 37.219 13.366 3.068 47.208 2.209 60.577.248-.852-2.397 3.195-19.199 5.281-27.86.457-1.899.821-3.407 1.017-4.285a734 734 0 0 0 10.065-51.593 132 132 0 0 1-7.421 3.146"/><path fill="#355f65" d="M788.488 547.14c-11.819-26.617-25.205-61.187-51.448-76.449 1.674 6.573 6.846 21.358 7.037 26.636 1.057 29.321-5.381 60.196-11.346 88.806l-.367 1.758c-2.965 14.223-5.61 27.976-9.151 41.686 15.202-1.291 36.199-8.189 50.248-13.65 1.173-8.275 9.973-25.811 13.897-34.414-5.487-3.58-23.227-13.918-25.066-19.242.934-6.578 19.851-12.494 26.196-15.131"/><path fill="#355f65" d="M630.279 478.458c-20.816 17.539-30.485 44.27-41.82 68.303 6.181 2.868 24.561 9.106 26.459 14.988-1.106 4.558-19.578 16.635-24.407 20.137 2.857 8.452 12.625 26.654 12.724 34.084 13.428 6.136 36.373 11.423 50.987 13.643-2.457-7.428-5.429-22.079-7.134-29.907-6.899-31.688-12.993-64.478-14.206-96.953-.166-4.464.551-8.913 1.329-13.257.314-1.753 1.211-4 2.143-6.336 1.519-3.804 3.132-7.845 2.475-10.374-1.823-.001-6.482 3.928-8.365 5.516z"/><path fill="#355f65" d="m514.78 551.129-.39.419c26.181 28.541 47.41 46.727 84.086 62.467-2.612-6.792-5.053-12.05-7.023-16.296-7.958-17.146-8.25-17.774 18.805-36.158-8.117-3.123-20.353-7.098-26.284-12.998 3.509-13.837 11.838-29.528 18.202-42.657-11.377 5.022-23.207 9.441-34.828 13.982-14.767 5.771-31.614 9.977-43.963 20.345-3.367 2.827-5.374 7.372-8.605 10.896"/><path fill="#355f65" d="M803.695 517.368c-9.179-3.58-20.145-8.506-29.029-11.592 6.456 12.918 15.379 29.346 18.586 42.99-7.47 5.924-17.392 9.156-26.288 12.949 27.491 18.167 26.902 19.373 18.693 36.196-2.039 4.18-4.549 9.323-7.215 15.93 31.876-11.979 61.844-37.261 84.273-62.512l-.44-.435c-3.775-3.796-7.247-10.347-11.025-12.946-13.663-9.399-31.977-14.504-47.555-20.58"/><path fill="#4d3134" d="M690.57 170.526c-9.23-6.639-13.406-9.643-25.407-9.145-12.541 3.101-15.109 8.193-22.22 18.422l-.662-.11c-9.951-1.656-18.912-3.147-28.013 2.917-8.434 5.619-7.213 14.61-10.383 19.782-4.711 7.687-22.282 7.865-23.646 20.608-.817 7.636.616 15.089 2.907 22.278-10.394 7.579-18.486 15.18-8.978 27.955a185 185 0 0 0 3.63 4.645c-6.183 12.29-7.864 18.381 3.962 27.561.018 10.332.635 12.813 5.618 22.013l8.848 1.329c2.558-12.061 4.352-17.279 8.693-28.851-4.349-12.852-2.16-14.248 2.481-17.209 2.453-1.566 5.592-3.568 8.812-7.93l.084-.623c.31-2.305.741-5.506.708-7.628-.198-12.752 5.248-12.652 13.468-12.503 2.032.037 4.234.077 6.562-.073 4.22-3.149 6.966-6.952 9.494-10.454 4.518-6.258 8.34-11.553 18.646-10.426 3.98.435 7.883 2.573 11.709 4.668 6.09 3.336 11.982 6.563 17.671 2.634 3.574-2.469 4.603-6.764 6.108-10.737 2.042 2.525 2.091 3.397 4.72 4.487 2.137-.467 2.656-.963 4.4-2.225 2.699.729 3.841 2.372 4.975 4.002 2.296 3.301 4.555 6.549 19.625 2.038 2.618 7.296 3.696 10.924 9.948 15.967 15.979-.49 15.917 1.06 15.501 11.43-.079 1.994-.172 4.314-.167 7.009l.351.673c2.548 4.815 5.889 7.103 8.694 9.024 4.876 3.34 8.135 5.572 2.809 18.037 2.197 7.087 6.385 25.302 12.081 28.769 6.095.258 7.229-11.089 7.832-17.113.078-.786.148-1.482.218-2.049 8.656-6.555 8.757-8.042 4.448-18.177 9.447-11.076 9.24-13.391 1.897-25.912 8.409-17.758 6.029-22.502-10.4-32.834 3.61-15.995 2.816-19.558-13.52-23.344.672-22.944-7.11-25.049-27.789-21.55-7.129-19.616-12.589-23.097-32.602-14.496-7.819-9.204-11.981-12.575-22.503-3.098l-.416.378z"/><path fill="#bf7e57" d="M678.297 345.233q.053.41.097.777c-2.183 11.507-5.684 20.266-15.864 27.239a37.53 37.53 0 0 1-28.013 5.826c-6.52-1.268-12.319-4.19-17.622-8.13-12.416-13.662-10.093-17.054-13.995-32.571-1.182 17.838 3.941 35.636 8.902 52.868a810 810 0 0 1 2.803 9.895c5.423 19.786 25.988 46.683 45.287 54.229 23.25 16.427 43.363 9.838 64.95-4.657 34.762-23.342 41.61-56.994 48.224-96.393l-1.578-2.799c-2.008 6.64-4.598 12.06-9.467 17.126a36.9 36.9 0 0 1-25.937 11.152c-20.162.319-37.042-14.5-37.336-34.953-.286-11.327-12.505-13.371-19.639-6.435-1.505 1.464-1.105 4.562-.812 6.826"/><path fill="#8f523b" d="M616.895 370.945c-12.416-13.662-10.093-17.054-13.995-32.571-1.182 17.838 3.941 35.636 8.902 52.868a810 810 0 0 1 2.803 9.895c5.423 19.786 25.988 46.683 45.287 54.229-3.826-5.105-9.849-10.209-14.301-15.015-11.476-12.387-19.553-27.425-24.163-43.632l-.3-1.047c-1.642-5.706-6.12-21.265-4.233-24.727"/><path fill="#8f523b" d="M678.297 345.233q.053.41.097.777c.194-.558.424-3.523.5-4.305 3.621-3.627 8.726-4.079 13.418-2.787 3.853 1.061 4.592 2.705 6.436 5.924-.286-11.327-12.505-13.371-19.639-6.435-1.505 1.464-1.105 4.562-.812 6.826"/><path fill="#8f523b" d="M689.074 406.353c-4.699-1.744-6.187-2.112-11.176-1.583-8.022 2.774-14.524 7.98-22.069 9.692.551 2.101.453 2.523 2.636 3.592 3.389 1.547 10.964 8.199 14.139 10.926l3.732 2.998c2.253 2.445 2.789 2.843 5.587 4.661l.709.052c7.169.525 13.732 1.005 18.958-5.045 1.227-1.04 2.539-2.306 3.737-3.407 1.668-2.44 10.371-9.211 13.562-10.138 1.698-.885 1.844-.888 2.777-2.48l-.453-1.227c-8.558-1.163-11.739-6.411-21.061-9.285-4.336-1.135-6.178-.484-10.02.872q-.504.179-1.058.372"/><path fill="#6f3f27" d="M689.074 406.353c-4.699-1.744-6.187-2.112-11.176-1.583-8.022 2.774-14.524 7.98-22.069 9.692.551 2.101.453 2.523 2.636 3.592 10.362.003 20.555.282 30.877.346 4.018.025 7.931-.105 11.835-.235 5.819-.194 11.617-.387 17.712-.064 1.698-.885 1.844-.888 2.777-2.48l-.453-1.227c-8.558-1.163-11.739-6.411-21.061-9.285-4.336-1.135-6.178-.484-10.02.872q-.504.179-1.058.372"/><path fill="#191817" d="M721.213 414.394c-22.274.519-43.153.31-65.384.068.551 2.101.453 2.523 2.636 3.592 10.362.003 20.555.282 30.877.346 4.018.025 7.931-.105 11.835-.235 5.819-.194 11.617-.387 17.712-.064 1.698-.885 1.844-.888 2.777-2.48z"/><path fill="#191817" d="M689.074 406.353c-4.699-1.744-6.187-2.112-11.176-1.583 4.435 2.809 10.479 3.191 15.545 2.044q3.368-.797 6.709-1.705c-4.336-1.135-6.178-.484-10.02.872q-.504.179-1.058.372"/><path fill="#191817" d="M680.76 429.259c-2.86-.707-5.678-1.404-8.156-.279l3.732 2.998c2.253 2.445 2.789 2.843 5.587 4.661l.709.052c7.169.525 13.732 1.005 18.958-5.045 1.227-1.04 2.539-2.306 3.737-3.407-3.036-.114-6.564.419-10.091.952-3.112.47-6.223.94-8.992.965-1.793.016-3.647-.442-5.484-.897"/><path fill="#a05e3f" d="M701.59 431.646c-10.492 2.561-14.807 2.3-25.254.332 2.253 2.445 2.789 2.843 5.587 4.661l.709.052c7.169.525 13.732 1.005 18.958-5.045"/><path fill="#8f523b" d="M667.718 376.134c-6.171 2.596-4.214 10.235 2.025 13.345l1.786.2.787.318c8.167 3.299 15.347 6.199 24.252 2.881 3.772-1.405 4.758-2.395 9.072-3.342l.736-.156c5.924-2.362 8.522-9.899 2.802-12.839l-.729.714.411 3.118c-4.464-.182-8.639-.018-12.945.151-1.471.057-2.957.116-4.475.161-2.622.078-5.112-.085-7.554-.246-4.764-.313-9.348-.615-14.382.913l-1.832-2.295.765-2.301z"/><path fill="#191817" d="M683.738 386.778c-4.264-2.401-5.612-2.531-10.536-2.619 1.234 2.924 1.551 2.993 4.921 4.458 1.426.294 2.684.858 3.948 1.425 2.497 1.12 5.021 2.252 8.931 1.346 3.848-.892 8.541-2.789 10.817-6.149l-.504-.929c-2.371-.23-2.941-.009-5.05.806l-.176.068-.634.25c-3.224-1.615-9.087-1.176-11.717 1.344"/><path fill="#bf7e57" d="M695.455 385.434c-3.224-1.615-9.087-1.176-11.717 1.344q1.262.505 2.578.844c3.653.975 5.321.013 8.272-1.69q.415-.24.867-.498"/><path fill="#6f3f27" d="M667.718 376.134c-6.171 2.596-4.214 10.235 2.025 13.345l1.786.2 6.594-1.062c-3.37-1.465-3.687-1.534-4.921-4.458-2.357-.768-1.836-.772-3.698-2.807l-1.832-2.295.765-2.301z"/><path fill="#191817" d="M667.718 376.134c-6.171 2.596-4.214 10.235 2.025 13.345.413-1.294-.115-2.161-.769-3.235-.894-1.469-2.024-3.325-1.302-7.187l.765-2.301z"/><path fill="#191817" d="m708.449 377.255.411 3.118c.634 2.486-.311 4.041-1.212 5.524-.661 1.087-1.298 2.135-1.272 3.483 5.924-2.362 8.522-9.899 2.802-12.839z"/><path fill="#d19369" d="M686.67 368.82q-.521-.015-1.042-.022c-.801 1.52-1.153 1.905-1.201 2.324-.04.356.137.736.444 1.852 1.973 1.884 5.074 2.061 7.716 2.067.685-1.408 1.034-1.837 1.135-2.318.087-.409-.005-.855-.221-1.97-1.709-1.827-4.384-1.856-6.831-1.933"/><path fill="#bf7e57" d="M674.279 241.573c-7.94-4.166-14.521-7.619-22.734 2.643l-3.847 6.599c-5.753 5.984-9.538 8.444-18.175 8.609q-3.701.048-7.401-.044c-.006 16.228-.916 20.991-15.884 29.378 1.354 3.441 3.11 7.49 3.134 11.155.018 2.82-1.658 7.034-3.418 11.458-2.51 6.311-5.19 13.052-3.371 16.791 3.439.856 7.704-4.258 10.986-8.194 1.3-1.559 2.446-2.933 3.325-3.678 10.191-6.602 16.278-8.538 28.443-7.641 5.097.728 8.202 1.476 13.096 3.218 9.751 6.028 12.341 8.826 17.913 19.308 9.811-3.359 14.057-3.945 24.089-.049 4.577-8.671 8.289-13.632 17.101-18.743 3.63-1.466 7.918-2.637 11.705-3.775 9.671-.736 22.252-.022 29.69 7.048.924.878 1.988 2.147 3.151 3.534 3.27 3.9 7.32 8.729 11.214 8.402l.746-1.463c.147-5.969-3.126-13.9-5.979-19.136-.625-8.416-.027-10.221 2.611-18.178l.02-.059q-.665-.43-1.341-.862c-7.448-4.775-15.627-10.018-14.07-20.358 1.255-8.333-2.484-8.681-7.255-9.126-1.899-.177-3.961-.369-5.937-1.086-5.594-2.032-8.161-8.226-10.315-13.212-10.249 1.888-12.508.665-16.891-1.706-1.659-.898-3.623-1.96-6.439-3.081-4.202-.169-7.315 1.788-10.398 3.726-3.652 2.296-7.262 4.566-12.589 3.244-4.132-1.025-7.781-2.939-11.18-4.722"/><path fill="#8f523b" d="M674.279 241.573c-7.94-4.166-14.521-7.619-22.734 2.643a384 384 0 0 1 6.88 4.151c6.291-1.603 11.191.013 16.389 1.728 7.84 2.586 16.359 5.396 31.356-2.283l5.202 3.943 13.902 1.009c10.06 9.457 12.113 10.738 25.896 11.372-.029 14.508 1.374 21.821 14.031 30.771q.007.946.004 1.774c-.006 4.184-.009 6.382 2.858 10.312-.625-8.416-.027-10.221 2.611-18.178l.02-.059q-.665-.43-1.341-.862c-7.448-4.775-15.627-10.018-14.07-20.358 1.255-8.333-2.484-8.681-7.255-9.126-1.899-.177-3.961-.369-5.937-1.086-5.594-2.032-8.161-8.226-10.315-13.212-10.249 1.888-12.508.665-16.891-1.706-1.659-.898-3.623-1.96-6.439-3.081-4.202-.169-7.315 1.788-10.398 3.726-3.652 2.296-7.262 4.566-12.589 3.244-4.132-1.025-7.781-2.939-11.18-4.722"/><path fill="#8f523b" d="M629.523 259.424q-3.701.048-7.401-.044c-.006 16.228-.916 20.991-15.884 29.378 1.354 3.441 3.11 7.49 3.134 11.155.018 2.82-1.658 7.034-3.418 11.458-2.51 6.311-5.19 13.052-3.371 16.791 3.439.856 7.704-4.258 10.986-8.194 1.3-1.559 2.446-2.933 3.325-3.678-1.125-1.895-.29-3.745.541-5.555l-.624-.957c.017-2.402.065-1.763 1.519-4.045.056-3.769 11.137-33.549 13.132-39.262 8.912-2.971 12.16-4.233 19.033-10.184-1.39-1.827-1.913-3.374-2.797-5.472-5.753 5.984-9.538 8.444-18.175 8.609"/><path fill="#0f252f" d="M633.995 298.057c-7.071 1.814-10.053 3.586-15.665 7.676-1.454 2.282-1.502 1.643-1.519 4.045l.624.957c-.831 1.81-1.666 3.66-.541 5.555 10.191-6.602 16.278-8.538 28.443-7.641 5.097.728 8.202 1.476 13.096 3.218l.614-1.094.496.133c3.394.914 6.453 1.738 9.349-.609 1.846-11.116-27.518-14.132-34.897-12.24"/><path fill="#bf7e57" d="M647.696 307.374c-14.097-3.73-17.097-2.756-30.261 3.361-.831 1.81-1.666 3.66-.541 5.555 10.191-6.602 16.278-8.538 28.443-7.641z"/><path fill="#655b55" d="M659.047 310.773c-4.197-1.716-6.977-2.334-11.351-3.399l-2.359 1.275c5.097.728 8.202 1.476 13.096 3.218z"/><path fill="#0f252f" d="m716.288 311.264.534-.094.714 1.213c3.63-1.466 7.918-2.637 11.705-3.775l-.857-1.426q.646-.171 1.254-.335c7.3-1.951 10.861-2.904 19.066-.829 1.064.269 2.387.812 3.75 1.37 3.078 1.262 6.359 2.607 7.312 1.075-2.505-6.758-14.848-10.975-21.589-10.943-7.476.034-30.487 2.37-31.64 11.546 1.965 3.58 6.2 2.828 9.751 2.198"/><path fill="#655b55" d="m729.241 308.608-.857-1.426c-4.146 1.284-7.512 2.428-11.562 3.988l.714 1.213c3.63-1.466 7.918-2.637 11.705-3.775"/><path fill="#a05e3f" d="M658.425 248.367a384 384 0 0 0-6.88-4.151l-3.847 6.599c.884 2.098 1.407 3.645 2.797 5.472 2.144-3.107 5.086-5.432 7.93-7.92"/><path fill="#bf7e57" d="M732.998 450.267c-36.79 25.704-52.893 27.311-89.293-.649l.682 17.036c-.542 15.297-3.829 24.31-6.77 38.709-1.232 6.031.712 18.649 2.131 27.858.376 2.437.715 4.635.948 6.409 23.41 12.359 53.042 15.719 78.378 7.843a76.8 76.8 0 0 0 17.759-8.036c1.291-8.452 4.227-29.141 2.552-36.801-2.67-12.215-5.562-16.876-6.457-30.384.309-3.937.214-10.521.133-16.095a474 474 0 0 1-.063-5.89"/><path fill="#8f523b" d="M732.998 450.267c-36.79 25.704-52.893 27.311-89.293-.649l.682 17.036c2.305 1.774 4.649 3.669 7.042 5.604 13.968 11.295 29.594 23.932 48.746 21.518 15.217-1.918 23.167-11.709 32.753-21.524.309-3.937.214-10.521.133-16.095a474 474 0 0 1-.063-5.89"/><path fill="#d19369" d="M753.228 319.077a30.53 30.53 0 1 0-6.719 53.343 30.53 30.53 0 0 0 19.29-24.665 30.53 30.53 0 0 0-12.571-28.678"/><path fill="#fdfbfd" d="M761.749 344.206c-5.226 4.118-17.105 23.213-19.73 29.562a31 31 0 0 0 4.49-1.348c3.595-7.189 15.453-22.47 16.083-28.099z"/><path fill="#fdfbfd" d="M706.888 336.441c2.838-4.224 14.452-16.002 15.132-19.889a30.53 30.53 0 0 0-16.26 20.538z"/><path fill="#182830" d="M712.067 338.4c-.669 1.011-.463 2.749-.007 3.852 15.228 7.321 25.996 6.872 38.872-3.913 2.297-.703 2.948-.815 4.866-2.414l.714-1.533c-.957-2.398-2.655-3.206-5.19-4.247-14.334-5.888-29.863-5.944-39.255 8.255"/><path fill="#fdfbfd" d="M750.932 338.339c-4.221-3.578-6.559-5.15-11.871-7.117 2.836 19.709-15.914 17.309-15.943 4.3q.003-1.554.074-3.107c-3.669 3.16-7.691 6.488-11.132 9.837 15.228 7.321 25.996 6.872 38.872-3.913"/><path fill="#d19369" d="M654.616 316.796c-8.549-3.953-17.702-3.473-26.381-.259-3.574 1.645-6.474 2.958-9.246 5.838-5.995 7.057-9.288 12.898-8.565 22.754a31.8 31.8 0 0 0 11.14 21.88c7.405 6.206 16.747 8.657 26.128 6.22l2.278-.409c8.585-3.275 15.246-7.755 19.382-16.343a28.72 28.72 0 0 0 1.159-22.218 30.68 30.68 0 0 0-15.895-17.463"/><path fill="#fdfbfd" d="m646.672 372.725 1.02.504 2.278-.409c8.996-10.606 14.828-16.432 20.16-29.379-6.535 4.892-20.316 21.445-23.579 28.238z"/><path fill="#fdfbfd" d="M628.583 316.978q-.177-.218-.348-.441c-3.574 1.645-6.474 2.958-9.246 5.838 3.931 4.554 7.748 2.893 10.429-2.739.485-1.02-.161-1.821-.835-2.658"/><path fill="#182830" d="M619.032 333.679c1.14 3.224 3.717 3.943 6.668 5.063 13.597 9.999 22.981 11.854 38.217 2.785l.692-.301.467-1.194c-3.442-9.56-17.467-15.598-26.856-13.264-3.954.984-16.955 3.925-19.188 6.911"/><path fill="#fdfbfd" d="M637.911 331.226c-5.766 2.028-7.864 3.239-12.211 7.516 13.597 9.999 22.981 11.854 38.217 2.785-2.903-2.065-7.673-6.27-10.566-8.676a68 68 0 0 1-.084 1.809c-.471 7.664-6.816 15.789-14.422 7.858-2.362-2.462-1.598-7.182-1.039-10.641q.055-.334.105-.651"/><path fill="#8f523b" d="M598.537 349.778c-.423-7.64-.886-16.809-11.019-17.333-15.788 9.651-5.789 28.302 1.745 42.356 1.472 2.746 2.85 5.316 3.923 7.61 1.525 3.262 6.581 8.254 10.516 6.589 2.885-4.498-2.598-26.37-5.88-30.063l-1.146.082c-1.199 1.597-1.273 3.447-1.337 5.445 1.925 4.001 4.25 8.367 5.376 12.618-6.068-4.867-7.296-6.901-9.989-14.28 1.67-3.631 2.768-6.176 5.014-9.543-1.846-2.885-4.336-7.477-7.546-8.568-2.458.847-2.328 2.399-2.19 4.031.099 1.183.203 2.408-.674 3.437-6.679-6.405.794-21.51 13.207-2.381"/><path fill="#bf7e57" d="M773.941 389.157c12.748.143 36.071-54.767 13.895-56.662-3.983 2.259-5.509 3.351-8.661 6.701-.197 3.138-.48 6.532-.489 9.656 3.055-4.688 7.033-10.66 13.568-6.992 3.009 3.342 1.792 7.077.086 10.739l-.852.425c-1.454-2.91-1.424-6.103-3.05-7.731-2.332.458-3.053 1.365-4.512 3.55a150 150 0 0 0-2.806 4.447c2.782 5.052 7.865 19.675-1.947 20.603l-.829-.732c-.059-1.99.687-4.18 1.491-6.545.775-2.276 1.604-4.713 1.823-7.286-.539-.279-.917-.504-1.208-.677-.87-.519-.952-.567-2.194-.173-2.303 5.36-7.02 23.502-5.536 29.291z"/><path fill="#a05e3f" d="M771.647 349.11c-.037.729-.077 1.518-.159 2.407l1.578 2.799c.035-.284.079-.623.129-1.005.408-3.127 1.19-9.123.236-11.036-1.568 2.592-1.658 4.365-1.784 6.835"/><path fill="#d18b27" d="M1237.51 510.311c-8.58-3.674-18.67-5.762-26.69-12.391 2.15 3.136 5.2 7.931 7.73 10.574 4.88 16.833 15.24 32.722 19.72 49.702-8.07 5.795-23.04 10.697-32.88 14.3 6.67 5.278 19.32 14.78 24.81 20.682a335 335 0 0 1-7.28 16.622c33.28-14.049 60.05-39.208 82.52-66.793l.05-.083c.87-1.552.92-1.634.79-3.419-6.19-7.243-56.45-23.915-68.77-29.194"/><path fill="#182830" d="M1237.51 510.311c-8.58-3.674-18.67-5.762-26.69-12.391 2.15 3.136 5.2 7.931 7.73 10.574 5.56 1.419 12.7 4.642 18.26 6.828 23.06 9.08 46.28 16.917 68.63 27.685l.05-.083c.87-1.552.92-1.634.79-3.419-6.19-7.243-56.45-23.915-68.77-29.194"/><path fill="#d18b27" d="M1233.43 556.349c-12.98-29.007-16.01-47.133-39.93-69.126.6 2.362 1.9 7.524 1.8 9.679-.91 19.368-6.44 63.689-12.92 80.631-5.05-4.21-8.76-9.405-12.83-14.583-4.06 22.248-9.71 44.365-14.31 66.574 15.94.046 46.31-10.864 61.66-17.259.97-4.007 5.75-13.825 7.68-17.944-5.21-4.1-23.23-16.632-24-22.471.91-2.605 1.85-3.676 4.64-4.828 9.21-3.818 18.89-7.064 28.21-10.673"/><path fill="#d18b27" d="M1029.7 502.369c-8.87 15.226-18.11 37.766-24.71 54.044 9.72 4.022 20.19 7.51 29.8 11.804 2.15.962 2.58 2.263 2.92 4.333-1.89 5.961-18.66 17.583-24.17 21.837l7.64 15.566c20.6 7.671 39.79 16.17 62.26 18.535-4.09-21.573-9.77-44.514-14.42-66.212-4.34 5.805-7.71 10.564-13.31 15.197-5.84-15.293-11.17-58.886-12.65-76.585-.28-3.28 1.28-11.946 1.91-15.436-3.31 4.081-13.11 13.196-15.27 16.917"/><path fill="#d18b27" d="M964.338 530.482c-7.815 3.018-20.938 8.402-28.925 10.102 22.89 27.183 45.446 50.408 78.487 65.915-2.13-4.886-3.64-8.64-5.36-13.678 6.53-6.483 17.3-14.486 24.7-20.295-9.93-3.384-24.71-8.339-33.249-13.907 5.369-17.366 13.589-34.057 20.889-50.758-18.92 6.54-37.849 15.401-56.542 22.621"/><path fill="#d19369" d="M1118.74 260.898c-29.9-10.967-80.25-28.372-71.19 25.425-.48 2.272-2.53 6.101-3.92 8.264-6.39 9.907-7.7 15.368-7.7 27.895.01 32.005 4.51 75.253 18.41 104.159 4.42 8.432 15.53 15.755 21.02 22.157 13.54 15.77 21.46 21.677 43.04 22.217 16.95.424 24.96-2.863 37.37-15.325 9.46-9.495 21.62-20.324 28.61-32.382 13.22-31.227 18.37-76.739 15.95-110.448-.7-9.817-7.43-15.827-9.96-22.93-1.15-3.229-.81-12.496-.59-18.247.04-1.186.08-2.223.1-3.026-.91-5.825-2.18-11.137-7.39-14.561-16.31-10.728-45.99.239-62.37 6.294z"/><path fill="#bf7e57" d="M1118.74 260.898c-29.9-10.967-80.25-28.372-71.19 25.425 4.54-7.31 4.89-23.09 16.88-28.485 12.91-5.81 33.13 1.616 48.07 7.103 2.28.835 4.43 1.625 6.41 2.316 25.4-10.593 47.69-18.081 70.97 1.4-.91-5.825-2.18-11.137-7.39-14.561-16.31-10.728-45.99.239-62.37 6.294z"/><path fill="#0f252f" d="M1180.77 332.266c-1.86-7.598-19.17-10.154-25.88-9.303-5.52 1.411-17.05 6.991-15.85 13.906l.9.717c.44.125.89.258 1.37.395 4.18 1.214 9.63 2.798 13.55 2.568l6.93.35c7.24.001 11.08-2.33 16.96-5.982 1.71-1.363 1.19-.662 2.02-2.651"/><path fill="#fdfbfd" d="M1180.77 332.266c-1.86-7.598-19.17-10.154-25.88-9.303 8.33 1.162 11.28 1.943 11.49 10.535-.01 2.94-1.4 4.247-3.42 6.262q-.57.577-1.17 1.139c7.24.001 11.08-2.33 16.96-5.982 1.71-1.363 1.19-.662 2.02-2.651"/><path fill="#182830" d="M1180.77 332.266c-1.86-7.598-19.17-10.154-25.88-9.303 8.33 1.162 11.28 1.943 11.49 10.535l.55-4.031c3.04-2.182 7.09 1.351 10.15 4.026.6.524 1.16 1.015 1.67 1.424 1.71-1.363 1.19-.662 2.02-2.651"/><path fill="#fdfbfd" d="M1147.06 330.931c-2.61 1.054-5.16 4.441-7.12 6.655.44.125.89.258 1.37.395 4.18 1.214 9.63 2.798 13.55 2.568-3.05-3.462-3.83-8.908-7.8-9.618"/><path fill="#0f252f" d="m1056.53 333.864 1.43 1.163c.6.315 1.19.638 1.79.963 4.75 2.564 9.66 5.221 15.11 4.575l7.16.018c3.67.525 9.06-1.2 13.08-2.49q.84-.269 1.59-.503l.9-1.364c.17-7.704-10.34-12.205-16.79-13.117-5.78-1.914-26.8 2.829-24.27 10.755"/><path fill="#fdfbfd" d="M1097.59 336.226c.17-7.704-10.34-12.205-16.79-13.117 2.64 3.576 3.98 1.443 5.91 5.333-.36 6.889-.38 7.065-4.69 12.141 3.67.525 9.06-1.2 13.08-2.49q.84-.269 1.59-.503z"/><path fill="#182830" d="M1097.59 336.226c.17-7.704-10.34-12.205-16.79-13.117 2.64 3.576 3.98 1.443 5.91 5.333 5.19 3.619 5.9 5.445 9.98 9.148z"/><path fill="#fdfbfd" d="M1065.77 329.22c-2.75.952-5.55 3.807-7.81 5.807.6.315 1.19.638 1.79.963 4.75 2.564 9.66 5.221 15.11 4.575-4.15-4.304-4.54-10.896-9.09-11.345"/><path fill="#0f252f" d="M1191.09 314.966c-5.58-6.218-12.76-14.231-21.73-13.679-7.57.887-34.18 3.544-35.6 12.992 2.32 5.642 14.99 2.277 20.82.73.45-.118.85-.226 1.21-.318 16.72-3.529 19.62-3.589 36.09 1.157-.26-.289-.52-.584-.79-.882"/><path fill="#0f252f" d="M1104.45 313.437c-2.98-8.394-33.33-11.931-40.88-12.352-8.82 4.167-12.25 7.488-18.44 14.824 17.8-5.426 22.46-4.378 39.54-.535l1.31.293.52.104c5.59 1.133 11.95 2.419 17.15-1.001z"/><path fill="#bf7e57" d="M1126.91 393.592c2.1-1.041 8.72-4.313 10.11-6.01 3.48-4.011 3.16-7.163.76-11.564l-.41.674c-4.12 5.542-30.41 6.697-35.4 2.65l-1.4-3.596c-1.43.481-1.31.241-2.17 1.901a8.42 8.42 0 0 0-.49 6.684c3.25 9.407 20.83 13.318 29 9.261"/><path fill="#a05e3f" d="m1137.78 376.018-.41.674c-.57 2.706-1.52 8.5-.35 10.89 3.48-4.011 3.16-7.163.76-11.564"/><path fill="#191817" d="M1130.13 383.729c-.28-.111-.62-.067-1.7-.178-3.04 1.902-5.96 3.9-9.32 5.141q-.36-.161-.78-.345c-4.02-1.795-11.23-5.01-14.9-2.912l.59-.152c.89 1.901 2.3 2.162 4.36 2.833 7.43 3.683 16.37 4.913 22.57-1.937l.32-1.508c-.68-.606-.88-.84-1.14-.942"/><defs><linearGradient id="b" x1="1117.65" x2="1119.19" y1="409.044" y2="417.692" gradientUnits="userSpaceOnUse"><stop offset="0" stop-color="#020000"/><stop offset="1" stop-color="#111d24"/></linearGradient></defs><path fill="url(#b)" d="M1151.02 409.429c-.16-.068-.37-.027-1.08-.042-10.43 1.838-19.6 3.392-30.26 4.115-6.6.443-13.21.549-19.82.318-.82-.034-1.84-.13-2.98-.237-4.14-.388-9.73-.911-11.72.969v1.014c1.63 1.037 1.76 1.156 3.61 1.638.72.032 1.46.067 2.24.103 16.95.787 46.84 2.175 60.33-5.875l.63-1.199c-.64-.532-.77-.731-.95-.804"/><path fill="#bf7e57" d="m1106.01 430.421.67 1.284c6.56 9.472 21.5 6.955 26.94-2.639-.7-.435-2.09-1.209-2.84-1.122-4.24.499-19.29.202-22.6.93-.54.116-1.07.259-1.6.429z"/><path fill="#191817" d="m1106.01 430.421.67 1.284c10.59 2.201 17.14 1.302 26.94-2.639-.7-.435-2.09-1.209-2.84-1.122-4.24.499-19.29.202-22.6.93-.54.116-1.07.259-1.6.429z"/><path fill="#191817" d="M1126.41 328.848c.04-.396-.64-1.03-1-1.269-3.32 9.153-3.47 30.432 1.6 38.871 1.1-2.444.48-12.776-.09-22.203-.4-6.556-.76-12.674-.51-15.399"/><path fill="#191817" d="M1160.5 414.701c.9-5.204.76-9.548-5.17-11.597.74 3.453 1.99 8.741 4.28 11.488z"/><path fill="#d19369" d="M1171.77 461.314c.18-5.265.09-9.756-.09-15.025-15.66 16.372-23.86 28.446-48.8 29.394-27.34 1.04-34.88-6.576-50.65-22.501-1.93-1.945-3.98-4.013-6.2-6.205q.03 7.559.27 15.113a417 417 0 0 1-.76 20.315c3.73 4.787 7.68 9.396 11.83 13.815 7.57 8.021 21.39 20.245 26.72 29.371 1.75 2.999 1.74 15.884 1.81 20.271 5.96 7.97 9.81 13.89 14.57 22.599 3.78-6.513 9.04-14.848 10.77-22.227.4-1.677.34-4.519.29-7.568-.08-4.585-.18-9.64 1.23-11.921 6.58-10.654 18.89-20.116 27.44-29.651 5.13-5.718 7.72-8.78 12.24-14.854-.01-6.834-.36-14.092-.67-20.926"/><path fill="#a05e3f" d="M1171.77 461.314c.18-5.265.09-9.756-.09-15.025-15.66 16.372-23.86 28.446-48.8 29.394-27.34 1.04-34.88-6.576-50.65-22.501-1.93-1.945-3.98-4.013-6.2-6.205q.03 7.559.27 15.113c2.1 1.705 4.66 4.616 6.49 6.676 12.44 13.952 27.12 26.729 47.07 26.579 22.98-.174 37.18-19.106 51.91-34.031"/><path fill="#d19369" d="M1034.66 390.501c5.06-3.016-1.51-31.422-3.99-35.836-.73-2.695-.68-4.014-.57-6.502.01-.302.03-.621.04-.962l.04-.602c.89-16.732-16.59-28.822-16.16-4.661.19 10.238 8.28 47.741 20.64 48.563"/><path fill="#bf7e57" d="M1016.36 338.548c.55 8.562 2.47 22.78 8.97 28.8-.3-6.834.44-8.894 2.64-14.955l.16-.433c-3.5-7.024-4.92-9.727-11.77-13.412"/><path fill="#191817" d="M1020.2 336.145c-2.54.426-1.76.256-3.84 2.403 6.85 3.685 8.27 6.388 11.77 13.412l-.16.433c-2.2 6.061-2.94 8.121-2.64 14.955 1.6 2.746 2.97 6.119 6.23 6.326-.1-3.813-1.85-6.716-3.35-10.401.56-2.552 1.7-6.026 2.46-8.608-.73-2.695-.68-4.014-.57-6.502.01-.302.03-.621.04-.962-2.74-3.952-5.5-9.955-9.94-11.056"/><path fill="#d19369" d="M1205.47 348.271q-.135.652-.24 1.186c2.75-4.31 7.02-12.127 11.91-13.279 2.25.581 1.41.106 3.1 2.359-6.35 4.771-7.69 6.385-11.47 13.674 2.01 4.383 3.09 7.329 3.48 12.204-1.39 4.878-2.02 5.765-5.62 9.361l-1.05-.112c-.4-1.914.09-4.655.62-7.568.46-2.592.95-5.32.86-7.721l-.6-.169c-3.63 5.366-7.66 24.892-4.73 30.575.94.68 1.2.962 1.5 1.046.32.087.69-.03 1.9-.137 11.42-6.321 25.09-51.295 12.54-61.388-7.8-1.756-10.85 13.321-12.2 19.969"/><path fill="#bf7e57" d="M1220.24 338.537c-6.35 4.771-7.69 6.385-11.47 13.674 2.01 4.383 3.09 7.329 3.48 12.204 5.05-6.036 6.64-18.073 7.99-25.878"/><path fill="#355f65" d="M1077.51 202.582c-4.5-2.626-12.55-10.752-16.19-12.479 7.52 19.711 26.59 22.529 42.42 32.66 4.46 2.859 8.08 9.503 12.05 11.35-2.74-10.075-7.58-15.22-16.64-20.437-7.05-4.054-14.56-6.969-21.64-11.094"/><path fill="#355f65" d="M1132.2 202.361c-5.44-6.513-25.79-20.075-33.33-21.274 11.35 12.799 22.08 16.67 33.46 29.09 4.36 4.768 7.75 18.756 9.69 20.445.6-12.286-1.45-18.248-9.82-28.261"/><path fill="#355f65" d="M1165.29 221.726c2.14-9.976-5.91-31.11-16.94-33.356 4.8 8.239 8.04 13.042 11.25 22.289 1.89 5.468 1.43 18.011 2.44 19.428l1.02-1.147c.82-2.228 1.73-4.91 2.23-7.214"/><path fill="#355f65" d="M1046.12 222.483c-2.51-2.52-5.57-8.551-8.05-10.312 2.28 14.248 10.03 22.666 25 22.288-5.58-3.519-12.34-7.343-16.95-11.976"/><path fill="#355f65" d="M1176.11 212.188c-.77-4.093-4.16-11.157-8.47-12.372.6 1.898 1.27 3.777 1.95 5.65 2.56 7.08 5.08 14.066 2.99 21.565-.1.346-.27.863-.48 1.461-.64 1.903-1.57 4.623-1.07 5.26l1.39-.61c4.71-7.258 5.33-12.293 3.69-20.954"/><path fill="#355f65" d="M1079.56 226.054c-3.61-4.668-12.69-15.838-17.86-18.105 3.12 8.237 8.34 16.575 17.86 18.105"/><path fill="#0f252f" d="M1306.48 161.469a79.1 79.1 0 0 0-19.43-.604c-17.41 1.558-37.3 5.856-48.41 20.416-19.62 25.706-13.2 57.494 10.67 76.997-.56 1.824-1.69 4.685-2.94 7.842-2.64 6.656-5.8 14.629-5.21 16.991 4.1 1.994 12.83-3.695 20.76-8.859 5.16-3.364 9.98-6.504 12.96-7.156 97.02 17.756 110.69-93.268 31.6-105.627m-60.29 117.163c3.29-7.337 5.57-15.152 7.94-22.828a110 110 0 0 1-4.85-3.698c-20.35-16.743-24.51-46.096-7.91-67.484 10.7-13.801 30.52-18.099 47.2-19.728 5.42-.709 9.75-.229 14.92.344.95.106 1.93.214 2.95.319 45.56 4.686 64.41 59.056 27.39 88.206-14.29 11.244-39.38 12.776-57.77 9.42-8.02.026-20.41 10.661-29.87 15.449"/><path fill="#182830" d="M1275.1 182.107c-.55.035-1.09.069-1.62.088-2.88.843-2.7.322-4.41 2.284.28 2.98 2.34 4.984 4.26 7.6-9.63 3.408-16.61 5.817-21.36 15.866-10.55 22.296 11.32 45.75 34.4 36.999.7-.264 1.39-.558 2.06-.881 18.04-10.881 20.11-26.759 7.95-43.511 2.1-.706 3.6-.936 4.71-2.866.11-3.417-2.68-5.685-5.95-5.524-3.28 3.075-.89 4.39-3.35 4.894a468 468 0 0 1-12.35-5.351c1.76-1.923 3.83-3.657 4.17-6.145-1.1-3.917-4.91-3.679-8.51-3.453m23.72 32.302c1.73 7.072 0 14.546-4.67 20.131a22.893 22.893 0 0 1-38.5-5.44 22.9 22.9 0 0 1 3.29-23.812 22.88 22.88 0 0 1 22.75-7.744 22.89 22.89 0 0 1 17.13 16.865"/><path fill="#d18b27" d="M1258.94 205.288a22.9 22.9 0 0 0-3.29 23.812 22.893 22.893 0 0 0 38.5 5.44 22.89 22.89 0 0 0-12.46-36.996 22.88 22.88 0 0 0-22.75 7.744m31.01.788c3.41 4.819 4.36 6.415 6.37 12.18l-1.63 1.338c0 .915.01 1.735.02 2.486.08 4.229.11 6.294-3.47 11.036-11.46 9.772-22.7 7.406-31.68-3.992-6-14.024.49-25.708 15.06-29.476l1.9 5.221q.06.597.12 1.144c.36 3.523.58 5.61.08 9.522-1.71 1.344-2.74 1.887-3.22 4.037.49 2.138.02 1.416 1.79 2.707 1.27-.01 1.67.044 2.03-.054.37-.102.69-.368 1.9-1.04 1.3-2.013 1.53-2.68 2.33-4.843 2.92-3.493 4.55-5.816 7.06-9.57z"/><path fill="#0f252f" d="m1278.64 214.518-1.92 1.017c-1.71 1.344-2.74 1.887-3.22 4.037.49 2.138.02 1.416 1.79 2.707 1.27-.01 1.67.044 2.03-.054.37-.102.69-.368 1.9-1.04 1.3-2.013 1.53-2.68 2.33-4.843z"/><path fill="#d19369" d="M1289.95 206.076c-3.93-6.475-8.32-7.575-15.33-6.428l1.9 5.221q.06.597.12 1.144c.36 3.523.58 5.61.08 9.522l1.92-1.017 2.91 1.824c2.92-3.493 4.55-5.816 7.06-9.57z"/><path fill="#d18b27" d="M1282.17 210.763c-2.25-2.187-2.6-3.328-5.65-5.894q.06.597.12 1.144c.36 3.523.58 5.61.08 9.522l1.92-1.017z"/><path fill="#191817" d="M1288.61 206.772c-3.32 1.364-3.76 1.606-6.44 3.991l-3.53 3.755 2.91 1.824c2.92-3.493 4.55-5.816 7.06-9.57"/><path fill="#d18b27" d="M1291.24 233.116c-11.46 9.772-22.7 7.406-31.68-3.992l-3.91-.024a22.893 22.893 0 0 0 38.5 5.44z"/><path fill="#d18b27" d="m1335.09 189.526-14.48-.078-10.86 29.678 12.35-.131c-3.23 8.634-6.36 17.303-9.4 26.004l6.98-8.956c4.73-6.465 15.66-20.822 18.97-27.19l-12.73.173z"/><path fill="#0f252f" d="M933.885 184.57c-12.681-18.069-37.741-25.33-58.952-23.718-18.312 1.563-37.052 4.823-49.602 19.897a53 53 0 0 0-11.712 38.513c1.561 16.606 9.59 28.479 22.155 38.823-.625 1.818-1.622 4.284-2.713 6.983-2.604 6.439-5.745 14.207-5.651 17.686 4.328 3.255 18.563-6.786 26.829-12.617 2.153-1.518 3.901-2.751 4.963-3.389 21.17 3.856 44.356 2.988 62.701-9.5 23.526-16.015 27.972-49.896 11.982-72.678m-101.133 93.634a234 234 0 0 0 7.408-22.49 147 147 0 0 1-4.943-3.698 47.2 47.2 0 0 1-17.568-31.701c-4.198-38.414 24.917-52 57.318-55.426 4.246-.422 10.144-.048 14.422.456 14.951 1.709 30.077 7.498 39.649 19.601 15.853 20.043 12.962 52.096-7.83 67.698-16.408 12.312-38.092 13.625-57.768 10.862-1.242-.112-4.421-.398-5.361.069-9.269 4.605-15.645 9.992-25.327 14.629"/><path fill="#0f252f" d="m844.053 183.879-2.364-1.102c-.687 5.406-.598 14.372-.532 21.099.013 1.26.024 2.441.03 3.506q.256 20.284-.035 40.566c5.57.005 11.665.061 18.009.119 19.02.174 40.285.368 56.396-.722l-.273-2.131c-2.731-1.774-47.953-1.376-64.779-1.229-2.528.023-4.414.039-5.42.042.011-.935.035-2.368.065-4.181.237-14.281.865-52.134-1.097-55.967"/><path fill="#d18b27" d="M893.128 196.752c-1.913 1.741-3.71 2.659-5.992 3.851-11.047-4.721-7.997-6.557-14.227-10.237-5.184.453-3.351 2.812-6.236 6.917-2.992 4.257-9.129 7.822-13.485 10.658-2.014 1.439-1.45.619-2.053 3.12 2.419 6.754 7.513 4.542 9.664-1.474 2.387-4.183 7.679-8.276 11.405-11.457 11.872 3.967 8.664 4.586 14.402 10.06 3.986.275 6.736-4.234 9.258-8.367 1.326-2.174 2.589-4.244 3.935-5.46 1.059-.956 2.577-1.658 4.116-2.369 3.013-1.392 6.104-2.82 5.972-6.264-1.121-1.772-1.287-1.96-3.174-2.861-4.995.342-9.899 10.526-13.585 13.883"/><path fill="#bf7e57" d="M851.135 211.061c2.419 6.754 7.513 4.542 9.664-1.474-.487-.012-.953-.013-1.401-.014-2.387-.004-4.275-.008-6.21-1.632-2.014 1.439-1.45.619-2.053 3.12"/><path fill="#355f65" d="m910.232 201.669-9.983-.074c-.033 2.595-.074 5.232-.116 7.892-.163 10.348-.331 21.058.001 31.085l10.095-.782q.309-19.06.003-38.121"/><path fill="#355f65" d="m877.705 211.105-10.479-.056q.006 4.04.002 8.107c-.003 7.076-.007 14.188.108 21.207.637 0 1.31.005 2.002.01 2.731.019 5.775.041 8.22-.22.021-2.768.068-5.691.116-8.672.112-6.885.228-14.079.031-20.376"/><path fill="#d18b27" d="m893.944 217.646-10.829.06.347 22.751c3.316-.126 7.386-.169 10.626-.54-.005-2.006.007-4.1.018-6.232.029-5.395.059-11.024-.162-16.039"/><path fill="#d18b27" d="m861.431 223.691-10.759.148a75 75 0 0 1-.188 2.968c-.47 6.188-1.059 13.953 6.634 13.772q2.091-.062 4.177-.209.026-1.668.057-3.349c.078-4.442.157-8.933.079-13.33"/><path fill="#0f252f" d="M472.781 177.666c-10.718-11.558-33.578-17.881-50.107-16.811-19.72 1.582-37.883 3.713-51.592 19.792a52.12 52.12 0 0 0-12.328 37.661 54.23 54.23 0 0 0 19.436 37.093 56 56 0 0 0 2.738 2.15c-.59 1.641-1.433 3.723-2.357 6.008-2.68 6.621-6.045 14.937-5.927 19.096 5.11 4.068 26.476-11.791 30.774-15.429 3.659-.144 9.966.473 15.256.99 1.81.177 3.5.342 4.925.461 52.697 4.408 87.111-50.11 49.182-91.011m-94.937 100.975c3.301-8.077 5.406-14.508 7.402-22.969a176 176 0 0 1-4.027-3.173c-10.399-8.477-17.001-20.111-18.241-33.579a46.51 46.51 0 0 1 10.686-34.679c11.921-14.054 28.164-17.876 45.634-19.361 4.167-.482 7.9-.105 11.864.297 1.574.159 3.184.322 4.872.436 45.657 3.092 66.402 57.698 29.819 87.442-14.621 11.887-37.947 13.36-57.039 10.32l-.325-.028c-1.683-.149-4.223-.373-5.556.327-8.776 4.616-16.118 10.444-25.089 14.967"/><path fill="#d18b27" d="M454.324 208.318c-3.648-17.23-20.606-28.211-37.819-24.491-17.113 3.698-28.016 20.536-24.389 37.665 3.628 17.129 20.42 28.102 37.563 24.546 17.243-3.578 28.294-20.491 24.645-37.72"/><path fill="#191817" d="M420.084 228.588c-5.181-1.735-9.527-6.457-12.393-7.664.032 16.164 23.918 13.837 32.426 3.329l-.942-1.818c-1.899-.039-3.838 1.292-6.009 2.782-3.496 2.399-7.592 5.21-13.082 3.371"/><path fill="#191817" d="M416.426 209.374c1.862-4.84-3.851-6.328-7.505-6.585-2.331 1.967-3.224 2.524-4.367 5.314l.137 1.198c1.929.262 3.212-.388 4.318-.948 1.274-.645 2.314-1.172 3.834-.047l2.161 1.461z"/><path fill="#191817" d="M440.838 209.178c2.404-4.658-4.417-6.132-7.775-6.344q-.38.373-.737.715c-1.969 1.892-3.363 3.232-2.943 6.362 2.282-.001 4.073-1.377 6.04-2.744.726.241.895.143 1.229.579.584.376.998.675 1.319.907 1.044.753 1.113.803 2.867.525"/></svg>