<svg xmlns="http://www.w3.org/2000/svg" width="1024" height="1024" viewBox="0 0 1024 1024"><path fill="#e8e8e6" d="M666.824 235.19c5.245 1.119 17.097 2.047 22.663 2.533l43.02 3.53 126.081 12.151c12.261 1.117 24.591 1.966 36.829 3.284 7.876.849 16.302 1.494 23.929 3.624 16.586 11.237 48.252 52.469 52.951 71.289 5.433 28.233-1.24 62.505-6.683 90.631-1.12 5.788-6.094 22.682-6.244 27.609 4.12 20.22 4.989 43.293 5.497 64.104 1.549 63.558-4.054 135.495-39.412 190.428-16.807 26.112-41.842 44.153-71.46 53.079-62.021 11.61-116.847-22.397-165.134-56.909-24.438-16.452-51.677-42.961-72.032-64.693-1.445-3.868-.89-17.946-1.473-23.122-2.177-19.325-5.392-38.418-7.94-57.682-1.711-4.706-3.233-12.157-4.34-17.182 9.406-21.919 18.344-47.658 26.34-70.098 5.449-.326 8.587-.925 13.752-2.568 8.714-2.719 18.57-5.971 25.515-12.184l2.809-.46 3.432-2.27c2.725-2.423 6.227-5.493 9.465-7.142l.522-1.275 1.049-.956c.191-.691.507-1.168.105-1.556-3.564-3.443-18.26-6.889-23.16-8.29-9.151-3.05-20.613-7.703-29.436-10.276-2.03-.665-4.109-1.447-6.127-2.171-3.307-1.413-7.54-2.691-11.025-3.841 2.075-4.828 3.565-8.549 5.306-13.556 2.829-5.96 5.378-12.612 7.865-18.775 1.514-2.416 2.596-4.983 3.771-7.577-.468-.786-1.04-2.005-1.474-2.854-3.007-7.395-6.851-17.9-10.216-24.851 6.694-6.175 21.075-18.153 28.698-22.668 2.144-2.579 12.741-29.612 15.442-35.553 4.948-12.943.593-39.105 1.115-53.753"/><path fill="#16595e" d="M747.897 361.135c8.847 5.161 18.144 8.96 26.213 15.098a1604 1604 0 0 1-29.142 128.283c-11.833 42.166-25.918 83.913-38.424 125.93a736 736 0 0 0-12.162 44.934c-1.507 6.555-3.398 19.579-5.521 25.163-24.438-16.452-51.677-42.961-72.032-64.693-1.445-3.868-.89-17.946-1.473-23.122-2.177-19.325-5.392-38.418-7.94-57.682-1.711-4.706-3.233-12.157-4.34-17.182 9.406-21.919 18.344-47.658 26.34-70.098 5.449-.326 8.587-.925 13.752-2.568 8.714-2.719 18.57-5.971 25.515-12.184l2.809-.46 3.432-2.27c2.725-2.423 6.227-5.493 9.465-7.142 5.758 1.109 12.988 2.5 18.847 2.925l-.593-3.437c2.046-5.806 4.365-11.76 6.538-17.538l2.568-6.461 1.921-5.536c1.052-4.354 1.809-5.7-.975-9.488l2.069-2.127 1.508-1.195c1.845-.375 2.916.355 4.687 1.118.848 2.45 1.246 2.691.473 5.196 1.774 1.086 3.618 2.375 5.357 3.54 3.448-2.753 5.266-4.716 7.844-8.213l1.759-3.229c.767-2.074 1.429-4.387 2.086-6.515l.556-.242.811-.968.254-1.34c.655-1.373.478-3.166.115-4.595.187-1.288.255-3.289.34-4.648 2.26-4.321 6.128-14.672 7.343-19.254"/><path fill="#b3c9cc" d="M629.416 467.766c5.449-.326 8.587-.925 13.752-2.568-9.419 29.38-22.945 61.675-35.752 89.848-1.711-4.706-3.233-12.157-4.34-17.182 9.406-21.919 18.344-47.658 26.34-70.098"/><path fill="#d38131" d="M711.749 418.631c10.934-.302 22.918-.247 32.692 5.33-.358 1.923-.699 3.98-1.162 5.869-11.547-1.267-22.837-3.462-34.098-4.738z"/><path fill="#b3c9cc" d="M674.924 450.284c5.23 1.026 26.526 4.077 29.425 6.796-3.414 2.52-27.904-3.077-32.857-4.526z"/><path fill="#6e4533" d="m714.764 401.48 1.508-1.195c1.845-.375 2.916.355 4.687 1.118.848 2.45 1.246 2.691.473 5.196l-3.174 2.769c-1.82 1.683-2.541 2.399-4.588 3.727 1.052-4.354 1.809-5.7-.975-9.488z"/><path fill="#4b3834" d="m714.764 401.48 1.508-1.195c1.845-.375 2.916.355 4.687 1.118.848 2.45 1.246 2.691.473 5.196l-3.174 2.769c-.248-4.402.36-5.185-3.494-7.888"/><path fill="#b3c9cc" d="M702.643 442.63c4.721.637 15.213 2.037 19.165 4.274-2.23 1.814-15.198-.368-18.572-.837z"/><path fill="#407f8b" d="M739.845 390.972c5.957.27 24.085 2.135 29.477 3.549l.096.316c-4.534.216-8.912-.967-13.404-1.483-5.548-.638-11.412-1.308-16.98-1.414z"/><path fill="#d38131" d="M634.491 539.308c8.168 1.137 19.308 4.332 27.408 6.293 13.621 3.296 27.133 6.685 40.427 11.117l-2.301 7.431c-2.039-.212-5.015-1.016-7.105-1.52-18.535-4.474-37.136-9.034-55.465-14.283-1.795-.515-3.729-1.702-5.29-2.707.712-2.319 1.43-4.096 2.326-6.331"/><path fill="#b3c9cc" d="M621.185 574.132c7.297.679 61.101 14.508 67.511 17.686 1.036 1.779.672 1.449.565 3.901-16.352-2.701-31.104-8.383-46.995-12.967-6.002-1.732-13.177-3.497-19.027-5.629-1.1-.401-1.69-1.948-2.054-2.991"/><path fill="#b3c9cc" d="M625.125 561.707c5.012.755 13.65 3.116 18.768 4.421a1082 1082 0 0 1 34.37 9.303c5.047 1.483 10.877 2.371 13.224 6.676-5.297.094-59.475-13.889-65.138-16.561-1.142-1.105-1.035-2.205-1.224-3.839"/><path fill="#e8e8e6" d="M661.532 462.136c22.271 2.662 45.922 7.491 67.92 12.393 1.162.259 1.706 2.036 2.194 3.046-17.897-1.985-49.389-8.519-67.942-12.367-1.179-.245-1.754-1.946-2.172-3.072"/><path fill="#b3c9cc" d="M655.616 483.762c16.104 2.14 44.661 8.298 60.622 12.847 1.503.429 1.772 1.751 2.198 2.953-4.694-.786-9.26-1.795-14.664-2.814-14.945-2.819-31.657-4.091-46.014-9.055-1.262-.436-1.687-2.623-2.142-3.931"/><path fill="#b3c9cc" d="M646.992 513.151c13 .312 45.599 7.76 59.635 11.629 1.318.363 1.5 2.051 1.92 3.427-6.777-.572-57.627-10.938-61.555-15.056"/><path fill="#b3c9cc" d="M650.879 498.061c8.742.497 30.502 4.488 39.458 7.615 1.125.393 1.261 2.313 1.548 3.586-11.669-1.193-24.909-4.322-36.259-7.533-2.884-.816-3.54-1.241-4.747-3.668"/><path fill="#16595e" d="M853.995 757.452c-2.452-9.929 1.822-33.227 3.846-43.678 8.349-43.125 22.354-85.067 40.384-125.089 13.834-30.709 29.109-60.78 42.819-91.554a375 375 0 0 0 9.642-24.122c1.74-4.851 6.213-19.595 8.684-23.168 4.12 20.22 4.989 43.293 5.497 64.104 1.549 63.558-4.054 135.495-39.412 190.428-16.807 26.112-41.842 44.153-71.46 53.079"/><defs><linearGradient id="a" x1="651.622" x2="720.149" y1="431.911" y2="301.356" gradientUnits="userSpaceOnUse"><stop offset="0" stop-color="#cbc9b8"/><stop offset="1" stop-color="#e6e6e9"/></linearGradient></defs><path fill="url(#a)" d="M665.709 288.943c3.982 4.908 11.543 4.997 18.145 6.357 5.536 1.901 19.899 6.015 25.718 7.018 1.847.654 5.339 1.779 6.968 2.608 8.072 2.964 24.989 7.073 33.793 8.868l1.179.515c1.503 2.023.938 2.13.096 4.361-1.731 4.585-.719 10.219-2.837 14.805-3.952 8.555-7.836 14.617-10.753 23.747 2.714-1.877 4.217-2.925 6.692-5.136.721 2.783.912 3.409.876 6.255l2.311 2.794c-1.215 4.582-5.083 14.933-7.343 19.254-.085 1.359-.153 3.36-.34 4.648.363 1.429.54 3.222-.115 4.595l-.254 1.34-.811.968-.556.242c-.657 2.128-1.319 4.441-2.086 6.515l-1.759 3.229c-2.578 3.497-4.396 5.46-7.844 8.213-1.739-1.165-3.583-2.454-5.357-3.54.773-2.505.375-2.746-.473-5.196-1.771-.763-2.842-1.493-4.687-1.118l-1.508 1.195-2.069 2.127c2.784 3.788 2.027 5.134.975 9.488l-1.921 5.536-2.568 6.461c-2.173 5.778-4.492 11.732-6.538 17.538l.593 3.437c-5.859-.425-13.089-1.816-18.847-2.925l.522-1.275 1.049-.956c.191-.691.507-1.168.105-1.556-3.564-3.443-18.26-6.889-23.16-8.29-9.151-3.05-20.613-7.703-29.436-10.276-2.03-.665-4.109-1.447-6.127-2.171-3.307-1.413-7.54-2.691-11.025-3.841 2.075-4.828 3.565-8.549 5.306-13.556 2.829-5.96 5.378-12.612 7.865-18.775 1.514-2.416 2.596-4.983 3.771-7.577-.468-.786-1.04-2.005-1.474-2.854-3.007-7.395-6.851-17.9-10.216-24.851 6.694-6.175 21.075-18.153 28.698-22.668 2.144-2.579 12.741-29.612 15.442-35.553"/><path fill="#835941" d="M718.275 374.611c.817 1.822 1.411 3.321 2.539 4.995 1.418.429 4.776 1.345 5.981 1.886.319-2.466-.106-2.447 1.255-3.905l2.337 2.248c1.729 1.606 2.509 1.796 4.722 2.784l2.372-.437c1.031 1.433 1.224 1.867 2.733 2.855.363 1.429.54 3.222-.115 4.595l-.254 1.34-.811.968-.556.242c-.657 2.128-1.319 4.441-2.086 6.515l-1.759 3.229c-2.578 3.497-4.396 5.46-7.844 8.213-1.739-1.165-3.583-2.454-5.357-3.54.773-2.505.375-2.746-.473-5.196-1.771-.763-2.842-1.493-4.687-1.118l-1.508 1.195-2.069 2.127c-3.061-1.61-7.801-2.729-9.152-5.832.812-2.97 2.644-2.53 5.344-4.234l-.757-.398c-3.313-2.216-4.629-4.39-8.39-4.382 2.217-2.299 4.367-3.105 6.091-4.936-1.879-1.264-2.463-1.376-2.535-3.542 2.571-3.754 10.698-4.594 14.979-5.672"/><path fill="#a27057" d="M722.024 388.413c4.27 4.122 8.744 10.065 12.609 13.513-2.578 3.497-4.396 5.46-7.844 8.213-1.739-1.165-3.583-2.454-5.357-3.54.773-2.505.375-2.746-.473-5.196 1.527-3.923-.324-8.01 1.065-12.99"/><path fill="#bf946f" d="M726.795 381.492c.319-2.466-.106-2.447 1.255-3.905l2.337 2.248c1.729 1.606 2.509 1.796 4.722 2.784l2.372-.437c1.031 1.433 1.224 1.867 2.733 2.855.363 1.429.54 3.222-.115 4.595l-.254 1.34-.811.968-.556.242c-5.287.4-9.166-6.687-11.683-10.69"/><path fill="#ad8166" d="M737.481 382.182c1.031 1.433 1.224 1.867 2.733 2.855.363 1.429.54 3.222-.115 4.595-.066-1.602-3.782-5.567-4.99-7.013z"/><path fill="#bf946f" d="M719.828 384.556c8.91 2.209 11.406 7.339 16.564 14.141l-1.759 3.229c-3.865-3.448-8.339-9.391-12.609-13.513-.632-1.247-1.541-2.045-2.512-3.059z"/><path fill="#cbb8a0" d="M719.512 385.354c-3.319-.986-11.753 1.793-13.626.19 4.62-1.438 9.179-1.946 13.942-.988z"/><path fill="#16595e" d="M621.569 347.164c6.694-6.175 21.075-18.153 28.698-22.668-4.039 12.281-9.145 23.921-12.956 35.38-2.022 4.036-3.573 8.119-5.526 12.139-3.007-7.395-6.851-17.9-10.216-24.851"/><path fill="#bf946f" d="M751.512 314.309c1.503 2.023.938 2.13.096 4.361-1.731 4.585-.719 10.219-2.837 14.805-3.952 8.555-7.836 14.617-10.753 23.747 2.714-1.877 4.217-2.925 6.692-5.136.721 2.783.912 3.409.876 6.255l2.311 2.794c-1.215 4.582-5.083 14.933-7.343 19.254-.085 1.359-.153 3.36-.34 4.648-1.509-.988-1.702-1.422-2.733-2.855-2.842-4.357-3.513-7.614-6.197-11.724-.806-1.234-2.41-.953-3.937-.999-1.579-1.441-1.65-1.625-3.669-1.947 1.931-.355 5.35-.411 7.42-.507 1.121-.834 2.441-1.969 3.545-2.871 1.672-9.35 11.938-38.387 15.752-47.754z"/><path fill="#b3c9cc" d="M733.836 368.39c3.386-3.325 7.82-7.407 11.75-10.049l2.311 2.794c-1.215 4.582-5.083 14.933-7.343 19.254-1.495-4.574-4.205-7.789-6.718-11.999"/><path fill="#cbb8a0" d="M665.709 288.943c3.982 4.908 11.543 4.997 18.145 6.357 5.536 1.901 19.899 6.015 25.718 7.018 1.847.654 5.339 1.779 6.968 2.608 8.072 2.964 24.989 7.073 33.793 8.868l1.179.515-1.117 2.071c-1.61-.897-19.393-5.494-22.643-6.391-20.242-5.591-39.918-10.977-59.939-17.354-11.745 21.15-18.533 46.218-28.428 67.364l-.478-1.224c-.518.414-1.03.758-1.596 1.101 3.811-11.459 8.917-23.099 12.956-35.38 2.144-2.579 12.741-29.612 15.442-35.553"/><path fill="#a27057" d="M727.347 369.459c1.527.046 3.131-.235 3.937.999 2.684 4.11 3.355 7.367 6.197 11.724l-2.372.437c-2.213-.988-2.993-1.178-4.722-2.784-.125-5.492-4.742-5.94-8.721-8.296l-.409-.246c1.99-.657 4.074-1.24 6.09-1.834"/><path fill="#ad8166" d="M714.702 373.776c5.259-.387 10.122-1.242 13.348 3.811-1.361 1.458-.936 1.439-1.255 3.905-1.205-.541-4.563-1.457-5.981-1.886-1.128-1.674-1.722-3.173-2.539-4.995l-.02-.491z"/><path fill="#6e4533" d="M711.477 367.695c3.814 2.436 5.368 2.596 9.78 3.598l.409.246c3.979 2.356 8.596 2.804 8.721 8.296l-2.337-2.248c-3.226-5.053-8.089-4.198-13.348-3.811-2.991-2.097-3.16-2.426-3.225-6.081"/><path fill="#ad8166" d="M711.477 367.695c4.543-2.046 7.612-1.449 12.201-.183 2.019.322 2.09.506 3.669 1.947-2.016.594-4.1 1.177-6.09 1.834-4.412-1.002-5.966-1.162-9.78-3.598"/><path fill="#c3b99d" d="M637.311 359.876a15 15 0 0 0 1.596-1.101l.478 1.224c-1.816 4.682-3.883 10.477-6.126 14.87-.468-.786-1.04-2.005-1.474-2.854 1.953-4.02 3.504-8.103 5.526-12.139"/><path fill="#6e4533" d="M699.74 388.761c3.761-.008 5.077 2.166 8.39 4.382-4.237-.195-6.202-.571-8.39-4.382"/><path fill="#d38131" d="M672.047 303.782c6.804 2.347 16.186 4.803 22.296 7.533-2.746 8.76-5.302 16.752-8.355 25.412-2.52 4.822-6.054 3.707-9.915.702a473 473 0 0 1-6.146-1.774c-1.732-.249-7.143-2.087-9.107-2.708l1.542-4.124c3.071-8.199 6.211-17.061 9.685-25.041"/><path fill="#4b3834" d="M673.323 318.821c.081-3.027.126-5.211 2.472-7.454a6.75 6.75 0 0 1 5.112-1.832c6.837.53 5.922 7.37 3.609 11.919-.829 1.908-.892 2.176-2.196 3.744-4.061-.863-4.935-.979-8.453-3.236-.357-1.364-.405-1.733-.544-3.141"/><path fill="#ad8166" d="M675.388 314.76c1.567 1.859 7.121 4.785 9.561 3.746l-.433 2.948c-.829 1.908-.892 2.176-2.196 3.744-4.061-.863-4.935-.979-8.453-3.236-.357-1.364-.405-1.733-.544-3.141 1.31-1.226 1.623-2.424 2.065-4.061"/><path fill="#bf946f" d="M675.388 314.76c3.908-3.545 8.44-1.187 9.561 3.746-2.44 1.039-7.994-1.887-9.561-3.746"/><path fill="#e8e8e6" d="M673.867 321.962c3.518 2.257 4.392 2.373 8.453 3.236-.65.86-1.932 2.466-2.447 3.314l.098 1.231.081.736c-1.322 2.262-2.776 4.637-3.979 6.95a473 473 0 0 1-6.146-1.774l1.255-7.549-.485-.537c.586-.938 1.055-1.79 1.591-2.751z"/><path fill="#302d2d" d="M673.867 321.962c3.518 2.257 4.392 2.373 8.453 3.236-.65.86-1.932 2.466-2.447 3.314-4.47.438-5.15.159-7.585-3.694z"/><path fill="#bf946f" d="M672.288 324.818c2.435 3.853 3.115 4.132 7.585 3.694l.098 1.231c-1.819 1.152-2.376 1.741-4.433 1.868-2.045-.609-2.882-1.897-4.356-3.505l-.485-.537c.586-.938 1.055-1.79 1.591-2.751"/><path fill="#16595e" d="m670.697 327.569.485.537-1.255 7.549c-1.732-.249-7.143-2.087-9.107-2.708l1.542-4.124c3.273-.809 4.988-.942 8.335-1.254"/><path fill="#16595e" d="m680.052 330.479 5.936 6.248c-2.52 4.822-6.054 3.707-9.915.702 1.203-2.313 2.657-4.688 3.979-6.95"/><path fill="#1d1919" d="M711.724 358.231c-9.779-3.708-20.853-6.539-30.853-9.923-6.204-2.099-11.452-3.06-17.254-6.451l.116-.295c15.149 4.436 34.283 10.616 49.126 15.934z"/><path fill="#4b3834" d="M701.635 316.156c8.103.989 15.66 1.903 22.225 7.383-5.756-.345-18.491-2.642-22.225-7.383"/><path fill="#302d2d" d="M660.655 357.794a1437 1437 0 0 1 32.516 10.28c3.928 1.307 10.795 3.42 14.41 5.105-11.597-2.575-22.933-6.742-34.235-10.334-3.369-1.071-9.777-3.49-12.969-4.231z"/><path fill="#1d1919" d="M660.483 347.003c7.213.716 33.136 10.247 40.434 13.024-5.15-.302-34.49-10.651-40.434-13.024"/><path fill="#302d2d" d="M651.086 386.472c4.758.325 33.058 9.7 36.653 11.984-8.854-2.415-29.292-8.128-36.653-11.984"/><path fill="#1d1919" d="M656.08 351c9.512 1.791 17.673 4.846 26.813 7.981l-1.179.76c-8.808-2.99-16.924-5.319-25.634-8.741"/><path fill="#869196" d="M667.647 398.624c2.857.769 24.158 6.984 24.969 8.157-7.376-1.499-18.112-5.403-25.895-7.554z"/><path fill="#302d2d" d="M702.81 322.484c5.86.359 17.388 4.733 22.986 6.975-6.023-.542-17.258-4.741-22.986-6.975"/><path fill="#1d1919" d="M680.24 383.181c-4.761-1.978-15.559-4.692-19.186-6.92 1.492-.388 17.827 5.263 20.666 6.206z"/><path fill="#68514c" d="M682.893 358.981c3.259 1.087 18.836 5.918 20.105 7.315-3.72-.496-16.594-5.098-21.284-6.555z"/><path fill="#1d1919" d="M698.04 336c5.322.178 14.86 3.95 19.857 5.979-5.602-.475-14.659-3.623-19.857-5.979"/><path fill="#302d2d" d="M661.617 370.094c6.189.994 16.486 4.44 22.014 7.042-3.969-.728-18.87-4.779-22.014-7.042"/><path fill="#1d1919" d="M675.636 417.943c4.533.248 11.59 3.366 15.649 5.442-5.932-.786-10.555-2.417-15.649-5.442"/><path fill="#302d2d" d="M666.721 399.227c-4.622-2.054-8.75-2.204-13.108-5.177 1.826-.335 11.621 3.647 14.034 4.574z"/><path fill="#1d1919" d="M698.649 330.983c5.034.188 8.662 2.004 13.143 4.081-4.675-.288-8.901-2.216-13.143-4.081"/><path fill="#68514c" d="M681.72 382.467c1.719.583 3.841 1.057 5.111 2.162-2.543-.098-4.166-.727-6.591-1.448z"/><path fill="#869196" d="M660.377 358.614c-1.821-.628-2.777-.677-4.049-1.923 1.541-.257 2.815.495 4.327 1.103z"/><path fill="#68514c" d="M712.859 357.496c1.308.43 2.902.643 3.465 1.531-2.147-.084-2.496-.208-4.6-.796z"/><path fill="#d38131" d="M685.609 275.258c33.291 4 64.745 7.801 98.306 10.807-.188 6.123-.354 12.251-.718 18.366-1.439 24.118-6.221 47.846-9.087 71.802-8.069-6.138-17.366-9.937-26.213-15.098l-2.311-2.794c.036-2.846-.155-3.472-.876-6.255-2.475 2.211-3.978 3.259-6.692 5.136 2.917-9.13 6.801-15.192 10.753-23.747 2.118-4.586 1.106-10.22 2.837-14.805.842-2.231 1.407-2.338-.096-4.361l-1.179-.515c-8.804-1.795-25.721-5.904-33.793-8.868-1.629-.829-5.121-1.954-6.968-2.608-5.819-1.003-20.182-5.117-25.718-7.018z"/><path fill="#4b3834" d="M709.572 302.318c4.962-14.108 17.393-18.238 31.122-13.605 7.788 2.628 11.471 8.682 15.213 15.536-.038 5.273-.127 10.889-1.296 16.047-2.242 6.771-3.037 11.332-4.199 18.413-1.196 5.736-1.889 8.533-5.702 13.377-2.475 2.211-3.978 3.259-6.692 5.136 2.917-9.13 6.801-15.192 10.753-23.747 2.118-4.586 1.106-10.22 2.837-14.805.842-2.231 1.407-2.338-.096-4.361l-1.179-.515c-8.804-1.795-25.721-5.904-33.793-8.868-1.629-.829-5.121-1.954-6.968-2.608"/><path fill="#bf946f" d="M716.54 304.926c7.471-5.335 8.496-1.639 16.352.587 1.489.422 5.929-.612 7.62-.839 8.872-2.082 7.685 2.418 9.821 9.12-8.804-1.795-25.721-5.904-33.793-8.868"/><path fill="#ad8166" d="M754.611 320.296c1.812 1.946 2.103 2.532 3.382 4.892-1.46 5.664-2.023 10.531-7.581 13.521 1.162-7.081 1.957-11.642 4.199-18.413"/><path fill="#b3c9cc" d="M919.346 260.312c16.586 11.237 48.252 52.469 52.951 71.289-1.051-.627-5.292-4.127-6.5-5.081-5.783-4.568-11.344-7.843-18.252-10.453-11.637-4.398-20.627-2.434-31.727-8.631 1.624-18.697 6.137-26.05 3.528-47.124"/><path fill="#4b3834" d="M775.636 463.358c2.718.186 9.374 1.573 12.292 2.08a734 734 0 0 0 20.853 3.306c29.588 4.324 59.721 8.115 88.88 14.845 2.456.566 5.094.991 6.305 3.014.09 3.265-1.476 5.3-3.152 8.055-8.172-.813-19.366-2.828-27.608-4.115a4233 4233 0 0 1-52.381-8.522c-14.645-2.505-31.545-5.158-45.963-8.989-1.717-.456-2.164-1.258-2.834-2.761-.064-3.166 1.53-4.513 3.608-6.913"/><path fill="#4b3834" d="M797.058 363.299c9.153 1.833 18.753 2.851 28.02 4.104 22.134 3.066 44.389 5.434 66.521 8.489 10.943 1.511 13.691 1.955 9.39 12.768-6.631-.545-15.091-1.854-21.786-2.714a2511 2511 0 0 1-43.709-5.989c-12.847-1.904-26.006-3.682-38.543-7.047-4.464-1.197-1.124-6.563.107-9.611"/><path fill="#4b3834" d="M805.538 297.48c25.04-.106 53.191 5.978 78.192 9.04 5.155.631 2.172 8.098.875 11.143a2664 2664 0 0 1-46.015-5.614c-10.455-1.294-26.252-2.228-35.443-5.97.53-3.239 1.358-5.494 2.391-8.599"/><path fill="#4b3834" d="M793.582 387.005c6.738.252 17.913 1.903 24.952 2.828a3385 3385 0 0 1 54.527 8.022 3053 3053 0 0 1 37.925 5.749c5.567.918 15.289 2.446 20.48 4.177 1.431 1.55 1.026 1.449 1.568 3.846-8.695-.441-24.315-2.972-33.277-4.241a3847 3847 0 0 1-61.273-9.178c-13.341-2.129-29.62-4.499-42.885-7.866-1.084-.275-1.614-2.229-2.017-3.337"/><path fill="#4b3834" d="M790.46 408.431c8.252-.057 39.578 4.802 47.786 6.546 13.521 2.873 79.032 8.714 85.991 14.105 1.098 1.524.915 2.699.983 4.603-7.1-.886-16.187-3.045-23.601-4.224l-63.825-9.999-29.622-4.621c-4.728-.738-10.287-1.52-14.963-2.726-1.472-.379-2.099-2.244-2.749-3.684"/><path fill="#4b3834" d="M788.457 418.309c7.252.623 19.203 2.626 26.419 3.775l50.825 8.613a733 733 0 0 0 26.606 4.219c5.068.69 26.001 2.696 28.779 5.533.707 1.699.344 2.313-.127 4.106-4.662-.048-29.164-4.779-35.876-5.895l-57.149-9.367c-7.229-1.19-33.066-5.043-38.511-7.674-1.205-1.592-.843-.995-.966-3.31"/><path fill="#4b3834" d="M792.088 398.52c2.83.123 6.145.51 9.014.856 42.756 5.154 85.436 11.957 127.989 18.465 1.144.175 1.542 2.15 1.869 3.097-6.432.049-26.944-3.042-34.21-4.027a5281 5281 0 0 1-70.505-10.089c-9.646-1.436-22.662-3.204-32.462-5.298-1.184-.253-1.341-1.809-1.695-3.004"/><path fill="#4b3834" d="M783.506 504.379c11.776.98 100.749 17.31 106.072 20.34 1.361.775 1.631 2.53 2.038 3.938-7.01-.538-17.224-2.725-24.304-4.087l-36.253-7.013a1559 1559 0 0 1-33.248-6.641c-3.794-.826-8.265-1.763-11.987-3-1.227-.408-1.721-2.236-2.318-3.537"/><path fill="#4b3834" d="M773.009 541.908c18.28 2.459 37.428 7.305 55.523 11.33 7.382 1.641 29.653 6.192 35.265 8.9 1.046 1.643.693 1.226.508 3.642-18.055-2.266-41.157-8.554-59.282-12.16-6.457-1.284-26.679-6.148-31.552-8.382-1.04-1.508-.723-.983-.462-3.33"/><path fill="#4b3834" d="M784.173 494.238c2.008.211 22.583 3.785 23.953 4.086 11.1 2.434 52.328 7.776 61.079 12.09 1.281 1.377 1.237 2.252 1.566 4.112-11.51-1.2-78.195-12.354-84.843-16.255-1.236-.725-1.438-2.732-1.755-4.033"/><path fill="#4b3834" d="M748.319 621.319c7.227.565 19.431 3.512 26.554 5.268a1148 1148 0 0 1 46.604 12.761c4.46 1.301 10.15 2.834 14.572 4.534 1.204.463 1.488 2.097 1.917 3.342-10.111-.922-82.576-18.592-88.114-22.281-1.165-.776-1.222-2.369-1.533-3.624"/><path fill="#4b3834" d="M801.551 330.574c8.754-.105 88.91 9.668 91.686 11.908 1.271 1.025 1.145 1.906 1.361 3.391-17.924.516-71.104-8.556-91.203-12.215-1.281-.233-1.503-1.872-1.844-3.084"/><path fill="#4b3834" d="M778.046 518.4c11.827.637 79.895 13.781 88.71 18.249 1.116 1.718.754 1.788.926 4.153-29.219-7.221-59.223-10.847-88.082-18.919-1.016-.284-1.331-2.603-1.554-3.483"/><path fill="#4b3834" d="M764.296 570.802c10.788 1.763 70.789 13.51 76.995 17.748.72 1.612.31 2.603-.03 4.361-9.493-1.401-70.977-15.068-75.845-18.661-1.183-.872-.982-2.123-1.12-3.448"/><path fill="#68514c" d="M761.843 582.365c7.144.878 18.059 3.604 25.347 5.288a2392 2392 0 0 1 44.268 10.739c7.69 1.942 17.571 4.216 25.078 6.976 1.288.474 1.727 2.5 2.14 3.872-5.908-.789-23.7-5.721-30.779-7.418l-38.674-9.211c-8.079-1.913-17.175-3.87-24.969-6.816-1.457-.551-1.854-1.986-2.411-3.43"/><path fill="#4b3834" d="M785.269 431.856c8.68 1.043 72.1 10.031 77.622 13.196 1.033 1.559.904 1.947.913 3.795-20.415-2.697-56.428-7.664-77.245-13.421-.969-.268-1.08-2.417-1.29-3.57"/><path fill="#4b3834" d="M756.308 596.64c9.799 1.82 54.235 11.333 60.543 15.413.976 1.33.755 2.544.773 4.249-9.575-1.962-54.132-12.378-60.722-16.391-1.048-1.636-.761-.978-.594-3.271"/><path fill="#4b3834" d="M802.415 318.906c16.784 1.587 44.672 4.603 61.897 8.314 1.135.244 1.26 2.168 1.519 3.37-9.863-.169-55.75-5.125-62.488-7.965-1.168-1.682-.791-1.324-.928-3.719"/><path fill="#4b3834" d="M775.335 529.46c12.15-.164 47.613 9.792 61.012 12.694 3.875.839 9.182 1.849 11.177 5.262-2.773-.064-5.973-.539-8.725-1.049-20.107-3.73-40.244-8.104-60.005-13.367-2.293-.61-2.465-1.54-3.459-3.54"/><path fill="#68514c" d="M754.576 608.957c5.409.554 65.348 15.485 68.718 17.203 1.472.75 1.569 1.984 2.016 3.425-8.113-.188-58.493-13.546-68.811-17.506-1.547-.594-1.491-1.621-1.923-3.122"/><path fill="#4b3834" d="M751.078 566.722c7.511 1.33 5.227 5.782 2.489 10.604-2.4-.792-3.389-1.044-4.723-3.116-.659-3.215.614-4.616 2.234-7.488"/><path fill="#4b3834" d="M765.237 514.772a4.197 4.197 0 1 1 4.035 7.362 4.198 4.198 0 0 1-4.035-7.362"/><path fill="#68514c" d="M743.606 591.243a4.156 4.156 0 1 1 1.784 8.119 4.156 4.156 0 0 1-1.784-8.119"/><path fill="#4b3834" d="M771.497 491.747a4.124 4.124 0 0 1 3.438 7.495 4.122 4.122 0 1 1-3.438-7.495"/><path fill="#4b3834" d="M735.963 613.252c7.165.947 5.606 4.513 2.891 9.067-2.104.272-3.344-.29-4.552-1.92-.621-3.207.091-4.197 1.661-7.147"/><path fill="#4b3834" d="M760.195 536.167c6.097 2.265 4.946 4.457 1.978 9.256-6.526-2.028-4.592-4.503-1.978-9.256"/><defs><linearGradient id="b" x1="79.538" x2="246.921" y1="490.489" y2="169.901" gradientUnits="userSpaceOnUse"><stop offset="0" stop-color="#25626f"/><stop offset="1" stop-color="#3e869e"/></linearGradient></defs><path fill="url(#b)" d="M89.474 185.889c21.654-27.9 65.013-44.406 99.355-48.428 81.93-9.594 162.922 26.035 227.789 73.376 4.013 2.928 8.914 7.233 12.981 9.762-4.772 7.343-4.864 13.862 4.385 17.147 1.623 3.553 2.192 4.422 5.246 6.85.28 1.304.723 3.123.916 4.394l1.07 2.467c11.113 3.216 5.488 9.536 12.25 13.751 1.821.419 3.447 2.461 4.99 3.804l2.722.153c2.439.363 3.823.234 5.961 1.545l-.088 1.612c.946.52 2.278 1.183 3.117 1.799 4.005 2.104 5.89 3.573 9.072 6.906 3.981 3.946 6.218 5.869 8.018 11.371-4.915.612-12.714 4.215-17.414 5.672-11.156 3.461-33.294 11.046-39.994 21.036-14.537 21.675-20.573 55.325-27.129 79.909l-1.904 10.626-.884 5.158c-5.503 16.775-11.183 34.201-16.256 51.109-2.583 8.607-2.547 17.378-6.195 26.774-.635 2.729-1.641 7.171-2.811 9.705-.508 3.851-.679 6.312-.802 10.201l-1.169 3.761c-.321.87-1.075 3.074-1.428 3.817a247 247 0 0 1-24.774 18.205l-1.037.84a567 567 0 0 1-17.246 11.816c-5.799 3.964-13.171 8.489-19.781 10.905l-1.455.636c-9.255 5.855-18.948 8.812-29.345 11.731-2.172.533-7.534 1.724-9.343 2.479l-1.013-.096c-8.042 2.513-31.238 5.069-39.447 3.816l-5.222-.947c-2.647-.175-6.542-.853-9.267-1.245-11.915-2.588-19.888-5.261-31.289-9.477l-2.409-.982c-15.545-6.312-26.731-13.329-39.907-23.383l-1.834-1.56c-3.297-2.626-6.826-5.936-10.001-8.779-9.473-8.155-16.342-16.902-23.302-27.152l-.884-1.621c-5.08-7.464-10.548-17.285-15.285-25.195-4.11-5.478-8.278-15.74-10.795-22.3-2.97-6.628-5.397-14.7-7.5-21.636l-.89-1.875c-3.88-8.86-10.773-36.131-11.992-45.961-.113-.561-.135-3.948-.15-4.722-.206-7.916-2.068-17.642-3.998-25.275-2.014-6.219-2.661-22.722-2.214-29.698-1.837-9.935-1.519-36.571-.079-46.732l.149-2.673c.826-6.437 1.398-11.018 2.93-17.348 1.303-3.757 2.216-8.683 3.002-12.643 3.285-19.127 14.732-42.141 27.05-57.193a249 249 0 0 1 5.53-6.212"/><defs><linearGradient id="c" x1="305.417" x2="263.262" y1="149.122" y2="370.593" gradientUnits="userSpaceOnUse"><stop offset="0" stop-color="#9de0ed"/><stop offset="1" stop-color="#c8ede9"/></linearGradient></defs><path fill="url(#c)" d="M89.474 185.889c21.654-27.9 65.013-44.406 99.355-48.428 81.93-9.594 162.922 26.035 227.789 73.376 4.013 2.928 8.914 7.233 12.981 9.762-4.772 7.343-4.864 13.862 4.385 17.147 1.623 3.553 2.192 4.422 5.246 6.85.28 1.304.723 3.123.916 4.394l1.07 2.467c11.113 3.216 5.488 9.536 12.25 13.751 1.821.419 3.447 2.461 4.99 3.804l2.722.153c2.439.363 3.823.234 5.961 1.545l-.088 1.612c.946.52 2.278 1.183 3.117 1.799 4.005 2.104 5.89 3.573 9.072 6.906 3.981 3.946 6.218 5.869 8.018 11.371-4.915.612-12.714 4.215-17.414 5.672-11.156 3.461-33.294 11.046-39.994 21.036-14.537 21.675-20.573 55.325-27.129 79.909l-1.904 10.626c-13.465-5.567-39.04-12.908-53.621-16.887-1.162-5.304-1.187-15.352-1.231-20.922l-.354-.15c-1.839.222-27.242-8.832-30.625-9.975-2.932-1.074-4.786-1.684-7.816-2.464-13.753-4.695-28.962-8.644-42.874-13.746-5.805-2.129-30.801-10.555-35.834-11.055-.884 1.505-.645 3.035-.641 4.842-.753-2.629.112-4.277-.841-7.742-.171-.516-.49-7.097-.568-8.102-.111-2.434-.001-5.519.069-7.985.516-18.378-.41-36.898-.072-55.253.536-4.335-.201-30.882.689-32.56a85 85 0 0 1 .758-15.038c.333-3.459-.274-14.618-.31-18.754q-.052-17.773.515-35.537c-6.733 1.073-11.95 1.978-18.566 3.567-8.381 2.013-18.688 5.371-27.042 6.451-23.469 5.204-55.375 12.964-78.04 20.239-6.995 1.587-13.261 2.898-20.47 3.531a249 249 0 0 1 5.53-6.212"/><defs><linearGradient id="d" x1="272.676" x2="317.072" y1="352.9" y2="253.23" gradientUnits="userSpaceOnUse"><stop offset="0" stop-color="#427b82"/><stop offset="1" stop-color="#569aaa"/></linearGradient></defs><path fill="url(#d)" d="M227.856 212.604c16.147 9.115 32.432 16.558 49.078 24.699 10.531 5.15 21.166 11.004 31.998 15.462 7.128 3.787 29.256 16.025 35.84 17.377l.468-.018c3.938 3.387 24.229 13.86 29.447 15.556l.518-.492c-.002-.948.009-1.87-.034-2.817 1.333-2.593.523-10.685 1.264-14.983a733 733 0 0 1-.055 19.158c7.933 3.867 16.393 7.826 24.143 11.966l-.04 10.331-.946.562-.409 2.328q-.396 23.55-.167 47.1c.05 4.933-.091 15.937.524 20.391.783.712.409.537.989.745l.044.485c.414 5.065-.905 15.753 2.203 18.561l-1.904 10.626c-13.465-5.567-39.04-12.908-53.621-16.887-1.162-5.304-1.187-15.352-1.231-20.922l-.354-.15c-1.839.222-27.242-8.832-30.625-9.975-2.932-1.074-4.786-1.684-7.816-2.464-13.753-4.695-28.962-8.644-42.874-13.746-5.805-2.129-30.801-10.555-35.834-11.055-.884 1.505-.645 3.035-.641 4.842-.753-2.629.112-4.277-.841-7.742-.171-.516-.49-7.097-.568-8.102-.111-2.434-.001-5.519.069-7.985.516-18.378-.41-36.898-.072-55.253.536-4.335-.201-30.882.689-32.56a85 85 0 0 1 .758-15.038"/><path fill="#b1e0dd" d="m374.262 301.339.379-.725.776.24c.091 3.48.075 8.455.457 11.804 5.889-1.018 9.776-1.589 15.758-2.118l.783.348c2.097.283 4.643.703 6.713.845q-.396 23.55-.167 47.1c.05 4.933-.091 15.937.524 20.391.783.712.409.537.989.745l.044.485c.414 5.065-.905 15.753 2.203 18.561l-1.904 10.626c-13.465-5.567-39.04-12.908-53.621-16.887-1.162-5.304-1.187-15.352-1.231-20.922l-.354-.15c-.407-11.049-.425-28.489.319-39.139l.016-11.522c.018-1.836-.132-3.851.549-5.503 4.222-1.768 22.261-1.119 27.508-1.004q.041-6.59.259-13.175"/><path fill="#b3c9cc" d="M345.946 321.021c.018-1.836-.132-3.851.549-5.503 4.222-1.768 22.261-1.119 27.508-1.004-.07 21.322.492 42.658.496 63.996-2.553.004-5.018-.208-7.562-.387-6.646-2.112-14.278-4.721-20.972-6.291l-.354-.15c-.407-11.049-.425-28.489.319-39.139z"/><path fill="#e8e8e6" d="M345.946 321.021c.018-1.836-.132-3.851.549-5.503 4.222-1.768 22.261-1.119 27.508-1.004-.07 21.322.492 42.658.496 63.996-2.553.004-5.018-.208-7.562-.387 1.256-14.842 1.076-33.405 1.055-48.345-7.209 1.044-14.806 1.868-22.062 2.765z"/><path fill="#e8e8e6" d="m374.262 301.339.379-.725.776.24c.091 3.48.075 8.455.457 11.804 5.889-1.018 9.776-1.589 15.758-2.118l.783.348c.612 24.483-.399 48.637-.427 73.05-3.356-.64-12.309-2.554-15.282-2.326-.34.698-.335.561-.921 1.134-1.111-1.244-.933-2.279-1.286-4.236-.004-21.338-.566-42.674-.496-63.996q.041-6.59.259-13.175"/><path fill="#5598a7" d="m374.262 301.339.379-.725.776.24c.091 3.48.075 8.455.457 11.804.079 23.054-1.003 45.992.832 68.954-.34.698-.335.561-.921 1.134-1.111-1.244-.933-2.279-1.286-4.236-.004-21.338-.566-42.674-.496-63.996q.041-6.59.259-13.175"/><path fill="#90d5d4" d="M227.098 227.642c.566 2.174.191 3.681.794 5.648.02-1.54-.182-3.242.508-4.455 6.171 1.77 15.515 8.319 20.023 9.823 7.857 2.665 11.362 3.631 18.459 8.014 1.212 10.854.836 25.954.518 37.046.032 17.614.635 42.694-.234 60.126-5.789-1.987-36.909-11.664-39.722-13.975l-.464 1.673c-.171-.516-.49-7.097-.568-8.102-.111-2.434-.001-5.519.069-7.985.516-18.378-.41-36.898-.072-55.253.536-4.335-.201-30.882.689-32.56"/><path fill="#b1e0dd" d="M248.423 238.658c7.857 2.665 11.362 3.631 18.459 8.014 1.212 10.854.836 25.954.518 37.046-.779 3.471-.543 10.432-.545 14.231-2.423-7.668-19.579-55.615-18.432-59.291"/><path fill="#407f8b" d="M227.098 227.642c.566 2.174.191 3.681.794 5.648.28 13.569.048 27.081-.313 40.646-.494 18.587.73 37.384-.135 55.933l-.464 1.673c-.171-.516-.49-7.097-.568-8.102-.111-2.434-.001-5.519.069-7.985.516-18.378-.41-36.898-.072-55.253.536-4.335-.201-30.882.689-32.56"/><path fill="#b1e0dd" d="M308.83 268.769c4.418 2.299 14.004 6.551 18.666 8.088 6.093 2.512 12.191 5.316 17.384 9.428.748 1.114.704 9.875.837 12.289.031 1.229.018 3.666.139 4.811.023 2.271.124 4.987.02 7.219-.479 3.362-.545 7.068.07 10.417l-.016 11.522c-.744 10.65-.726 28.09-.319 39.139-1.839.222-27.242-8.832-30.625-9.975l.534-.671-1.473-.659c-2.243-.82-4.01-1.586-6.179-2.553l-1.396-.387.146-8.159.408-.109c1.272-2.771-.28-11.739.871-14.013z"/><path fill="#b3c9cc" d="M314.963 339.212c6.98 2.202 19.603 5.931 26.012 8.624l.015 21.845c-3.641-1.766-20.055-6.609-25.47-8.645l-1.473-.659c1.227-4.013.937-16.544.916-21.165"/><path fill="#5598a7" d="M344.88 286.285c.748 1.114.704 9.875.837 12.289.031 1.229.018 3.666.139 4.811.023 2.271.124 4.987.02 7.219-.479 3.362-.545 7.068.07 10.417l-.016 11.522c-.744 10.65-.726 28.09-.319 39.139-1.839.222-27.242-8.832-30.625-9.975l.534-.671c5.415 2.036 21.829 6.879 25.47 8.645 1.202.444 1.145.478 2.41.465 3.658-4.773-1.496-72.381 1.48-83.861"/><path fill="#5598a7" d="m306.618 349.278.408-.109c1.272-2.771-.28-11.739.871-14.013q.22 11.335-.029 22.668l-1.396-.387z"/><path fill="#b1e0dd" d="M269.507 248.781c12.577 4.661 24.745 12.327 37.08 16.785.485 17.72.543 35.448.173 53.171-.126 9.315-.602 21.474-.142 30.541l-.146 8.159c-6.845-3.067-15.796-5.159-22.212-8.5-4.101-10.399-8.718-33.199-14.898-40.572.981-17.79.089-41.203.145-59.584"/><path fill="#b3c9cc" d="M345.82 287.155c3.731 1.677 27.505 11.439 28.393 13.872.036.099.033.208.049.312q-.218 6.585-.259 13.175c-5.247-.115-23.286-.764-27.508 1.004-.681 1.652-.531 3.667-.549 5.503-.615-3.349-.549-7.055-.07-10.417.104-2.232.003-4.948-.02-7.219-.121-1.145-.108-3.582-.139-4.811q.152-5.708.103-11.419"/><path fill="#e8e8e6" d="M345.856 303.385c7.312.311 12.014 1.081 18.664 4.208-6.013 1.218-12.534 2.452-18.644 3.011.104-2.232.003-4.948-.02-7.219"/><path fill="#90d5d4" d="M269.362 308.365c6.18 7.373 10.797 30.173 14.898 40.572-4.867-1.1-9.98-2.847-14.767-4.364.222-13.233-1.539-21.99-.131-36.208"/><path fill="#90d5d4" d="M345.82 287.155c.103-1.828-.203-1.96.706-3.188 6.693 1.326 45.276 21.295 53.011 25.438l-.409 2.328c-2.07-.142-4.616-.562-6.713-.845l-.783-.348c-5.982.529-9.869 1.1-15.758 2.118-.382-3.349-.366-8.324-.457-11.804l-.776-.24-.379.725c-.016-.104-.013-.213-.049-.312-.888-2.433-24.662-12.195-28.393-13.872"/><path fill="#b3c9cc" d="M375.417 300.854c5.228 2.712 11.637 6.029 16.215 9.686-5.982.529-9.869 1.1-15.758 2.118-.382-3.349-.366-8.324-.457-11.804"/><path fill="#90d5d4" d="m308.83 268.769.287-1.236c3.116-1.384 16.012 5.877 19.468 7.659l-1.089 1.665c-4.662-1.537-14.248-5.789-18.666-8.088"/><path fill="#7db2b9" d="M328.585 275.192c5.58 1.501 16.813 3.905 16.295 11.093-5.193-4.112-11.291-6.916-17.384-9.428z"/><path fill="#90d5d4" d="M228.527 157.775c14.887 7.892 28.252 16.465 42.64 25.005 12.155 7.215 26.441 13.76 37.847 22.282.314 15.9.287 31.805-.082 47.703-10.832-4.458-21.467-10.312-31.998-15.462-16.646-8.141-32.931-15.584-49.078-24.699.333-3.459-.274-14.618-.31-18.754q-.052-17.773.515-35.537z"/><path fill="#5598a7" d="M269.266 183.467c1.7 1.84.647 40.681.489 46.138-1.383-2.637-.699-40.573-.489-46.138"/><path fill="#7db2b9" d="M89.474 185.889c6.722.065 33.416-7.327 41.03-9.337a3666 3666 0 0 1 64.615-16.554c4.818-1.198 29.435-8.002 32.5-6.62 1.103 1.39.877 2.573.908 4.397l-.466.538c-6.733 1.073-11.95 1.978-18.566 3.567-8.381 2.013-18.688 5.371-27.042 6.451-23.469 5.204-55.375 12.964-78.04 20.239-6.995 1.587-13.261 2.898-20.47 3.531a249 249 0 0 1 5.53-6.212"/><path fill="#835941" d="M441.216 251.457c11.113 3.216 5.488 9.536 12.25 13.751-.97.575-1.553.957-2.678 1.172a5.4 5.4 0 0 1-4.39-1.047c-3.726-2.917-4.584-9.507-5.182-13.876"/><path fill="#7db2b9" d="M400.483 308.843c-1.292 21.686-.387 49.196-.009 71.126-.58-.208-.206-.033-.989-.745-.615-4.454-.474-15.458-.524-20.391q-.228-23.55.167-47.1l.409-2.328z"/><path fill="#407f8b" d="M375.414 240.821c1.474 9.107 1.122 17.377 1.021 26.567-.741 4.298.069 12.39-1.264 14.983-.864-15.589-.99-26.069.243-41.55"/><path fill="#407f8b" d="M344.772 270.142c-.739-8.785-.604-31.373.675-39.853l.219-.075c.409 11.749.566 28.486-.426 39.91z"/><path fill="#68514c" d="m458.456 269.012 2.722.153c2.439.363 3.823.234 5.961 1.545l-.088 1.612c-2.317 1.133-3.47.907-6.033.89-1.007-1.224-1.774-2.788-2.562-4.2"/><path fill="#302d2d" d="M467.051 272.322c.946.52 2.278 1.183 3.117 1.799-3.795.842-5.881 1.197-9.15-.909 2.563.017 3.716.243 6.033-.89"/><path fill="#407f8b" d="M227.821 339.284c-.004-1.807-.243-3.337.641-4.842 5.033.5 30.029 8.926 35.834 11.055 13.912 5.102 29.121 9.051 42.874 13.746 3.03.78 4.884 1.39 7.816 2.464 3.383 1.143 28.786 10.197 30.625 9.975l.354.15c.044 5.57.069 15.618 1.231 20.922 14.581 3.979 40.156 11.32 53.621 16.887l-.884 5.158c-5.503 16.775-11.183 34.201-16.256 51.109-2.583 8.607-2.547 17.378-6.195 26.774-.635 2.729-1.641 7.171-2.811 9.705-.508 3.851-.679 6.312-.802 10.201l-1.169 3.761c-.321.87-1.075 3.074-1.428 3.817a247 247 0 0 1-24.774 18.205l-1.037.84a567 567 0 0 1-17.246 11.816c-5.799 3.964-13.171 8.489-19.781 10.905l-1.455.636c-9.255 5.855-18.948 8.812-29.345 11.731-2.172.533-7.534 1.724-9.343 2.479l-1.013-.096c-8.042 2.513-31.238 5.069-39.447 3.816l-5.222-.947c-2.647-.175-6.542-.853-9.267-1.245-11.915-2.588-19.888-5.261-31.289-9.477l-2.409-.982c-15.545-6.312-26.731-13.329-39.907-23.383l-1.834-1.56c-3.297-2.626-6.826-5.936-10.001-8.779-9.473-8.155-16.342-16.902-23.302-27.152l-.884-1.621c3.165-.209 6.13-1.185 9.752-1.079 2.623.077 6.272-.374 8.969-.533a1517 1517 0 0 1 29.998-1.571c17.193-.778 34.291-3.012 51.49-3.739 7.023-.297 14.048-.594 21.047-1.271.129-9.08.413-18.715-.112-27.759.671-15.393.861-30.803.569-46.207.357-6.208.109-15.347.107-21.711a931 931 0 0 0-.405-36.765l2.896-.637.015-5.97q-.179-9.412-.221-18.826"/><defs><linearGradient id="e" x1="278.526" x2="317.86" y1="471.917" y2="376.255" gradientUnits="userSpaceOnUse"><stop offset="0" stop-color="#2f6d78"/><stop offset="1" stop-color="#50939b"/></linearGradient></defs><path fill="url(#e)" d="M227.821 339.284c-.004-1.807-.243-3.337.641-4.842 5.033.5 30.029 8.926 35.834 11.055 13.912 5.102 29.121 9.051 42.874 13.746 3.03.78 4.884 1.39 7.816 2.464 3.383 1.143 28.786 10.197 30.625 9.975l.354.15c.044 5.57.069 15.618 1.231 20.922 14.581 3.979 40.156 11.32 53.621 16.887l-.884 5.158c-5.503 16.775-11.183 34.201-16.256 51.109-2.583 8.607-2.547 17.378-6.195 26.774-.908-1.188-1.344-2.449-1.935-3.827l-.404.117-.523 2.264c-5.793-.779-25.656-2.887-29.381-5.868-.67-1.458-.627-2.725-.811-4.387-.257 2.377.112 3.012-1.143 4.474l-2.488.252c-9.503-.84-17.501-2.188-26.824-3.316-2.012-.47-3.982-.67-6.03-.932-2.566-.437-4.829-.94-7.433-.886l-.556.801c-7.795-.725-23.778-3.41-31.329-5.041.55-1.438.601-5.707.674-7.494a140 140 0 0 0-1.646-6.065c-.615-5.336-.169-20.783-.221-27.084.367-10.962-.251-22.111.384-33.107.544-9.431-.013-18.784-.561-28.198-7.392-2.412-32.594-11.058-39.228-10.305l.015-5.97q-.179-9.412-.221-18.826"/><path fill="#b1e0dd" d="M308.946 387.511a2476 2476 0 0 1 34.581 10.296 1387 1387 0 0 1 .842 48.951c.032 6.163-.314 20.875.203 26.627l-.144 7.596c-.257 2.377.112 3.012-1.143 4.474l-2.488.252c-9.503-.84-17.501-2.188-26.824-3.316-2.012-.47-3.982-.67-6.03-.932.25-16.231.374-27.657.03-43.909a95 95 0 0 1 .296-8.161c.421-4.496.26-11.427.29-16.11q.066-12.885.387-25.768"/><path fill="#90d5d4" d="M307.973 437.55a95 95 0 0 1 .296-8.161c.317 1.816.012 1.997 1.087 2.992 6.05 1.758 23.264.817 30.065.609-.009 6.641-.999 50.354 1.376 52.717-9.503-.84-17.501-2.188-26.824-3.316-2.012-.47-3.982-.67-6.03-.932.25-16.231.374-27.657.03-43.909"/><path fill="#e8e8e6" d="M270.369 411.763c.095-1.883.092-2.13.545-3.932 2.438-.817 12.961-1.933 16.066-2.337a292 292 0 0 0 19.636-3.228l-.012 9.073.545 2.949 1.41-1.009c-.03 4.683.131 11.614-.29 16.11a95 95 0 0 0-.296 8.161c.344 16.252.22 27.678-.03 43.909-2.566-.437-4.829-.94-7.433-.886l-.556.801c-7.795-.725-23.778-3.41-31.329-5.041.55-1.438.601-5.707.674-7.494.1-3.113.146-5.467.61-8.554.045-16.214.497-32.315.46-48.522"/><path fill="#7db2b9" d="m306.604 411.339.545 2.949 1.41-1.009c-.03 4.683.131 11.614-.29 16.11a95 95 0 0 0-.296 8.161c.344 16.252.22 27.678-.03 43.909-2.566-.437-4.829-.94-7.433-.886l-.556.801c-7.795-.725-23.778-3.41-31.329-5.041.55-1.438.601-5.707.674-7.494.1-3.113.146-5.467.61-8.554.052 1.474.156 2.58.316 4.026 1.381 1.801 18.381 4.247 21.782 4.862a966 966 0 0 0-.468-48.694l13.432.009c.268-3.074.246-6.518 1.633-9.149"/><path fill="#b3c9cc" d="m306.604 411.339.545 2.949 1.41-1.009c-.03 4.683.131 11.614-.29 16.11a95 95 0 0 0-.296 8.161l-1.078.008c-3.147-3.207-2.082-12.599-1.924-17.07.268-3.074.246-6.518 1.633-9.149"/><path fill="#5598a7" d="m307.149 414.288 1.41-1.009c-.03 4.683.131 11.614-.29 16.11a95 95 0 0 0-.296 8.161l-1.078.008c.158-7.369.816-16.08.254-23.27"/><path fill="#90d5d4" d="m374.493 407.574 1.182.055c3.705.599 13.352 3.989 17.342 5.31 2.016.595 4.884 1.475 6.916 1.86-5.503 16.775-11.183 34.201-16.256 51.109-2.583 8.607-2.547 17.378-6.195 26.774-.908-1.188-1.344-2.449-1.935-3.827l-.404.117-.523 2.264c-5.793-.779-25.656-2.887-29.381-5.868-.67-1.458-.627-2.725-.811-4.387l.144-7.596c.882 1.728.851 1.911 1.096 3.88l.371-2.156c4.356-1.02 22.123-28.026 27.98-33.803.089-7.701-.646-27.111.474-33.732"/><path fill="#90d5d4" d="M374.019 441.306c-.079 16.645.121 33.291.601 49.93-5.793-.779-25.656-2.887-29.381-5.868-.67-1.458-.627-2.725-.811-4.387l.144-7.596c.882 1.728.851 1.911 1.096 3.88l.371-2.156c4.356-1.02 22.123-28.026 27.98-33.803"/><path fill="#407f8b" d="M344.572 473.385c.882 1.728.851 1.911 1.096 3.88-.113 2.523-.165 5.658-.429 8.103-.67-1.458-.627-2.725-.811-4.387z"/><path fill="#b1e0dd" d="M375.675 407.629c3.705.599 13.352 3.989 17.342 5.31-4.21 7.239-10.633 19.459-17.464 23.861-.044-9.607-.228-19.602.122-29.171"/><path fill="#5598a7" d="m374.493 407.574 1.182.055c-.35 9.569-.166 19.564-.122 29.171a661 661 0 0 0-.578 35.479c.036 2.649.768 14.878.572 16.576l-.404.117-.523 2.264q-.72-24.96-.601-49.93c.089-7.701-.646-27.111.474-33.732"/><path fill="#b1e0dd" d="M227.821 339.284c-.004-1.807-.243-3.337.641-4.842 5.033.5 30.029 8.926 35.834 11.055 13.912 5.102 29.121 9.051 42.874 13.746.582 6.375 6.298 19.014 4.423 23.144-3.414-1.035-6.996-1.998-10.442-2.94-24.561-6.713-48.2-15.867-73.109-21.337q-.179-9.412-.221-18.826"/><path fill="#b1e0dd" d="M345.982 398.402c9.552 2.8 19.209 5.622 28.511 9.172-1.12 6.621-.385 26.031-.474 33.732-5.857 5.777-23.624 32.783-27.98 33.803z"/><path fill="#b3c9cc" d="M270.007 375.479c11.83 3.791 24.532 8.106 36.469 11.354.144 5.12.378 10.323.14 15.433a292 292 0 0 1-19.636 3.228c-3.105.404-13.628 1.52-16.066 2.337-.453 1.802-.45 2.049-.545 3.932-.512-3.878-.415-9.629-.416-13.667l-.005-5.694a408 408 0 0 1 .059-16.923"/><path fill="#e8e8e6" d="M269.948 392.402c4.915-1.246 23.08-1.373 26.085 2.674-2.245 2.451-18.255 2.781-22.281 2.94q-1.9.07-3.799.08z"/><path fill="#90d5d4" d="M307.17 359.243c3.03.78 4.884 1.39 7.816 2.464 3.383 1.143 28.786 10.197 30.625 9.975l.354.15c.044 5.57.069 15.618 1.231 20.922l-35.603-10.367c1.875-4.13-3.841-16.769-4.423-23.144"/><path fill="#e8e8e6" d="M228.027 364.08c6.634-.753 31.836 7.893 39.228 10.305.548 9.414 1.105 18.767.561 28.198-.635 10.996-.017 22.145-.384 33.107.052 6.301-.394 21.748.221 27.084l-.029 2.248c.488 3.108.381 7.278.245 10.463-8.592-1.813-21.882-2.8-28.84-4.684-2.354-.48-4.666-.823-7.036-1.193l-3.389-.41c-1.073-15.733-.311-31.886-.14-47.617.241-19.168.095-38.339-.437-57.501"/><path fill="#90d5d4" d="M228.027 364.08c6.634-.753 31.836 7.893 39.228 10.305.548 9.414 1.105 18.767.561 28.198-.635 10.996-.017 22.145-.384 33.107-.871-4.665-.406-18.365-.322-23.528-10.723-2.142-24.645-5.164-35.12-8.514-.112 19.809-1.137 46.542.003 65.96l-3.389-.41c-1.073-15.733-.311-31.886-.14-47.617.241-19.168.095-38.339-.437-57.501"/><path fill="#b3c9cc" d="M239.029 470.801c2.49-9.451-.85-31.811 3.145-41.175 1.257-2.27 3.151-3.845 5.69-4.411 11.31-2.521 8.863 9.12 9.173 16.534a358 358 0 0 0 1.598 22.646c3.266.506 5.692.536 8.989.627.488 3.108.381 7.278.245 10.463-8.592-1.813-21.882-2.8-28.84-4.684"/><path fill="#b1e0dd" d="M267.653 462.774a140 140 0 0 1 1.646 6.065c-.073 1.787-.124 6.056-.674 7.494 7.551 1.631 23.534 4.316 31.329 5.041l.556-.801c2.604-.054 4.867.449 7.433.886 2.048.262 4.018.462 6.03.932 9.323 1.128 17.321 2.476 26.824 3.316l2.488-.252c1.255-1.462.886-2.097 1.143-4.474.184 1.662.141 2.929.811 4.387 3.725 2.981 23.588 5.089 29.381 5.868l.523-2.264.404-.117c.591 1.378 1.027 2.639 1.935 3.827-.635 2.729-1.641 7.171-2.811 9.705-.508 3.851-.679 6.312-.802 10.201-7.86-.285-18.889-2.102-26.916-3.233l-.846-.096c-10.671-.855-22.247-2.634-32.968-3.894-28.234-3.319-56.304-7.232-84.667-9.453l-.003-26.012.135-.702 3.389.41c2.37.37 4.682.713 7.036 1.193 6.958 1.884 20.248 2.871 28.84 4.684.136-3.185.243-7.355-.245-10.463z"/><defs><linearGradient id="f" x1="343.544" x2="347.72" y1="493.339" y2="481.61" gradientUnits="userSpaceOnUse"><stop offset="0" stop-color="#3b7380"/><stop offset="1" stop-color="#458992"/></linearGradient></defs><path fill="url(#f)" d="M344.428 480.981c.184 1.662.141 2.929.811 4.387 3.725 2.981 23.588 5.089 29.381 5.868l.523-2.264.404-.117c.591 1.378 1.027 2.639 1.935 3.827-.635 2.729-1.641 7.171-2.811 9.705-.179-2.809-.148-6.267-.198-9.132-5.057-1.239-15.033-2.427-20.573-3.314a3085 3085 0 0 1-40.202-6.839l.275-.711c9.323 1.128 17.321 2.476 26.824 3.316l2.488-.252c1.255-1.462.886-2.097 1.143-4.474"/><path fill="#5598a7" d="M267.653 462.774a140 140 0 0 1 1.646 6.065c-.073 1.787-.124 6.056-.674 7.494-4.598-1.263-12.732-2.181-17.753-2.882a518 518 0 0 1-22.403-3.551l.135-.702 3.389.41c2.37.37 4.682.713 7.036 1.193 6.958 1.884 20.248 2.871 28.84 4.684.136-3.185.243-7.355-.245-10.463z"/><path fill="#407f8b" d="m299.954 481.374.556-.801c2.604-.054 4.867.449 7.433.886 2.048.262 4.018.462 6.03.932l-.275.711c-3.908-.254-9.508-1.301-13.744-1.728"/><path fill="#90d5d4" d="M346.107 509.259c-.269-3.67-.584-7.274-.583-10.955 1.261 3.86 1.548 7.006 1.429 11.051z"/><path fill="#b1e0dd" d="M228.41 499.822c5.714.723 35.572 3.332 38.836 5.045-1.542 24.792.337 47.299.032 71.815-8.042 2.513-31.238 5.069-39.447 3.816.466-11 .222-22.899.239-33.966z"/><path fill="#7db2b9" d="M184.378 503.535c12.038-.518 25.92-1.972 37.615-2.047-.199 26.022.006 52.047.616 78.063-2.647-.175-6.542-.853-9.267-1.245-11.915-2.588-19.888-5.261-31.289-9.477 2.19-7.917.984-22.543 2.346-32.462.318-10.893.094-21.926-.021-32.832"/><path fill="#5598a7" d="M184.399 536.367c.115 1.969-.185 2.888.755 4.259 4.42.887 19.982-1.093 25.165-1.748 1.229 7.421 3.615 31.813 3.023 39.428-11.915-2.588-19.888-5.261-31.289-9.477 2.19-7.917.984-22.543 2.346-32.462"/><path fill="#e8e8e6" d="m267.246 504.867 1.768-.295c7.634-.065 29.639 1.978 37.273 3.604-.037 3.244.018 7.258-.202 10.427a6587 6587 0 0 0-.077 34.144c.001 2.644-.469 7.871.971 9.821-9.255 5.855-18.948 8.812-29.345 11.731-2.172.533-7.534 1.724-9.343 2.479l-1.013-.096c.305-24.516-1.574-47.023-.032-71.815"/><path fill="#b3c9cc" d="m267.246 504.867 1.768-.295c7.634-.065 29.639 1.978 37.273 3.604-.037 3.244.018 7.258-.202 10.427-8.788-1.042-19.959-.656-28.898-.558l-.354 32.548c-.053 5.567-.311 18.651.801 23.706-2.172.533-7.534 1.724-9.343 2.479l-1.013-.096c.305-24.516-1.574-47.023-.032-71.815"/><path fill="#5598a7" d="m267.246 504.867 1.768-.295c-.579 17.748.707 35.937.202 53.709-.156 5.514-.032 13.197-.925 18.497l-1.013-.096c.305-24.516-1.574-47.023-.032-71.815"/><path fill="#5598a7" d="M141.966 531.021c12.06-.364 26.374-2.051 37.681-2.06-.885 6.478-.996 21.226.327 27.446.044 2.359.491 9.846-.33 11.44-15.545-6.312-26.731-13.329-39.907-23.383 2.043-3.795 1.985-9.095 2.229-13.443"/><path fill="#7db2b9" d="M142.05 505.114a850 850 0 0 1 38.347-1.141c.148 17.389-.718 35.583-.423 52.434-1.323-6.22-1.212-20.968-.327-27.446-11.307.009-25.621 1.696-37.681 2.06q-.069-12.954.084-25.907"/><path fill="#e8e8e6" d="M308.922 519.451a322 322 0 0 1 21.586.139c-.212 8.56-.502 23.49-2.293 31.437-5.799 3.964-13.171 8.489-19.781 10.905.471-1.527-.018-15.8-.018-18.285q-.016-12.103.506-24.196"/><path fill="#b3c9cc" d="M309.003 509.395c11.132.744 24.037 1.852 35.012 3.691.003 6.234-.404 21.024 1.446 26.125a567 567 0 0 1-17.246 11.816c1.791-7.947 2.081-22.877 2.293-31.437a322 322 0 0 0-21.586-.139z"/><path fill="#7db2b9" d="M104.6 506.973c10.497.215 22.698-1.117 33.329-1.458l.027 26.36c-3.454.35-7.613.206-10.054 2.25-9.473-8.155-16.342-16.902-23.302-27.152"/><path fill="#90d5d4" d="M346.495 513.423c7.513.195 19.018 1.387 26.205 2.926-.321.87-1.075 3.074-1.428 3.817a247 247 0 0 1-24.774 18.205q.228-12.474-.003-24.948"/><path fill="#5598a7" d="M127.902 534.125c2.441-2.044 6.6-1.9 10.054-2.25l-.053 11.029c-3.297-2.626-6.826-5.936-10.001-8.779"/><path fill="#5598a7" d="M104.413 188.57c22.665-7.275 54.571-15.035 78.04-20.239q-.187 26.407.087 52.813c-6.03 1.515-38.608 9.751-42.231 8.106l-.455-.112c-2.053 2.513-31.615 9.379-34.886 8.687l-.712-.013c-2.951 2.283-27.71 7.404-32.753 8.039l-.864-.025c-2.048 1.18-10.974 2.888-13.745 3.468 3.285-19.127 14.732-42.141 27.05-57.193 7.208-.633 13.474-1.944 20.469-3.531"/><path fill="#5598a7" d="M83.943 192.101c7.209-.633 13.475-1.944 20.47-3.531-.71 4.727-.782 43.953-.157 49.242-2.951 2.283-27.71 7.404-32.753 8.039l-.864-.025c-2.048 1.18-10.974 2.888-13.745 3.468 3.285-19.127 14.732-42.141 27.05-57.193"/><path fill="#407f8b" d="M70.639 245.826c-.31-6.163-.486-23.177.386-29.015l.251.121c.645 8.78.298 19.906.227 28.919z"/><path fill="#407f8b" d="M104.413 188.57c1.183 2.928.526 42.78.555 49.255l-.712-.013c-.625-5.289-.553-44.515.157-49.242"/><path fill="#407f8b" d="M139.854 229.138c-.462-4.224-.89-38.936.27-41.404.675 9.128.758 31.982.185 41.516z"/><path fill="#e8e8e6" d="M225.131 364.717c.377 12.251.512 24.509.405 36.765.002 6.364.25 15.503-.107 21.711a739 739 0 0 1-.569 46.207c-3.555.197-6.267.355-9.778.885-4.612.489-9.48.864-14.121.661l-6.561.85c-1.721-1.143-2.404-1.393-4.337-2.207.981-5.921 4.805-10.661 4.327-15.999-.428-4.782-7.762-2.009-10.375-3.956-.702-.523-.57-1.341-.735-2.476.453-4.305.239-12.491.24-16.955q.048-16.45-.187-32.897c-.391-3.838-.341-6.824-.31-10.696l-.038-6.567c-.101-2.823-.007-6.122.011-8.986 4.344-.886 10.845-1.487 15.493-2.157a1827 1827 0 0 0 26.642-4.183"/><path fill="#b3c9cc" d="M225.131 364.717c.377 12.251.512 24.509.405 36.765.002 6.364.25 15.503-.107 21.711-.753-4.068-.413-27.953-.404-33.313-5.38.111-38.423 2.733-41.262 4.607l-.43 2.819c-.391-3.838-.341-6.824-.31-10.696l-.038-6.567c-.101-2.823-.007-6.122.011-8.986 4.344-.886 10.845-1.487 15.493-2.157a1827 1827 0 0 0 26.642-4.183"/><path fill="#e8e8e6" d="M182.985 380.043c12.719-.806 22.409-3.439 34.003 2.771-10.898.759-23.69 3.514-33.965 3.796z"/><path fill="#5598a7" d="M206.069 417.178c.368-2.428.559-4.312.739-6.763 3.706 5.885 3.68 5.99 3.757 12.841l.061 1.749.657-.017c1.338-1.415 2.924-3.396 4.534-4.249l.693.396c1.579 5.828-3.41 15.289-5.926 20.808 1.766-1.636 3.301-3.4 5.517-4.145l.97.32c1.008 3.476-4.309 10.64-6.419 13.484-2.237.574-3.576.877-5.918.683-3.153-3.226-11.749-13.299-9.557-17.805 2.641-.219 4.723 2.226 6.507 3.93-2.348-4.436-10.782-19.355-6.964-23.931 1.681-.105 1.243-.001 2.991 1.032 1.87 1.892 6.758 7.952 8.206 8.417z"/><path fill="#7db2b9" d="M197.711 415.511c1.87 1.892 6.758 7.952 8.206 8.417-.009 2.225.411 3.841-1.703 4.905-3.735-1.199-6.108-9.867-6.503-13.322"/><path fill="#a27057" d="M210.652 451.602c4.572 2.023 4.672 2.212 6.797 6.61-.43 5.141-1.125 7.108-2.367 12.073-4.612.489-9.48.864-14.121.661a34.3 34.3 0 0 1-2.417-8.024c-.924-5.56-.191-10.062 6.19-10.637 2.342.194 3.681-.109 5.918-.683"/><path fill="#7db2b9" d="M206.069 417.178c-.038-3.099-.516-10.469 2.345-12.379 4.723 1.562 2.789 14.664 2.151 18.457-.077-6.851-.051-6.956-3.757-12.841-.18 2.451-.371 4.335-.739 6.763"/><path fill="#b3c9cc" d="M183.387 234.691c13.056-1.994 29.602-5.402 42.533-8.327.072 7.015-.222 27.859.489 33.838-.338 18.355.588 36.875.072 55.253-.07 2.466-.18 5.551-.069 7.985-.234 2.971-.379 5.397-.417 8.379-4.217 1.012-7.623 1.732-11.899 2.438 3.132-9.039 6.562-17.257-6.172-18.346-1.6.084-3.627.037-5.266.048-.949-5.186-1.067-10.402-1.366-15.677-3.4-4.918-6.69-5.083-12.462-6.553l-3.752-3.748-2.324-2.763c.472-9.615.742-16.878.758-26.607l-.018-9.413z"/><path fill="#5598a7" d="M204.269 288.603c-1.18-1.465-3.811-4.036-5.266-4.984-8.488-5.538 2.121-17.797 6.799-8.33 2.789 5.644 1.658 15.812 1.127 21.813 1.357-3.603 3.779-12.208 8.728-11.473 3.734 5.281-4.941 13.331-8.827 16.444.306 2.29.653 4.553.793 6.858 2.013-3.025 4.592-7.543 8.378-8.371a4 4 0 0 1 3.485.855c1.901 1.617 2.952 5.189.324 6.765-2.673-.006-4.607-1.22-7.171-2.242-2.507 3.541-3.403 5.798-4.715 9.973-1.6.084-3.627.037-5.266.048-.949-5.186-1.067-10.402-1.366-15.677-3.4-4.918-6.69-5.083-12.462-6.553l-3.752-3.748c19.915-11.092 12.863 7.697 18.891 15.455 1.997-2.311.914-13.718.3-16.833"/><path fill="#e8e8e6" d="M183.494 251.198q7.1-1.423 14.242-2.613c4.827 2.263 8.486 4.141 12.821 7.33-4.158.95-24.703 6.202-27.045 4.696z"/><path fill="#7db2b9" d="m57.104 383.663 1.398.138.737.049c8.764.645 39.104-6.842 43.817-2.118.434 24.449.418 48.903-.045 73.351-4.455.506-23.349.882-25.375 2.774-2.97-6.628-5.397-14.7-7.5-21.636l-.89-1.875c-3.88-8.86-10.773-36.131-11.992-45.961-.113-.561-.135-3.948-.15-4.722"/><path fill="#7db2b9" d="M57.254 388.385c2.61-1.035 7.78-1.814 10.556-1.522 2.801 2.681 2.664 43.054 1.437 47.483-3.882-8.86-10.774-36.131-11.993-45.961"/><path fill="#407f8b" d="m57.104 383.663 1.398.138.737.049c8.764.645 39.104-6.842 43.817-2.118a547 547 0 0 1-30.671 4.17 996 996 0 0 1-.448 34.691c-.093 3.539.188 13.345-1.8 15.628l-.89-1.875c1.227-4.429 1.364-44.802-1.437-47.483-2.776-.292-7.946.487-10.556 1.522-.113-.561-.135-3.948-.15-4.722"/><defs><linearGradient id="g" x1="175.751" x2="202.029" y1="294.857" y2="332.869" gradientUnits="userSpaceOnUse"><stop offset="0" stop-color="#79aeb9"/><stop offset="1" stop-color="#c2e1e1"/></linearGradient></defs><path fill="url(#g)" d="m182.754 287.218 2.324 2.763 3.752 3.748c5.772 1.47 9.062 1.635 12.462 6.553.299 5.275.417 10.491 1.366 15.677 1.639-.011 3.666.036 5.266-.048 12.734 1.089 9.304 9.307 6.172 18.346a304 304 0 0 1-15.167 2.931q-2.673.572-5.354 1.105c-3.807.751-6.52 1.395-9.859-.842-1.677-5.652-.253-18.86-.278-25.409-.028-7.468-1.395-17.689-.684-24.824"/><path fill="#a27057" d="M207.924 315.911c12.734 1.089 9.304 9.307 6.172 18.346a304 304 0 0 1-15.167 2.931l-1.434-4.389c-2.532-7.842-5.231-14.51 5.163-16.84 1.639-.011 3.666.036 5.266-.048"/><path fill="#5598a7" d="M192.133 301.438c3.46-.185 4.991.707 8.063 2.083-2.671 4.511-3.955 6.138-7.727 9.706-2.814.759-5.004 1.124-7.076-1.143-1.144-4.697 3.366-8.324 6.74-10.646"/><path fill="#7db2b9" d="m52.983 305.297 15.02-2.465.018 53.485c-3.76.492-11.528 1.274-14.915 2.071-2.014-6.219-2.661-22.722-2.214-29.698 3.442-4.914 2.917-17.706 2.09-23.393"/><path fill="#b3c9cc" d="M50.962 279.285c1.906-.256 14.206-3.69 17.052-4.4l.165 9.113q-.212 9.416-.176 18.834l-15.02 2.465c.826 5.687 1.351 18.479-2.09 23.393-1.837-9.935-1.52-36.571-.08-46.732z"/><path fill="#e8e8e6" d="M50.962 279.285c1.906-.256 14.206-3.69 17.052-4.4l.165 9.113c-6.246.064-11.592.482-17.366-2.04z"/><path fill="#b3c9cc" d="M77.636 457.857c2.026-1.892 20.92-2.268 25.375-2.774.134 7.307.386 14.926.039 22.197-3.283.451-12.212 1.326-14.619 2.877-4.11-5.478-8.278-15.74-10.795-22.3"/><path fill="#b3c9cc" d="M53.891 261.937c5.03.063 9.149-1.066 13.997-2.296l.126 15.244c-2.846.71-15.146 4.144-17.052 4.4.826-6.437 1.398-11.018 2.93-17.348"/><path fill="#869196" d="M182.497 470.844c.867-4.268-.034-10.08.019-14.588.039-3.252.352-5.87.764-9.098.165 1.135.033 1.953.735 2.476 2.613 1.947 9.947-.826 10.375 3.956.478 5.338-3.346 10.078-4.327 15.999-2.511.487-5.467.556-7.566 1.255"/><path fill="#5598a7" d="M190.063 469.589c1.933.814 2.616 1.064 4.337 2.207-3.86.618-9.119 2.186-11.903-.952 2.099-.699 5.055-.768 7.566-1.255"/><path fill="#e8e8e6" d="M140.704 376.187c11.99-1.793 28.409-4.037 40.282-4.785.094 3.151.027 6.565.021 9.739l.008 6.28-.034 6.66c-.006 15.821.105 31.639-.356 47.453-.08 2.759-.143 5.506-.028 8.264 1.332 7.674-.857 14.474-.441 20.844l.286 1.099c-1.598 2.369-7.878 2.455-10.668 2.537-9.887.29-19.736 1.606-29.577 2.207-.051-1.48-.026-1.439-.506-2.832-.455-5.666-.46-13.591-.65-19.404.357-1.761.283-1.67 1.294-3.137 1.942-9.479.749-40.682.648-51.984.078-7.529-.156-15.388-.279-22.941"/><path fill="#b3c9cc" d="M140.704 376.187c11.99-1.793 28.409-4.037 40.282-4.785.094 3.151.027 6.565.021 9.739l.008 6.28-.034 6.66c-13.069 1.524-27.022 3.058-39.998 5.047.078-7.529-.156-15.388-.279-22.941"/><path fill="#e8e8e6" d="M142.08 386.262c12.723-1.595 26.245-4.463 38.927-5.121l.008 6.28c-15.762 1.368-23.879 5.299-38.935-1.159"/><path fill="#5598a7" d="M150.054 448.036c4.545 3.839 8.371 5.695 14.608 5.221q.583-.046 1.164-.119c1.921 3.895 2.85 6.594 3.908 10.856l.451-.148c5.653-4.561-1.56-11.321 10.412-14.048 1.332 7.674-.857 14.474-.441 20.844l.286 1.099c-1.598 2.369-7.878 2.455-10.668 2.537-9.887.29-19.736 1.606-29.577 2.207-.051-1.48-.026-1.439-.506-2.832-.455-5.666-.46-13.591-.65-19.404.357-1.761.283-1.67 1.294-3.137 1.376.888 2.206 1.558 3.804 1.976 1.87-2.538 3.093-3.677 5.915-5.052"/><path fill="#dea055" d="M150.054 448.036c4.545 3.839 8.371 5.695 14.608 5.221q.583-.046 1.164-.119c1.921 3.895 2.85 6.594 3.908 10.856-1.292 1.403-1.977 2.176-4.017 2.297a17 17 0 0 1-3.237-.144c-.681 1.168-2.018 3.308-2.546 4.467-2.965-.845-4.588-2.071-7.097-3.739l-2.945-.346-5.895.679c-.164-4.729.291-9.475.142-14.12 1.87-2.538 3.093-3.677 5.915-5.052"/><path fill="#ad8166" d="m154.799 466.309 7.681-.162c-.681 1.168-2.018 3.308-2.546 4.467-2.965-.845-4.588-2.071-7.097-3.739z"/><path fill="#af671b" d="M149.892 466.529c-.268-1.818-.759-3.233.099-4.751 2.172-.29 3.898 2.766 4.808 4.531l-1.962.566z"/><path fill="#869196" d="M180.597 449.798c1.332 7.674-.857 14.474-.441 20.844-2.304.668-16.221.427-19.281.249l-.868-.054-.073-.223c.528-1.159 1.865-3.299 2.546-4.467 1.072.151 2.156.199 3.237.144 2.04-.121 2.725-.894 4.017-2.297l.451-.148c5.653-4.561-1.56-11.321 10.412-14.048"/><path fill="#cbb8a0" d="m169.734 463.994.451-.148c-.682 2.619-1.017 4.158-2.192 6.646-1.832.068-5.45.099-7.118.399l-.868-.054-.073-.223c.528-1.159 1.865-3.299 2.546-4.467 1.072.151 2.156.199 3.237.144 2.04-.121 2.725-.894 4.017-2.297"/><path fill="#bf946f" d="m143.997 467.208 5.895-.679 2.945.346c2.509 1.668 4.132 2.894 7.097 3.739l.073.223c-4.494.839-11.271 2.412-15.226.383-1.115-1.744-.731-1.566-.784-4.012"/><path fill="#bf946f" d="M155.258 443.811c-.262-1.712-.777-3.682-.099-5.184 1.52-3.367 5.728-6.821 9.11-8.035 1.347 7.033 1.412 6.877-.185 13.477-1.443 1.13-2.859 2.291-4.403 3.276 2.674 1.931 4.417 2.929 6.145 5.793q-.58.073-1.164.119c-6.237.474-10.063-1.382-14.608-5.221 2.861-1.058 3.435-1.728 5.204-4.225"/><path fill="#16595e" d="M155.258 443.811c-5.661-2.729-10.592-16.239-3.657-18.153 2.279.535 2.765 2.381 3.679 2.789 4.202 1.881 4.618-2.461 8.989 2.145-3.382 1.214-7.59 4.668-9.11 8.035-.678 1.502-.163 3.472.099 5.184"/><path fill="#b3c9cc" d="m140.982 244.186 39.401-8.543c.347 32.022-.381 64.225.262 96.188l-.15 7.916c-2.213.287-6.81.77-8.778 1.261-4.139 1.027-8.191 1.484-12.451 1.671l-17.643 2.58c-.702-33.064-.289-67.748-.641-101.073"/><path fill="#a27057" d="M157.021 325.922c4.819 1.055 10.679.337 15.662-.058 1.532 2.177 1.527 2.36 1.2 5.171 2.647.52 4.101.619 6.762.796l-.15 7.916c-2.213.287-6.81.77-8.778 1.261-4.139 1.027-8.191 1.484-12.451 1.671-3.288-6.249-6.098-10.026-2.245-16.757"/><path fill="#90d5d4" d="M173.883 331.035c2.647.52 4.101.619 6.762.796l-.15 7.916c-2.213.287-6.81.77-8.778 1.261.649-3.395 1.383-6.606 2.166-9.973"/><path fill="#5598a7" d="M163.416 319.071c.261-5.312.575-10.766 3.396-15.449l.854-.466c2.395 3.013-.888 14.202-1.83 18.097 2.67-4.319 4.369-6.413 8.907-9.047-.777 2.422-1.716 5.675-2.699 7.946 1.603.618 3.087.91 3.957 2.28-.501 1.699-1.72 2.365-3.318 3.432-4.983.395-10.843 1.113-15.662.058-3.693-1.532-7.046-2.227-8.761-5.656.865-4.205 8.555-.831 10.973.183-3.418-5.243-5.083-7.667-7.135-13.458 6.16 4.014 7.555 5.858 11.318 12.08"/><path fill="#e8e8e6" d="M176.288 253.187c2.315-.181 1.372-.487 3.095.416 1.227 2.359.873 6.311.883 9.141-7.879 1.243-15.427 3.196-23.212 4.774-3.414.691-5.97 1.65-8.768-.205-2.315-1.373-6.883-3.218-6.222-6.157 4.199-2.903 28.41-7.154 34.224-7.969"/><path fill="#e8e8e6" d="M105.009 380.917c11.421-1.766 21.596-3.28 33.088-4.161.609 6.833.495 16.337.005 23.169l.05 30.737c-.041 5.4-.495 17.037.308 22.059l.581 1.528c.19 5.813.195 13.738.65 19.404l-.418 1.122c-1.901.555-5.679.528-7.298-.238a110 110 0 0 0-8.19 1.173l-10.403 1.621-7.367 1.16c-.344-19.254.288-38.43-.386-57.688-.464-13.268-.768-26.613-.62-39.886"/><path fill="#b3c9cc" d="M105.009 380.917c11.421-1.766 21.596-3.28 33.088-4.161.609 6.833.495 16.337.005 23.169-8.188 1.403-16.837 2.297-25.119 3.183-.032 8.766-1.301 70.329.399 74.223l-7.367 1.16c-.344-19.254.288-38.43-.386-57.688-.464-13.268-.768-26.613-.62-39.886"/><path fill="#16595e" d="m138.46 452.721.581 1.528c.19 5.813.195 13.738.65 19.404l-.418 1.122c-1.901.555-5.679.528-7.298-.238-.401-6.31-.826-11.769-1.594-18.038 3.276-1.214 5.001-2.146 8.079-3.778"/><path fill="#7db2b9" d="M71.295 258.762c8.929-1.327 22.41-4.154 31.135-6.623l.643 43.708.056 55.05c-9.322 2.039-22.044 3.512-31.684 4.823-.537-22.274-.212-43.791-.369-65.993l-.071-6.719.03-8.172c.58-5.542.485-10.514.26-16.074"/><path fill="#b3c9cc" d="M71.295 258.762c8.929-1.327 22.41-4.154 31.135-6.623l.643 43.708a355 355 0 0 0-31.474 5.462c-.005-3.65.176-8.056-.523-11.582l-.071-6.719.03-8.172c.58-5.542.485-10.514.26-16.074"/><path fill="#e8e8e6" d="M71.035 274.836c7.389-3.262 21.274-1.69 28.582 1.348-5.606 2.431-22.418 6.979-28.612 6.824z"/><path fill="#7db2b9" d="M105.983 295.662c9.23-1.05 22.368-4.122 32.023-5.847l.512 56.037c-10.691 1.51-21.923 3.507-32.511 4.848-.159-18.471-.582-36.565-.024-55.038"/><path fill="#b3c9cc" d="M105.382 251.228a1127 1127 0 0 0 32.605-7.114l.019 45.701c-9.655 1.725-22.793 4.797-32.023 5.847q.038-22.222-.601-44.434"/><path fill="#407f8b" d="M139.691 473.653c.48 1.393.455 1.352.506 2.832-4.706-.204-13.114 1.573-16.412-.775a110 110 0 0 1 8.19-1.173c1.619.766 5.397.793 7.298.238z"/><defs><linearGradient id="h" x1="591.7" x2="390.521" y1="548.444" y2="375.36" gradientUnits="userSpaceOnUse"><stop offset="0" stop-color="#7f480e"/><stop offset="1" stop-color="#a46019"/></linearGradient></defs><path fill="url(#h)" d="M495.862 265.103c9.373 5.69 17.815 13.262 30.356 10.684 5.441-1.118 10.473-7.044 15.987-9.876.081 2.847.42 8.856.209 11.465l.04.38c.042 2.185.03 4.49.252 6.654 1.212 1.111 2.269 2.407 3.798 2.683l.613-.605c.847 2.423.584 2.003 3.004 3.105l27.673 10.656c22.144 8.687 28.761 13.328 38.574 35.247a789 789 0 0 0 5.201 11.668c3.365 6.951 7.209 17.456 10.216 24.851.434.849 1.006 2.068 1.474 2.854-1.175 2.594-2.257 5.161-3.771 7.577-2.487 6.163-5.036 12.815-7.865 18.775-1.741 5.007-3.231 8.728-5.306 13.556 3.485 1.15 7.718 2.428 11.025 3.841 2.018.724 4.097 1.506 6.127 2.171 8.823 2.573 20.285 7.226 29.436 10.276 4.9 1.401 19.596 4.847 23.16 8.29.402.388.086.865-.105 1.556l-1.049.956-.522 1.275c-3.238 1.649-6.74 4.719-9.465 7.142l-3.432 2.27-2.809.46c-6.945 6.213-16.801 9.465-25.515 12.184-5.165 1.643-8.303 2.242-13.752 2.568-7.996 22.44-16.934 48.179-26.34 70.098-2.347-4.66-5.095-15.199-6.512-20.567-1.96 1.9-2.365 2.463-4.728 3.683-3.328 1.576-6.283 2.923-9.69 4.311-5.874 2.056-16.558 4.832-22.866 6.211-11.602 2.683-33.962 7.078-46.047 6.847-5.058-.402-13.289-.429-18.262.069-11.248-.221-22.445-1.839-33.381-4.24-2.258-.496-3.573.7-5.191 2.04-4.94 6.289-17.114 26.757-24.582 27.764q-.582.072-1.167.118c2.291-3.916 8.539-32.246 9.968-38.212-2.186-2.081-2.931-2.713-4.609-5.338.376-13.086 4.018-15.98-1.315-27.541-1.203 2.493-2.228 4.677-3.299 7.239-3.396 9.917-7.856 20.961-12.122 30.562-3.296 7.415-7.253 7.958-9.461 17.124-.379 2.232-.673 3.967-1.241 6.18-1.233 2.181-1.324 2.535-3.156 4.145l-2.03.819c-3.664-.094-10.856-.232-14.281 1.039-1.432.235-3.428.288-4.932.372l-.341-.187c-1.063-.147-2.115-.354-3.172-.546-1.398-1.42-.966-.85-1.32-3.177l-.426.134c-1.704-1.315-2.337-2.301-3.684-4.012.191-3.981.518-9.143-.11-13.044-1.014-6.298-2.912-12.342-3.751-18.732l-.096-.759c.353-.743 1.107-2.947 1.428-3.817l1.169-3.761c.123-3.889.294-6.35.802-10.201 1.17-2.534 2.176-6.976 2.811-9.705 3.648-9.396 3.612-18.167 6.195-26.774 5.073-16.908 10.753-34.334 16.256-51.109l.884-5.158 1.904-10.626c6.556-24.584 12.592-58.234 27.129-79.909 6.7-9.99 28.838-17.575 39.994-21.036 4.7-1.457 12.499-5.06 17.414-5.672-1.8-5.502-4.037-7.425-8.018-11.371 4.25-4.281 5.231-4.764 10.8-2.18 1.826-.97 4.122-1.917 6.042-2.769l-.013-2.421c-.164-2.647-.153-5.858-.207-8.554"/><path fill="#d38131" d="M495.862 265.103c9.373 5.69 17.815 13.262 30.356 10.684 5.441-1.118 10.473-7.044 15.987-9.876.081 2.847.42 8.856.209 11.465l.04.38c.042 2.185.03 4.49.252 6.654 1.212 1.111 2.269 2.407 3.798 2.683l.613-.605c.847 2.423.584 2.003 3.004 3.105l27.673 10.656c22.144 8.687 28.761 13.328 38.574 35.247a789 789 0 0 0 5.201 11.668c3.365 6.951 7.209 17.456 10.216 24.851.434.849 1.006 2.068 1.474 2.854-1.175 2.594-2.257 5.161-3.771 7.577-2.487 6.163-5.036 12.815-7.865 18.775-11.984-19.9-21.877-37.067-32.922-57.555-1.977 2.359-4.249 4.448-3.374 7.682.653 4.039 2.384 13.677 2.016 17.319-3.517 17.746-8.091 30-28.701 31.978-12.964 1.245-25.886-2.327-38.651-1.684-19.369.977-31.541 6.196-50.642-.547-21.263-12.369-15.857-39.928-21.756-59.63-1.962-6.553-6.807-12.948-10.808-18.478 9.016-7.677 13.921-11.067 25.34-14.693 2.452-.779 4.547-2.132 7.408-2.853 5.227-1.872 13.859-6.257 17.725-10.362-1.8-5.502-4.037-7.425-8.018-11.371 4.25-4.281 5.231-4.764 10.8-2.18 1.826-.97 4.122-1.917 6.042-2.769l-.013-2.421c-.164-2.647-.153-5.858-.207-8.554"/><path fill="#835941" d="M495.862 265.103c9.373 5.69 17.815 13.262 30.356 10.684 5.441-1.118 10.473-7.044 15.987-9.876.081 2.847.42 8.856.209 11.465l.04.38c.042 2.185.03 4.49.252 6.654 1.212 1.111 2.269 2.407 3.798 2.683l.613-.605c.847 2.423.584 2.003 3.004 3.105l.152 3.027c-1.057 1.654-1.492 1.89-3.04 3.174-7.864 5.316-12.801 7.654-22.25 9.498l-4.384.255c-4.115.043-9.597-1.116-13.599-1.969l-2.166-.44c-4.286-3.425-8.924-4.307-14.134-8.976l-.839-.353c-1.552-.28-1.438-.311-2.603-1.411-1.8-5.502-4.037-7.425-8.018-11.371 4.25-4.281 5.231-4.764 10.8-2.18 1.826-.97 4.122-1.917 6.042-2.769l-.013-2.421c-.164-2.647-.153-5.858-.207-8.554"/><path fill="#bf946f" d="M541.899 267.351c.023 3.255-.105 6.886.515 10.025l.04.38c.042 2.185.03 4.49.252 6.654 1.212 1.111 2.269 2.407 3.798 2.683l.613-.605c.847 2.423.584 2.003 3.004 3.105l.152 3.027c-1.057 1.654-1.492 1.89-3.04 3.174-7.864 5.316-12.801 7.654-22.25 9.498l-4.384.255c2.079-7.371 9.683-15.323 8.162-22.456.203-.546 3.134-5.164 3.812-6.477l2.232-1.123c2.016-2.858 4.656-5.613 7.094-8.14"/><path fill="#a27057" d="m532.573 276.614 2.232-1.123c-1.891 6.674-2.906 13.501-4.98 20.034-.926 2.916-3.76 6.758-4.842 9.767l-4.384.255c2.079-7.371 9.683-15.323 8.162-22.456.203-.546 3.134-5.164 3.812-6.477"/><path fill="#835941" d="M542.706 284.41c1.212 1.111 2.269 2.407 3.798 2.683l.613-.605c.847 2.423.584 2.003 3.004 3.105l.152 3.027c-1.057 1.654-1.492 1.89-3.04 3.174-3.237-4.107-3.928-6.42-4.527-11.384"/><path fill="#6e4533" d="M495.862 265.103c9.373 5.69 17.815 13.262 30.356 10.684 5.441-1.118 10.473-7.044 15.987-9.876.081 2.847.42 8.856.209 11.465-.62-3.139-.492-6.77-.515-10.025-2.438 2.527-5.078 5.282-7.094 8.14l-2.232 1.123c-1.911.764-11.594 8.567-14.184 10.353-4.389-2.359-7.322-4.317-10.986-7.672-2.559-2.344-5.681-5.823-8.487-7.589l-2.284-5.926c-.112 2.014-.221 6.044-.563 7.877-.164-2.647-.153-5.858-.207-8.554"/><path fill="#68514c" d="M490.04 278.847c1.826-.97 4.122-1.917 6.042-2.769l-.059 5.111c-1.707 7.106-2.405 6.905-6.162 12.62-1.552-.28-1.438-.311-2.603-1.411-1.8-5.502-4.037-7.425-8.018-11.371 4.25-4.281 5.231-4.764 10.8-2.18"/><path fill="#4b3834" d="M490.04 278.847c1.826-.97 4.122-1.917 6.042-2.769l-.059 5.111c-1.757 1.033-4.622-1.268-5.983-2.342"/><path fill="#ad8166" d="M528.761 283.091c1.521 7.133-6.083 15.085-8.162 22.456-4.115.043-9.597-1.116-13.599-1.969 9.326-6.842 14.38-11.89 21.761-20.487"/><path fill="#bf946f" d="m496.632 265.78 2.284 5.926c.178 8.035-.045 12.403-2.267 20.199-2.135.925-3.678 1.665-5.949 2.257l-.839-.353c3.757-5.715 4.455-5.514 6.162-12.62l.059-5.111-.013-2.421c.342-1.833.451-5.863.563-7.877"/><path fill="#dea055" d="m550.121 289.593 27.673 10.656c22.144 8.687 28.761 13.328 38.574 35.247a789 789 0 0 0 5.201 11.668c3.365 6.951 7.209 17.456 10.216 24.851.434.849 1.006 2.068 1.474 2.854-1.175 2.594-2.257 5.161-3.771 7.577-6.537-24.867-19.944-53.641-39.734-70.69-6.134-5.284-36.106-14.956-39.481-19.136z"/><path fill="#af671b" d="M487.258 292.398c1.165 1.1 1.051 1.131 2.603 1.411l.839.353c5.21 4.669 9.848 5.551 14.134 8.976-5.376 2.778-11.587 3.939-17.63 3.322-6.387-.651-11.307-3.889-17.671-3.7 5.227-1.872 13.859-6.257 17.725-10.362"/><path fill="#af671b" d="M587.343 368.667c1.623 7.718 2.662 17.265 1.453 25.064-2.786 17.957-14.851 34.702-12.174 53.351 1.14 7.939 4.025 14.546 7.516 21.719l-5.853 2.698c-10.162-10.165-15.81-13.998-28.487-20.448 4.515 7.52 9.399 14.783 13.251 22.67-2.595 2.182-3.494 2.783-6.41 4.482-2.268-.902-5.065-1.925-7.219-2.977-2.042-7.689-4.999-17.793-4.974-25.664-7.936-10.408-9.957-20.952-17.227-30.046l-.653.345c-1.309.705-3.168 1.679-4.105 2.789-2.905 3.439-7.594 12.744-13.135 11.219-2.801-3.053-.708-6.316-4.741-6.313-3.512.002-7.998 1.173-11.391 2.072-2.491-1.323-5.07-2.646-7.508-4.051 18.491-7.492 38.142-10.066 55.066-18.533-15.482-.528-30.748.191-46.159-.435-7.429-.301-20.059-2.216-25.244-8.195 19.101 6.743 31.273 1.524 50.642.547 12.765-.643 25.687 2.929 38.651 1.684 20.61-1.978 25.184-14.232 28.701-31.978"/><path fill="#16595e" d="M584.907 426.193c1.15-1.554 1.59-2.536 3.407-3.107 2.504.148 3.547 1.733 5.258 3.589 7.451 17.227 16.178 35.911 35.844 41.091-7.996 22.44-16.934 48.179-26.34 70.098-2.347-4.66-5.095-15.199-6.512-20.567l2.333-5.203c-6.403-17.174-1.102-18.331-3.73-34.132-3.048-18.329-15.569-31.58-10.26-51.769"/><path fill="#dea055" d="M402.721 399.015c6.556-24.584 12.592-58.234 27.129-79.909 6.7-9.99 28.838-17.575 39.994-21.036 4.7-1.457 12.499-5.06 17.414-5.672-3.866 4.105-12.498 8.49-17.725 10.362-2.861.721-4.956 2.074-7.408 2.853-11.419 3.626-16.324 7.016-25.34 14.693-16.306 24.566-23.724 57.316-30.102 85.786-2.066 9.796-3.073 19.866-5.722 29.53-2.097 7.651-7.235 14.037-10.092 21.323-5.327 13.585-5.513 28.321-9.663 42.144-1.451 4.833-2.927 9.655-3.539 14.676-1.059 6.905-.145 11.175 1.622 17.872.852 2.679.966 3.594 1.288 6.409a627 627 0 0 1-1.238 18.533l-.426.134c-1.704-1.315-2.337-2.301-3.684-4.012.191-3.981.518-9.143-.11-13.044-1.014-6.298-2.912-12.342-3.751-18.732l-.096-.759c.353-.743 1.107-2.947 1.428-3.817l1.169-3.761c.123-3.889.294-6.35.802-10.201 1.17-2.534 2.176-6.976 2.811-9.705 3.648-9.396 3.612-18.167 6.195-26.774 5.073-16.908 10.753-34.334 16.256-51.109l.884-5.158z"/><path fill="#af671b" d="M588.701 343.666c11.045 20.488 20.938 37.655 32.922 57.555-1.741 5.007-3.231 8.728-5.306 13.556 3.485 1.15 7.718 2.428 11.025 3.841-5.316 5.368-7.901 5.203-14.079 13.05-4.187-9.432-7.969-20.48-10.921-30.304-3.878-12.9-6.252-41.49-17.015-50.016-.875-3.234 1.397-5.323 3.374-7.682"/><path fill="#af671b" d="M633.469 420.789c8.823 2.573 20.285 7.226 29.436 10.276-6.332 3.877-31.95 11.99-39.428 7.185-5.753-3.697 6.788-14.47 9.992-17.461"/><path fill="#835941" d="M379.289 531.637c8.426-.012 13.884.632 22.581-.156l-1.601 9.503c-7.022-1.751-12.532-2.321-19.692-2.938-.322-2.815-.436-3.73-1.288-6.409"/><path fill="#6e4533" d="M589.694 410.176c2.236 5.405 4.779 10.529 3.878 16.499-1.711-1.856-2.754-3.441-5.258-3.589-1.817.571-2.257 1.553-3.407 3.107-.991-5.934 2.12-10.843 4.787-16.017"/><path fill="#835941" d="M668.683 453.014c2.136-4.752 10.985-12.587 16.228-11.147l-.522 1.275c-3.238 1.649-6.74 4.719-9.465 7.142l-3.432 2.27z"/><path fill="#a27057" d="M436.342 483.535c-.63 3.125-.999 6.275-1.648 9.474-1.203 2.493-2.228 4.677-3.299 7.239-4.015-7.181.466-11.338 4.947-16.713"/><path fill="#835941" d="M579.395 521.307c4.313-.715 8.112-1.41 12.441-.327-3.328 1.576-6.283 2.923-9.69 4.311-.576-1.436-1.771-2.743-2.751-3.984"/><path fill="#af671b" d="M403.437 553.463c.711-2.064 1.149-4.082 2.62-5.605 2.015-.668 1.385-.462 3.755.076-.379 2.232-.673 3.967-1.241 6.18-2.163-.531-2.872-.536-5.134-.651"/><path fill="#d38131" d="M403.437 553.463c2.262.115 2.971.12 5.134.651-1.233 2.181-1.324 2.535-3.156 4.145-1.736-1.986-1.936-2.288-1.978-4.796"/><path fill="#af671b" d="M562.484 480.797c1.245.444 10.119 8.376 12.208 9.955-7.929 11.194-18.369 10.943-31.702 13.35l-2.525-.23c.796-1.031 16.868-3.885 19.687-4.575-2.497-2.668-8.793-6.767-9.59-10.338-.509-2.282 10.429-4.964 11.502-7.697z"/><path fill="#af671b" d="M521.456 430.463c1.019-.063 2.934-.139 3.821.181 6.356 2.295 18.005 19.044 16.09 25.273-1.475 1.219-.601.768-2.966.84-3.408-4.759-7.481-11.26-12.587-14.309-2.994-1.789-8.151-2.068-9.406-5.926.364-2.871 2.795-4.274 5.048-6.059"/><path fill="#b1e0dd" d="M447.568 432.411c5.688 8.766-3.217 29.944-7.15 38.394-.397.423-.124.219-.923.44-.686-4.654 5.932-34.155 8.073-38.834"/><defs><linearGradient id="i" x1="515.43" x2="621.737" y1="728.195" y2="683.748" gradientUnits="userSpaceOnUse"><stop offset="0" stop-color="#866248"/><stop offset="1" stop-color="#a08056"/></linearGradient></defs><path fill="url(#i)" d="M596.564 517.297c1.417 5.368 4.165 15.907 6.512 20.567 1.107 5.025 2.629 12.476 4.34 17.182 2.548 19.264 5.763 38.357 7.94 57.682.583 5.176.028 19.254 1.473 23.122q.3 16.016.387 32.036c-.073 16.221-.119 34.412 1.558 50.573 1.235 11.895 6.467 26.348 8.125 38.52 3.456 25.378 6.024 51.559 8.298 77.099 1.363 15.307 4.875 35.897 4.944 50.398-.421 4.64-1.429 4.264-5.713 5.935-4.751 2.605-7.473 5.498-12.471 6.508-9.456 1.041-19.803.031-29.026-2.228-2.966-1.015-6.603-1.425-9.736-1.908-1.496-6.583-2.852-13.296-4.179-19.917-13.941-69.564-25.608-139.68-44.173-208.224-5.5-20.306-8.762-40.333-17.27-59.745-5.39 27.132-8.34 53.988-14.063 81.217-5.883-5.865 4.578-77.252 4.522-91.885-11.587-12.141-26.408-18.933-38.918-30.205-2.729 8.648-3.339 13.78-4.644 22.722-5.608-6.892 2.016-40.109 4.238-49.294-5.003-1.509-7.484-2.971-12.309-1.234 1.618-1.34 2.933-2.536 5.191-2.04 10.936 2.401 22.133 4.019 33.381 4.24 4.973-.498 13.204-.471 18.262-.069 12.085.231 34.445-4.164 46.047-6.847 6.308-1.379 16.992-4.155 22.866-6.211 3.407-1.388 6.362-2.735 9.69-4.311 2.363-1.22 2.768-1.783 4.728-3.683"/><path fill="#bf946f" d="M596.564 517.297c1.417 5.368 4.165 15.907 6.512 20.567 1.107 5.025 2.629 12.476 4.34 17.182 2.548 19.264 5.763 38.357 7.94 57.682.583 5.176.028 19.254 1.473 23.122q.3 16.016.387 32.036c-.073 16.221-.119 34.412 1.558 50.573 1.235 11.895 6.467 26.348 8.125 38.52 3.456 25.378 6.024 51.559 8.298 77.099 1.363 15.307 4.875 35.897 4.944 50.398-.421 4.64-1.429 4.264-5.713 5.935-4.751 2.605-7.473 5.498-12.471 6.508-2.956-3.179-1.41-8.41.661-11.623-.025-2.041-1.106-7.515-1.459-9.8-1.521-9.867-3.773-19.569-5.832-29.327a2094 2094 0 0 1-11.568-59.289c-11.402-63.506-16.598-127.255-27.79-190.763-2.592-14.709-4.921-18.473-10.4-31.68-3.046-7.342-4.814-24.411-6.289-32.935 6.308-1.379 16.992-4.155 22.866-6.211 3.407-1.388 6.362-2.735 9.69-4.311 2.363-1.22 2.768-1.783 4.728-3.683"/><path fill="#a27057" d="M622.618 885.296c.226 2.269-.088 2.94 1.023 4.547 4.493.517 6.972-6.264 16.5-5.367-.421 4.64-1.429 4.264-5.713 5.935-4.751 2.605-7.473 5.498-12.471 6.508-2.956-3.179-1.41-8.41.661-11.623"/><path fill="#835941" d="M494.971 538.418c4.973-.498 13.204-.471 18.262-.069q-1.985.132-3.962.341c.162 3.12.933 6.051 1.265 9.188.687 6.48 1.372 12.895 2.221 19.357l-5.715-7.227-1.116-21.545c-3.585-.074-7.325.001-10.955-.045"/><path fill="#bf946f" d="M436.009 520.55c1.678 2.625 2.423 3.257 4.609 5.338-1.429 5.966-7.677 34.296-9.968 38.212q.585-.046 1.167-.118c7.468-1.007 19.642-21.475 24.582-27.764 4.825-1.737 7.306-.275 12.309 1.234-2.222 9.185-9.846 42.402-4.238 49.294 1.305-8.942 1.915-14.074 4.644-22.722 12.51 11.272 27.331 18.064 38.918 30.205.056 14.633-10.405 86.02-4.522 91.885-10.97 67.06-16.619 135.314-25.939 202.64-.396 2.861-3.364 3.861-5.86 3.984-2.704.752-8.991 2.646-11.46 2.776a155 155 0 0 1-10.859 1.793c-10.842 2.353-15.414-3.187-25.006-5.286-1.839-1.713-2.358-2.621-3.768-4.685-.365-4.63.163-20.734.833-25.121-1.282-9.791-.411-24.156-.616-34.394-.434-21.609-1.317-43.386.969-64.908 1.656-15.597 4.934-30.784 5.557-46.565.699-17.699-2.543-34.779-3.374-52.28-.361-7.608-.027-16.373-.228-24.22-.729-28.441-.604-56.547 4.137-84.687 2.028-12.032 5.77-22.853 8.113-34.611"/><path fill="#835941" d="M436.009 520.55c1.678 2.625 2.423 3.257 4.609 5.338-1.429 5.966-7.677 34.296-9.968 38.212q.585-.046 1.167-.118c7.468-1.007 19.642-21.475 24.582-27.764 4.825-1.737 7.306-.275 12.309 1.234-2.222 9.185-9.846 42.402-4.238 49.294.179 6.761-2.434 24.51-3.318 31.647a862 862 0 0 0-4.919 48.728c-3.324 46.767-5.218 94.794-7.911 141.716a1159 1159 0 0 1-4.193 55.504c-.564 5.318-1.707 17.068-2.91 22.18-.767 8.176 2.882 6.96 8.173 10.786-10.842 2.353-15.414-3.187-25.006-5.286-1.839-1.713-2.358-2.621-3.768-4.685-.365-4.63.163-20.734.833-25.121-1.282-9.791-.411-24.156-.616-34.394-.434-21.609-1.317-43.386.969-64.908 1.656-15.597 4.934-30.784 5.557-46.565.699-17.699-2.543-34.779-3.374-52.28-.361-7.608-.027-16.373-.228-24.22-.729-28.441-.604-56.547 4.137-84.687 2.028-12.032 5.77-22.853 8.113-34.611"/><path fill="#bf946f" d="M436.009 520.55c1.678 2.625 2.423 3.257 4.609 5.338-1.429 5.966-7.677 34.296-9.968 38.212-2.826 6.022-.931 15.846-1.094 22.796-.618 26.404-.244 52.653 1.542 79.021a663 663 0 0 0 2.259 27.036c.901 8.738 2.157 18.849 2.104 27.582-.113 18.448-5.925 36.652-8.445 54.755-2.922 20.987-2.723 42.743-3.234 63.901-.109 4.48.107 19.949-2.331 23.024-1.282-9.791-.411-24.156-.616-34.394-.434-21.609-1.317-43.386.969-64.908 1.656-15.597 4.934-30.784 5.557-46.565.699-17.699-2.543-34.779-3.374-52.28-.361-7.608-.027-16.373-.228-24.22-.729-28.441-.604-56.547 4.137-84.687 2.028-12.032 5.77-22.853 8.113-34.611"/><path fill="#a27057" d="M449.392 897.307c-5.291-3.826-8.94-2.61-8.173-10.786 7.973 7.398 15.25 6.213 19.032 8.993a155 155 0 0 1-10.859 1.793"/><path fill="#1d1919" d="M504.074 149.326c8.622-13.08 18.278-21.914 33.74-12.003 3.734-.06 7.504-.474 11.177-.131 3.783-.331 6.128-1.081 8.165 2.959 2.572 5.101 13.148 7.181 18.361 7.497 6.441 2.197 9.717 7.435 3.01 11.856.833 2.808 2.638 4.428 5.052 5.884 2.255 1.361 8.346 2.915 8.959 5.551.448 1.93.543 3.453 1.308 5.559l.788.128c1.378-1.23 1.593-1.48 2.748-2.934-.181 3.217-.616 8.273-.218 11.281 3.816 5.241 9.73 12.754 8.139 19.76-.434 1.911-2.127 4.19-3.245 5.839.384 2.077.893 4.476 1.192 6.535l.4 4.064.498 2.825c1.365 10.745 2.789 15.006-5.463 23.143l-3.271 2.641c-3.122 2.933-6 5.685-9.361 8.369-1.909 1.899-2.657 2.419-3.78 4.86.291 5.467 7.255 2.142-2.264 10.995-5.474-.252-8.559-.361-13.85-1.894-6.029 7.798-7.808 8.872-17.275 11.787-1.183 1.132-1.096 1.078-1.767 2.591l-.613.605c-1.529-.276-2.586-1.572-3.798-2.683-.222-2.164-.21-4.469-.252-6.654l-.04-.38c.211-2.609-.128-8.618-.209-11.465-5.514 2.832-10.546 8.758-15.987 9.876-12.541 2.578-20.983-4.994-30.356-10.684.054 2.696.043 5.907.207 8.554l.013 2.421c-1.92.852-4.216 1.799-6.042 2.769-5.569-2.584-6.55-2.101-10.8 2.18-3.182-3.333-5.067-4.802-9.072-6.906-.839-.616-2.171-1.279-3.117-1.799l.088-1.612c-2.138-1.311-3.522-1.182-5.961-1.545l-2.722-.153c-1.543-1.343-3.169-3.385-4.99-3.804-6.762-4.215-1.137-10.535-12.25-13.751l-1.07-2.467c-.193-1.271-.636-3.09-.916-4.394-3.054-2.428-3.623-3.297-5.246-6.85-9.249-3.285-9.157-9.804-4.385-17.147l.163-.385c1.519-3.508 1.933-5.417 2.862-9.145.561-3.318 1.913-6.269 2.521-9.812-1.481-2.985-1.959-4.04-2.969-7.28-1.586-14.466 10.007-11.94 13.778-22.265l.239-1.985c.611-4.141-.586-6.906 2.419-11.349 2.436-3.601 10.788-4.303 15.184-5.087 12.502-11.534 23.532-7.73 37.684-1.836z"/><defs><linearGradient id="j" x1="483.839" x2="553.433" y1="230.608" y2="231.715" gradientUnits="userSpaceOnUse"><stop offset="0" stop-color="#926451"/><stop offset="1" stop-color="#b38a6f"/></linearGradient></defs><path fill="url(#j)" d="M501.524 184.179c5.445-5.54 19.215-4.679 26.577-3.733 2.044.149 2.409.068 4.188.952l3.147 3.651 6.525 1.945c5.752 3.421 9.386 11.429 10.958 17.741a53.8 53.8 0 0 1 1.637 13.008c-.05 6.638-.163 11.97-.711 18.571-.571 2.134-.57 3.345-.716 5.574-1.417 11.787-2.893 15.284-10.924 24.023-5.514 2.832-10.546 8.758-15.987 9.876-12.541 2.578-20.983-4.994-30.356-10.684-7.121-8.723-8.081-11.808-10.098-22.923.068-3.154.105-3.976-.535-7.148-.321-.713-.694-2.132-.936-2.935-1.121-6.231-1.086-13.649.29-19.838 1.314-5.904 3.932-17.588 8.335-21.837 1.496-1.444 6.645-4.906 8.606-6.243"/><path fill="#bf946f" d="m532.289 181.398 3.147 3.651 6.525 1.945c.306 7.377 8.321 19.306 7.732 23.927-1.922-.08-4.978-1.588-8.191-1.947l-5.199.965-3.201.475c-2.419.565-3.92.745-6.053 2.042l-1.04-3.062c-.205 2.95-3.057 4.556-3.481 7.27-1.058 6.766.892 13.343 1.152 20.22l-.496.174c-1.973.784-1.866.815-3.945.589-1.569-.813-1.459-.748-2.277-2.326 1.236-3.526 1.677-8.846.509-12.462.535-5.873-.396-9.067-4.634-13.255.61-1.094.479-.66.623-1.922-4.647-1.959-5.219-3.334-6.949-7.512a39 39 0 0 1 1.761-4.993c4.961-11.486 14.829-9.924 24.017-13.779"/><path fill="#68514c" d="M526.009 209.394c3.592-2.2 7.108-2.556 11.206-3.178 2.71.643 2.25.227 4.287 2.758l-5.199.965-3.201.475c-2.419.565-3.92.745-6.053 2.042z"/><path fill="#835941" d="M537.215 206.216c6.265-.555 7.952.286 12.478 4.705-1.922-.08-4.978-1.588-8.191-1.947-2.037-2.531-1.577-2.115-4.287-2.758"/><path fill="#cbb8a0" d="M516.962 235.321c1.827-.349 4.087-1.081 5.668-.354.453 1.028.451.978.554 2.091-1.973.784-1.866.815-3.945.589-1.569-.813-1.459-.748-2.277-2.326"/><path fill="#ad8166" d="M501.524 184.179c5.445-5.54 19.215-4.679 26.577-3.733 2.044.149 2.409.068 4.188.952-9.188 3.855-19.056 2.293-24.017 13.779a39 39 0 0 0-1.761 4.993c1.73 4.178 2.302 5.553 6.949 7.512-.144 1.262-.013.828-.623 1.922-2.824-1.599-3.184-1.934-6.417-2.445l-3.01-.666c-5.505.423-6.025-.5-10.766 1.76-.3-5.589.228-8.586 1.27-14.126 2.696-3.206 6.92-5.829 7.61-9.948"/><path fill="#a27057" d="M501.524 184.179c5.445-5.54 19.215-4.679 26.577-3.733l-4.817.194c-12.333.589-20.378 9.321-25.38 19.661 1.463 1.629 4.252 4.567 5.506 6.192-5.505.423-6.025-.5-10.766 1.76-.3-5.589.228-8.586 1.27-14.126 2.696-3.206 6.92-5.829 7.61-9.948"/><path fill="#835941" d="M506.42 207.159c3.233.511 3.593.846 6.417 2.445 4.238 4.188 5.169 7.382 4.634 13.255 1.168 3.616.727 8.936-.509 12.462.818 1.578.708 1.513 2.277 2.326 2.079.226 1.972.195 3.945-.589l.496-.174c.271.123 2.711 1.218 2.863 1.215 1.889-.037 3.27-1.506 4.418-.18l-.351 1.674-.431-.099.111-1.145c-3.115.505-6.119.896-8.894 2.405-4.678 1.275-5.893-1.693-8.695-.461l-.023.899-1.06 2.295-2.438-2.66c-.403-4.607 1.52-6.787 3.884-10.853.022-2.195.195-4.828-.299-6.913-1.606-1.095-2.338-.569-3.717-1.772-5.594-2.383-2.386.741-7.017 1.571-2.925-1.411-1.226-1.608-3.8-3.653-1.968.549-1.387.44-2.956 2.362-1.768.437-1.389.212-3.446-.498-.959-1.648-.783-.811-.796-2.532 1.135-2.052 3.477-3.586 5.398-5.309 3.388-.475 5.451-.743 8.197-2.784 1.71.717 1.869.856 3.756 1.137l.622-.54c-.331-1.79-1.323-2.529-2.586-3.884"/><path fill="#68514c" d="M491.829 221.071c2.82-3.39 17.167-10.096 18.736-3.153-.532 1.725-.656 1.86-1.517 3.371-5.594-2.383-2.386.741-7.017 1.571-2.925-1.411-1.226-1.608-3.8-3.653-1.968.549-1.387.44-2.956 2.362-1.768.437-1.389.212-3.446-.498"/><path fill="#ad8166" d="M517.471 222.859c1.168 3.616.727 8.936-.509 12.462.818 1.578.708 1.513 2.277 2.326 2.079.226 1.972.195 3.945-.589l.496-.174c.271.123 2.711 1.218 2.863 1.215 1.889-.037 3.27-1.506 4.418-.18l-.351 1.674-.431-.099.111-1.145c-3.115.505-6.119.896-8.894 2.405-1.211-.489-3.736-1.417-4.521-2.399-2.653-3.321-.004-11.046.596-15.496"/><defs><linearGradient id="k" x1="510.29" x2="525.67" y1="235.903" y2="256.382" gradientUnits="userSpaceOnUse"><stop offset="0" stop-color="#a1745b"/><stop offset="1" stop-color="#c99c79"/></linearGradient></defs><path fill="url(#k)" d="M521.396 240.754c2.775-1.509 5.779-1.9 8.894-2.405l-.111 1.145.431.099-.729 1.609c1.67 3.095 6.053 4.206 6.779 9.04-2.728.35-4.014.479-6.66-.162l-.396.969c-8.854.475-12.857 1.328-22.268-.107-1.007-.172-3.172-1.163-4.232-1.606-.341-3.552 2.507-2.767 3.081-6.852-.956-1.35-.798-.762-.983-2.273 1.252-.947 2.052-1.978 3.214-1.868.103 1.956-.273 1.208.764 2.484l2.438 2.66 1.06-2.295.023-.899c2.802-1.232 4.017 1.736 8.695.461"/><path fill="#835941" d="M515.596 247.936c6.533 2.498 7.579-1.017 14.404 2.144l-.396.969c-8.854.475-12.857 1.328-22.268-.107 2.731-.754 5.598-1.969 8.26-3.006"/><path fill="#6e4533" d="M521.396 240.754c2.775-1.509 5.779-1.9 8.894-2.405l-.111 1.145c-1.045 1.362-9.149 4.6-10.129 4.528-2.705-1.921-4.123-2.363-7.372-2.83l.023-.899c2.802-1.232 4.017 1.736 8.695.461"/><path fill="#a27057" d="M512.678 241.192c3.249.467 4.667.909 7.372 2.83-3.472.862-5.231.889-8.432-.535z"/><path fill="#a27057" d="M539.529 217.392c2.733.41 4.699.467 6.636 2.444l.062 1.118-.938.214c-1.392.984-4.348 2.556-4.932 3.575.796.6 1.563 1.172 2.214 1.93-3.979 1.708-11.25.712-13.39-3.396l-.038-1.079.885-.343 3.321-2.435-.345-1.171c2.889-.801 3.506-.814 6.525-.857"/><path fill="#4b3834" d="M539.529 217.392c2.733.41 4.699.467 6.636 2.444l.062 1.118-.938.214c-5.936-3.277-4.018-.079-8.756 1.303-1.621-.596-2.133-1.641-3.184-3.051l-.345-1.171c2.889-.801 3.506-.814 6.525-.857"/><path fill="#bf946f" d="M517.167 263.239c3.096.041 6.184.174 9.254-.194l.078.727c2.233 1.649 3.043 3.556 1.587 6.071-2.974 1.922-5.857 1.887-9.274 1.946-4.149-2.77-5.941-4.8-1.645-8.55"/><path fill="#6e4533" d="M503.104 249.336c1.06.443 3.225 1.434 4.232 1.606 9.411 1.435 13.414.582 22.268.107l.396-.969c2.646.641 3.932.512 6.66.162l.65-.347c-.734 1.502-7.605 3.887-7.843 8.425l.843 2.053c-1.309 1.366-2.464 1.33-3.889 2.672-3.07.368-6.158.235-9.254.194 2.939-1.761 5.972.334 9.48-1.305l.132-.635c-1.568-.911-.715-.68-2.699-.481l.721-.997-.162-.899c-1.595-.777-3.996-.459-5.86-.399 8.66-2.008 5.721 2.447 13.417-5.469-5.07.476-27.597 2.839-29.092-3.718"/><path fill="#68514c" d="M527.049 212.456c2.133-1.297 3.634-1.477 6.053-2.042l.944 1.507c2.001.731 2.293.449 3.323 1.851-.243 1.416-.298 1.477-.333 2.926 1.078.402 1.361.47 2.493.694-3.019.043-3.636.056-6.525.857l.345 1.171-3.321 2.435-.885.343c-1.937-1.201-2.838-1.506-3.932-3.398-.275-2.117.992-4.13 1.838-6.344"/><path fill="#835941" d="M527.049 212.456c2.133-1.297 3.634-1.477 6.053-2.042l.944 1.507c-3.113 1.269-5.103 2.01-6.978 4.976-.139 1.848-.391 1.052.748 2.479l1.657.483.555 1.996-.885.343c-1.937-1.201-2.838-1.506-3.932-3.398-.275-2.117.992-4.13 1.838-6.344"/><path fill="#6e4533" d="M529.473 219.859c.352-2.082.46-2.4 1.256-4.375l.819-.48-.001-.064.992.923c-.002.989.134 1.456.465 2.386l.345 1.171-3.321 2.435z"/><path fill="#68514c" d="m503.41 206.493 3.01.666c1.263 1.355 2.255 2.094 2.586 3.884l-.622.54c-1.887-.281-2.046-.42-3.756-1.137-2.326-.682-4.864-1.024-7.258-.546l-6.76 1.32-.547-.409c.494-1.352 1.37-1.727 2.581-2.558 4.741-2.26 5.261-1.337 10.766-1.76"/><path fill="#a27057" d="m533.102 210.414 3.201-.475c2.539 3.083 11.009 4.823 12.004 9.543-.843 1.46-.235.909-2.08 1.472l-.062-1.118c-1.937-1.977-3.903-2.034-6.636-2.444-1.132-.224-1.415-.292-2.493-.694.035-1.449.09-1.51.333-2.926-1.03-1.402-1.322-1.12-3.323-1.851z"/><path fill="#835941" d="M518.779 258.523c1.864-.06 4.265-.378 5.86.399l.162.899-.721.997c-2.32.667-6.068 1.102-7.822-.859 1.035-1.309.554-.735 2.521-1.436"/><path fill="#bf946f" d="M490.797 223.639c3.754 1.885 6.616 3.203 10.503 4.782 2.865-.869 6.021-2.003 8.89-2.961-1.492 3.069-2.176 4.702-3.28 7.928-2.146 8.698-8.236 4.094-13.192.642-2.228-4.334-3.157-5.462-2.921-10.391"/><path fill="#4b3834" d="M504.074 149.326c8.622-13.08 18.278-21.914 33.74-12.003 3.734-.06 7.504-.474 11.177-.131 3.783-.331 6.128-1.081 8.165 2.959 2.572 5.101 13.148 7.181 18.361 7.497 6.441 2.197 9.717 7.435 3.01 11.856.833 2.808 2.638 4.428 5.052 5.884 2.255 1.361 8.346 2.915 8.959 5.551.448 1.93.543 3.453 1.308 5.559l.788.128c1.378-1.23 1.593-1.48 2.748-2.934-.181 3.217-.616 8.273-.218 11.281 3.816 5.241 9.73 12.754 8.139 19.76-.434 1.911-2.127 4.19-3.245 5.839.384 2.077.893 4.476 1.192 6.535l.4 4.064.498 2.825c1.365 10.745 2.789 15.006-5.463 23.143l-2.21-4.566c.443-4.457-5.04-8.567-5.302-12.988-.12-2.015 2.908-8.273 2.079-10.027-1.26-2.668-6.744-4.456-9.007-7.121-2.318-2.729-3-4.58-4.399-7.731 3.519-9.044 2.502-11.815-5.58-16.913 1.587-3.685 3.718-7.852 5.477-11.509-3.557-2.64-10.207-7.14-12.877-10.244l-1.163-6.528-4.731 5.013c-7.335-2.507-12.122-2.583-19.786-2.508-2.652 2.9-10.431 14.397-14.484 11.234-1.051-3.35.459-6.326 1.591-9.759-4.121 1.398-8.385 2.71-12.538 4.041 1.642-2.876 3.448-5.514 5.286-8.265-3.955 2.03-6.376 2.977-10.578 4.523 3.02-6.121 4.748-8.626 8.905-14.131-5.026 2.455-6.739 3.13-12.115 4.746l-3.668 3.959c-.286 5.76.487 14.396.426 20.921-9.302 4.315-11.244 5.706-21.712 5.82-1.969 1.941-5.849 6.626-8.261 3.6-.578-4.902 3.588-10.839 6.138-15.079l8.252-1.869a257 257 0 0 1-20.206-2.49c-2.553-1.777-5.29-2.347-6.87-4.409-.647 3.797-10.644 4.399-13.979 4.541l-1.18.327c.611-4.141-.586-6.906 2.419-11.349 2.436-3.601 10.788-4.303 15.184-5.087 12.502-11.534 23.532-7.73 37.684-1.836z"/><path fill="#835941" d="M463.796 153.291c12.502-11.534 23.532-7.73 37.684-1.836l-1.922 5.556c-10.531-3.988-14.154-5.079-25.822-4.945l-2.118 5.724c-2.245-.407-4.517-.8-6.754-1.234l-2.845 3.731-8.381.233c-2.579 2.895-4.182 5.607-6.265 8.88l-1.18.327c.611-4.141-.586-6.906 2.419-11.349 2.436-3.601 10.788-4.303 15.184-5.087"/><path fill="#68514c" d="M504.074 149.326c8.622-13.08 18.278-21.914 33.74-12.003-4.727 2.212-10.326 1.93-15.573 2.058-5.68 3.853-11.524 9.149-18.167 9.945"/><path fill="#835941" d="M588.937 182.049c3.045 1.775 4.732 3.03 8.227 2.924 3.816 5.241 9.73 12.754 8.139 19.76-.434 1.911-2.127 4.19-3.245 5.839-2.319-1.821-1.363-7.503-.999-10.099-4.574-7.345-7.688-9.508-12.122-18.424"/><path fill="#68514c" d="M548.991 137.192c3.783-.331 6.128-1.081 8.165 2.959 2.572 5.101 13.148 7.181 18.361 7.497l-.098 1.244c-5.323.212-11.348.849-16.466-.658-3.387-.998-11.568-7.186-9.962-11.042"/><path fill="#835941" d="M604.148 223.996c1.365 10.745 2.789 15.006-5.463 23.143l-2.21-4.566c1.598-2.559 3.989-5.106 6.001-7.403-1.266-1.747-2.508-3.902-3.646-5.766 2.486-2.148 3.226-2.806 5.318-5.408"/><path fill="#1d1919" d="M461.352 164.859c5.175-7.727 19.724-7.264 27.358-3.254-8.431-.619-19.061-4.137-20.488 7.663-2.553-1.777-5.29-2.347-6.87-4.409"/><path fill="#a27057" d="M575.517 147.648c6.441 2.197 9.717 7.435 3.01 11.856-1.897-3.721 1.377-5.732-3.108-10.612z"/><path fill="#68514c" d="M603.65 221.171c-2.924-.777-4.496-1.298-6.518-3.582l.258-.775c2.194-.889 3.594-.168 5.86.293z"/><path fill="#1d1919" d="m549.372 150.286.456-.067.377.345c-2.824.938-11.262 2.347-15.053 3.21l-.78-.077.555-.667c5.112-1.573 9.108-2.501 14.445-2.744"/><path fill="#4b3834" d="m596.206 196.898.64.908c.139 1.951-.665 3.143-1.503 4.947l-.606-.55c-.492-1.975.505-3.637 1.469-5.305"/><path fill="#4b3834" d="M435.407 201.4a878 878 0 0 0 12.592-4.047c.92 2.362 2.567 5.805 2.505 8.174-1.203 2.206-4.917 3.843-6.745 5.684-2.819 2.841-2.661 3.921-6.14 6.385-1.414-2.12-2.103-2.987-3.813-4.879l-1.182-1.648c.561-3.318 1.913-6.269 2.521-9.812z"/><path fill="#835941" d="m435.145 201.257.262.143c2.086 4.962.345 6.623-1.601 11.317l-1.182-1.648c.561-3.318 1.913-6.269 2.521-9.812"/><path fill="#4b3834" d="M564.284 210.034c2.493-2.606 3.566-3.781 6.47-5.94 3.15 6.797 8.93 10.654 10.98 16.91-2.879 2.224-2.459 3.27-3.975 4.973-7.17-3.886-9.69-9.178-13.475-15.943"/><path fill="#835941" d="m429.599 220.599.163-.385c1.519-3.508 1.933-5.417 2.862-9.145l1.182 1.648c1.71 1.892 2.399 2.759 3.813 4.879-.345 4.455-1.067 5.14-4.529 8.216l3.564 3.457c-.834 2.579-2 5.908-2.67 8.477-9.249-3.285-9.157-9.804-4.385-17.147"/><path fill="#4b3834" d="M581.734 221.004c1.648 6.339 2.554 10.182 2.525 16.761-.014 3-.859 7.503-.379 9.751l-5.762.211c.236-3.236.529-5.629.089-8.855-1.252-2.396-1.719-2.679-3.852-4.393l3.404-8.502c1.516-1.703 1.096-2.749 3.975-4.973"/><path fill="#68514c" d="M445.954 171.712c2.425 2.648 1.745 1.27 5.049 1.354-1.784 2.398-16.888 19.757-18.827 20.911-1.586-14.466 10.007-11.94 13.778-22.265"/><path fill="#302d2d" d="M578.207 238.872c.44 3.226.147 5.619-.089 8.855l5.762-.211c3.58 1.353 4.656 1.96 7.759-.724 2.492.269 1.966 1.192 3.775 2.988-3.122 2.933-6 5.685-9.361 8.369-1.167-2.501-4.212-4.257-6.61-6.437-2-5.42-1.697-7.09-1.236-12.84"/><path fill="#4b3834" d="m461.178 269.165 1.006-.568c.959-4.308.806-9.182 3.254-12.922 1.445-.872.684-.723 2.362-.445 2.169 1.567 2.881 2.701 4.257 5.059-1.08 3.686-2.127 7.591-4.918 10.421-2.138-1.311-3.522-1.182-5.961-1.545"/><path fill="#302d2d" d="M440.877 242.008c.724-6.843 4.023-9.727 8.673-14.437.17 6.11.938 11.206-4.166 15.558-1.567-.574-2.876-.775-4.507-1.121"/><path fill="#4b3834" d="M554.556 217.743c.627 3.328.513 6.256.517 9.633 1.406-2.215 2.905-4.93 4.788-6.663l.949-.084.474.451c-1.45 2.604-.422 4.73-2.721 8.708-1.101 2.047-2.681 5.724-4.718 6.526.548-6.601.661-11.933.711-18.571"/><path fill="#835941" d="M558.563 229.788c.725.45 2.863 1.718 3.413 2.179-2.398 5.965-2.55 7.677-8.847 9.921.146-2.229.145-3.44.716-5.574 2.037-.802 3.617-4.479 4.718-6.526"/><path fill="#302d2d" d="M447.373 169.4c3.335-.142 13.332-.744 13.979-4.541 1.58 2.062 4.317 2.632 6.87 4.409l-1.073 1.237c-4.614-5.017-11.463-.777-16.146 2.561-3.304-.084-2.624 1.294-5.049-1.354l.239-1.985z"/><path fill="#6e4533" d="M484.293 232.097c.242.803.615 2.222.936 2.935.64 3.172.603 3.994.535 7.148-2.397.362-3.308.259-5.257-1.207l-1.923-4.027c1.305-1.095 1.948-2.018 2.991-3.336l1.364-.68z"/><path fill="#835941" d="M485.229 235.032c.64 3.172.603 3.994.535 7.148-2.397.362-3.308.259-5.257-1.207 1.682-2.419 2.59-3.839 4.722-5.941"/><path fill="#68514c" d="M440.877 242.008c1.631.346 2.94.547 4.507 1.121 1.051 1.846 1.398 2.138 1.358 4.161-1.667 2.375-3.19 1.775-5.995 1.709l-.601-.009c-.193-1.271-.636-3.09-.916-4.394.585-.765 1.137-1.751 1.647-2.588"/><path fill="#4b3834" d="M476.055 229.956c1.355-2.042 1.95-1.836 4.297-2.188 1.51 2.384 1.506 3.131 2.587 5.162l-1.364.68c-1.043 1.318-1.686 2.241-2.991 3.336-.387-.629-1.238-2.733-1.579-3.519z"/><path fill="#4b3834" d="M477.005 233.427c2.11-.561 2.541-.773 4.57.183-1.043 1.318-1.686 2.241-2.991 3.336-.387-.629-1.238-2.733-1.579-3.519"/><path fill="#6e4533" d="M542.454 277.756c3.115 2.119 4.467 4.862 6.43 6.141-1.183 1.132-1.096 1.078-1.767 2.591l-.613.605c-1.529-.276-2.586-1.572-3.798-2.683-.222-2.164-.21-4.469-.252-6.654"/><path fill="#4b3834" d="M475.936 220.114c1.031 1.772 1.263 2.091 2.575 3.673 1.197-.396 1.302-1.264 2.149-2.715.514.785-.586 4.736-.308 6.696-2.347.352-2.942.146-4.297 2.188-.192-3.475-.179-6.354-.119-9.842"/><path fill="#68514c" d="M561.284 221.08c2.009 3.984 1.483 6.49.692 10.887-.55-.461-2.688-1.729-3.413-2.179 2.299-3.978 1.271-6.104 2.721-8.708"/><path fill="#4b3834" d="M557.331 167.136q.535-.036 1.071-.049c4.466-.082 6.821 2.831 9.852 5.804-1.024 2.937-2.08 7.099-2.954 10.174 1.701 3.661 9.955 15.587 4.614 17.864-8.02 3.419-8.215-7.418-9.704-9.97-2.535-.493-4.458-.731-6.295-2.518-1.13-4.203 8.293-5.209 11.172-5.69-3.286-2.137-6.216-3.896-9.818-5.433-3.681.521-8.434 2.009-10.799-1.705-.6-6.033 8.492-7.751 12.861-8.477"/><path fill="#302d2d" d="M465.339 197.814c3.851 1.077 5.629 4.958 7.418 8.168-8.832 8.11-5.566 8.839-11.815 18.437-.596.915-2.602 3.558-3.361 4.599-1.122.722-1.056.654-2.402.75-2.312-1.03-4.07-2.49-3.66-5.336 1.384-9.619 6.701-19.997 13.82-26.618"/><path fill="#302d2d" d="M466.27 177.432c2.372.227 1.948-.163 3.574 1.074 4.547 11.082-6.972 16.908-15.026 21.532-1.718.473-2.128.658-3.507-.208-3.926-9.695 7.981-17.979 14.959-22.398"/><path fill="#302d2d" d="M456.478 235.397c10.658 1.253 3.057 10.59-1.708 14.199a36 36 0 0 1-.663-.048c-10.806-.966-1.959-10.934 2.371-14.151"/><path fill="#1d1919" d="M424.386 892.021c9.592 2.099 14.164 7.639 25.006 5.286q5.462-.704 10.859-1.793c2.469-.13 8.756-2.024 11.46-2.776.901 8.106 3.85 26.176-.589 33.699-2.267 3.841-12.746 6.93-16.618 9.388-8.879 5.689-16.478 13.277-27.594 14.181-10.567.859-41.427 4.042-38.061-14.271 9.415-19.181 27.232-24.834 34.959-41.642z"/><path fill="#835941" d="M423.808 894.093q.381 2.996.898 5.971c-4.576 8.207-24.908 32.048-32.429 36.217a37 37 0 0 1-3.428-.546c9.415-19.181 27.232-24.834 34.959-41.642"/><path fill="#4b3834" d="M437.79 905.88c9.85 5.712 10.316 7.306 21.868 9-11.427 13.852-17.396 20.967-35.001 25.286-6.062.793-15.249 2.298-20.452-1.054-2.444-5.316 13.988-12.126 17.052-15.577 6.614-7.452 7.327-12.502 16.533-17.655"/><path fill="#1d1919" d="m634.428 890.411 1.385 2.621c5.052 5.636 7.978 11.968 12.427 17.944 7.285 9.784 19.36 17.598 20.571 30.517-3.373 12.037-18.234 12.403-28.67 12.793-15.446.577-24.388-8.816-35.115-18.068-4.415-3.808-8.708-4.94-13.515-10.005-.668-12.14-.094-19.634 1.42-31.522 9.223 2.259 19.57 3.269 29.026 2.228 4.998-1.01 7.72-3.903 12.471-6.508"/><path fill="#4b3834" d="M635.813 893.032c5.052 5.636 7.978 11.968 12.427 17.944 7.285 9.784 19.36 17.598 20.571 30.517-3.565-.078-7.025 1.741-10.314 3.216l-.167-.847.085-1.888c-1.798-4.272-19.598-8.335-25.173-11.213-10.41-5.374-12.558-15.904-16.082-26.353 5.792-2.35 15.691-5.796 18.653-11.376"/><path fill="#302d2d" d="m658.33 943.862.167.847c-4.272.858-11.538.397-15.854-.054l.266-.298c5.05-.533 10.327-.456 15.421-.495"/><path fill="#a27057" d="m378.913 556.713.426-.134c.354 2.327-.078 1.757 1.32 3.177 1.057.192 2.109.399 3.172.546l.341.187c1.504-.084 3.5-.137 4.932-.372 3.425-1.271 10.617-1.133 14.281-1.039.852 1.844 4.029 8.647 4.32 10.136 1.29 6.594 9.603 35.747 4.641 39.673-3.953-1.145-7.517-10.522-8.666-14.308-.993-1.872-1.971-3.685-2.882-5.602-2.445 2.305-4.132 3.767-6.102 6.499-1.105 15.95 6.829 17.313 14.542 28.079 2.497 15.471-28.103-1.741-31.39-26.663-5.375-10.871 1.119-29.278 1.065-40.179"/><path fill="#835941" d="m378.913 556.713.426-.134c.354 2.327-.078 1.757 1.32 3.177 1.057.192 2.109.399 3.172.546l.341.187c1.504-.084 3.5-.137 4.932-.372l-.78 6.938c-1.835 8.376-4.566 19.481-4.98 27.746 9.188 10.706 5.944 26.716 25.894 28.754 2.497 15.471-28.103-1.741-31.39-26.663-5.375-10.871 1.119-29.278 1.065-40.179"/><path fill="#bf946f" d="m378.913 556.713.426-.134c.354 2.327-.078 1.757 1.32 3.177 1.057.192 2.109.399 3.172.546-1.646 10.684-.989 26.787-5.983 36.59-5.375-10.871 1.119-29.278 1.065-40.179"/><path fill="#6e4533" d="M384.172 560.489c1.504-.084 3.5-.137 4.932-.372l-.78 6.938c-1.683-.061-2.638-.229-3.864-1.354-.895-1.883-.517-3.032-.288-5.212"/><path fill="#835941" d="M398.561 579.348c3.228 4.598 6.995 9.383 5.119 15.231-.993-1.872-1.971-3.685-2.882-5.602-2.445 2.305-4.132 3.767-6.102 6.499-2.377-4.538 1.812-11.988 3.865-16.128"/></svg>