<svg width="305" height="93" viewBox="0 0 305 93" fill="none" xmlns="http://www.w3.org/2000/svg">
<path d="M0 28.7967C0 19.9601 7.16344 12.7967 16 12.7967H64C72.8366 12.7967 80 19.9601 80 28.7967V76.7967C80 85.6332 72.8366 92.7967 64 92.7967H16C7.16344 92.7967 0 85.6332 0 76.7967V28.7967Z" fill="url(#paint0_linear_4_24)"/>
<path d="M12 31.7967C12 27.9307 15.134 24.7967 19 24.7967H61C64.866 24.7967 68 27.9307 68 31.7967V73.7967C68 77.6627 64.866 80.7967 61 80.7967H19C15.134 80.7967 12 77.6627 12 73.7967V31.7967Z" fill="white"/>
<path d="M68 86.3503C68 87.886 66.341 88.8487 65.0077 88.0868L46.5389 77.5332C44.7581 76.5156 45.4802 73.7967 47.5311 73.7967L66 73.7967C67.1046 73.7967 68 74.6921 68 75.7967L68 86.3503Z" fill="white"/>
<g filter="url(#filter0_d_4_24)">
<path d="M71.5488 9.27033C72.744 7.57656 75.256 7.57656 76.4512 9.27033L89.7151 28.067C91.1174 30.0543 89.6961 32.7967 87.2639 32.7967H60.7361C58.3039 32.7967 56.8826 30.0543 58.2849 28.067L71.5488 9.27033Z" fill="#3996B8"/>
</g>
<path d="M19 43.7967C19 41.5876 20.7909 39.7967 23 39.7967H56C58.2091 39.7967 60 41.5876 60 43.7967V43.7967C60 46.0058 58.2091 47.7967 56 47.7967H23C20.7909 47.7967 19 46.0058 19 43.7967V43.7967Z" fill="#D69E2E"/>
<path d="M19 60.7967C19 58.5876 20.7909 56.7967 23 56.7967H48C50.2091 56.7967 52 58.5876 52 60.7967V60.7967C52 63.0058 50.2091 64.7967 48 64.7967H23C20.7909 64.7967 19 63.0058 19 60.7967V60.7967Z" fill="#D69E2E"/>
<path d="M68 30.7967H80V61.7967H68V30.7967Z" fill="#3996B8"/>
<path d="M94.224 64.7967V40.6527H99.168V45.1647C99.424 44.5247 99.744 43.9167 100.128 43.3407C100.512 42.7327 100.992 42.1887 101.568 41.7087C102.176 41.1967 102.88 40.7967 103.68 40.5087C104.512 40.2207 105.472 40.0767 106.56 40.0767C106.816 40.0767 107.168 40.0927 107.616 40.1247C108.064 40.1567 108.4 40.2047 108.624 40.2687V44.8767C108.144 44.7167 107.536 44.6047 106.8 44.5407C106.064 44.4447 105.392 44.4607 104.784 44.5887C103.536 44.8447 102.48 45.3247 101.616 46.0287C100.784 46.7007 100.16 47.5807 99.744 48.6687C99.36 49.7567 99.168 51.0687 99.168 52.6047V64.7967H94.224ZM122.96 65.4207C120.752 65.4207 118.736 64.9247 116.912 63.9327C115.12 62.9087 113.696 61.4527 112.64 59.5647C111.616 57.6767 111.104 55.4047 111.104 52.7487C111.104 50.7007 111.408 48.9087 112.016 47.3727C112.624 45.8047 113.456 44.4767 114.512 43.3887C115.6 42.3007 116.848 41.4847 118.256 40.9407C119.696 40.3647 121.216 40.0767 122.816 40.0767C124.928 40.0767 126.816 40.5407 128.48 41.4687C130.176 42.3647 131.504 43.7407 132.464 45.5967C133.424 47.4207 133.904 49.7087 133.904 52.4607V53.8527H115.328V50.2527H128.864C128.864 49.8047 128.736 49.2447 128.48 48.5727C128.256 47.9007 127.904 47.2607 127.424 46.6527C126.944 46.0127 126.32 45.4847 125.552 45.0687C124.816 44.6527 123.936 44.4447 122.912 44.4447C121.312 44.4447 120 44.7967 118.976 45.5007C117.952 46.1727 117.2 47.1327 116.72 48.3807C116.24 49.6287 116 51.1167 116 52.8447C116 54.3487 116.208 55.7247 116.624 56.9727C117.072 58.2207 117.808 59.2127 118.832 59.9487C119.856 60.6847 121.28 61.0527 123.104 61.0527C123.872 61.0527 124.64 60.9087 125.408 60.6207C126.176 60.3007 126.864 59.8527 127.472 59.2767C128.112 58.7007 128.576 58.0127 128.864 57.2127L133.616 58.2687C133.104 59.7407 132.352 61.0207 131.36 62.1087C130.368 63.1647 129.168 63.9807 127.76 64.5567C126.352 65.1327 124.752 65.4207 122.96 65.4207ZM139.684 64.7967V31.1967H144.628V44.9247C144.756 44.4447 145.012 43.9327 145.396 43.3887C145.78 42.8127 146.276 42.2847 146.884 41.8047C147.524 41.2927 148.292 40.8767 149.188 40.5567C150.084 40.2367 151.108 40.0767 152.26 40.0767C154.02 40.0767 155.524 40.4447 156.772 41.1807C158.02 41.9167 158.98 42.9727 159.652 44.3487C160.356 45.6927 160.708 47.3247 160.708 49.2447V64.7967H155.764V49.9647C155.764 47.9807 155.316 46.5407 154.42 45.6447C153.556 44.7487 152.356 44.3007 150.82 44.3007C149.412 44.3007 148.244 44.6367 147.316 45.3087C146.388 45.9807 145.7 46.9247 145.252 48.1407C144.836 49.3247 144.628 50.7167 144.628 52.3167V64.7967H139.684ZM177.335 65.4207C175.127 65.4207 173.111 64.9247 171.287 63.9327C169.495 62.9087 168.071 61.4527 167.015 59.5647C165.991 57.6767 165.479 55.4047 165.479 52.7487C165.479 50.7007 165.783 48.9087 166.391 47.3727C166.999 45.8047 167.831 44.4767 168.887 43.3887C169.975 42.3007 171.223 41.4847 172.631 40.9407C174.071 40.3647 175.591 40.0767 177.191 40.0767C179.303 40.0767 181.191 40.5407 182.855 41.4687C184.551 42.3647 185.879 43.7407 186.839 45.5967C187.799 47.4207 188.279 49.7087 188.279 52.4607V53.8527H169.703V50.2527H183.239C183.239 49.8047 183.111 49.2447 182.855 48.5727C182.631 47.9007 182.279 47.2607 181.799 46.6527C181.319 46.0127 180.695 45.4847 179.927 45.0687C179.191 44.6527 178.311 44.4447 177.287 44.4447C175.687 44.4447 174.375 44.7967 173.351 45.5007C172.327 46.1727 171.575 47.1327 171.095 48.3807C170.615 49.6287 170.375 51.1167 170.375 52.8447C170.375 54.3487 170.583 55.7247 170.999 56.9727C171.447 58.2207 172.183 59.2127 173.207 59.9487C174.231 60.6847 175.655 61.0527 177.479 61.0527C178.247 61.0527 179.015 60.9087 179.783 60.6207C180.551 60.3007 181.239 59.8527 181.847 59.2767C182.487 58.7007 182.951 58.0127 183.239 57.2127L187.991 58.2687C187.479 59.7407 186.727 61.0207 185.735 62.1087C184.743 63.1647 183.543 63.9807 182.135 64.5567C180.727 65.1327 179.127 65.4207 177.335 65.4207ZM203.363 65.3727C201.219 65.3727 199.363 64.8767 197.795 63.8847C196.227 62.8607 195.011 61.4047 194.147 59.5167C193.315 57.6287 192.899 55.3727 192.899 52.7487C192.899 50.0287 193.331 47.7407 194.195 45.8847C195.091 43.9967 196.339 42.5567 197.939 41.5647C199.571 40.5727 201.459 40.0767 203.603 40.0767C205.011 40.0767 206.211 40.3327 207.203 40.8447C208.227 41.3567 209.075 42.0127 209.747 42.8127C210.419 43.5807 210.915 44.4127 211.235 45.3087V40.6527H216.179V64.7967H211.235V60.3807C210.883 61.4047 210.307 62.3007 209.507 63.0687C208.739 63.8047 207.827 64.3807 206.771 64.7967C205.747 65.1807 204.611 65.3727 203.363 65.3727ZM204.611 61.1967C205.987 61.1967 207.171 60.8287 208.163 60.0927C209.155 59.3247 209.907 58.3167 210.419 57.0687C210.963 55.7887 211.235 54.3487 211.235 52.7487C211.235 51.1167 210.963 49.6607 210.419 48.3807C209.907 47.1007 209.139 46.0927 208.115 45.3567C207.123 44.6207 205.923 44.2527 204.515 44.2527C203.075 44.2527 201.859 44.6367 200.867 45.4047C199.907 46.1407 199.171 47.1487 198.659 48.4287C198.179 49.6767 197.939 51.1007 197.939 52.7007C197.939 54.3007 198.179 55.7567 198.659 57.0687C199.171 58.3487 199.923 59.3567 200.915 60.0927C201.907 60.8287 203.139 61.1967 204.611 61.1967ZM224.021 64.7967V40.6527H228.965V45.1647C229.221 44.5247 229.541 43.9167 229.925 43.3407C230.309 42.7327 230.789 42.1887 231.365 41.7087C231.973 41.1967 232.677 40.7967 233.477 40.5087C234.309 40.2207 235.269 40.0767 236.357 40.0767C236.613 40.0767 236.965 40.0927 237.413 40.1247C237.861 40.1567 238.197 40.2047 238.421 40.2687V44.8767C237.941 44.7167 237.333 44.6047 236.597 44.5407C235.861 44.4447 235.189 44.4607 234.581 44.5887C233.333 44.8447 232.277 45.3247 231.413 46.0287C230.581 46.7007 229.957 47.5807 229.541 48.6687C229.157 49.7567 228.965 51.0687 228.965 52.6047V64.7967H224.021ZM251.823 65.3727C249.839 65.3727 248.047 65.0047 246.447 64.2687C244.847 63.5327 243.583 62.5247 242.655 61.2447C241.759 59.9647 241.311 58.5407 241.311 56.9727L246.351 57.0207C246.351 57.9167 246.623 58.6847 247.167 59.3247C247.711 59.9327 248.399 60.3807 249.231 60.6687C250.095 60.9567 251.023 61.1007 252.015 61.1007C253.647 61.1007 254.927 60.8447 255.855 60.3327C256.815 59.8207 257.295 59.0207 257.295 57.9327C257.295 57.1007 256.927 56.4927 256.191 56.1087C255.455 55.6927 254.495 55.3727 253.311 55.1487C252.159 54.9247 250.927 54.7007 249.615 54.4767C248.335 54.2527 247.103 53.9167 245.919 53.4687C244.767 52.9887 243.823 52.2847 243.087 51.3567C242.351 50.4287 241.983 49.1807 241.983 47.6127C241.983 46.3327 242.319 45.1327 242.991 44.0127C243.663 42.8607 244.703 41.9167 246.111 41.1807C247.519 40.4447 249.327 40.0767 251.535 40.0767C253.423 40.0767 255.007 40.3167 256.287 40.7967C257.599 41.2447 258.639 41.8367 259.407 42.5727C260.207 43.3087 260.783 44.1087 261.135 44.9727C261.487 45.8367 261.663 46.6527 261.663 47.4207H256.719C256.719 46.6527 256.271 45.9487 255.375 45.3087C254.511 44.6687 253.215 44.3487 251.487 44.3487C249.855 44.3487 248.671 44.6207 247.935 45.1647C247.231 45.7087 246.879 46.4287 246.879 47.3247C246.879 48.0287 247.151 48.5727 247.695 48.9567C248.271 49.3407 249.007 49.6447 249.903 49.8687C250.799 50.0927 251.791 50.3007 252.879 50.4927C253.999 50.6847 255.103 50.9247 256.191 51.2127C257.279 51.5007 258.271 51.9007 259.167 52.4127C260.063 52.9247 260.783 53.6127 261.327 54.4767C261.903 55.3087 262.191 56.3807 262.191 57.6927C262.191 59.1327 261.823 60.4287 261.087 61.5807C260.383 62.7327 259.263 63.6607 257.727 64.3647C256.191 65.0367 254.223 65.3727 251.823 65.3727ZM278.163 65.4207C275.955 65.4207 273.939 64.9247 272.115 63.9327C270.323 62.9087 268.899 61.4527 267.843 59.5647C266.819 57.6767 266.307 55.4047 266.307 52.7487C266.307 50.7007 266.611 48.9087 267.219 47.3727C267.827 45.8047 268.659 44.4767 269.715 43.3887C270.803 42.3007 272.051 41.4847 273.459 40.9407C274.899 40.3647 276.419 40.0767 278.019 40.0767C280.131 40.0767 282.019 40.5407 283.683 41.4687C285.379 42.3647 286.707 43.7407 287.667 45.5967C288.627 47.4207 289.107 49.7087 289.107 52.4607V53.8527H270.531V50.2527H284.067C284.067 49.8047 283.939 49.2447 283.683 48.5727C283.459 47.9007 283.107 47.2607 282.627 46.6527C282.147 46.0127 281.523 45.4847 280.755 45.0687C280.019 44.6527 279.139 44.4447 278.115 44.4447C276.515 44.4447 275.203 44.7967 274.179 45.5007C273.155 46.1727 272.403 47.1327 271.923 48.3807C271.443 49.6287 271.203 51.1167 271.203 52.8447C271.203 54.3487 271.411 55.7247 271.827 56.9727C272.275 58.2207 273.011 59.2127 274.035 59.9487C275.059 60.6847 276.483 61.0527 278.307 61.0527C279.075 61.0527 279.843 60.9087 280.611 60.6207C281.379 60.3007 282.067 59.8527 282.675 59.2767C283.315 58.7007 283.779 58.0127 284.067 57.2127L288.819 58.2687C288.307 59.7407 287.555 61.0207 286.563 62.1087C285.571 63.1647 284.371 63.9807 282.963 64.5567C281.555 65.1327 279.955 65.4207 278.163 65.4207Z" fill="white"/>
<circle cx="300.5" cy="62.2967" r="4.5" fill="#D69E2E"/>
<defs>
<filter id="filter0_d_4_24" x="57.7309" y="0" width="40.5383" height="32.7967" filterUnits="userSpaceOnUse" color-interpolation-filters="sRGB">
<feFlood flood-opacity="0" result="BackgroundImageFix"/>
<feColorMatrix in="SourceAlpha" type="matrix" values="0 0 0 0 0 0 0 0 0 0 0 0 0 0 0 0 0 0 127 0" result="hardAlpha"/>
<feOffset dx="4" dy="-4"/>
<feGaussianBlur stdDeviation="2"/>
<feComposite in2="hardAlpha" operator="out"/>
<feColorMatrix type="matrix" values="0 0 0 0 0 0 0 0 0 0 0 0 0 0 0 0 0 0 0.5 0"/>
<feBlend mode="normal" in2="BackgroundImageFix" result="effect1_dropShadow_4_24"/>
<feBlend mode="normal" in="SourceGraphic" in2="effect1_dropShadow_4_24" result="shape"/>
</filter>
<linearGradient id="paint0_linear_4_24" x1="78" y1="60.7967" x2="45" y2="20.7967" gradientUnits="userSpaceOnUse">
<stop stop-color="#3996B8"/>
<stop offset="1" stop-color="#2B657A"/>
</linearGradient>
</defs>
</svg>
