<svg width="320" height="100" viewBox="0 0 320 100" fill="none" xmlns="http://www.w3.org/2000/svg">
<circle cx="47" cy="52" r="33" fill="white"/>
<path d="M77.8793 26.7805C80.9295 24.2893 81.4141 19.748 78.4906 17.1094C71.8328 11.1004 63.5528 7.08647 54.6048 5.61932C43.2968 3.76522 31.7011 6.10611 21.998 12.2018C12.2949 18.2975 5.15297 27.728 1.91521 38.72C-1.32256 49.712 -0.433092 61.5082 4.41634 71.8904C9.26577 82.2726 17.7411 90.5256 28.2485 95.0973C38.756 99.6691 50.5716 100.245 61.4737 96.7159C72.3758 93.1871 81.6131 85.7971 87.4487 75.9354C92.0665 68.1318 94.3025 59.206 93.9673 50.2438C93.8202 46.3083 90.0265 43.7653 86.1585 44.5056V44.5056C82.2905 45.2458 79.8381 49.0034 79.725 52.94C79.5667 58.4468 78.0197 63.8653 75.175 68.6725C71.1102 75.5418 64.6758 80.6894 57.0818 83.1474C49.4879 85.6054 41.2575 85.2045 33.9384 82.02C26.6194 78.8354 20.7158 73.0868 17.3379 65.8549C13.9599 58.6231 13.3404 50.4063 15.5957 42.7497C17.851 35.093 22.8258 28.5241 29.5846 24.2781C36.3434 20.0321 44.4205 18.4015 52.2972 19.693C57.8094 20.5968 62.9576 22.888 67.2821 26.3009C70.3736 28.7406 74.8291 29.2716 77.8793 26.7805V26.7805Z" fill="#3996B8"/>
<path d="M69.7357 88.7677C69.6186 91.0673 67.6775 92.361 66.2346 91.1012L46.2469 73.6508C44.3198 71.9683 45.34 67.9612 47.6489 68.1441L68.4413 69.7908C69.6848 69.8893 70.6247 71.31 70.5404 72.9641L69.7357 88.7677Z" fill="white"/>
<path d="M117.695 42.4404C117.695 42.3753 118.086 41.9928 118.867 41.293C119.648 40.5931 120.552 39.9583 121.577 39.3887C122.619 38.8027 123.644 38.5098 124.653 38.5098C125.451 38.5098 126.2 38.5749 126.899 38.7051C127.599 38.8353 128.145 38.9736 128.535 39.1201C128.942 39.2666 129.194 39.3561 129.292 39.3887L128.901 49.0078H124.409L123.652 44.7598C122.79 44.7598 121.952 44.9714 121.138 45.3945C120.34 45.8014 119.657 46.2572 119.087 46.7617C118.534 47.25 118.257 47.5104 118.257 47.543V60.751L123.262 61.9961V66H106.758V61.9961L110.762 60.751V44.4912L106.758 43.2461V39.2422L117.256 38.998L117.695 42.4404ZM138.106 54.1592C138.237 56.1611 138.839 57.7236 139.913 58.8467C141.004 59.9535 142.42 60.5068 144.161 60.5068C145.398 60.5068 146.635 60.3359 147.872 59.9941C149.125 59.6361 150.159 59.278 150.973 58.9199C151.803 58.5456 152.332 58.2852 152.56 58.1387L154.708 62.2891C154.708 62.3542 154.122 62.7692 152.95 63.5342C151.795 64.2829 150.37 64.9665 148.678 65.585C147.001 66.1872 145.211 66.4883 143.307 66.4883C139.075 66.4883 135.852 65.3164 133.639 62.9727C131.425 60.6289 130.318 57.3086 130.318 53.0117C130.318 50.1146 130.847 47.5755 131.905 45.3945C132.98 43.1973 134.518 41.5046 136.52 40.3164C138.522 39.112 140.898 38.5098 143.648 38.5098C147.311 38.5098 150.118 39.5596 152.071 41.6592C154.024 43.7588 155.001 46.6234 155.001 50.2529C155.001 51.0505 154.96 51.8236 154.879 52.5723C154.798 53.321 154.741 53.793 154.708 53.9883L138.106 54.1592ZM143.16 44.4912C141.793 44.4912 140.678 44.9551 139.815 45.8828C138.953 46.7943 138.416 47.9987 138.204 49.4961H147.262C147.262 47.9987 146.928 46.7943 146.261 45.8828C145.593 44.9551 144.56 44.4912 143.16 44.4912ZM168.283 41.9033C169.309 41.0407 170.554 40.2594 172.019 39.5596C173.5 38.8597 175.054 38.5098 176.682 38.5098C179.221 38.5098 181.166 39.2992 182.517 40.8779C183.868 42.4567 184.543 44.6621 184.543 47.4941V60.751L188.034 61.9961V66H174.436V61.9961L177.023 60.7998V48.6904C177.023 46.0212 175.925 44.6947 173.728 44.7109C172.897 44.7109 172.084 44.9144 171.286 45.3213C170.489 45.7119 169.821 46.1188 169.284 46.542C168.747 46.9489 168.413 47.2174 168.283 47.3477V60.751L170.944 61.9961V66H156.784V61.9961L160.788 60.751V32.6504L156.784 31.6494V27.6455L168.283 27.2549V41.9033ZM197.825 54.1592C197.955 56.1611 198.558 57.7236 199.632 58.8467C200.722 59.9535 202.138 60.5068 203.88 60.5068C205.117 60.5068 206.354 60.3359 207.591 59.9941C208.844 59.6361 209.878 59.278 210.691 58.9199C211.522 58.5456 212.05 58.2852 212.278 58.1387L214.427 62.2891C214.427 62.3542 213.841 62.7692 212.669 63.5342C211.513 64.2829 210.089 64.9665 208.397 65.585C206.72 66.1872 204.93 66.4883 203.025 66.4883C198.794 66.4883 195.571 65.3164 193.357 62.9727C191.144 60.6289 190.037 57.3086 190.037 53.0117C190.037 50.1146 190.566 47.5755 191.624 45.3945C192.698 43.1973 194.236 41.5046 196.238 40.3164C198.24 39.112 200.617 38.5098 203.367 38.5098C207.029 38.5098 209.837 39.5596 211.79 41.6592C213.743 43.7588 214.72 46.6234 214.72 50.2529C214.72 51.0505 214.679 51.8236 214.598 52.5723C214.516 53.321 214.459 53.793 214.427 53.9883L197.825 54.1592ZM202.879 44.4912C201.512 44.4912 200.397 44.9551 199.534 45.8828C198.672 46.7943 198.134 47.9987 197.923 49.4961H206.981C206.981 47.9987 206.647 46.7943 205.98 45.8828C205.312 44.9551 204.279 44.4912 202.879 44.4912ZM233.397 62.7529C233.397 62.818 232.966 63.1842 232.104 63.8516C231.241 64.5189 230.207 65.1292 229.003 65.6826C227.799 66.2197 226.562 66.4883 225.292 66.4883C222.851 66.4883 220.938 65.8128 219.555 64.4619C218.188 63.0947 217.504 61.1579 217.504 58.6514C217.504 55.7868 218.529 53.6953 220.58 52.377C222.631 51.0586 225.618 50.3994 229.54 50.3994H233.056V47.6406C233.056 45.1992 231.77 43.9867 229.198 44.0029C228.433 44.0029 227.725 44.0599 227.074 44.1738C226.423 44.2878 225.902 44.4098 225.512 44.54C225.137 44.654 224.901 44.7272 224.804 44.7598L224.047 47.9092H219.555L219.213 40.5117C219.506 40.4141 220.222 40.2025 221.361 39.877C222.517 39.5514 223.892 39.2422 225.487 38.9492C227.099 38.6562 228.62 38.5098 230.053 38.5098C232.624 38.5098 234.667 38.8353 236.181 39.4863C237.694 40.1211 238.801 41.1628 239.501 42.6113C240.201 44.0436 240.551 45.9723 240.551 48.3975V60.751L244.311 61.6543V65.6582L234.301 66L233.397 62.7529ZM224.755 57.8945C224.755 58.8711 225.007 59.6198 225.512 60.1406C226.033 60.6452 226.765 60.8975 227.709 60.8975C228.507 60.8975 229.296 60.6859 230.077 60.2627C230.858 59.8232 231.518 59.3757 232.055 58.9199C232.592 58.4479 232.925 58.1387 233.056 57.9922V54.6475H230.199C228.262 54.6475 226.871 54.9079 226.024 55.4287C225.178 55.9495 224.755 56.7715 224.755 57.8945ZM257.227 42.4404C257.227 42.3753 257.617 41.9928 258.398 41.293C259.18 40.5931 260.083 39.9583 261.108 39.3887C262.15 38.8027 263.175 38.5098 264.185 38.5098C264.982 38.5098 265.731 38.5749 266.431 38.7051C267.131 38.8353 267.676 38.9736 268.066 39.1201C268.473 39.2666 268.726 39.3561 268.823 39.3887L268.433 49.0078H263.94L263.184 44.7598C262.321 44.7598 261.483 44.9714 260.669 45.3945C259.871 45.8014 259.188 46.2572 258.618 46.7617C258.065 47.25 257.788 47.5104 257.788 47.543V60.751L262.793 61.9961V66H246.289V61.9961L250.293 60.751V44.4912L246.289 43.2461V39.2422L256.787 38.998L257.227 42.4404ZM274.903 60.5068C274.903 60.5394 275.343 60.6289 276.222 60.7754C277.101 60.9219 278.061 60.9951 279.103 60.9951C281.837 60.9951 283.196 60.1813 283.18 58.5537C283.18 57.8213 282.797 57.2272 282.032 56.7715C281.267 56.3158 280.055 55.8112 278.395 55.2578C276.62 54.6556 275.164 54.0697 274.024 53.5C272.901 52.9303 271.925 52.1247 271.095 51.083C270.265 50.0251 269.85 48.6823 269.85 47.0547C269.85 44.125 270.826 41.9684 272.779 40.585C274.749 39.2015 277.206 38.5098 280.152 38.5098C281.487 38.5098 282.838 38.6156 284.205 38.8271C285.589 39.0387 286.744 39.2747 287.672 39.5352C288.616 39.7793 289.202 39.9339 289.43 39.999L289.234 47.4941H284.986L284.254 44.4912C284.254 44.4587 283.88 44.3691 283.131 44.2227C282.398 44.0762 281.617 44.0029 280.787 44.0029C279.68 44.0029 278.826 44.2227 278.224 44.6621C277.638 45.0853 277.345 45.7119 277.345 46.542C277.345 47.2744 277.727 47.8604 278.492 48.2998C279.257 48.7393 280.47 49.2031 282.13 49.6914C283.904 50.2611 285.361 50.8063 286.5 51.3271C287.656 51.848 288.64 52.613 289.454 53.6221C290.284 54.6149 290.699 55.9089 290.699 57.5039C290.699 60.3359 289.658 62.5413 287.574 64.1201C285.491 65.6989 282.7 66.4883 279.2 66.4883C277.8 66.4883 276.417 66.4069 275.05 66.2441C273.683 66.0814 272.551 65.9186 271.656 65.7559C270.777 65.5931 270.224 65.471 269.996 65.3896V57.2598H274.488L274.903 60.5068ZM301.003 54.1592C301.133 56.1611 301.735 57.7236 302.81 58.8467C303.9 59.9535 305.316 60.5068 307.058 60.5068C308.295 60.5068 309.532 60.3359 310.769 59.9941C312.022 59.6361 313.055 59.278 313.869 58.9199C314.699 58.5456 315.228 58.2852 315.456 58.1387L317.605 62.2891C317.605 62.3542 317.019 62.7692 315.847 63.5342C314.691 64.2829 313.267 64.9665 311.574 65.585C309.898 66.1872 308.107 66.4883 306.203 66.4883C301.971 66.4883 298.749 65.3164 296.535 62.9727C294.322 60.6289 293.215 57.3086 293.215 53.0117C293.215 50.1146 293.744 47.5755 294.802 45.3945C295.876 43.1973 297.414 41.5046 299.416 40.3164C301.418 39.112 303.794 38.5098 306.545 38.5098C310.207 38.5098 313.015 39.5596 314.968 41.6592C316.921 43.7588 317.897 46.6234 317.897 50.2529C317.897 51.0505 317.857 51.8236 317.775 52.5723C317.694 53.321 317.637 53.793 317.605 53.9883L301.003 54.1592ZM306.057 44.4912C304.689 44.4912 303.575 44.9551 302.712 45.8828C301.849 46.7943 301.312 47.9987 301.101 49.4961H310.158C310.158 47.9987 309.825 46.7943 309.157 45.8828C308.49 44.9551 307.456 44.4912 306.057 44.4912Z" fill="white"/>
<path d="M26 52C26 50.3431 27.6599 49 29.7073 49H60.2927C62.3402 49 64 50.3431 64 52C64 53.6569 62.3402 55 60.2927 55H29.7074C27.6599 55 26 53.6569 26 52Z" fill="#D69E2E"/>
<path d="M26 40C26 38.3431 27.6599 37 29.7073 37H60.2927C62.3402 37 64 38.3431 64 40C64 41.6569 62.3402 43 60.2927 43H29.7074C27.6599 43 26 41.6569 26 40Z" fill="#D69E2E"/>
<path d="M26 64C26 62.3431 27.6824 61 29.7576 61H53.2425C55.3177 61 57 62.3431 57 64C57 65.6569 55.3177 67 53.2425 67H29.7576C27.6824 67 26 65.6569 26 64Z" fill="#D69E2E"/>
<path d="M85.3248 38.9115C86.1252 37.926 87.6294 37.926 88.4297 38.9115L99.4569 52.4891C100.519 53.7962 99.5883 55.75 97.9044 55.75H75.8501C74.1662 55.75 73.236 53.7962 74.2976 52.4891L85.3248 38.9115Z" fill="#3996B8"/>
</svg>
