<svg width="100" height="100" viewBox="0 0 100 100" fill="none" xmlns="http://www.w3.org/2000/svg">
<circle cx="47" cy="52" r="33" fill="white"/>
<path d="M77.8793 26.7805C80.9295 24.2893 81.4141 19.748 78.4906 17.1094C71.8328 11.1004 63.5528 7.08647 54.6048 5.61932C43.2968 3.76522 31.7011 6.10611 21.998 12.2018C12.2949 18.2975 5.15297 27.728 1.91521 38.72C-1.32256 49.712 -0.433092 61.5082 4.41634 71.8904C9.26577 82.2726 17.7411 90.5256 28.2485 95.0973C38.756 99.6691 50.5716 100.245 61.4737 96.7159C72.3758 93.1871 81.6131 85.7971 87.4487 75.9354C92.0665 68.1318 94.3025 59.206 93.9673 50.2438C93.8202 46.3083 90.0265 43.7653 86.1585 44.5056V44.5056C82.2905 45.2458 79.8381 49.0034 79.725 52.94C79.5667 58.4468 78.0197 63.8653 75.175 68.6725C71.1102 75.5418 64.6758 80.6894 57.0818 83.1474C49.4879 85.6054 41.2575 85.2045 33.9384 82.02C26.6194 78.8354 20.7158 73.0868 17.3379 65.8549C13.9599 58.6231 13.3404 50.4063 15.5957 42.7497C17.851 35.093 22.8258 28.5241 29.5846 24.2781C36.3434 20.0321 44.4205 18.4015 52.2972 19.693C57.8094 20.5968 62.9576 22.888 67.2821 26.3009C70.3736 28.7406 74.8291 29.2716 77.8793 26.7805V26.7805Z" fill="#3996B8"/>
<path d="M69.7357 88.7677C69.6186 91.0673 67.6775 92.361 66.2346 91.1012L46.2469 73.6508C44.3198 71.9683 45.34 67.9612 47.6489 68.1441L68.4413 69.7908C69.6848 69.8893 70.6247 71.31 70.5404 72.9641L69.7357 88.7677Z" fill="white"/>
<path d="M26 52C26 50.3431 27.6599 49 29.7073 49H60.2927C62.3402 49 64 50.3431 64 52C64 53.6569 62.3402 55 60.2927 55H29.7074C27.6599 55 26 53.6569 26 52Z" fill="#D69E2E"/>
<path d="M26 40C26 38.3431 27.6599 37 29.7073 37H60.2927C62.3402 37 64 38.3431 64 40C64 41.6569 62.3402 43 60.2927 43H29.7074C27.6599 43 26 41.6569 26 40Z" fill="#D69E2E"/>
<path d="M26 64C26 62.3431 27.6824 61 29.7576 61H53.2425C55.3177 61 57 62.3431 57 64C57 65.6569 55.3177 67 53.2425 67H29.7576C27.6824 67 26 65.6569 26 64Z" fill="#D69E2E"/>
<path d="M85.3248 38.9115C86.1252 37.926 87.6294 37.926 88.4297 38.9115L99.4569 52.4891C100.519 53.7962 99.5883 55.75 97.9044 55.75H75.8501C74.1662 55.75 73.236 53.7962 74.2976 52.4891L85.3248 38.9115Z" fill="#3996B8"/>
</svg>
